<?xml version="1.0" encoding="UTF-8"?>
<!DOCTYPE svg PUBLIC "-//W3C//DTD SVG 1.1//EN" "http://www.w3.org/Graphics/SVG/1.1/DTD/svg11.dtd">
<!-- Creator: CorelDRAW X7 -->
<svg xmlns="http://www.w3.org/2000/svg" xml:space="preserve" width="800px" height="600px" version="1.1" shape-rendering="geometricPrecision" text-rendering="geometricPrecision" image-rendering="optimizeQuality" fill-rule="evenodd" clip-rule="evenodd"
viewBox="0 0 800 600"
 xmlns:xlink="http://www.w3.org/1999/xlink">
 <g id="base">
  <metadata id="CorelCorpID_0Corel-Layer"/>
  <polygon fill="gray" stroke="#999999" stroke-width="0.499607" points="111,90 753,240 688,510 47,360 "/>
  <polygon fill="#E6E6E6" stroke="gray" stroke-width="0.499607" points="116,99 743,245 683,500 57,354 "/>
 </g>
 <g id="landmarks-mz13">
  <metadata id="CorelCorpID_1Corel-Layer"/>
  <polygon id="m13lote18" fill="lime" points="554,207 613,220 586,341 526,327 "/>
  <polygon id="m13lote17" fill="lime" points="493,192 551,206 523,327 464,313 "/>
  <polygon id="m13lote16" fill="lime" points="489,192 430,178 402,299 461,312 "/>
  <polygon id="m13lote15" fill="lime" points="368,164 427,177 399,298 340,285 "/>
  <polygon id="m13lote14" fill="lime" points="365,163 306,149 278,270 337,283 "/>
  <polygon id="m13lote13" fill="lime" points="303,148 244,135 216,255 275,269 "/>
  <polygon id="m13lote12" fill="lime" points="241,133 182,120 154,241 213,255 "/>
  <polygon id="m13lote11" fill="lime" points="179,119 120,105 92,226 151,241 "/>
  <polygon id="m13lote10" fill="lime" points="150,243 91,230 63,351 122,364 "/>
  <polygon id="m13lote9" fill="lime" points="212,257 153,244 125,365 184,378 "/>
  <path id="m13lote8" fill="lime" d="M274 272l-59 -13 -28 120 59 14c0,0 28,-121 28,-121z"/>
  <polygon id="m13lote7" fill="lime" points="336,287 277,273 249,394 308,408 "/>
  <polygon id="m13lote6" fill="lime" points="398,301 339,287 311,408 370,422 "/>
  <polygon id="m13lote5" fill="lime" points="460,316 401,302 373,422 432,437 "/>
  <polygon id="m13lote4" fill="lime" points="523,330 463,317 435,437 494,451 "/>
  <polygon id="m13lote3" fill="lime" points="584,345 526,331 497,452 556,466 "/>
  <polygon id="m13lote2" fill="lime" points="646,360 588,346 559,467 618,480 "/>
  <polygon id="m13lote1" fill="lime" points="650,360 708,373 680,495 621,481 "/>
  <polygon id="m13lote20" fill="lime" points="678,236 737,250 709,370 650,356 "/>
  <polygon id="m13lote19" fill="lime" points="676,236 615,222 588,342 647,356 "/>
 </g>
</svg>
