<?xml version="1.0" encoding="utf-8"?>
<!-- Generator: Adobe Illustrator 19.0.0, SVG Export Plug-In . SVG Version: 6.00 Build 0)  -->
<svg version="1.1" xmlns="http://www.w3.org/2000/svg" xmlns:xlink="http://www.w3.org/1999/xlink" x="0px" y="0px" width="800px"
	 height="600px" viewBox="0 0 800 600" style="enable-background:new 0 0 800 600;" xml:space="preserve">
<style type="text/css">
	.st0{fill:#DDD9C2;stroke:#DDD9C2;stroke-width:0.25;stroke-miterlimit:10;}
	.st1{fill:#696A6A;stroke:#696A6A;stroke-width:0.25;stroke-miterlimit:10;}
	.st2{fill:#00EAA7;}
	.st3{font-family:'MyriadPro-Regular';}
	.st4{font-size:32.6631px;}
	.st5{font-size:47.4895px;}
</style>
<g id="base">
	<polygon id="XMLID_1_" class="st0" points="126.6,75.19 747.23,225.15 684.94,482.41 64.3,339.36 	"/>
	<polygon id="XMLID_6_" class="st1" points="667.92,490.19 684.94,482.41 64.3,339.36 52.77,347.44 	"/>
	<polygon id="XMLID_7_" class="st1" points="115.06,75.19 52.77,347.44 64.3,339.36 126.6,75.19 	"/>
</g>
<g id="landmark-manzana11">
	<polygon id="lote1_2_" class="st2" points="602.79,263.73 721.57,291.49 708.81,349.63 589.77,322.06 	"/>
	<polygon id="lote2_2_" class="st2" points="603.61,260.55 723.3,288.81 736.27,230.84 616.93,202.61 	"/>
	<polygon id="lote3_2_" class="st2" points="555.74,188.24 613.99,201.22 587.17,320.61 527.76,307.92 	"/>
	<polygon id="lote4_2_" class="st2" points="552.98,187.56 494.59,173.82 466.91,293.64 525.19,307.1 	"/>
	<polygon id="lote5_2_" class="st2" points="432.88,159.11 491.71,173.09 463.46,292.71 405.4,279.28 	"/>
	<polygon id="lote6_2_" class="st2" points="429.99,158.6 371.61,145 343.76,264.65 402.19,278.48 	"/>
	<polygon id="lote7_2_" class="st2" points="368.92,144.59 310.45,130.92 282.91,250.61 341.23,263.89 	"/>
	<polygon id="lote8_2_" class="st2" points="307.17,130.34 249.08,116.55 221.48,236.28 279.59,249.38 	"/>
	<polygon id="lote9_2_" class="st2" points="246.04,115.85 187.58,102.25 160.05,222.36 218.6,235.26 	"/>
	<polygon id="lote10_2_" class="st2" points="184.81,101.52 126.6,88 98.62,207.54 156.9,220.68 	"/>
	<polygon id="lote11_2_" class="st2" points="156.31,223.82 98.08,210.63 69.91,330.66 128.46,344.02 	"/>
	<polygon id="lote12_2_" class="st2" points="217.2,238.38 159.51,224.69 131.55,344.75 189.69,357.8 	"/>
	<polygon id="lote13_2_" class="st2" points="220.47,239.46 278.58,252.55 250.68,372.43 193.22,358.75 	"/>
	<polygon id="lote14_2_" class="st2" points="281.71,253.55 340.88,266.97 312.16,386.47 253.97,373.33 	"/>
	<polygon id="lote15_2_" class="st2" points="374.05,400.85 401.73,281.15 343.16,267.55 315.5,387.45 	"/>
	<polygon id="lote16_2_" class="st2" points="462.87,295.81 404.61,282.24 376.93,401.34 434.96,415.24 	"/>
	<polygon id="lote17_2_" class="st2" points="466.12,296.68 524.01,309.94 495.98,429.25 437.89,416.11 	"/>
	<polygon id="lote18_2_" class="st2" points="527.09,310.63 585.73,323.79 557.48,444.04 499.68,430.37 	"/>
	<polygon id="lote19_2_" class="st2" points="574.51,386.21 693.88,413.83 680.66,472.1 560.81,444.45 	"/>
	<polygon id="lote20_2_" class="st2" points="588.76,324.72 708.15,352.19 694.6,410.94 575.35,383.12 	"/>
</g>
<g id="nopointer-labels">
	<text id="XMLID_5_" transform="matrix(1 0 0 1 636.7723 315.0439)" class="st3 st4">L1</text>
	<text id="XMLID_8_" transform="matrix(1 0 0 1 647.1484 254.4228)" class="st3 st4">L2</text>
	<text id="XMLID_9_" transform="matrix(1 0 0 1 552.9822 267.5448)" class="st3 st4">L3</text>
	<text id="XMLID_10_" transform="matrix(1 0 0 1 491.7116 253.5399)" class="st3 st4">L4</text>
	<text id="XMLID_11_" transform="matrix(1 0 0 1 433.7449 235.2528)" class="st3 st4">L5</text>
	<text id="XMLID_12_" transform="matrix(1 0 0 1 368.9189 224.6874)" class="st3 st4">L6</text>
	<text id="XMLID_13_" transform="matrix(1 0 0 1 307.1762 206.9355)" class="st3 st4">L7</text>
	<text id="XMLID_14_" transform="matrix(1 0 0 1 246.0427 192.2245)" class="st3 st4">L8</text>
	<text id="XMLID_15_" transform="matrix(1 0 0 1 188.9407 182.9638)" class="st3 st4">L9</text>
	<text id="XMLID_16_" transform="matrix(1 0 0 1 117.0824 159.1055)" class="st3 st4">L10</text>
	<text id="XMLID_17_" transform="matrix(1 0 0 1 89.6886 282.2332)" class="st3 st4">L11</text>
	<text id="XMLID_18_" transform="matrix(1 0 0 1 151.9774 296.6718)" class="st3 st4">L12</text>
	<text id="XMLID_19_" transform="matrix(1 0 0 1 211.6768 310.6247)" class="st3 st4">L13</text>
	<text id="XMLID_20_" transform="matrix(1 0 0 1 273.9724 324.7089)" class="st3 st4">L14</text>
	<text id="XMLID_21_" transform="matrix(1 0 0 1 336.268 339.3522)" class="st3 st4">L15</text>
	<text id="XMLID_22_" transform="matrix(1 0 0 1 393.3698 353.948)" class="st3 st4">L16</text>
	<text id="XMLID_23_" transform="matrix(1 0 0 1 458.2567 372.4363)" class="st3 st4">L17</text>
	<text id="XMLID_24_" transform="matrix(1 0 0 1 519.6865 381.0879)" class="st3 st4">L18</text>
	<text id="XMLID_25_" transform="matrix(1 0 0 1 600.151 437.3289)" class="st3 st4">L19</text>
	<text id="XMLID_26_" transform="matrix(1 0 0 1 613.997 377.3406)" class="st3 st4">L20</text>
	<text id="XMLID_27_" transform="matrix(1 0 0 1 31.8574 557.7307)" class="st3 st5">Manzana 11</text>
</g>
</svg>
