<?xml version="1.0" encoding="UTF-8"?>
<!DOCTYPE svg PUBLIC "-//W3C//DTD SVG 1.1//EN" "http://www.w3.org/Graphics/SVG/1.1/DTD/svg11.dtd">
<!-- Creator: CorelDRAW X7 -->
<svg xmlns="http://www.w3.org/2000/svg" xml:space="preserve" width="800px" height="600px" version="1.1" shape-rendering="geometricPrecision" text-rendering="geometricPrecision" image-rendering="optimizeQuality" fill-rule="evenodd" clip-rule="evenodd"
viewBox="0 0 800 600"
 xmlns:xlink="http://www.w3.org/1999/xlink">
 <g id="landmarks-lotes">
  <metadata id="CorelCorpID_0Corel-Layer"/>
  <polygon fill="#999999" stroke="#999999" stroke-width="0.499607" points="108,88 756,239 690,512 44,361 "/>
  <polygon fill="#E6E6E6" stroke="gray" stroke-width="0.499607" points="113,97 747,245 686,502 54,355 "/>
  <path id="m11lote2" fill="lime" d="M618 220l122 28 -13 60 -123 -28c0,0 14,-59 14,-60z"/>
  <polygon id="m11lote1" fill="lime" points="604,283 726,311 712,372 590,343 "/>
  <polygon id="m11lote3" fill="lime" points="556,206 615,220 587,342 527,328 "/>
  <polygon id="m11lote4" fill="lime" points="494,191 553,205 524,327 465,314 "/>
  <polygon id="m11lote5" fill="lime" points="490,191 430,177 402,299 461,313 "/>
  <polygon id="m11lote6" fill="lime" points="368,162 427,176 399,298 340,284 "/>
  <polygon id="m11lote7" fill="lime" points="365,161 305,147 276,270 336,283 "/>
  <polygon id="m11lote8" fill="lime" points="302,147 242,133 214,255 274,268 "/>
  <polygon id="m11lote9" fill="lime" points="239,132 180,118 151,240 211,254 "/>
  <polygon id="m11lote10" fill="lime" points="177,117 117,103 89,226 148,240 "/>
  <polygon id="m11lote11" fill="lime" points="147,243 88,229 60,351 119,365 "/>
  <polygon id="m11lote12" fill="lime" points="210,257 151,244 122,365 182,379 "/>
  <path id="m11lote13" fill="lime" d="M273 272l-60 -14 -28 122 59 14c0,0 28,-122 29,-122z"/>
  <polygon id="m11lote14" fill="lime" points="335,287 276,273 247,395 307,409 "/>
  <polygon id="m11lote15" fill="lime" points="398,301 339,287 310,409 370,423 "/>
  <polygon id="m11lote16" fill="lime" points="461,316 401,302 373,424 432,438 "/>
  <polygon id="m11lote17" fill="lime" points="524,331 464,317 436,439 495,453 "/>
  <polygon id="m11lote18" fill="lime" points="586,345 527,331 498,454 558,467 "/>
  <polygon id="m11lote19" fill="lime" points="697,437 574,408 561,468 683,497 "/>
  <polygon id="m11lote20" fill="lime" points="712,374 589,346 575,405 698,434 "/>
 </g>
</svg>
