<?xml version="1.0" encoding="UTF-8"?>
<!DOCTYPE svg PUBLIC "-//W3C//DTD SVG 1.1//EN" "http://www.w3.org/Graphics/SVG/1.1/DTD/svg11.dtd">
<!-- Creator: CorelDRAW X7 -->
<svg xmlns="http://www.w3.org/2000/svg" xml:space="preserve" width="800px" height="600px" version="1.1" shape-rendering="geometricPrecision" text-rendering="geometricPrecision" image-rendering="optimizeQuality" fill-rule="evenodd" clip-rule="evenodd"
viewBox="0 0 800 600"
 xmlns:xlink="http://www.w3.org/1999/xlink">
 <g id="base">
  <metadata id="CorelCorpID_0Corel-Layer"/>
  <polygon fill="#35AD0E" points="787,205 684,575 31,489 157,28 "/>
  <g id="_1352332704">
   <polygon fill="#63D13E" points="29,481 17,478 145,22 783,198 679,565 "/>
   <g>
    <line fill="none" stroke="#96ED79" stroke-width="0.300001" x1="40" y1="395" x2="20" y2= "479" />
    <line fill="none" stroke="#96ED79" stroke-width="0.300001" x1="146" y1="22" x2="36" y2= "482" />
    <line fill="none" stroke="#96ED79" stroke-width="0.300001" x1="162" y1="27" x2="52" y2= "484" />
    <line fill="none" stroke="#96ED79" stroke-width="0.300001" x1="173" y1="30" x2="63" y2= "485" />
    <line fill="none" stroke="#96ED79" stroke-width="0.300001" x1="184" y1="33" x2="75" y2= "487" />
    <line fill="none" stroke="#96ED79" stroke-width="0.300001" x1="200" y1="37" x2="91" y2= "489" />
    <line fill="none" stroke="#96ED79" stroke-width="0.300001" x1="210" y1="40" x2="102" y2= "490" />
    <line fill="none" stroke="#96ED79" stroke-width="0.300001" x1="223" y1="43" x2="115" y2= "492" />
    <line fill="none" stroke="#96ED79" stroke-width="0.300001" x1="239" y1="48" x2="131" y2= "494" />
    <line fill="none" stroke="#96ED79" stroke-width="0.300001" x1="249" y1="51" x2="142" y2= "495" />
    <line fill="none" stroke="#96ED79" stroke-width="0.300001" x1="266" y1="55" x2="159" y2= "498" />
    <line fill="none" stroke="#96ED79" stroke-width="0.300001" x1="282" y1="60" x2="176" y2= "500" />
    <line fill="none" stroke="#96ED79" stroke-width="0.300001" x1="292" y1="62" x2="186" y2= "501" />
    <line fill="none" stroke="#96ED79" stroke-width="0.300001" x1="241" y1="48" x2="133" y2= "494" />
    <line fill="none" stroke="#96ED79" stroke-width="0.300001" x1="257" y1="53" x2="150" y2= "496" />
    <line fill="none" stroke="#96ED79" stroke-width="0.300001" x1="267" y1="56" x2="161" y2= "498" />
    <line fill="none" stroke="#96ED79" stroke-width="0.300001" x1="285" y1="61" x2="179" y2= "500" />
    <line fill="none" stroke="#96ED79" stroke-width="0.300001" x1="301" y1="65" x2="196" y2= "502" />
    <line fill="none" stroke="#96ED79" stroke-width="0.300001" x1="311" y1="68" x2="206" y2= "504" />
    <line fill="none" stroke="#96ED79" stroke-width="0.300001" x1="315" y1="69" x2="210" y2= "504" />
    <line fill="none" stroke="#96ED79" stroke-width="0.300001" x1="331" y1="73" x2="226" y2= "506" />
    <line fill="none" stroke="#96ED79" stroke-width="0.300001" x1="341" y1="76" x2="237" y2= "508" />
    <line fill="none" stroke="#96ED79" stroke-width="0.300001" x1="369" y1="84" x2="266" y2= "511" />
    <line fill="none" stroke="#96ED79" stroke-width="0.300001" x1="385" y1="88" x2="283" y2= "514" />
    <line fill="none" stroke="#96ED79" stroke-width="0.300001" x1="396" y1="91" x2="294" y2= "515" />
    <line fill="none" stroke="#96ED79" stroke-width="0.300001" x1="411" y1="95" x2="310" y2= "517" />
    <line fill="none" stroke="#96ED79" stroke-width="0.300001" x1="427" y1="100" x2="326" y2= "519" />
    <line fill="none" stroke="#96ED79" stroke-width="0.300001" x1="438" y1="103" x2="337" y2= "521" />
    <line fill="none" stroke="#96ED79" stroke-width="0.300001" x1="453" y1="107" x2="353" y2= "523" />
    <line fill="none" stroke="#96ED79" stroke-width="0.300001" x1="469" y1="111" x2="369" y2= "525" />
    <line fill="none" stroke="#96ED79" stroke-width="0.300001" x1="479" y1="114" x2="380" y2= "526" />
    <line fill="none" stroke="#96ED79" stroke-width="0.300001" x1="490" y1="117" x2="391" y2= "528" />
    <line fill="none" stroke="#96ED79" stroke-width="0.300001" x1="506" y1="122" x2="408" y2= "530" />
    <line fill="none" stroke="#96ED79" stroke-width="0.300001" x1="517" y1="124" x2="419" y2= "531" />
    <line fill="none" stroke="#96ED79" stroke-width="0.300001" x1="529" y1="128" x2="432" y2= "533" />
    <line fill="none" stroke="#96ED79" stroke-width="0.300001" x1="545" y1="132" x2="448" y2= "535" />
    <line fill="none" stroke="#96ED79" stroke-width="0.300001" x1="555" y1="135" x2="459" y2= "536" />
    <line fill="none" stroke="#96ED79" stroke-width="0.300001" x1="572" y1="140" x2="476" y2= "539" />
    <line fill="none" stroke="#96ED79" stroke-width="0.300001" x1="588" y1="144" x2="492" y2= "541" />
    <line fill="none" stroke="#96ED79" stroke-width="0.300001" x1="598" y1="147" x2="503" y2= "542" />
    <line fill="none" stroke="#96ED79" stroke-width="0.300001" x1="583" y1="143" x2="488" y2= "540" />
    <line fill="none" stroke="#96ED79" stroke-width="0.300001" x1="599" y1="147" x2="504" y2= "542" />
    <line fill="none" stroke="#96ED79" stroke-width="0.300001" x1="610" y1="150" x2="515" y2= "544" />
    <line fill="none" stroke="#96ED79" stroke-width="0.300001" x1="627" y1="155" x2="533" y2= "546" />
    <line fill="none" stroke="#96ED79" stroke-width="0.300001" x1="643" y1="159" x2="550" y2= "548" />
    <line fill="none" stroke="#96ED79" stroke-width="0.300001" x1="654" y1="162" x2="561" y2= "550" />
    <line fill="none" stroke="#96ED79" stroke-width="0.300001" x1="657" y1="163" x2="564" y2= "550" />
    <line fill="none" stroke="#96ED79" stroke-width="0.300001" x1="673" y1="168" x2="581" y2= "552" />
    <line fill="none" stroke="#96ED79" stroke-width="0.300001" x1="684" y1="171" x2="591" y2= "554" />
    <line fill="none" stroke="#96ED79" stroke-width="0.300001" x1="712" y1="178" x2="621" y2= "557" />
    <line fill="none" stroke="#96ED79" stroke-width="0.300001" x1="728" y1="183" x2="637" y2= "560" />
    <line fill="none" stroke="#96ED79" stroke-width="0.300001" x1="738" y1="186" x2="648" y2= "561" />
    <line fill="none" stroke="#96ED79" stroke-width="0.300001" x1="754" y1="190" x2="664" y2= "563" />
    <line fill="none" stroke="#96ED79" stroke-width="0.300001" x1="770" y1="194" x2="685" y2= "544" />
    <line fill="none" stroke="#96ED79" stroke-width="0.300001" x1="780" y1="197" x2="760" y2= "279" />
    <line fill="none" stroke="#96ED79" stroke-width="0.300001" x1="432" y1="101" x2="141" y2= "34" />
    <line fill="none" stroke="#96ED79" stroke-width="0.300001" x1="429" y1="100" x2="141" y2= "34" />
    <line fill="none" stroke="#96ED79" stroke-width="0.300001" x1="781" y1="204" x2="135" y2= "54" />
    <line fill="none" stroke="#96ED79" stroke-width="0.300001" x1="777" y1="218" x2="132" y2= "68" />
    <line fill="none" stroke="#96ED79" stroke-width="0.300001" x1="771" y1="242" x2="125" y2= "93" />
    <line fill="none" stroke="#96ED79" stroke-width="0.300001" x1="765" y1="263" x2="119" y2= "113" />
    <line fill="none" stroke="#96ED79" stroke-width="0.300001" x1="757" y1="292" x2="111" y2= "143" />
    <line fill="none" stroke="#96ED79" stroke-width="0.300001" x1="760" y1="280" x2="114" y2= "130" />
    <line fill="none" stroke="#96ED79" stroke-width="0.300001" x1="750" y1="316" x2="104" y2= "166" />
    <line fill="none" stroke="#96ED79" stroke-width="0.300001" x1="748" y1="322" x2="102" y2= "173" />
    <line fill="none" stroke="#96ED79" stroke-width="0.300001" x1="742" y1="343" x2="97" y2= "194" />
    <line fill="none" stroke="#96ED79" stroke-width="0.300001" x1="738" y1="357" x2="93" y2= "207" />
    <line fill="none" stroke="#96ED79" stroke-width="0.300001" x1="731" y1="381" x2="86" y2= "232" />
    <line fill="none" stroke="#96ED79" stroke-width="0.300001" x1="726" y1="402" x2="80" y2= "252" />
    <line fill="none" stroke="#96ED79" stroke-width="0.300001" x1="717" y1="431" x2="72" y2= "282" />
    <line fill="none" stroke="#96ED79" stroke-width="0.300001" x1="721" y1="419" x2="76" y2= "269" />
    <line fill="none" stroke="#96ED79" stroke-width="0.300001" x1="711" y1="455" x2="66" y2= "305" />
    <line fill="none" stroke="#96ED79" stroke-width="0.300001" x1="705" y1="475" x2="60" y2= "325" />
    <line fill="none" stroke="#96ED79" stroke-width="0.300001" x1="699" y1="495" x2="54" y2= "346" />
    <line fill="none" stroke="#96ED79" stroke-width="0.300001" x1="695" y1="509" x2="50" y2= "360" />
    <line fill="none" stroke="#96ED79" stroke-width="0.300001" x1="688" y1="533" x2="44" y2= "384" />
    <line fill="none" stroke="#96ED79" stroke-width="0.300001" x1="683" y1="554" x2="38" y2= "404" />
    <line fill="none" stroke="#96ED79" stroke-width="0.300001" x1="488" y1="540" x2="30" y2= "434" />
    <line fill="none" stroke="#96ED79" stroke-width="0.300001" x1="616" y1="557" x2="33" y2= "422" />
    <line fill="none" stroke="#96ED79" stroke-width="0.300001" x1="244" y1="509" x2="23" y2= "457" />
   </g>
  </g>
 </g>
 <g id="landmarks-mz1">
  <metadata id="CorelCorpID_1Corel-Layer"/>
  <polygon id="m1lote4" fill="#35AD0E" points="675,556 772,207 608,162 503,533 "/>
  <polygon id="m1lote3" fill="#35AD0E" points="501,532 603,160 449,117 339,511 "/>
  <polygon id="m1lote2" fill="#35AD0E" points="336,511 446,117 300,76 184,491 "/>
  <polygon id="m1lote1" fill="#35AD0E" points="181,491 297,75 158,36 36,472 "/>
 </g>
</svg>
