<?xml version="1.0" encoding="UTF-8"?>
<!DOCTYPE svg PUBLIC "-//W3C//DTD SVG 1.1//EN" "http://www.w3.org/Graphics/SVG/1.1/DTD/svg11.dtd">
<!-- Creator: CorelDRAW X8 -->
<svg xmlns="http://www.w3.org/2000/svg" xml:space="preserve" width="800px" height="600px" version="1.1" shape-rendering="geometricPrecision" text-rendering="geometricPrecision" image-rendering="optimizeQuality" fill-rule="evenodd" clip-rule="evenodd"
viewBox="0 0 800 600"
 xmlns:xlink="http://www.w3.org/1999/xlink">
 <g id="base">
  <metadata id="CorelCorpID_0Corel-Layer"/>
  <polygon fill="#35AD0E" points="646,233 579,475 153,418 235,117 "/>
  <g id="_2069964346384">
   <polygon fill="#63D13E" points="152,413 144,411 227,113 644,228 576,468 "/>
   <g>
    <line fill="none" stroke="#96ED79" stroke-width="0.300001" x1="159" y1="357" x2="146" y2= "411" />
    <line fill="none" stroke="#96ED79" stroke-width="0.300001" x1="228" y1="113" x2="156" y2= "413" />
    <line fill="none" stroke="#96ED79" stroke-width="0.300001" x1="239" y1="116" x2="167" y2= "415" />
    <line fill="none" stroke="#96ED79" stroke-width="0.300001" x1="245" y1="118" x2="174" y2= "416" />
    <line fill="none" stroke="#96ED79" stroke-width="0.300001" x1="253" y1="120" x2="181" y2= "417" />
    <line fill="none" stroke="#96ED79" stroke-width="0.300001" x1="263" y1="123" x2="192" y2= "418" />
    <line fill="none" stroke="#96ED79" stroke-width="0.300001" x1="270" y1="125" x2="199" y2= "419" />
    <line fill="none" stroke="#96ED79" stroke-width="0.300001" x1="278" y1="127" x2="207" y2= "420" />
    <line fill="none" stroke="#96ED79" stroke-width="0.300001" x1="288" y1="130" x2="218" y2= "421" />
    <line fill="none" stroke="#96ED79" stroke-width="0.300001" x1="295" y1="132" x2="225" y2= "422" />
    <line fill="none" stroke="#96ED79" stroke-width="0.300001" x1="306" y1="135" x2="236" y2= "424" />
    <line fill="none" stroke="#96ED79" stroke-width="0.300001" x1="316" y1="138" x2="247" y2= "425" />
    <line fill="none" stroke="#96ED79" stroke-width="0.300001" x1="323" y1="139" x2="254" y2= "426" />
    <line fill="none" stroke="#96ED79" stroke-width="0.300001" x1="290" y1="130" x2="220" y2= "421" />
    <line fill="none" stroke="#96ED79" stroke-width="0.300001" x1="300" y1="133" x2="230" y2= "423" />
    <line fill="none" stroke="#96ED79" stroke-width="0.300001" x1="307" y1="135" x2="238" y2= "424" />
    <line fill="none" stroke="#96ED79" stroke-width="0.300001" x1="319" y1="138" x2="250" y2= "425" />
    <line fill="none" stroke="#96ED79" stroke-width="0.300001" x1="329" y1="141" x2="260" y2= "427" />
    <line fill="none" stroke="#96ED79" stroke-width="0.300001" x1="336" y1="143" x2="267" y2= "428" />
    <line fill="none" stroke="#96ED79" stroke-width="0.300001" x1="338" y1="144" x2="270" y2= "428" />
    <line fill="none" stroke="#96ED79" stroke-width="0.300001" x1="349" y1="146" x2="280" y2= "429" />
    <line fill="none" stroke="#96ED79" stroke-width="0.300001" x1="355" y1="148" x2="287" y2= "430" />
    <line fill="none" stroke="#96ED79" stroke-width="0.300001" x1="374" y1="153" x2="306" y2= "433" />
    <line fill="none" stroke="#96ED79" stroke-width="0.300001" x1="384" y1="156" x2="317" y2= "434" />
    <line fill="none" stroke="#96ED79" stroke-width="0.300001" x1="391" y1="158" x2="324" y2= "435" />
    <line fill="none" stroke="#96ED79" stroke-width="0.300001" x1="401" y1="161" x2="335" y2= "436" />
    <line fill="none" stroke="#96ED79" stroke-width="0.300001" x1="412" y1="164" x2="346" y2= "438" />
    <line fill="none" stroke="#96ED79" stroke-width="0.300001" x1="418" y1="166" x2="353" y2= "439" />
    <line fill="none" stroke="#96ED79" stroke-width="0.300001" x1="428" y1="168" x2="363" y2= "440" />
    <line fill="none" stroke="#96ED79" stroke-width="0.300001" x1="439" y1="171" x2="374" y2= "441" />
    <line fill="none" stroke="#96ED79" stroke-width="0.300001" x1="446" y1="173" x2="381" y2= "442" />
    <line fill="none" stroke="#96ED79" stroke-width="0.300001" x1="453" y1="175" x2="388" y2= "443" />
    <line fill="none" stroke="#96ED79" stroke-width="0.300001" x1="463" y1="178" x2="399" y2= "445" />
    <line fill="none" stroke="#96ED79" stroke-width="0.300001" x1="470" y1="180" x2="406" y2= "446" />
    <line fill="none" stroke="#96ED79" stroke-width="0.300001" x1="478" y1="182" x2="414" y2= "447" />
    <line fill="none" stroke="#96ED79" stroke-width="0.300001" x1="489" y1="185" x2="425" y2= "448" />
    <line fill="none" stroke="#96ED79" stroke-width="0.300001" x1="495" y1="187" x2="432" y2= "449" />
    <line fill="none" stroke="#96ED79" stroke-width="0.300001" x1="506" y1="190" x2="443" y2= "451" />
    <line fill="none" stroke="#96ED79" stroke-width="0.300001" x1="517" y1="193" x2="454" y2= "452" />
    <line fill="none" stroke="#96ED79" stroke-width="0.300001" x1="523" y1="195" x2="461" y2= "453" />
    <line fill="none" stroke="#96ED79" stroke-width="0.300001" x1="514" y1="192" x2="451" y2= "452" />
    <line fill="none" stroke="#96ED79" stroke-width="0.300001" x1="524" y1="195" x2="462" y2= "453" />
    <line fill="none" stroke="#96ED79" stroke-width="0.300001" x1="531" y1="197" x2="469" y2= "454" />
    <line fill="none" stroke="#96ED79" stroke-width="0.300001" x1="542" y1="200" x2="481" y2= "455" />
    <line fill="none" stroke="#96ED79" stroke-width="0.300001" x1="553" y1="203" x2="492" y2= "457" />
    <line fill="none" stroke="#96ED79" stroke-width="0.300001" x1="560" y1="205" x2="499" y2= "458" />
    <line fill="none" stroke="#96ED79" stroke-width="0.300001" x1="562" y1="205" x2="501" y2= "458" />
    <line fill="none" stroke="#96ED79" stroke-width="0.300001" x1="572" y1="208" x2="512" y2= "459" />
    <line fill="none" stroke="#96ED79" stroke-width="0.300001" x1="579" y1="210" x2="519" y2= "460" />
    <line fill="none" stroke="#96ED79" stroke-width="0.300001" x1="598" y1="215" x2="538" y2= "463" />
    <line fill="none" stroke="#96ED79" stroke-width="0.300001" x1="608" y1="218" x2="549" y2= "464" />
    <line fill="none" stroke="#96ED79" stroke-width="0.300001" x1="615" y1="220" x2="556" y2= "465" />
    <line fill="none" stroke="#96ED79" stroke-width="0.300001" x1="625" y1="223" x2="566" y2= "466" />
    <line fill="none" stroke="#96ED79" stroke-width="0.300001" x1="635" y1="226" x2="580" y2= "454" />
    <line fill="none" stroke="#96ED79" stroke-width="0.300001" x1="642" y1="227" x2="629" y2= "281" />
    <line fill="none" stroke="#96ED79" stroke-width="0.300001" x1="415" y1="165" x2="225" y2= "121" />
    <line fill="none" stroke="#96ED79" stroke-width="0.300001" x1="413" y1="164" x2="225" y2= "120" />
    <line fill="none" stroke="#96ED79" stroke-width="0.300001" x1="643" y1="232" x2="221" y2= "134" />
    <line fill="none" stroke="#96ED79" stroke-width="0.300001" x1="640" y1="241" x2="218" y2= "143" />
    <line fill="none" stroke="#96ED79" stroke-width="0.300001" x1="636" y1="257" x2="214" y2= "159" />
    <line fill="none" stroke="#96ED79" stroke-width="0.300001" x1="632" y1="270" x2="210" y2= "172" />
    <line fill="none" stroke="#96ED79" stroke-width="0.300001" x1="627" y1="290" x2="205" y2= "192" />
    <line fill="none" stroke="#96ED79" stroke-width="0.300001" x1="629" y1="282" x2="207" y2= "184" />
    <line fill="none" stroke="#96ED79" stroke-width="0.300001" x1="622" y1="305" x2="201" y2= "207" />
    <line fill="none" stroke="#96ED79" stroke-width="0.300001" x1="621" y1="309" x2="199" y2= "211" />
    <line fill="none" stroke="#96ED79" stroke-width="0.300001" x1="617" y1="323" x2="196" y2= "225" />
    <line fill="none" stroke="#96ED79" stroke-width="0.300001" x1="615" y1="332" x2="193" y2= "234" />
    <line fill="none" stroke="#96ED79" stroke-width="0.300001" x1="610" y1="348" x2="189" y2= "250" />
    <line fill="none" stroke="#96ED79" stroke-width="0.300001" x1="607" y1="361" x2="185" y2= "263" />
    <line fill="none" stroke="#96ED79" stroke-width="0.300001" x1="601" y1="380" x2="180" y2= "283" />
    <line fill="none" stroke="#96ED79" stroke-width="0.300001" x1="603" y1="372" x2="182" y2= "275" />
    <line fill="none" stroke="#96ED79" stroke-width="0.300001" x1="597" y1="396" x2="175" y2= "298" />
    <line fill="none" stroke="#96ED79" stroke-width="0.300001" x1="593" y1="409" x2="172" y2= "311" />
    <line fill="none" stroke="#96ED79" stroke-width="0.300001" x1="589" y1="422" x2="168" y2= "325" />
    <line fill="none" stroke="#96ED79" stroke-width="0.300001" x1="587" y1="431" x2="165" y2= "334" />
    <line fill="none" stroke="#96ED79" stroke-width="0.300001" x1="582" y1="447" x2="161" y2= "349" />
    <line fill="none" stroke="#96ED79" stroke-width="0.300001" x1="578" y1="461" x2="157" y2= "363" />
    <line fill="none" stroke="#96ED79" stroke-width="0.300001" x1="451" y1="452" x2="152" y2= "382" />
    <line fill="none" stroke="#96ED79" stroke-width="0.300001" x1="535" y1="462" x2="154" y2= "374" />
    <line fill="none" stroke="#96ED79" stroke-width="0.300001" x1="292" y1="431" x2="148" y2= "397" />
   </g>
  </g>
 </g>
 <g id="landmarks-mz1">
  <metadata id="CorelCorpID_1Corel-Layer"/>
  <polygon id="m1lote4" fill="#35AD0E" points="573,462 637,234 529,205 461,447 "/>
  <polygon id="m1lote3" fill="#35AD0E" points="460,446 526,203 426,175 354,433 "/>
  <polygon id="m1lote2" fill="#35AD0E" points="352,432 424,175 329,148 253,420 "/>
  <polygon id="m1lote1" fill="#35AD0E" points="251,419 327,148 236,122 156,407 "/>
 </g>
</svg>
