<?xml version="1.0" encoding="UTF-8"?>
<!DOCTYPE svg PUBLIC "-//W3C//DTD SVG 1.1//EN" "http://www.w3.org/Graphics/SVG/1.1/DTD/svg11.dtd">
<!-- Creator: CorelDRAW X8 -->
<svg xmlns="http://www.w3.org/2000/svg" xml:space="preserve" width="800px" height="600px" version="1.1" shape-rendering="geometricPrecision" text-rendering="geometricPrecision" image-rendering="optimizeQuality" fill-rule="evenodd" clip-rule="evenodd"
viewBox="0 0 800 600"
 xmlns:xlink="http://www.w3.org/1999/xlink">
 <g id="base">
  <metadata id="CorelCorpID_0Corel-Layer"/>
  <g id="_2070006281392">
   <polygon fill="#35AD0E" points="253,159 606,242 559,443 206,361 "/>
   <g>
    <polygon fill="#63D13E" points="246,151 604,235 556,439 198,355 "/>
    <g>
     <line fill="none" stroke="#96ED79" stroke-width="0.300001" x1="251" y1="152" x2="202" y2= "356" />
     <line fill="none" stroke="#96ED79" stroke-width="0.300001" x1="256" y1="153" x2="208" y2= "357" />
     <line fill="none" stroke="#96ED79" stroke-width="0.300001" x1="260" y1="154" x2="211" y2= "358" />
     <line fill="none" stroke="#96ED79" stroke-width="0.300001" x1="266" y1="155" x2="217" y2= "360" />
     <line fill="none" stroke="#96ED79" stroke-width="0.300001" x1="271" y1="157" x2="223" y2= "361" />
     <line fill="none" stroke="#96ED79" stroke-width="0.300001" x1="275" y1="157" x2="226" y2= "362" />
     <line fill="none" stroke="#96ED79" stroke-width="0.300001" x1="276" y1="158" x2="228" y2= "362" />
     <line fill="none" stroke="#96ED79" stroke-width="0.300001" x1="281" y1="159" x2="233" y2= "363" />
     <line fill="none" stroke="#96ED79" stroke-width="0.300001" x1="285" y1="160" x2="237" y2= "364" />
     <line fill="none" stroke="#96ED79" stroke-width="0.300001" x1="294" y1="162" x2="246" y2= "366" />
     <line fill="none" stroke="#96ED79" stroke-width="0.300001" x1="300" y1="163" x2="252" y2= "368" />
     <line fill="none" stroke="#96ED79" stroke-width="0.300001" x1="304" y1="164" x2="255" y2= "369" />
     <line fill="none" stroke="#96ED79" stroke-width="0.300001" x1="309" y1="165" x2="260" y2= "370" />
     <line fill="none" stroke="#96ED79" stroke-width="0.300001" x1="314" y1="167" x2="266" y2= "371" />
     <line fill="none" stroke="#96ED79" stroke-width="0.300001" x1="318" y1="168" x2="269" y2= "372" />
     <line fill="none" stroke="#96ED79" stroke-width="0.300001" x1="323" y1="169" x2="275" y2= "373" />
     <line fill="none" stroke="#96ED79" stroke-width="0.300001" x1="328" y1="170" x2="280" y2= "374" />
     <line fill="none" stroke="#96ED79" stroke-width="0.300001" x1="332" y1="171" x2="284" y2= "375" />
     <line fill="none" stroke="#96ED79" stroke-width="0.300001" x1="336" y1="172" x2="287" y2= "376" />
     <line fill="none" stroke="#96ED79" stroke-width="0.300001" x1="341" y1="173" x2="293" y2= "377" />
     <line fill="none" stroke="#96ED79" stroke-width="0.300001" x1="345" y1="174" x2="296" y2= "378" />
     <line fill="none" stroke="#96ED79" stroke-width="0.300001" x1="349" y1="175" x2="301" y2= "379" />
     <line fill="none" stroke="#96ED79" stroke-width="0.300001" x1="354" y1="176" x2="306" y2= "380" />
     <line fill="none" stroke="#96ED79" stroke-width="0.300001" x1="358" y1="177" x2="310" y2= "381" />
     <line fill="none" stroke="#96ED79" stroke-width="0.300001" x1="364" y1="178" x2="315" y2= "383" />
     <line fill="none" stroke="#96ED79" stroke-width="0.300001" x1="369" y1="180" x2="321" y2= "384" />
     <line fill="none" stroke="#96ED79" stroke-width="0.300001" x1="373" y1="180" x2="324" y2= "385" />
     <line fill="none" stroke="#96ED79" stroke-width="0.300001" x1="355" y1="176" x2="307" y2= "381" />
     <line fill="none" stroke="#96ED79" stroke-width="0.300001" x1="361" y1="178" x2="312" y2= "382" />
     <line fill="none" stroke="#96ED79" stroke-width="0.300001" x1="364" y1="178" x2="316" y2= "383" />
     <line fill="none" stroke="#96ED79" stroke-width="0.300001" x1="370" y1="180" x2="322" y2= "384" />
     <line fill="none" stroke="#96ED79" stroke-width="0.300001" x1="376" y1="181" x2="327" y2= "385" />
     <line fill="none" stroke="#96ED79" stroke-width="0.300001" x1="379" y1="182" x2="331" y2= "386" />
     <line fill="none" stroke="#96ED79" stroke-width="0.300001" x1="380" y1="182" x2="332" y2= "386" />
     <line fill="none" stroke="#96ED79" stroke-width="0.300001" x1="386" y1="184" x2="338" y2= "388" />
     <line fill="none" stroke="#96ED79" stroke-width="0.300001" x1="389" y1="184" x2="341" y2= "389" />
     <line fill="none" stroke="#96ED79" stroke-width="0.300001" x1="399" y1="187" x2="351" y2= "391" />
     <line fill="none" stroke="#96ED79" stroke-width="0.300001" x1="404" y1="188" x2="356" y2= "392" />
     <line fill="none" stroke="#96ED79" stroke-width="0.300001" x1="408" y1="189" x2="360" y2= "393" />
     <line fill="none" stroke="#96ED79" stroke-width="0.300001" x1="413" y1="190" x2="365" y2= "394" />
     <line fill="none" stroke="#96ED79" stroke-width="0.300001" x1="419" y1="192" x2="370" y2= "395" />
     <line fill="none" stroke="#96ED79" stroke-width="0.300001" x1="422" y1="195" x2="374" y2= "396" />
     <line fill="none" stroke="#96ED79" stroke-width="0.300001" x1="427" y1="193" x2="379" y2= "397" />
     <line fill="none" stroke="#96ED79" stroke-width="0.300001" x1="433" y1="195" x2="385" y2= "399" />
     <line fill="none" stroke="#96ED79" stroke-width="0.300001" x1="436" y1="198" x2="388" y2= "400" />
     <line fill="none" stroke="#96ED79" stroke-width="0.300001" x1="440" y1="196" x2="392" y2= "400" />
     <line fill="none" stroke="#96ED79" stroke-width="0.300001" x1="445" y1="200" x2="398" y2= "402" />
     <line fill="none" stroke="#96ED79" stroke-width="0.300001" x1="448" y1="203" x2="401" y2= "403" />
     <line fill="none" stroke="#96ED79" stroke-width="0.300001" x1="453" y1="200" x2="405" y2= "404" />
     <line fill="none" stroke="#96ED79" stroke-width="0.300001" x1="459" y1="201" x2="411" y2= "405" />
     <line fill="none" stroke="#96ED79" stroke-width="0.300001" x1="463" y1="202" x2="414" y2= "406" />
     <line fill="none" stroke="#96ED79" stroke-width="0.300001" x1="468" y1="203" x2="420" y2= "407" />
     <line fill="none" stroke="#96ED79" stroke-width="0.300001" x1="474" y1="204" x2="425" y2= "408" />
     <line fill="none" stroke="#96ED79" stroke-width="0.300001" x1="477" y1="205" x2="429" y2= "409" />
     <line fill="none" stroke="#96ED79" stroke-width="0.300001" x1="472" y1="204" x2="424" y2= "408" />
     <line fill="none" stroke="#96ED79" stroke-width="0.300001" x1="477" y1="205" x2="429" y2= "409" />
     <line fill="none" stroke="#96ED79" stroke-width="0.300001" x1="481" y1="206" x2="433" y2= "410" />
     <line fill="none" stroke="#96ED79" stroke-width="0.300001" x1="487" y1="208" x2="439" y2= "411" />
     <line fill="none" stroke="#96ED79" stroke-width="0.300001" x1="493" y1="209" x2="444" y2= "413" />
     <line fill="none" stroke="#96ED79" stroke-width="0.300001" x1="496" y1="210" x2="448" y2= "413" />
     <line fill="none" stroke="#96ED79" stroke-width="0.300001" x1="497" y1="210" x2="449" y2= "414" />
     <line fill="none" stroke="#96ED79" stroke-width="0.300001" x1="503" y1="211" x2="454" y2= "415" />
     <line fill="none" stroke="#96ED79" stroke-width="0.300001" x1="506" y1="212" x2="458" y2= "416" />
     <line fill="none" stroke="#96ED79" stroke-width="0.300001" x1="516" y1="214" x2="468" y2= "418" />
     <line fill="none" stroke="#96ED79" stroke-width="0.300001" x1="521" y1="216" x2="473" y2= "419" />
     <line fill="none" stroke="#96ED79" stroke-width="0.300001" x1="525" y1="216" x2="477" y2= "420" />
     <line fill="none" stroke="#96ED79" stroke-width="0.300001" x1="530" y1="218" x2="482" y2= "421" />
     <line fill="none" stroke="#96ED79" stroke-width="0.300001" x1="536" y1="219" x2="487" y2= "423" />
     <line fill="none" stroke="#96ED79" stroke-width="0.300001" x1="539" y1="220" x2="491" y2= "424" />
     <line fill="none" stroke="#96ED79" stroke-width="0.300001" x1="544" y1="221" x2="496" y2= "425" />
     <line fill="none" stroke="#96ED79" stroke-width="0.300001" x1="550" y1="222" x2="502" y2= "426" />
     <line fill="none" stroke="#96ED79" stroke-width="0.300001" x1="553" y1="223" x2="505" y2= "427" />
     <line fill="none" stroke="#96ED79" stroke-width="0.300001" x1="557" y1="224" x2="509" y2= "428" />
     <line fill="none" stroke="#96ED79" stroke-width="0.300001" x1="563" y1="225" x2="514" y2= "429" />
     <line fill="none" stroke="#96ED79" stroke-width="0.300001" x1="566" y1="226" x2="518" y2= "430" />
     <line fill="none" stroke="#96ED79" stroke-width="0.300001" x1="570" y1="227" x2="522" y2= "431" />
     <line fill="none" stroke="#96ED79" stroke-width="0.300001" x1="576" y1="228" x2="528" y2= "432" />
     <line fill="none" stroke="#96ED79" stroke-width="0.300001" x1="579" y1="229" x2="531" y2= "433" />
     <line fill="none" stroke="#96ED79" stroke-width="0.300001" x1="585" y1="231" x2="537" y2= "434" />
     <line fill="none" stroke="#96ED79" stroke-width="0.300001" x1="590" y1="232" x2="542" y2= "436" />
     <line fill="none" stroke="#96ED79" stroke-width="0.300001" x1="594" y1="233" x2="546" y2= "436" />
     <line fill="none" stroke="#96ED79" stroke-width="0.300001" x1="600" y1="234" x2="552" y2= "438" />
     <line fill="none" stroke="#96ED79" stroke-width="0.300001" x1="603" y1="239" x2="245" y2= "155" />
     <line fill="none" stroke="#96ED79" stroke-width="0.300001" x1="601" y1="247" x2="243" y2= "162" />
     <line fill="none" stroke="#96ED79" stroke-width="0.300001" x1="600" y1="251" x2="242" y2= "167" />
     <line fill="none" stroke="#96ED79" stroke-width="0.300001" x1="598" y1="260" x2="240" y2= "175" />
     <line fill="none" stroke="#96ED79" stroke-width="0.300001" x1="596" y1="267" x2="238" y2= "182" />
     <line fill="none" stroke="#96ED79" stroke-width="0.300001" x1="594" y1="277" x2="236" y2= "193" />
     <line fill="none" stroke="#96ED79" stroke-width="0.300001" x1="595" y1="273" x2="237" y2= "188" />
     <line fill="none" stroke="#96ED79" stroke-width="0.300001" x1="592" y1="285" x2="234" y2= "201" />
     <line fill="none" stroke="#96ED79" stroke-width="0.300001" x1="592" y1="285" x2="234" y2= "201" />
     <line fill="none" stroke="#96ED79" stroke-width="0.300001" x1="590" y1="293" x2="232" y2= "208" />
     <line fill="none" stroke="#96ED79" stroke-width="0.300001" x1="589" y1="297" x2="231" y2= "213" />
     <line fill="none" stroke="#96ED79" stroke-width="0.300001" x1="587" y1="306" x2="229" y2= "221" />
     <line fill="none" stroke="#96ED79" stroke-width="0.300001" x1="586" y1="313" x2="228" y2= "228" />
     <line fill="none" stroke="#96ED79" stroke-width="0.300001" x1="583" y1="323" x2="225" y2= "239" />
     <line fill="none" stroke="#96ED79" stroke-width="0.300001" x1="584" y1="319" x2="226" y2= "234" />
     <line fill="none" stroke="#96ED79" stroke-width="0.300001" x1="581" y1="331" x2="223" y2= "247" />
     <line fill="none" stroke="#96ED79" stroke-width="0.300001" x1="581" y1="334" x2="223" y2= "249" />
     <line fill="none" stroke="#96ED79" stroke-width="0.300001" x1="579" y1="341" x2="221" y2= "256" />
     <line fill="none" stroke="#96ED79" stroke-width="0.300001" x1="578" y1="346" x2="220" y2= "261" />
     <line fill="none" stroke="#96ED79" stroke-width="0.300001" x1="576" y1="354" x2="218" y2= "269" />
     <line fill="none" stroke="#96ED79" stroke-width="0.300001" x1="574" y1="361" x2="216" y2= "277" />
     <line fill="none" stroke="#96ED79" stroke-width="0.300001" x1="572" y1="371" x2="214" y2= "287" />
     <line fill="none" stroke="#96ED79" stroke-width="0.300001" x1="573" y1="367" x2="215" y2= "283" />
     <line fill="none" stroke="#96ED79" stroke-width="0.300001" x1="570" y1="380" x2="212" y2= "295" />
     <line fill="none" stroke="#96ED79" stroke-width="0.300001" x1="568" y1="386" x2="210" y2= "302" />
     <line fill="none" stroke="#96ED79" stroke-width="0.300001" x1="567" y1="394" x2="209" y2= "309" />
     <line fill="none" stroke="#96ED79" stroke-width="0.300001" x1="566" y1="398" x2="208" y2= "314" />
     <line fill="none" stroke="#96ED79" stroke-width="0.300001" x1="564" y1="407" x2="206" y2= "322" />
     <line fill="none" stroke="#96ED79" stroke-width="0.300001" x1="562" y1="414" x2="204" y2= "329" />
     <line fill="none" stroke="#96ED79" stroke-width="0.300001" x1="559" y1="424" x2="202" y2= "340" />
     <line fill="none" stroke="#96ED79" stroke-width="0.300001" x1="561" y1="420" x2="203" y2= "335" />
     <line fill="none" stroke="#96ED79" stroke-width="0.300001" x1="558" y1="432" x2="200" y2= "348" />
    </g>
   </g>
   <path fill="white" fill-rule="nonzero" d="M557 323c3,1 5,4 4,7 -1,3 -4,5 -7,4l-297 -68c-3,-1 -5,-4 -5,-7 1,-3 4,-5 7,-4l298 68z"/>
  </g>
 </g>
 <g id="landmarks-mz10">
  <metadata id="CorelCorpID_1Corel-Layer"/>
  <polygon id="m10lote2" fill="#35AD0E" points="464,338 497,346 482,413 448,405 "/>
  <polygon id="m10lote2A" fill="#35AD0E" points="430,330 463,338 447,405 414,397 "/>
  <polygon id="m10lote3" fill="#35AD0E" points="428,330 395,322 379,389 412,397 "/>
  <polygon id="m10lote3A" fill="#35AD0E" points="361,314 393,322 378,389 345,381 "/>
  <polygon id="m10lote4" fill="#35AD0E" points="359,314 326,306 310,373 343,381 "/>
  <polygon id="m10lote4A" fill="#35AD0E" points="324,306 292,298 276,365 309,373 "/>
  <polygon id="m10lote5" fill="#35AD0E" points="290,298 257,290 242,357 275,365 "/>
  <polygon id="m10lote5A" fill="#35AD0E" points="256,290 223,282 207,349 240,357 "/>
  <polygon id="m10lote6" fill="#35AD0E" points="284,166 252,158 236,225 269,233 "/>
  <polygon id="m10lote6A" fill="#35AD0E" points="319,173 286,166 271,233 304,240 "/>
  <path id="m10lote7" fill="#35AD0E" d="M353 181l-32 -7 -16 67 33 7c0,0 15,-67 15,-67z"/>
  <polygon id="m10lote7A" fill="#35AD0E" points="388,190 355,182 339,249 372,257 "/>
  <polygon id="m10lote8" fill="#35AD0E" points="422,197 389,190 374,257 406,265 "/>
  <polygon id="m10lote8A" fill="#35AD0E" points="457,206 424,198 408,265 441,273 "/>
  <polygon id="m10lote9" fill="#35AD0E" points="491,214 458,206 443,273 475,281 "/>
  <polygon id="m10lote9A" fill="#35AD0E" points="525,222 493,214 477,281 510,289 "/>
  <polygon id="m10lote10" fill="#35AD0E" points="560,230 527,222 511,289 544,297 "/>
  <polygon id="m10lote10A" fill="#35AD0E" points="562,230 594,238 579,305 546,297 "/>
  <polygon id="m10lote1" fill="#35AD0E" points="533,354 566,362 550,429 517,421 "/>
  <polygon id="m10lote1A" fill="#35AD0E" points="532,354 498,347 483,413 516,421 "/>
 </g>
</svg>
