<?xml version="1.0" encoding="UTF-8"?>
<!DOCTYPE svg PUBLIC "-//W3C//DTD SVG 1.1//EN" "http://www.w3.org/Graphics/SVG/1.1/DTD/svg11.dtd">
<!-- Creator: CorelDRAW X7 -->
<svg xmlns="http://www.w3.org/2000/svg" xml:space="preserve" width="800px" height="600px" version="1.1" shape-rendering="geometricPrecision" text-rendering="geometricPrecision" image-rendering="optimizeQuality" fill-rule="evenodd" clip-rule="evenodd"
viewBox="0 0 800 600"
 xmlns:xlink="http://www.w3.org/1999/xlink">
 <g id="base">
  <metadata id="CorelCorpID_0Corel-Layer"/>
  <g id="_479485048">
   <polygon fill="#35AD0E" points="153,66 743,206 664,542 73,404 "/>
   <g>
    <polygon fill="#63D13E" points="141,52 740,194 660,534 61,394 "/>
    <g>
     <line fill="none" stroke="#96ED79" stroke-width="0.300001" x1="149" y1="54" x2="68" y2= "396" />
     <line fill="none" stroke="#96ED79" stroke-width="0.300001" x1="158" y1="56" x2="77" y2= "398" />
     <line fill="none" stroke="#96ED79" stroke-width="0.300001" x1="164" y1="58" x2="83" y2= "400" />
     <line fill="none" stroke="#96ED79" stroke-width="0.300001" x1="174" y1="60" x2="93" y2= "402" />
     <line fill="none" stroke="#96ED79" stroke-width="0.300001" x1="183" y1="62" x2="102" y2= "404" />
     <line fill="none" stroke="#96ED79" stroke-width="0.300001" x1="189" y1="63" x2="108" y2= "405" />
     <line fill="none" stroke="#96ED79" stroke-width="0.300001" x1="191" y1="64" x2="110" y2= "406" />
     <line fill="none" stroke="#96ED79" stroke-width="0.300001" x1="200" y1="66" x2="119" y2= "408" />
     <line fill="none" stroke="#96ED79" stroke-width="0.300001" x1="206" y1="68" x2="125" y2= "409" />
     <line fill="none" stroke="#96ED79" stroke-width="0.300001" x1="222" y1="71" x2="141" y2= "413" />
     <line fill="none" stroke="#96ED79" stroke-width="0.300001" x1="231" y1="73" x2="151" y2= "415" />
     <line fill="none" stroke="#96ED79" stroke-width="0.300001" x1="237" y1="75" x2="157" y2= "417" />
     <line fill="none" stroke="#96ED79" stroke-width="0.300001" x1="246" y1="77" x2="165" y2= "419" />
     <line fill="none" stroke="#96ED79" stroke-width="0.300001" x1="255" y1="79" x2="174" y2= "421" />
     <line fill="none" stroke="#96ED79" stroke-width="0.300001" x1="261" y1="81" x2="180" y2= "422" />
     <line fill="none" stroke="#96ED79" stroke-width="0.300001" x1="270" y1="83" x2="189" y2= "424" />
     <line fill="none" stroke="#96ED79" stroke-width="0.300001" x1="279" y1="85" x2="198" y2= "426" />
     <line fill="none" stroke="#96ED79" stroke-width="0.300001" x1="285" y1="86" x2="204" y2= "428" />
     <line fill="none" stroke="#96ED79" stroke-width="0.300001" x1="291" y1="88" x2="210" y2= "429" />
     <line fill="none" stroke="#96ED79" stroke-width="0.300001" x1="300" y1="90" x2="220" y2= "431" />
     <line fill="none" stroke="#96ED79" stroke-width="0.300001" x1="306" y1="91" x2="226" y2= "433" />
     <line fill="none" stroke="#96ED79" stroke-width="0.300001" x1="313" y1="93" x2="233" y2= "434" />
     <line fill="none" stroke="#96ED79" stroke-width="0.300001" x1="322" y1="95" x2="242" y2= "437" />
     <line fill="none" stroke="#96ED79" stroke-width="0.300001" x1="328" y1="96" x2="248" y2= "438" />
     <line fill="none" stroke="#96ED79" stroke-width="0.300001" x1="338" y1="99" x2="257" y2= "440" />
     <line fill="none" stroke="#96ED79" stroke-width="0.300001" x1="347" y1="101" x2="266" y2= "442" />
     <line fill="none" stroke="#96ED79" stroke-width="0.300001" x1="353" y1="102" x2="272" y2= "444" />
     <line fill="none" stroke="#96ED79" stroke-width="0.300001" x1="324" y1="95" x2="243" y2= "437" />
     <line fill="none" stroke="#96ED79" stroke-width="0.300001" x1="333" y1="97" x2="252" y2= "439" />
     <line fill="none" stroke="#96ED79" stroke-width="0.300001" x1="339" y1="99" x2="258" y2= "440" />
     <line fill="none" stroke="#96ED79" stroke-width="0.300001" x1="349" y1="101" x2="268" y2= "443" />
     <line fill="none" stroke="#96ED79" stroke-width="0.300001" x1="358" y1="103" x2="277" y2= "445" />
     <line fill="none" stroke="#96ED79" stroke-width="0.300001" x1="364" y1="105" x2="283" y2= "446" />
     <line fill="none" stroke="#96ED79" stroke-width="0.300001" x1="366" y1="105" x2="285" y2= "447" />
     <line fill="none" stroke="#96ED79" stroke-width="0.300001" x1="375" y1="107" x2="294" y2= "449" />
     <line fill="none" stroke="#96ED79" stroke-width="0.300001" x1="381" y1="109" x2="300" y2= "450" />
     <line fill="none" stroke="#96ED79" stroke-width="0.300001" x1="397" y1="113" x2="316" y2= "454" />
     <line fill="none" stroke="#96ED79" stroke-width="0.300001" x1="406" y1="115" x2="325" y2= "456" />
     <line fill="none" stroke="#96ED79" stroke-width="0.300001" x1="412" y1="116" x2="331" y2= "457" />
     <line fill="none" stroke="#96ED79" stroke-width="0.300001" x1="421" y1="118" x2="340" y2= "460" />
     <line fill="none" stroke="#96ED79" stroke-width="0.300001" x1="430" y1="121" x2="349" y2= "462" />
     <line fill="none" stroke="#96ED79" stroke-width="0.300001" x1="435" y1="126" x2="355" y2= "463" />
     <line fill="none" stroke="#96ED79" stroke-width="0.300001" x1="445" y1="124" x2="364" y2= "465" />
     <line fill="none" stroke="#96ED79" stroke-width="0.300001" x1="454" y1="127" x2="373" y2= "467" />
     <line fill="none" stroke="#96ED79" stroke-width="0.300001" x1="459" y1="131" x2="379" y2= "469" />
     <line fill="none" stroke="#96ED79" stroke-width="0.300001" x1="466" y1="129" x2="385" y2= "470" />
     <line fill="none" stroke="#96ED79" stroke-width="0.300001" x1="474" y1="135" x2="394" y2= "472" />
     <line fill="none" stroke="#96ED79" stroke-width="0.300001" x1="479" y1="140" x2="400" y2= "474" />
     <line fill="none" stroke="#96ED79" stroke-width="0.300001" x1="488" y1="134" x2="408" y2= "475" />
     <line fill="none" stroke="#96ED79" stroke-width="0.300001" x1="497" y1="136" x2="417" y2= "477" />
     <line fill="none" stroke="#96ED79" stroke-width="0.300001" x1="503" y1="138" x2="423" y2= "479" />
     <line fill="none" stroke="#96ED79" stroke-width="0.300001" x1="513" y1="140" x2="432" y2= "481" />
     <line fill="none" stroke="#96ED79" stroke-width="0.300001" x1="522" y1="142" x2="441" y2= "483" />
     <line fill="none" stroke="#96ED79" stroke-width="0.300001" x1="528" y1="143" x2="447" y2= "484" />
     <line fill="none" stroke="#96ED79" stroke-width="0.300001" x1="519" y1="141" x2="438" y2= "482" />
     <line fill="none" stroke="#96ED79" stroke-width="0.300001" x1="528" y1="144" x2="448" y2= "485" />
     <line fill="none" stroke="#96ED79" stroke-width="0.300001" x1="534" y1="145" x2="454" y2= "486" />
     <line fill="none" stroke="#96ED79" stroke-width="0.300001" x1="544" y1="147" x2="464" y2= "488" />
     <line fill="none" stroke="#96ED79" stroke-width="0.300001" x1="553" y1="150" x2="473" y2= "490" />
     <line fill="none" stroke="#96ED79" stroke-width="0.300001" x1="559" y1="151" x2="479" y2= "492" />
     <line fill="none" stroke="#96ED79" stroke-width="0.300001" x1="561" y1="151" x2="481" y2= "492" />
     <line fill="none" stroke="#96ED79" stroke-width="0.300001" x1="570" y1="154" x2="490" y2= "494" />
     <line fill="none" stroke="#96ED79" stroke-width="0.300001" x1="576" y1="155" x2="496" y2= "496" />
     <line fill="none" stroke="#96ED79" stroke-width="0.300001" x1="592" y1="159" x2="512" y2= "500" />
     <line fill="none" stroke="#96ED79" stroke-width="0.300001" x1="602" y1="161" x2="521" y2= "502" />
     <line fill="none" stroke="#96ED79" stroke-width="0.300001" x1="607" y1="162" x2="527" y2= "503" />
     <line fill="none" stroke="#96ED79" stroke-width="0.300001" x1="616" y1="164" x2="536" y2= "505" />
     <line fill="none" stroke="#96ED79" stroke-width="0.300001" x1="625" y1="167" x2="545" y2= "507" />
     <line fill="none" stroke="#96ED79" stroke-width="0.300001" x1="631" y1="168" x2="551" y2= "509" />
     <line fill="none" stroke="#96ED79" stroke-width="0.300001" x1="640" y1="170" x2="559" y2= "511" />
     <line fill="none" stroke="#96ED79" stroke-width="0.300001" x1="649" y1="172" x2="569" y2= "513" />
     <line fill="none" stroke="#96ED79" stroke-width="0.300001" x1="655" y1="174" x2="575" y2= "514" />
     <line fill="none" stroke="#96ED79" stroke-width="0.300001" x1="661" y1="175" x2="581" y2= "516" />
     <line fill="none" stroke="#96ED79" stroke-width="0.300001" x1="671" y1="177" x2="590" y2= "518" />
     <line fill="none" stroke="#96ED79" stroke-width="0.300001" x1="676" y1="179" x2="596" y2= "519" />
     <line fill="none" stroke="#96ED79" stroke-width="0.300001" x1="684" y1="180" x2="603" y2= "521" />
     <line fill="none" stroke="#96ED79" stroke-width="0.300001" x1="693" y1="182" x2="612" y2= "523" />
     <line fill="none" stroke="#96ED79" stroke-width="0.300001" x1="699" y1="184" x2="618" y2= "524" />
     <line fill="none" stroke="#96ED79" stroke-width="0.300001" x1="708" y1="186" x2="628" y2= "527" />
     <line fill="none" stroke="#96ED79" stroke-width="0.300001" x1="717" y1="188" x2="637" y2= "529" />
     <line fill="none" stroke="#96ED79" stroke-width="0.300001" x1="723" y1="190" x2="643" y2= "530" />
     <line fill="none" stroke="#96ED79" stroke-width="0.300001" x1="733" y1="192" x2="652" y2= "532" />
     <line fill="none" stroke="#96ED79" stroke-width="0.300001" x1="738" y1="201" x2="139" y2= "59" />
     <line fill="none" stroke="#96ED79" stroke-width="0.300001" x1="735" y1="213" x2="137" y2= "71" />
     <line fill="none" stroke="#96ED79" stroke-width="0.300001" x1="733" y1="221" x2="135" y2= "79" />
     <line fill="none" stroke="#96ED79" stroke-width="0.300001" x1="730" y1="235" x2="131" y2= "93" />
     <line fill="none" stroke="#96ED79" stroke-width="0.300001" x1="727" y1="247" x2="129" y2= "105" />
     <line fill="none" stroke="#96ED79" stroke-width="0.300001" x1="723" y1="264" x2="125" y2= "122" />
     <line fill="none" stroke="#96ED79" stroke-width="0.300001" x1="725" y1="257" x2="126" y2= "115" />
     <line fill="none" stroke="#96ED79" stroke-width="0.300001" x1="720" y1="278" x2="121" y2= "136" />
     <line fill="none" stroke="#96ED79" stroke-width="0.300001" x1="720" y1="277" x2="121" y2= "136" />
     <line fill="none" stroke="#96ED79" stroke-width="0.300001" x1="717" y1="290" x2="119" y2= "148" />
     <line fill="none" stroke="#96ED79" stroke-width="0.300001" x1="715" y1="298" x2="117" y2= "156" />
     <line fill="none" stroke="#96ED79" stroke-width="0.300001" x1="712" y1="312" x2="113" y2= "170" />
     <line fill="none" stroke="#96ED79" stroke-width="0.300001" x1="709" y1="324" x2="111" y2= "182" />
     <line fill="none" stroke="#96ED79" stroke-width="0.300001" x1="705" y1="341" x2="107" y2= "199" />
     <line fill="none" stroke="#96ED79" stroke-width="0.300001" x1="707" y1="334" x2="108" y2= "192" />
     <line fill="none" stroke="#96ED79" stroke-width="0.300001" x1="702" y1="354" x2="103" y2= "213" />
     <line fill="none" stroke="#96ED79" stroke-width="0.300001" x1="701" y1="358" x2="102" y2= "217" />
     <line fill="none" stroke="#96ED79" stroke-width="0.300001" x1="698" y1="370" x2="100" y2= "229" />
     <line fill="none" stroke="#96ED79" stroke-width="0.300001" x1="696" y1="378" x2="98" y2= "237" />
     <line fill="none" stroke="#96ED79" stroke-width="0.300001" x1="693" y1="392" x2="94" y2= "251" />
     <line fill="none" stroke="#96ED79" stroke-width="0.300001" x1="690" y1="404" x2="92" y2= "263" />
     <line fill="none" stroke="#96ED79" stroke-width="0.300001" x1="686" y1="422" x2="88" y2= "280" />
     <line fill="none" stroke="#96ED79" stroke-width="0.300001" x1="688" y1="414" x2="89" y2= "273" />
     <line fill="none" stroke="#96ED79" stroke-width="0.300001" x1="683" y1="435" x2="84" y2= "294" />
     <line fill="none" stroke="#96ED79" stroke-width="0.300001" x1="680" y1="447" x2="82" y2= "305" />
     <line fill="none" stroke="#96ED79" stroke-width="0.300001" x1="677" y1="459" x2="79" y2= "317" />
     <line fill="none" stroke="#96ED79" stroke-width="0.300001" x1="676" y1="467" x2="77" y2= "325" />
     <line fill="none" stroke="#96ED79" stroke-width="0.300001" x1="672" y1="481" x2="74" y2= "339" />
     <line fill="none" stroke="#96ED79" stroke-width="0.300001" x1="669" y1="493" x2="71" y2= "351" />
     <line fill="none" stroke="#96ED79" stroke-width="0.300001" x1="665" y1="510" x2="67" y2= "368" />
     <line fill="none" stroke="#96ED79" stroke-width="0.300001" x1="667" y1="503" x2="69" y2= "361" />
     <line fill="none" stroke="#96ED79" stroke-width="0.300001" x1="662" y1="523" x2="64" y2= "382" />
    </g>
   </g>
   <path fill="white" fill-rule="nonzero" d="M661 341c5,1 8,6 7,12 -1,5 -6,8 -11,7l-498 -114c-5,-2 -8,-7 -7,-12 1,-5 6,-8 11,-7l498 114z"/>
  </g>
 </g>
 <g id="landmarks-mz10">
  <metadata id="CorelCorpID_1Corel-Layer"/>
  <polygon id="m10lote2" fill="#35AD0E" points="506,366 561,379 535,491 480,478 "/>
  <polygon id="m10lote2A" fill="#35AD0E" points="449,353 503,365 477,477 422,465 "/>
  <polygon id="m10lote3" fill="#35AD0E" points="446,352 390,339 364,451 419,464 "/>
  <polygon id="m10lote3A" fill="#35AD0E" points="333,326 388,339 362,450 307,438 "/>
  <polygon id="m10lote4" fill="#35AD0E" points="330,325 275,313 249,425 304,437 "/>
  <polygon id="m10lote4A" fill="#35AD0E" points="272,312 218,299 192,411 246,423 "/>
  <polygon id="m10lote5" fill="#35AD0E" points="214,298 160,286 134,398 189,410 "/>
  <polygon id="m10lote5A" fill="#35AD0E" points="157,285 102,272 77,384 131,397 "/>
  <polygon id="m10lote6" fill="#35AD0E" points="205,77 151,65 125,177 180,189 "/>
  <polygon id="m10lote6A" fill="#35AD0E" points="263,90 209,78 183,190 238,203 "/>
  <path id="m10lote7" fill="#35AD0E" d="M321 104l-55 -13 -26 112 54 13c0,0 26,-112 27,-112z"/>
  <polygon id="m10lote7A" fill="#35AD0E" points="378,118 324,105 297,217 352,230 "/>
  <polygon id="m10lote8" fill="#35AD0E" points="436,131 381,118 355,230 409,243 "/>
  <polygon id="m10lote8A" fill="#35AD0E" points="493,144 439,131 413,243 467,257 "/>
  <polygon id="m10lote9" fill="#35AD0E" points="551,158 496,145 470,257 525,270 "/>
  <polygon id="m10lote9A" fill="#35AD0E" points="608,171 554,158 527,271 582,283 "/>
  <polygon id="m10lote10" fill="#35AD0E" points="666,185 611,172 585,284 639,297 "/>
  <polygon id="m10lote10A" fill="#35AD0E" points="669,185 723,198 697,310 642,298 "/>
  <polygon id="m10lote1" fill="#35AD0E" points="621,393 676,406 650,518 595,505 "/>
  <polygon id="m10lote1A" fill="#35AD0E" points="619,393 563,380 538,491 592,504 "/>
 </g>
</svg>
