<?xml version="1.0" encoding="UTF-8"?>
<!DOCTYPE svg PUBLIC "-//W3C//DTD SVG 1.1//EN" "http://www.w3.org/Graphics/SVG/1.1/DTD/svg11.dtd">
<!-- Creator: CorelDRAW X7 -->
<svg xmlns="http://www.w3.org/2000/svg" xml:space="preserve" width="800px" height="600px" version="1.1" shape-rendering="geometricPrecision" text-rendering="geometricPrecision" image-rendering="optimizeQuality" fill-rule="evenodd" clip-rule="evenodd"
viewBox="0 0 800 600"
 xmlns:xlink="http://www.w3.org/1999/xlink">
 <g id="base">
  <metadata id="CorelCorpID_0Corel-Layer"/>
  <g id="_476509952">
   <polygon fill="#35AD0E" points="149,58 750,200 670,542 68,402 "/>
   <g>
    <polygon fill="#63D13E" points="137,44 746,188 665,535 55,392 "/>
    <g>
     <line fill="none" stroke="#96ED79" stroke-width="0.300001" x1="145" y1="46" x2="63" y2= "394" />
     <line fill="none" stroke="#96ED79" stroke-width="0.300001" x1="154" y1="48" x2="72" y2= "396" />
     <line fill="none" stroke="#96ED79" stroke-width="0.300001" x1="160" y1="49" x2="78" y2= "398" />
     <line fill="none" stroke="#96ED79" stroke-width="0.300001" x1="171" y1="52" x2="88" y2= "400" />
     <line fill="none" stroke="#96ED79" stroke-width="0.300001" x1="180" y1="54" x2="98" y2= "402" />
     <line fill="none" stroke="#96ED79" stroke-width="0.300001" x1="186" y1="56" x2="104" y2= "404" />
     <line fill="none" stroke="#96ED79" stroke-width="0.300001" x1="188" y1="56" x2="106" y2= "404" />
     <line fill="none" stroke="#96ED79" stroke-width="0.300001" x1="197" y1="58" x2="115" y2= "406" />
     <line fill="none" stroke="#96ED79" stroke-width="0.300001" x1="203" y1="60" x2="121" y2= "408" />
     <line fill="none" stroke="#96ED79" stroke-width="0.300001" x1="220" y1="63" x2="137" y2= "412" />
     <line fill="none" stroke="#96ED79" stroke-width="0.300001" x1="229" y1="66" x2="147" y2= "414" />
     <line fill="none" stroke="#96ED79" stroke-width="0.300001" x1="235" y1="67" x2="153" y2= "415" />
     <line fill="none" stroke="#96ED79" stroke-width="0.300001" x1="244" y1="69" x2="162" y2= "417" />
     <line fill="none" stroke="#96ED79" stroke-width="0.300001" x1="253" y1="71" x2="171" y2= "419" />
     <line fill="none" stroke="#96ED79" stroke-width="0.300001" x1="259" y1="73" x2="177" y2= "421" />
     <line fill="none" stroke="#96ED79" stroke-width="0.300001" x1="268" y1="75" x2="186" y2= "423" />
     <line fill="none" stroke="#96ED79" stroke-width="0.300001" x1="277" y1="77" x2="195" y2= "425" />
     <line fill="none" stroke="#96ED79" stroke-width="0.300001" x1="283" y1="79" x2="201" y2= "426" />
     <line fill="none" stroke="#96ED79" stroke-width="0.300001" x1="290" y1="80" x2="208" y2= "428" />
     <line fill="none" stroke="#96ED79" stroke-width="0.300001" x1="299" y1="82" x2="217" y2= "430" />
     <line fill="none" stroke="#96ED79" stroke-width="0.300001" x1="305" y1="84" x2="223" y2= "432" />
     <line fill="none" stroke="#96ED79" stroke-width="0.300001" x1="312" y1="85" x2="230" y2= "433" />
     <line fill="none" stroke="#96ED79" stroke-width="0.300001" x1="322" y1="88" x2="239" y2= "435" />
     <line fill="none" stroke="#96ED79" stroke-width="0.300001" x1="328" y1="89" x2="246" y2= "437" />
     <line fill="none" stroke="#96ED79" stroke-width="0.300001" x1="337" y1="91" x2="255" y2= "439" />
     <line fill="none" stroke="#96ED79" stroke-width="0.300001" x1="347" y1="94" x2="264" y2= "441" />
     <line fill="none" stroke="#96ED79" stroke-width="0.300001" x1="353" y1="95" x2="270" y2= "443" />
     <line fill="none" stroke="#96ED79" stroke-width="0.300001" x1="323" y1="88" x2="241" y2= "436" />
     <line fill="none" stroke="#96ED79" stroke-width="0.300001" x1="332" y1="90" x2="250" y2= "438" />
     <line fill="none" stroke="#96ED79" stroke-width="0.300001" x1="338" y1="92" x2="256" y2= "439" />
     <line fill="none" stroke="#96ED79" stroke-width="0.300001" x1="349" y1="94" x2="266" y2= "442" />
     <line fill="none" stroke="#96ED79" stroke-width="0.300001" x1="358" y1="96" x2="276" y2= "444" />
     <line fill="none" stroke="#96ED79" stroke-width="0.300001" x1="364" y1="98" x2="282" y2= "445" />
     <line fill="none" stroke="#96ED79" stroke-width="0.300001" x1="366" y1="98" x2="284" y2= "446" />
     <line fill="none" stroke="#96ED79" stroke-width="0.300001" x1="375" y1="100" x2="293" y2= "448" />
     <line fill="none" stroke="#96ED79" stroke-width="0.300001" x1="381" y1="102" x2="299" y2= "449" />
     <line fill="none" stroke="#96ED79" stroke-width="0.300001" x1="398" y1="106" x2="315" y2= "453" />
     <line fill="none" stroke="#96ED79" stroke-width="0.300001" x1="407" y1="108" x2="325" y2= "455" />
     <line fill="none" stroke="#96ED79" stroke-width="0.300001" x1="413" y1="109" x2="331" y2= "457" />
     <line fill="none" stroke="#96ED79" stroke-width="0.300001" x1="422" y1="111" x2="340" y2= "459" />
     <line fill="none" stroke="#96ED79" stroke-width="0.300001" x1="431" y1="115" x2="349" y2= "461" />
     <line fill="none" stroke="#96ED79" stroke-width="0.300001" x1="436" y1="119" x2="355" y2= "462" />
     <line fill="none" stroke="#96ED79" stroke-width="0.300001" x1="446" y1="117" x2="364" y2= "464" />
     <line fill="none" stroke="#96ED79" stroke-width="0.300001" x1="455" y1="120" x2="373" y2= "467" />
     <line fill="none" stroke="#96ED79" stroke-width="0.300001" x1="461" y1="124" x2="379" y2= "468" />
     <line fill="none" stroke="#96ED79" stroke-width="0.300001" x1="468" y1="122" x2="386" y2= "470" />
     <line fill="none" stroke="#96ED79" stroke-width="0.300001" x1="476" y1="128" x2="395" y2= "472" />
     <line fill="none" stroke="#96ED79" stroke-width="0.300001" x1="481" y1="133" x2="401" y2= "473" />
     <line fill="none" stroke="#96ED79" stroke-width="0.300001" x1="490" y1="127" x2="408" y2= "475" />
     <line fill="none" stroke="#96ED79" stroke-width="0.300001" x1="500" y1="130" x2="418" y2= "477" />
     <line fill="none" stroke="#96ED79" stroke-width="0.300001" x1="506" y1="131" x2="424" y2= "478" />
     <line fill="none" stroke="#96ED79" stroke-width="0.300001" x1="515" y1="133" x2="433" y2= "481" />
     <line fill="none" stroke="#96ED79" stroke-width="0.300001" x1="525" y1="136" x2="442" y2= "483" />
     <line fill="none" stroke="#96ED79" stroke-width="0.300001" x1="531" y1="137" x2="449" y2= "484" />
     <line fill="none" stroke="#96ED79" stroke-width="0.300001" x1="522" y1="135" x2="440" y2= "482" />
     <line fill="none" stroke="#96ED79" stroke-width="0.300001" x1="531" y1="137" x2="449" y2= "484" />
     <line fill="none" stroke="#96ED79" stroke-width="0.300001" x1="537" y1="139" x2="455" y2= "486" />
     <line fill="none" stroke="#96ED79" stroke-width="0.300001" x1="547" y1="141" x2="465" y2= "488" />
     <line fill="none" stroke="#96ED79" stroke-width="0.300001" x1="557" y1="143" x2="475" y2= "490" />
     <line fill="none" stroke="#96ED79" stroke-width="0.300001" x1="563" y1="145" x2="481" y2= "492" />
     <line fill="none" stroke="#96ED79" stroke-width="0.300001" x1="565" y1="145" x2="483" y2= "492" />
     <line fill="none" stroke="#96ED79" stroke-width="0.300001" x1="574" y1="147" x2="492" y2= "494" />
     <line fill="none" stroke="#96ED79" stroke-width="0.300001" x1="580" y1="149" x2="498" y2= "496" />
     <line fill="none" stroke="#96ED79" stroke-width="0.300001" x1="596" y1="153" x2="514" y2= "500" />
     <line fill="none" stroke="#96ED79" stroke-width="0.300001" x1="606" y1="155" x2="524" y2= "502" />
     <line fill="none" stroke="#96ED79" stroke-width="0.300001" x1="612" y1="156" x2="530" y2= "503" />
     <line fill="none" stroke="#96ED79" stroke-width="0.300001" x1="621" y1="158" x2="539" y2= "505" />
     <line fill="none" stroke="#96ED79" stroke-width="0.300001" x1="630" y1="161" x2="548" y2= "507" />
     <line fill="none" stroke="#96ED79" stroke-width="0.300001" x1="636" y1="162" x2="554" y2= "509" />
     <line fill="none" stroke="#96ED79" stroke-width="0.300001" x1="645" y1="164" x2="563" y2= "511" />
     <line fill="none" stroke="#96ED79" stroke-width="0.300001" x1="654" y1="166" x2="572" y2= "513" />
     <line fill="none" stroke="#96ED79" stroke-width="0.300001" x1="660" y1="168" x2="578" y2= "514" />
     <line fill="none" stroke="#96ED79" stroke-width="0.300001" x1="667" y1="169" x2="585" y2= "516" />
     <line fill="none" stroke="#96ED79" stroke-width="0.300001" x1="676" y1="171" x2="594" y2= "518" />
     <line fill="none" stroke="#96ED79" stroke-width="0.300001" x1="682" y1="173" x2="600" y2= "520" />
     <line fill="none" stroke="#96ED79" stroke-width="0.300001" x1="689" y1="175" x2="607" y2= "521" />
     <line fill="none" stroke="#96ED79" stroke-width="0.300001" x1="699" y1="177" x2="617" y2= "523" />
     <line fill="none" stroke="#96ED79" stroke-width="0.300001" x1="705" y1="178" x2="623" y2= "525" />
     <line fill="none" stroke="#96ED79" stroke-width="0.300001" x1="714" y1="180" x2="632" y2= "527" />
     <line fill="none" stroke="#96ED79" stroke-width="0.300001" x1="724" y1="183" x2="642" y2= "529" />
     <line fill="none" stroke="#96ED79" stroke-width="0.300001" x1="730" y1="184" x2="648" y2= "531" />
     <line fill="none" stroke="#96ED79" stroke-width="0.300001" x1="739" y1="186" x2="658" y2= "533" />
     <line fill="none" stroke="#96ED79" stroke-width="0.300001" x1="745" y1="195" x2="135" y2= "51" />
     <line fill="none" stroke="#96ED79" stroke-width="0.300001" x1="742" y1="208" x2="132" y2= "64" />
     <line fill="none" stroke="#96ED79" stroke-width="0.300001" x1="740" y1="216" x2="130" y2= "72" />
     <line fill="none" stroke="#96ED79" stroke-width="0.300001" x1="736" y1="230" x2="127" y2= "86" />
     <line fill="none" stroke="#96ED79" stroke-width="0.300001" x1="734" y1="242" x2="124" y2= "98" />
     <line fill="none" stroke="#96ED79" stroke-width="0.300001" x1="729" y1="260" x2="120" y2= "116" />
     <line fill="none" stroke="#96ED79" stroke-width="0.300001" x1="731" y1="252" x2="122" y2= "108" />
     <line fill="none" stroke="#96ED79" stroke-width="0.300001" x1="726" y1="274" x2="117" y2= "129" />
     <line fill="none" stroke="#96ED79" stroke-width="0.300001" x1="726" y1="273" x2="117" y2= "129" />
     <line fill="none" stroke="#96ED79" stroke-width="0.300001" x1="723" y1="286" x2="114" y2= "142" />
     <line fill="none" stroke="#96ED79" stroke-width="0.300001" x1="721" y1="294" x2="112" y2= "150" />
     <line fill="none" stroke="#96ED79" stroke-width="0.300001" x1="718" y1="308" x2="109" y2= "164" />
     <line fill="none" stroke="#96ED79" stroke-width="0.300001" x1="715" y1="320" x2="106" y2= "176" />
     <line fill="none" stroke="#96ED79" stroke-width="0.300001" x1="711" y1="338" x2="102" y2= "194" />
     <line fill="none" stroke="#96ED79" stroke-width="0.300001" x1="713" y1="331" x2="103" y2= "187" />
     <line fill="none" stroke="#96ED79" stroke-width="0.300001" x1="708" y1="352" x2="99" y2= "208" />
     <line fill="none" stroke="#96ED79" stroke-width="0.300001" x1="707" y1="356" x2="98" y2= "212" />
     <line fill="none" stroke="#96ED79" stroke-width="0.300001" x1="704" y1="368" x2="95" y2= "224" />
     <line fill="none" stroke="#96ED79" stroke-width="0.300001" x1="702" y1="376" x2="93" y2= "232" />
     <line fill="none" stroke="#96ED79" stroke-width="0.300001" x1="699" y1="391" x2="89" y2= "246" />
     <line fill="none" stroke="#96ED79" stroke-width="0.300001" x1="696" y1="403" x2="87" y2= "259" />
     <line fill="none" stroke="#96ED79" stroke-width="0.300001" x1="692" y1="420" x2="82" y2= "276" />
     <line fill="none" stroke="#96ED79" stroke-width="0.300001" x1="694" y1="413" x2="84" y2= "269" />
     <line fill="none" stroke="#96ED79" stroke-width="0.300001" x1="689" y1="434" x2="79" y2= "290" />
     <line fill="none" stroke="#96ED79" stroke-width="0.300001" x1="686" y1="446" x2="76" y2= "302" />
     <line fill="none" stroke="#96ED79" stroke-width="0.300001" x1="683" y1="458" x2="74" y2= "314" />
     <line fill="none" stroke="#96ED79" stroke-width="0.300001" x1="681" y1="466" x2="72" y2= "322" />
     <line fill="none" stroke="#96ED79" stroke-width="0.300001" x1="678" y1="481" x2="68" y2= "336" />
     <line fill="none" stroke="#96ED79" stroke-width="0.300001" x1="675" y1="493" x2="65" y2= "349" />
     <line fill="none" stroke="#96ED79" stroke-width="0.300001" x1="671" y1="510" x2="61" y2= "366" />
     <line fill="none" stroke="#96ED79" stroke-width="0.300001" x1="673" y1="503" x2="63" y2= "359" />
     <line fill="none" stroke="#96ED79" stroke-width="0.300001" x1="668" y1="524" x2="58" y2= "380" />
    </g>
   </g>
   <path fill="white" fill-rule="nonzero" d="M666 338c6,1 9,7 8,12 -1,5 -7,8 -12,7l-507 -116c-5,-1 -8,-7 -7,-12 1,-5 6,-8 12,-7l506 116z"/>
  </g>
 </g>
 <g id="landmarks-mz11">
  <metadata id="CorelCorpID_1Corel-Layer"/>
  <polygon id="m11lote3" fill="#35AD0E" points="511,365 566,378 540,493 484,480 "/>
  <polygon id="m11lote4" fill="#35AD0E" points="452,352 508,365 481,479 425,466 "/>
  <polygon id="m11lote5" fill="#35AD0E" points="449,351 392,338 366,452 422,465 "/>
  <polygon id="m11lote6" fill="#35AD0E" points="333,325 390,337 363,452 307,439 "/>
  <polygon id="m11lote7" fill="#35AD0E" points="331,324 274,310 248,425 304,438 "/>
  <polygon id="m11lote8" fill="#35AD0E" points="271,310 215,297 189,411 245,424 "/>
  <polygon id="m11lote9" fill="#35AD0E" points="212,296 157,283 130,398 186,411 "/>
  <polygon id="m11lote10" fill="#35AD0E" points="154,283 98,269 71,384 127,397 "/>
  <polygon id="m11lote11" fill="#35AD0E" points="203,70 148,57 121,172 177,185 "/>
  <polygon id="m11lote12" fill="#35AD0E" points="262,84 207,71 180,185 236,198 "/>
  <path id="m11lote13" fill="#35AD0E" d="M321 97l-56 -12 -26 114 55 13c0,0 27,-115 27,-115z"/>
  <polygon id="m11lote14" fill="#35AD0E" points="380,112 324,98 298,213 354,226 "/>
  <polygon id="m11lote15" fill="#35AD0E" points="439,125 383,112 356,227 412,240 "/>
  <polygon id="m11lote16" fill="#35AD0E" points="498,139 442,125 416,240 471,254 "/>
  <polygon id="m11lote17" fill="#35AD0E" points="557,153 501,140 475,254 530,268 "/>
  <polygon id="m11lote18" fill="#35AD0E" points="616,166 560,153 533,268 589,281 "/>
  <polygon id="m11lote19" fill="#35AD0E" points="605,226 592,281 707,309 720,252 "/>
  <polygon id="m11lote20" fill="#35AD0E" points="606,223 619,167 734,193 721,249 "/>
  <polygon id="m11lote1" fill="#35AD0E" points="671,465 658,521 542,494 555,437 "/>
  <polygon id="m11lote2" fill="#35AD0E" points="672,462 684,406 570,379 557,435 "/>
 </g>
</svg>
