<?xml version="1.0" encoding="UTF-8"?>
<!DOCTYPE svg PUBLIC "-//W3C//DTD SVG 1.1//EN" "http://www.w3.org/Graphics/SVG/1.1/DTD/svg11.dtd">
<!-- Creator: CorelDRAW X7 -->
<svg xmlns="http://www.w3.org/2000/svg" xml:space="preserve" width="800px" height="600px" version="1.1" shape-rendering="geometricPrecision" text-rendering="geometricPrecision" image-rendering="optimizeQuality" fill-rule="evenodd" clip-rule="evenodd"
viewBox="0 0 800 600"
 xmlns:xlink="http://www.w3.org/1999/xlink">
 <g id="base">
  <metadata id="CorelCorpID_0Corel-Layer"/>
  <g id="_480048720">
   <polygon fill="#35AD0E" points="148,61 752,203 672,547 67,406 "/>
   <g>
    <polygon fill="#63D13E" points="136,46 748,191 667,539 54,396 "/>
    <g>
     <line fill="none" stroke="#96ED79" stroke-width="0.300001" x1="144" y1="48" x2="62" y2= "398" />
     <line fill="none" stroke="#96ED79" stroke-width="0.300001" x1="154" y1="50" x2="71" y2= "400" />
     <line fill="none" stroke="#96ED79" stroke-width="0.300001" x1="160" y1="52" x2="77" y2= "402" />
     <line fill="none" stroke="#96ED79" stroke-width="0.300001" x1="170" y1="54" x2="88" y2= "404" />
     <line fill="none" stroke="#96ED79" stroke-width="0.300001" x1="180" y1="57" x2="97" y2= "406" />
     <line fill="none" stroke="#96ED79" stroke-width="0.300001" x1="186" y1="58" x2="103" y2= "408" />
     <line fill="none" stroke="#96ED79" stroke-width="0.300001" x1="188" y1="58" x2="105" y2= "408" />
     <line fill="none" stroke="#96ED79" stroke-width="0.300001" x1="197" y1="61" x2="114" y2= "410" />
     <line fill="none" stroke="#96ED79" stroke-width="0.300001" x1="203" y1="62" x2="120" y2= "412" />
     <line fill="none" stroke="#96ED79" stroke-width="0.300001" x1="219" y1="66" x2="137" y2= "416" />
     <line fill="none" stroke="#96ED79" stroke-width="0.300001" x1="229" y1="68" x2="146" y2= "418" />
     <line fill="none" stroke="#96ED79" stroke-width="0.300001" x1="235" y1="70" x2="152" y2= "419" />
     <line fill="none" stroke="#96ED79" stroke-width="0.300001" x1="244" y1="72" x2="161" y2= "421" />
     <line fill="none" stroke="#96ED79" stroke-width="0.300001" x1="253" y1="74" x2="171" y2= "423" />
     <line fill="none" stroke="#96ED79" stroke-width="0.300001" x1="259" y1="75" x2="177" y2= "425" />
     <line fill="none" stroke="#96ED79" stroke-width="0.300001" x1="268" y1="77" x2="186" y2= "427" />
     <line fill="none" stroke="#96ED79" stroke-width="0.300001" x1="277" y1="80" x2="195" y2= "429" />
     <line fill="none" stroke="#96ED79" stroke-width="0.300001" x1="284" y1="81" x2="201" y2= "431" />
     <line fill="none" stroke="#96ED79" stroke-width="0.300001" x1="290" y1="83" x2="207" y2= "432" />
     <line fill="none" stroke="#96ED79" stroke-width="0.300001" x1="299" y1="85" x2="217" y2= "434" />
     <line fill="none" stroke="#96ED79" stroke-width="0.300001" x1="305" y1="86" x2="223" y2= "436" />
     <line fill="none" stroke="#96ED79" stroke-width="0.300001" x1="313" y1="88" x2="230" y2= "437" />
     <line fill="none" stroke="#96ED79" stroke-width="0.300001" x1="322" y1="90" x2="239" y2= "440" />
     <line fill="none" stroke="#96ED79" stroke-width="0.300001" x1="328" y1="92" x2="245" y2= "441" />
     <line fill="none" stroke="#96ED79" stroke-width="0.300001" x1="338" y1="94" x2="255" y2= "443" />
     <line fill="none" stroke="#96ED79" stroke-width="0.300001" x1="347" y1="96" x2="264" y2= "445" />
     <line fill="none" stroke="#96ED79" stroke-width="0.300001" x1="353" y1="98" x2="271" y2= "447" />
     <line fill="none" stroke="#96ED79" stroke-width="0.300001" x1="323" y1="91" x2="241" y2= "440" />
     <line fill="none" stroke="#96ED79" stroke-width="0.300001" x1="333" y1="93" x2="250" y2= "442" />
     <line fill="none" stroke="#96ED79" stroke-width="0.300001" x1="339" y1="94" x2="256" y2= "443" />
     <line fill="none" stroke="#96ED79" stroke-width="0.300001" x1="349" y1="97" x2="266" y2= "446" />
     <line fill="none" stroke="#96ED79" stroke-width="0.300001" x1="358" y1="99" x2="276" y2= "448" />
     <line fill="none" stroke="#96ED79" stroke-width="0.300001" x1="364" y1="100" x2="282" y2= "449" />
     <line fill="none" stroke="#96ED79" stroke-width="0.300001" x1="366" y1="101" x2="284" y2= "450" />
     <line fill="none" stroke="#96ED79" stroke-width="0.300001" x1="376" y1="103" x2="293" y2= "452" />
     <line fill="none" stroke="#96ED79" stroke-width="0.300001" x1="382" y1="104" x2="299" y2= "454" />
     <line fill="none" stroke="#96ED79" stroke-width="0.300001" x1="398" y1="108" x2="316" y2= "457" />
     <line fill="none" stroke="#96ED79" stroke-width="0.300001" x1="408" y1="110" x2="325" y2= "460" />
     <line fill="none" stroke="#96ED79" stroke-width="0.300001" x1="414" y1="112" x2="331" y2= "461" />
     <line fill="none" stroke="#96ED79" stroke-width="0.300001" x1="423" y1="114" x2="340" y2= "463" />
     <line fill="none" stroke="#96ED79" stroke-width="0.300001" x1="432" y1="117" x2="349" y2= "465" />
     <line fill="none" stroke="#96ED79" stroke-width="0.300001" x1="437" y1="122" x2="356" y2= "467" />
     <line fill="none" stroke="#96ED79" stroke-width="0.300001" x1="447" y1="120" x2="364" y2= "469" />
     <line fill="none" stroke="#96ED79" stroke-width="0.300001" x1="456" y1="122" x2="374" y2= "471" />
     <line fill="none" stroke="#96ED79" stroke-width="0.300001" x1="461" y1="127" x2="380" y2= "472" />
     <line fill="none" stroke="#96ED79" stroke-width="0.300001" x1="469" y1="125" x2="386" y2= "474" />
     <line fill="none" stroke="#96ED79" stroke-width="0.300001" x1="477" y1="131" x2="396" y2= "476" />
     <line fill="none" stroke="#96ED79" stroke-width="0.300001" x1="482" y1="136" x2="402" y2= "477" />
     <line fill="none" stroke="#96ED79" stroke-width="0.300001" x1="491" y1="130" x2="409" y2= "479" />
     <line fill="none" stroke="#96ED79" stroke-width="0.300001" x1="501" y1="132" x2="418" y2= "481" />
     <line fill="none" stroke="#96ED79" stroke-width="0.300001" x1="507" y1="134" x2="424" y2= "483" />
     <line fill="none" stroke="#96ED79" stroke-width="0.300001" x1="516" y1="136" x2="434" y2= "485" />
     <line fill="none" stroke="#96ED79" stroke-width="0.300001" x1="526" y1="138" x2="443" y2= "487" />
     <line fill="none" stroke="#96ED79" stroke-width="0.300001" x1="532" y1="140" x2="449" y2= "489" />
     <line fill="none" stroke="#96ED79" stroke-width="0.300001" x1="523" y1="138" x2="441" y2= "487" />
     <line fill="none" stroke="#96ED79" stroke-width="0.300001" x1="532" y1="140" x2="450" y2= "489" />
     <line fill="none" stroke="#96ED79" stroke-width="0.300001" x1="538" y1="141" x2="456" y2= "490" />
     <line fill="none" stroke="#96ED79" stroke-width="0.300001" x1="549" y1="144" x2="466" y2= "493" />
     <line fill="none" stroke="#96ED79" stroke-width="0.300001" x1="558" y1="146" x2="476" y2= "495" />
     <line fill="none" stroke="#96ED79" stroke-width="0.300001" x1="564" y1="147" x2="482" y2= "496" />
     <line fill="none" stroke="#96ED79" stroke-width="0.300001" x1="566" y1="148" x2="484" y2= "497" />
     <line fill="none" stroke="#96ED79" stroke-width="0.300001" x1="576" y1="150" x2="493" y2= "499" />
     <line fill="none" stroke="#96ED79" stroke-width="0.300001" x1="582" y1="152" x2="499" y2= "500" />
     <line fill="none" stroke="#96ED79" stroke-width="0.300001" x1="598" y1="155" x2="516" y2= "504" />
     <line fill="none" stroke="#96ED79" stroke-width="0.300001" x1="607" y1="158" x2="525" y2= "506" />
     <line fill="none" stroke="#96ED79" stroke-width="0.300001" x1="613" y1="159" x2="531" y2= "508" />
     <line fill="none" stroke="#96ED79" stroke-width="0.300001" x1="622" y1="161" x2="540" y2= "510" />
     <line fill="none" stroke="#96ED79" stroke-width="0.300001" x1="632" y1="163" x2="549" y2= "512" />
     <line fill="none" stroke="#96ED79" stroke-width="0.300001" x1="638" y1="165" x2="556" y2= "513" />
     <line fill="none" stroke="#96ED79" stroke-width="0.300001" x1="647" y1="167" x2="564" y2= "515" />
     <line fill="none" stroke="#96ED79" stroke-width="0.300001" x1="656" y1="169" x2="574" y2= "518" />
     <line fill="none" stroke="#96ED79" stroke-width="0.300001" x1="662" y1="171" x2="580" y2= "519" />
     <line fill="none" stroke="#96ED79" stroke-width="0.300001" x1="669" y1="172" x2="586" y2= "521" />
     <line fill="none" stroke="#96ED79" stroke-width="0.300001" x1="678" y1="174" x2="596" y2= "523" />
     <line fill="none" stroke="#96ED79" stroke-width="0.300001" x1="684" y1="176" x2="602" y2= "524" />
     <line fill="none" stroke="#96ED79" stroke-width="0.300001" x1="691" y1="177" x2="609" y2= "526" />
     <line fill="none" stroke="#96ED79" stroke-width="0.300001" x1="701" y1="180" x2="618" y2= "528" />
     <line fill="none" stroke="#96ED79" stroke-width="0.300001" x1="707" y1="181" x2="624" y2= "529" />
     <line fill="none" stroke="#96ED79" stroke-width="0.300001" x1="716" y1="183" x2="634" y2= "532" />
     <line fill="none" stroke="#96ED79" stroke-width="0.300001" x1="726" y1="186" x2="643" y2= "534" />
     <line fill="none" stroke="#96ED79" stroke-width="0.300001" x1="732" y1="187" x2="649" y2= "535" />
     <line fill="none" stroke="#96ED79" stroke-width="0.300001" x1="742" y1="189" x2="659" y2= "538" />
     <line fill="none" stroke="#96ED79" stroke-width="0.300001" x1="747" y1="198" x2="135" y2= "54" />
     <line fill="none" stroke="#96ED79" stroke-width="0.300001" x1="744" y1="211" x2="132" y2= "66" />
     <line fill="none" stroke="#96ED79" stroke-width="0.300001" x1="742" y1="219" x2="130" y2= "74" />
     <line fill="none" stroke="#96ED79" stroke-width="0.300001" x1="739" y1="233" x2="126" y2= "89" />
     <line fill="none" stroke="#96ED79" stroke-width="0.300001" x1="736" y1="246" x2="124" y2= "101" />
     <line fill="none" stroke="#96ED79" stroke-width="0.300001" x1="732" y1="263" x2="120" y2= "118" />
     <line fill="none" stroke="#96ED79" stroke-width="0.300001" x1="733" y1="256" x2="121" y2= "111" />
     <line fill="none" stroke="#96ED79" stroke-width="0.300001" x1="728" y1="277" x2="116" y2= "132" />
     <line fill="none" stroke="#96ED79" stroke-width="0.300001" x1="728" y1="277" x2="116" y2= "132" />
     <line fill="none" stroke="#96ED79" stroke-width="0.300001" x1="725" y1="289" x2="113" y2= "145" />
     <line fill="none" stroke="#96ED79" stroke-width="0.300001" x1="724" y1="298" x2="111" y2= "153" />
     <line fill="none" stroke="#96ED79" stroke-width="0.300001" x1="720" y1="312" x2="108" y2= "167" />
     <line fill="none" stroke="#96ED79" stroke-width="0.300001" x1="717" y1="324" x2="105" y2= "179" />
     <line fill="none" stroke="#96ED79" stroke-width="0.300001" x1="713" y1="342" x2="101" y2= "197" />
     <line fill="none" stroke="#96ED79" stroke-width="0.300001" x1="715" y1="334" x2="103" y2= "190" />
     <line fill="none" stroke="#96ED79" stroke-width="0.300001" x1="710" y1="355" x2="98" y2= "211" />
     <line fill="none" stroke="#96ED79" stroke-width="0.300001" x1="709" y1="359" x2="97" y2= "215" />
     <line fill="none" stroke="#96ED79" stroke-width="0.300001" x1="706" y1="372" x2="94" y2= "227" />
     <line fill="none" stroke="#96ED79" stroke-width="0.300001" x1="704" y1="380" x2="92" y2= "235" />
     <line fill="none" stroke="#96ED79" stroke-width="0.300001" x1="701" y1="394" x2="89" y2= "250" />
     <line fill="none" stroke="#96ED79" stroke-width="0.300001" x1="698" y1="407" x2="86" y2= "262" />
     <line fill="none" stroke="#96ED79" stroke-width="0.300001" x1="694" y1="424" x2="82" y2= "279" />
     <line fill="none" stroke="#96ED79" stroke-width="0.300001" x1="696" y1="417" x2="83" y2= "272" />
     <line fill="none" stroke="#96ED79" stroke-width="0.300001" x1="691" y1="438" x2="78" y2= "293" />
     <line fill="none" stroke="#96ED79" stroke-width="0.300001" x1="688" y1="450" x2="76" y2= "305" />
     <line fill="none" stroke="#96ED79" stroke-width="0.300001" x1="685" y1="462" x2="73" y2= "318" />
     <line fill="none" stroke="#96ED79" stroke-width="0.300001" x1="683" y1="470" x2="71" y2= "326" />
     <line fill="none" stroke="#96ED79" stroke-width="0.300001" x1="680" y1="485" x2="68" y2= "340" />
     <line fill="none" stroke="#96ED79" stroke-width="0.300001" x1="677" y1="497" x2="65" y2= "352" />
     <line fill="none" stroke="#96ED79" stroke-width="0.300001" x1="673" y1="515" x2="61" y2= "370" />
     <line fill="none" stroke="#96ED79" stroke-width="0.300001" x1="674" y1="507" x2="62" y2= "363" />
     <line fill="none" stroke="#96ED79" stroke-width="0.300001" x1="669" y1="528" x2="57" y2= "384" />
    </g>
   </g>
   <path fill="white" fill-rule="nonzero" d="M668 342c6,1 9,6 8,12 -2,5 -7,8 -12,7l-509 -117c-5,-1 -9,-6 -7,-12 1,-5 6,-8 11,-7l509 117z"/>
  </g>
 </g>
 <g id="landmarks-mz12">
  <metadata id="CorelCorpID_1Corel-Layer"/>
  <polygon id="m12lote3" fill="#35AD0E" points="509,367 565,380 539,495 483,482 "/>
  <polygon id="m12lote4" fill="#35AD0E" points="451,354 507,367 480,481 424,468 "/>
  <polygon id="m12lote5" fill="#35AD0E" points="448,353 392,340 365,454 421,468 "/>
  <polygon id="m12lote6" fill="#35AD0E" points="333,327 389,340 362,454 306,441 "/>
  <polygon id="m12lote7" fill="#35AD0E" points="330,326 274,313 247,427 303,440 "/>
  <polygon id="m12lote8" fill="#35AD0E" points="271,312 215,300 189,414 244,426 "/>
  <polygon id="m12lote9" fill="#35AD0E" points="212,298 156,286 130,400 186,413 "/>
  <polygon id="m12lote10" fill="#35AD0E" points="154,285 97,272 71,386 127,400 "/>
  <polygon id="m12lote11" fill="#35AD0E" points="203,73 147,60 121,175 177,188 "/>
  <polygon id="m12lote12" fill="#35AD0E" points="262,87 206,74 180,188 236,201 "/>
  <path id="m12lote13" fill="#35AD0E" d="M321 100l-56 -12 -27 114 56 13c0,0 26,-115 27,-115z"/>
  <polygon id="m12lote14" fill="#35AD0E" points="379,115 324,101 297,216 353,229 "/>
  <polygon id="m12lote15" fill="#35AD0E" points="438,128 382,115 356,229 411,243 "/>
  <polygon id="m12lote16" fill="#35AD0E" points="497,142 441,128 415,243 470,256 "/>
  <polygon id="m12lote17" fill="#35AD0E" points="556,155 500,142 473,257 529,270 "/>
  <polygon id="m12lote18" fill="#35AD0E" points="615,169 559,156 532,271 588,284 "/>
  <polygon id="m12lote19" fill="#35AD0E" points="604,228 590,284 706,311 718,255 "/>
  <polygon id="m12lote20" fill="#35AD0E" points="604,225 618,169 733,196 720,252 "/>
  <polygon id="m12lote1" fill="#35AD0E" points="669,467 656,523 541,496 554,440 "/>
  <polygon id="m12lote2" fill="#35AD0E" points="670,464 683,408 568,381 555,437 "/>
 </g>
</svg>
