<?xml version="1.0" encoding="UTF-8"?>
<!DOCTYPE svg PUBLIC "-//W3C//DTD SVG 1.1//EN" "http://www.w3.org/Graphics/SVG/1.1/DTD/svg11.dtd">
<!-- Creator: CorelDRAW X7 -->
<svg xmlns="http://www.w3.org/2000/svg" xml:space="preserve" width="800px" height="600px" version="1.1" shape-rendering="geometricPrecision" text-rendering="geometricPrecision" image-rendering="optimizeQuality" fill-rule="evenodd" clip-rule="evenodd"
viewBox="0 0 800 600"
 xmlns:xlink="http://www.w3.org/1999/xlink">
 <g id="base">
  <metadata id="CorelCorpID_0Corel-Layer"/>
  <polygon fill="#35AD0E" points="123,26 790,184 701,563 33,408 "/>
  <g id="_459693640">
   <polygon fill="#63D13E" points="119,19 786,177 697,556 29,401 "/>
   <g>
    <line fill="none" stroke="#96ED79" stroke-width="0.300001" x1="127" y1="21" x2="37" y2= "403" />
    <line fill="none" stroke="#96ED79" stroke-width="0.300001" x1="137" y1="24" x2="47" y2= "405" />
    <line fill="none" stroke="#96ED79" stroke-width="0.300001" x1="144" y1="25" x2="54" y2= "406" />
    <line fill="none" stroke="#96ED79" stroke-width="0.300001" x1="155" y1="28" x2="65" y2= "409" />
    <line fill="none" stroke="#96ED79" stroke-width="0.300001" x1="166" y1="30" x2="75" y2= "412" />
    <line fill="none" stroke="#96ED79" stroke-width="0.300001" x1="172" y1="32" x2="82" y2= "413" />
    <line fill="none" stroke="#96ED79" stroke-width="0.300001" x1="174" y1="32" x2="84" y2= "414" />
    <line fill="none" stroke="#96ED79" stroke-width="0.300001" x1="184" y1="35" x2="94" y2= "416" />
    <line fill="none" stroke="#96ED79" stroke-width="0.300001" x1="191" y1="36" x2="101" y2= "417" />
    <line fill="none" stroke="#96ED79" stroke-width="0.300001" x1="209" y1="41" x2="119" y2= "422" />
    <line fill="none" stroke="#96ED79" stroke-width="0.300001" x1="219" y1="43" x2="129" y2= "424" />
    <line fill="none" stroke="#96ED79" stroke-width="0.300001" x1="226" y1="45" x2="136" y2= "426" />
    <line fill="none" stroke="#96ED79" stroke-width="0.300001" x1="236" y1="47" x2="146" y2= "428" />
    <line fill="none" stroke="#96ED79" stroke-width="0.300001" x1="246" y1="49" x2="156" y2= "430" />
    <line fill="none" stroke="#96ED79" stroke-width="0.300001" x1="252" y1="51" x2="162" y2= "432" />
    <line fill="none" stroke="#96ED79" stroke-width="0.300001" x1="262" y1="53" x2="172" y2= "434" />
    <line fill="none" stroke="#96ED79" stroke-width="0.300001" x1="272" y1="56" x2="182" y2= "436" />
    <line fill="none" stroke="#96ED79" stroke-width="0.300001" x1="279" y1="57" x2="189" y2= "438" />
    <line fill="none" stroke="#96ED79" stroke-width="0.300001" x1="286" y1="59" x2="196" y2= "440" />
    <line fill="none" stroke="#96ED79" stroke-width="0.300001" x1="296" y1="61" x2="206" y2= "442" />
    <line fill="none" stroke="#96ED79" stroke-width="0.300001" x1="303" y1="63" x2="213" y2= "444" />
    <line fill="none" stroke="#96ED79" stroke-width="0.300001" x1="311" y1="65" x2="221" y2= "445" />
    <line fill="none" stroke="#96ED79" stroke-width="0.300001" x1="321" y1="67" x2="231" y2= "448" />
    <line fill="none" stroke="#96ED79" stroke-width="0.300001" x1="327" y1="69" x2="237" y2= "449" />
    <line fill="none" stroke="#96ED79" stroke-width="0.300001" x1="338" y1="71" x2="248" y2= "452" />
    <line fill="none" stroke="#96ED79" stroke-width="0.300001" x1="348" y1="73" x2="258" y2= "454" />
    <line fill="none" stroke="#96ED79" stroke-width="0.300001" x1="355" y1="75" x2="265" y2= "456" />
    <line fill="none" stroke="#96ED79" stroke-width="0.300001" x1="322" y1="67" x2="232" y2= "448" />
    <line fill="none" stroke="#96ED79" stroke-width="0.300001" x1="332" y1="70" x2="242" y2= "450" />
    <line fill="none" stroke="#96ED79" stroke-width="0.300001" x1="339" y1="71" x2="249" y2= "452" />
    <line fill="none" stroke="#96ED79" stroke-width="0.300001" x1="350" y1="74" x2="260" y2= "455" />
    <line fill="none" stroke="#96ED79" stroke-width="0.300001" x1="360" y1="76" x2="270" y2= "457" />
    <line fill="none" stroke="#96ED79" stroke-width="0.300001" x1="367" y1="78" x2="277" y2= "459" />
    <line fill="none" stroke="#96ED79" stroke-width="0.300001" x1="369" y1="78" x2="279" y2= "459" />
    <line fill="none" stroke="#96ED79" stroke-width="0.300001" x1="379" y1="81" x2="289" y2= "461" />
    <line fill="none" stroke="#96ED79" stroke-width="0.300001" x1="386" y1="82" x2="296" y2= "463" />
    <line fill="none" stroke="#96ED79" stroke-width="0.300001" x1="404" y1="87" x2="314" y2= "467" />
    <line fill="none" stroke="#96ED79" stroke-width="0.300001" x1="414" y1="89" x2="324" y2= "470" />
    <line fill="none" stroke="#96ED79" stroke-width="0.300001" x1="421" y1="91" x2="331" y2= "471" />
    <line fill="none" stroke="#96ED79" stroke-width="0.300001" x1="430" y1="93" x2="341" y2= "473" />
    <line fill="none" stroke="#96ED79" stroke-width="0.300001" x1="440" y1="96" x2="351" y2= "476" />
    <line fill="none" stroke="#96ED79" stroke-width="0.300001" x1="446" y1="101" x2="357" y2= "477" />
    <line fill="none" stroke="#96ED79" stroke-width="0.300001" x1="457" y1="99" x2="367" y2= "480" />
    <line fill="none" stroke="#96ED79" stroke-width="0.300001" x1="467" y1="102" x2="377" y2= "482" />
    <line fill="none" stroke="#96ED79" stroke-width="0.300001" x1="473" y1="107" x2="384" y2= "483" />
    <line fill="none" stroke="#96ED79" stroke-width="0.300001" x1="481" y1="105" x2="391" y2= "485" />
    <line fill="none" stroke="#96ED79" stroke-width="0.300001" x1="490" y1="112" x2="401" y2= "487" />
    <line fill="none" stroke="#96ED79" stroke-width="0.300001" x1="496" y1="117" x2="408" y2= "489" />
    <line fill="none" stroke="#96ED79" stroke-width="0.300001" x1="505" y1="111" x2="416" y2= "491" />
    <line fill="none" stroke="#96ED79" stroke-width="0.300001" x1="516" y1="113" x2="426" y2= "493" />
    <line fill="none" stroke="#96ED79" stroke-width="0.300001" x1="522" y1="115" x2="432" y2= "495" />
    <line fill="none" stroke="#96ED79" stroke-width="0.300001" x1="533" y1="117" x2="443" y2= "497" />
    <line fill="none" stroke="#96ED79" stroke-width="0.300001" x1="543" y1="119" x2="453" y2= "500" />
    <line fill="none" stroke="#96ED79" stroke-width="0.300001" x1="550" y1="121" x2="460" y2= "501" />
    <line fill="none" stroke="#96ED79" stroke-width="0.300001" x1="540" y1="119" x2="450" y2= "499" />
    <line fill="none" stroke="#96ED79" stroke-width="0.300001" x1="550" y1="121" x2="460" y2= "501" />
    <line fill="none" stroke="#96ED79" stroke-width="0.300001" x1="557" y1="123" x2="467" y2= "503" />
    <line fill="none" stroke="#96ED79" stroke-width="0.300001" x1="568" y1="125" x2="478" y2= "505" />
    <line fill="none" stroke="#96ED79" stroke-width="0.300001" x1="578" y1="128" x2="488" y2= "508" />
    <line fill="none" stroke="#96ED79" stroke-width="0.300001" x1="585" y1="129" x2="495" y2= "509" />
    <line fill="none" stroke="#96ED79" stroke-width="0.300001" x1="587" y1="130" x2="497" y2= "510" />
    <line fill="none" stroke="#96ED79" stroke-width="0.300001" x1="597" y1="132" x2="507" y2= "512" />
    <line fill="none" stroke="#96ED79" stroke-width="0.300001" x1="604" y1="134" x2="514" y2= "514" />
    <line fill="none" stroke="#96ED79" stroke-width="0.300001" x1="622" y1="138" x2="532" y2= "518" />
    <line fill="none" stroke="#96ED79" stroke-width="0.300001" x1="632" y1="141" x2="542" y2= "520" />
    <line fill="none" stroke="#96ED79" stroke-width="0.300001" x1="638" y1="142" x2="549" y2= "522" />
    <line fill="none" stroke="#96ED79" stroke-width="0.300001" x1="648" y1="144" x2="558" y2= "524" />
    <line fill="none" stroke="#96ED79" stroke-width="0.300001" x1="658" y1="147" x2="569" y2= "527" />
    <line fill="none" stroke="#96ED79" stroke-width="0.300001" x1="665" y1="148" x2="575" y2= "528" />
    <line fill="none" stroke="#96ED79" stroke-width="0.300001" x1="675" y1="151" x2="585" y2= "530" />
    <line fill="none" stroke="#96ED79" stroke-width="0.300001" x1="685" y1="153" x2="595" y2= "533" />
    <line fill="none" stroke="#96ED79" stroke-width="0.300001" x1="692" y1="155" x2="602" y2= "534" />
    <line fill="none" stroke="#96ED79" stroke-width="0.300001" x1="699" y1="156" x2="609" y2= "536" />
    <line fill="none" stroke="#96ED79" stroke-width="0.300001" x1="709" y1="159" x2="619" y2= "538" />
    <line fill="none" stroke="#96ED79" stroke-width="0.300001" x1="715" y1="160" x2="626" y2= "540" />
    <line fill="none" stroke="#96ED79" stroke-width="0.300001" x1="723" y1="162" x2="634" y2= "542" />
    <line fill="none" stroke="#96ED79" stroke-width="0.300001" x1="733" y1="165" x2="644" y2= "544" />
    <line fill="none" stroke="#96ED79" stroke-width="0.300001" x1="740" y1="166" x2="650" y2= "546" />
    <line fill="none" stroke="#96ED79" stroke-width="0.300001" x1="751" y1="169" x2="661" y2= "548" />
    <line fill="none" stroke="#96ED79" stroke-width="0.300001" x1="761" y1="171" x2="671" y2= "550" />
    <line fill="none" stroke="#96ED79" stroke-width="0.300001" x1="767" y1="173" x2="678" y2= "552" />
    <line fill="none" stroke="#96ED79" stroke-width="0.300001" x1="778" y1="175" x2="688" y2= "555" />
    <line fill="none" stroke="#96ED79" stroke-width="0.300001" x1="784" y1="185" x2="117" y2= "27" />
    <line fill="none" stroke="#96ED79" stroke-width="0.300001" x1="781" y1="198" x2="114" y2= "41" />
    <line fill="none" stroke="#96ED79" stroke-width="0.300001" x1="779" y1="207" x2="111" y2= "50" />
    <line fill="none" stroke="#96ED79" stroke-width="0.300001" x1="775" y1="223" x2="108" y2= "65" />
    <line fill="none" stroke="#96ED79" stroke-width="0.300001" x1="772" y1="236" x2="105" y2= "79" />
    <line fill="none" stroke="#96ED79" stroke-width="0.300001" x1="767" y1="255" x2="100" y2= "98" />
    <line fill="none" stroke="#96ED79" stroke-width="0.300001" x1="769" y1="247" x2="102" y2= "90" />
    <line fill="none" stroke="#96ED79" stroke-width="0.300001" x1="764" y1="270" x2="97" y2= "113" />
    <line fill="none" stroke="#96ED79" stroke-width="0.300001" x1="764" y1="270" x2="97" y2= "113" />
    <line fill="none" stroke="#96ED79" stroke-width="0.300001" x1="761" y1="284" x2="93" y2= "126" />
    <line fill="none" stroke="#96ED79" stroke-width="0.300001" x1="758" y1="293" x2="91" y2= "135" />
    <line fill="none" stroke="#96ED79" stroke-width="0.300001" x1="755" y1="309" x2="88" y2= "151" />
    <line fill="none" stroke="#96ED79" stroke-width="0.300001" x1="752" y1="322" x2="85" y2= "164" />
    <line fill="none" stroke="#96ED79" stroke-width="0.300001" x1="747" y1="341" x2="80" y2= "183" />
    <line fill="none" stroke="#96ED79" stroke-width="0.300001" x1="749" y1="333" x2="82" y2= "175" />
    <line fill="none" stroke="#96ED79" stroke-width="0.300001" x1="744" y1="356" x2="76" y2= "198" />
    <line fill="none" stroke="#96ED79" stroke-width="0.300001" x1="743" y1="360" x2="76" y2= "203" />
    <line fill="none" stroke="#96ED79" stroke-width="0.300001" x1="739" y1="374" x2="72" y2= "216" />
    <line fill="none" stroke="#96ED79" stroke-width="0.300001" x1="737" y1="383" x2="70" y2= "225" />
    <line fill="none" stroke="#96ED79" stroke-width="0.300001" x1="734" y1="399" x2="67" y2= "241" />
    <line fill="none" stroke="#96ED79" stroke-width="0.300001" x1="731" y1="412" x2="63" y2= "254" />
    <line fill="none" stroke="#96ED79" stroke-width="0.300001" x1="726" y1="431" x2="59" y2= "273" />
    <line fill="none" stroke="#96ED79" stroke-width="0.300001" x1="728" y1="423" x2="61" y2= "265" />
    <line fill="none" stroke="#96ED79" stroke-width="0.300001" x1="723" y1="446" x2="55" y2= "288" />
    <line fill="none" stroke="#96ED79" stroke-width="0.300001" x1="720" y1="459" x2="52" y2= "301" />
    <line fill="none" stroke="#96ED79" stroke-width="0.300001" x1="716" y1="472" x2="49" y2= "315" />
    <line fill="none" stroke="#96ED79" stroke-width="0.300001" x1="714" y1="481" x2="47" y2= "324" />
    <line fill="none" stroke="#96ED79" stroke-width="0.300001" x1="711" y1="497" x2="43" y2= "339" />
    <line fill="none" stroke="#96ED79" stroke-width="0.300001" x1="708" y1="510" x2="40" y2= "353" />
    <line fill="none" stroke="#96ED79" stroke-width="0.300001" x1="703" y1="529" x2="36" y2= "372" />
    <line fill="none" stroke="#96ED79" stroke-width="0.300001" x1="705" y1="521" x2="38" y2= "364" />
    <line fill="none" stroke="#96ED79" stroke-width="0.300001" x1="700" y1="545" x2="32" y2= "387" />
   </g>
  </g>
  <rect fill="white" stroke="#56CF2D" stroke-width="0.900002" transform="matrix(2.59708 0.602465 -0.0634584 0.273554 124.055 207.624)" width="228.987" height="85.0076" rx="76" ry="76"/>
 </g>
 <g id="landmarks-mz13">
  <metadata id="CorelCorpID_1Corel-Layer"/>
  <polygon id="m13lote18" fill="#35AD0E" points="526,370 587,384 558,511 496,496 "/>
  <polygon id="m13lote17" fill="#35AD0E" points="461,355 523,369 493,496 431,482 "/>
  <polygon id="m13lote16" fill="#35AD0E" points="458,354 395,340 366,466 428,481 "/>
  <polygon id="m13lote15" fill="#35AD0E" points="330,325 392,339 363,465 302,452 "/>
  <polygon id="m13lote14" fill="#35AD0E" points="327,324 265,309 236,436 298,450 "/>
  <polygon id="m13lote13" fill="#35AD0E" points="262,309 201,295 172,421 233,435 "/>
  <polygon id="m13lote12" fill="#35AD0E" points="197,293 136,279 106,406 168,420 "/>
  <polygon id="m13lote11" fill="#35AD0E" points="133,279 71,264 42,391 103,406 "/>
  <polygon id="m13lote10" fill="#35AD0E" points="186,45 124,31 95,158 157,172 "/>
  <polygon id="m13lote9" fill="#35AD0E" points="251,60 190,46 160,172 222,187 "/>
  <path id="m13lote8" fill="#35AD0E" d="M316 75l-62 -14 -29 126 61 15c0,0 30,-127 30,-127z"/>
  <polygon id="m13lote7" fill="#35AD0E" points="381,91 319,76 290,203 352,218 "/>
  <polygon id="m13lote6" fill="#35AD0E" points="446,105 384,91 355,218 416,232 "/>
  <polygon id="m13lote5" fill="#35AD0E" points="511,121 449,106 420,233 482,248 "/>
  <polygon id="m13lote4" fill="#35AD0E" points="576,136 514,122 485,248 547,263 "/>
  <polygon id="m13lote3" fill="#35AD0E" points="641,151 579,137 550,264 611,278 "/>
  <polygon id="m13lote2" fill="#35AD0E" points="706,167 644,152 615,279 676,293 "/>
  <polygon id="m13lote1" fill="#35AD0E" points="710,167 771,181 742,308 680,294 "/>
  <polygon id="m13lote20" fill="#35AD0E" points="655,401 717,415 688,541 626,527 "/>
  <polygon id="m13lote19" fill="#35AD0E" points="652,400 589,386 561,512 623,526 "/>
 </g>
</svg>
