<?xml version="1.0" encoding="UTF-8"?>
<!DOCTYPE svg PUBLIC "-//W3C//DTD SVG 1.1//EN" "http://www.w3.org/Graphics/SVG/1.1/DTD/svg11.dtd">
<!-- Creator: CorelDRAW X8 -->
<svg xmlns="http://www.w3.org/2000/svg" xml:space="preserve" width="800px" height="600px" version="1.1" shape-rendering="geometricPrecision" text-rendering="geometricPrecision" image-rendering="optimizeQuality" fill-rule="evenodd" clip-rule="evenodd"
viewBox="0 0 800 600"
 xmlns:xlink="http://www.w3.org/1999/xlink">
 <g id="base">
  <metadata id="CorelCorpID_0Corel-Layer"/>
  <g id="_2070005021712">
   <polygon fill="#35AD0E" points="243,149 604,234 556,439 195,355 "/>
   <g>
    <polygon fill="#63D13E" points="236,141 601,227 553,435 187,350 "/>
    <g>
     <line fill="none" stroke="#96ED79" stroke-width="0.300001" x1="241" y1="142" x2="192" y2= "351" />
     <line fill="none" stroke="#96ED79" stroke-width="0.300001" x1="247" y1="143" x2="197" y2= "352" />
     <line fill="none" stroke="#96ED79" stroke-width="0.300001" x1="250" y1="144" x2="201" y2= "353" />
     <line fill="none" stroke="#96ED79" stroke-width="0.300001" x1="257" y1="146" x2="207" y2= "354" />
     <line fill="none" stroke="#96ED79" stroke-width="0.300001" x1="262" y1="147" x2="213" y2= "355" />
     <line fill="none" stroke="#96ED79" stroke-width="0.300001" x1="266" y1="148" x2="216" y2= "356" />
     <line fill="none" stroke="#96ED79" stroke-width="0.300001" x1="267" y1="148" x2="218" y2= "357" />
     <line fill="none" stroke="#96ED79" stroke-width="0.300001" x1="272" y1="149" x2="223" y2= "358" />
     <line fill="none" stroke="#96ED79" stroke-width="0.300001" x1="276" y1="150" x2="227" y2= "359" />
     <line fill="none" stroke="#96ED79" stroke-width="0.300001" x1="286" y1="153" x2="237" y2= "361" />
     <line fill="none" stroke="#96ED79" stroke-width="0.300001" x1="291" y1="154" x2="242" y2= "362" />
     <line fill="none" stroke="#96ED79" stroke-width="0.300001" x1="295" y1="155" x2="246" y2= "363" />
     <line fill="none" stroke="#96ED79" stroke-width="0.300001" x1="300" y1="156" x2="251" y2= "364" />
     <line fill="none" stroke="#96ED79" stroke-width="0.300001" x1="306" y1="157" x2="257" y2= "366" />
     <line fill="none" stroke="#96ED79" stroke-width="0.300001" x1="310" y1="158" x2="260" y2= "367" />
     <line fill="none" stroke="#96ED79" stroke-width="0.300001" x1="315" y1="159" x2="266" y2= "368" />
     <line fill="none" stroke="#96ED79" stroke-width="0.300001" x1="320" y1="161" x2="271" y2= "369" />
     <line fill="none" stroke="#96ED79" stroke-width="0.300001" x1="324" y1="162" x2="275" y2= "370" />
     <line fill="none" stroke="#96ED79" stroke-width="0.300001" x1="328" y1="163" x2="279" y2= "371" />
     <line fill="none" stroke="#96ED79" stroke-width="0.300001" x1="334" y1="164" x2="284" y2= "372" />
     <line fill="none" stroke="#96ED79" stroke-width="0.300001" x1="337" y1="165" x2="288" y2= "373" />
     <line fill="none" stroke="#96ED79" stroke-width="0.300001" x1="341" y1="166" x2="292" y2= "374" />
     <line fill="none" stroke="#96ED79" stroke-width="0.300001" x1="347" y1="167" x2="298" y2= "375" />
     <line fill="none" stroke="#96ED79" stroke-width="0.300001" x1="351" y1="168" x2="301" y2= "376" />
     <line fill="none" stroke="#96ED79" stroke-width="0.300001" x1="356" y1="169" x2="307" y2= "377" />
     <line fill="none" stroke="#96ED79" stroke-width="0.300001" x1="362" y1="171" x2="313" y2= "379" />
     <line fill="none" stroke="#96ED79" stroke-width="0.300001" x1="366" y1="171" x2="316" y2= "380" />
     <line fill="none" stroke="#96ED79" stroke-width="0.300001" x1="348" y1="167" x2="299" y2= "375" />
     <line fill="none" stroke="#96ED79" stroke-width="0.300001" x1="353" y1="169" x2="304" y2= "377" />
     <line fill="none" stroke="#96ED79" stroke-width="0.300001" x1="357" y1="169" x2="308" y2= "378" />
     <line fill="none" stroke="#96ED79" stroke-width="0.300001" x1="363" y1="171" x2="314" y2= "379" />
     <line fill="none" stroke="#96ED79" stroke-width="0.300001" x1="369" y1="172" x2="319" y2= "380" />
     <line fill="none" stroke="#96ED79" stroke-width="0.300001" x1="372" y1="173" x2="323" y2= "381" />
     <line fill="none" stroke="#96ED79" stroke-width="0.300001" x1="373" y1="173" x2="324" y2= "381" />
     <line fill="none" stroke="#96ED79" stroke-width="0.300001" x1="379" y1="175" x2="330" y2= "383" />
     <line fill="none" stroke="#96ED79" stroke-width="0.300001" x1="383" y1="175" x2="333" y2= "384" />
     <line fill="none" stroke="#96ED79" stroke-width="0.300001" x1="392" y1="178" x2="343" y2= "386" />
     <line fill="none" stroke="#96ED79" stroke-width="0.300001" x1="398" y1="179" x2="349" y2= "387" />
     <line fill="none" stroke="#96ED79" stroke-width="0.300001" x1="402" y1="180" x2="352" y2= "388" />
     <line fill="none" stroke="#96ED79" stroke-width="0.300001" x1="407" y1="181" x2="358" y2= "389" />
     <line fill="none" stroke="#96ED79" stroke-width="0.300001" x1="412" y1="183" x2="363" y2= "391" />
     <line fill="none" stroke="#96ED79" stroke-width="0.300001" x1="416" y1="186" x2="367" y2= "391" />
     <line fill="none" stroke="#96ED79" stroke-width="0.300001" x1="421" y1="185" x2="372" y2= "393" />
     <line fill="none" stroke="#96ED79" stroke-width="0.300001" x1="427" y1="186" x2="378" y2= "394" />
     <line fill="none" stroke="#96ED79" stroke-width="0.300001" x1="430" y1="189" x2="382" y2= "395" />
     <line fill="none" stroke="#96ED79" stroke-width="0.300001" x1="435" y1="188" x2="385" y2= "396" />
     <line fill="none" stroke="#96ED79" stroke-width="0.300001" x1="440" y1="191" x2="391" y2= "397" />
     <line fill="none" stroke="#96ED79" stroke-width="0.300001" x1="443" y1="194" x2="395" y2= "398" />
     <line fill="none" stroke="#96ED79" stroke-width="0.300001" x1="448" y1="191" x2="399" y2= "399" />
     <line fill="none" stroke="#96ED79" stroke-width="0.300001" x1="454" y1="192" x2="404" y2= "400" />
     <line fill="none" stroke="#96ED79" stroke-width="0.300001" x1="457" y1="193" x2="408" y2= "401" />
     <line fill="none" stroke="#96ED79" stroke-width="0.300001" x1="463" y1="194" x2="414" y2= "402" />
     <line fill="none" stroke="#96ED79" stroke-width="0.300001" x1="469" y1="196" x2="419" y2= "404" />
     <line fill="none" stroke="#96ED79" stroke-width="0.300001" x1="472" y1="197" x2="423" y2= "405" />
     <line fill="none" stroke="#96ED79" stroke-width="0.300001" x1="467" y1="195" x2="418" y2= "403" />
     <line fill="none" stroke="#96ED79" stroke-width="0.300001" x1="472" y1="197" x2="423" y2= "405" />
     <line fill="none" stroke="#96ED79" stroke-width="0.300001" x1="476" y1="198" x2="427" y2= "405" />
     <line fill="none" stroke="#96ED79" stroke-width="0.300001" x1="482" y1="199" x2="433" y2= "407" />
     <line fill="none" stroke="#96ED79" stroke-width="0.300001" x1="488" y1="200" x2="439" y2= "408" />
     <line fill="none" stroke="#96ED79" stroke-width="0.300001" x1="491" y1="201" x2="442" y2= "409" />
     <line fill="none" stroke="#96ED79" stroke-width="0.300001" x1="493" y1="201" x2="443" y2= "409" />
     <line fill="none" stroke="#96ED79" stroke-width="0.300001" x1="498" y1="203" x2="449" y2= "411" />
     <line fill="none" stroke="#96ED79" stroke-width="0.300001" x1="502" y1="204" x2="453" y2= "411" />
     <line fill="none" stroke="#96ED79" stroke-width="0.300001" x1="512" y1="206" x2="462" y2= "414" />
     <line fill="none" stroke="#96ED79" stroke-width="0.300001" x1="517" y1="207" x2="468" y2= "415" />
     <line fill="none" stroke="#96ED79" stroke-width="0.300001" x1="521" y1="208" x2="472" y2= "416" />
     <line fill="none" stroke="#96ED79" stroke-width="0.300001" x1="526" y1="209" x2="477" y2= "417" />
     <line fill="none" stroke="#96ED79" stroke-width="0.300001" x1="532" y1="211" x2="483" y2= "418" />
     <line fill="none" stroke="#96ED79" stroke-width="0.300001" x1="535" y1="212" x2="486" y2= "419" />
     <line fill="none" stroke="#96ED79" stroke-width="0.300001" x1="541" y1="213" x2="492" y2= "421" />
     <line fill="none" stroke="#96ED79" stroke-width="0.300001" x1="546" y1="214" x2="497" y2= "422" />
     <line fill="none" stroke="#96ED79" stroke-width="0.300001" x1="550" y1="215" x2="501" y2= "423" />
     <line fill="none" stroke="#96ED79" stroke-width="0.300001" x1="554" y1="216" x2="505" y2= "424" />
     <line fill="none" stroke="#96ED79" stroke-width="0.300001" x1="559" y1="217" x2="510" y2= "425" />
     <line fill="none" stroke="#96ED79" stroke-width="0.300001" x1="563" y1="218" x2="514" y2= "426" />
     <line fill="none" stroke="#96ED79" stroke-width="0.300001" x1="567" y1="219" x2="518" y2= "427" />
     <line fill="none" stroke="#96ED79" stroke-width="0.300001" x1="573" y1="220" x2="524" y2= "428" />
     <line fill="none" stroke="#96ED79" stroke-width="0.300001" x1="576" y1="221" x2="527" y2= "429" />
     <line fill="none" stroke="#96ED79" stroke-width="0.300001" x1="582" y1="223" x2="533" y2= "430" />
     <line fill="none" stroke="#96ED79" stroke-width="0.300001" x1="588" y1="224" x2="539" y2= "432" />
     <line fill="none" stroke="#96ED79" stroke-width="0.300001" x1="591" y1="225" x2="542" y2= "432" />
     <line fill="none" stroke="#96ED79" stroke-width="0.300001" x1="597" y1="226" x2="548" y2= "434" />
     <line fill="none" stroke="#96ED79" stroke-width="0.300001" x1="600" y1="231" x2="235" y2= "145" />
     <line fill="none" stroke="#96ED79" stroke-width="0.300001" x1="599" y1="239" x2="234" y2= "153" />
     <line fill="none" stroke="#96ED79" stroke-width="0.300001" x1="597" y1="244" x2="232" y2= "158" />
     <line fill="none" stroke="#96ED79" stroke-width="0.300001" x1="595" y1="252" x2="230" y2= "166" />
     <line fill="none" stroke="#96ED79" stroke-width="0.300001" x1="594" y1="260" x2="229" y2= "173" />
     <line fill="none" stroke="#96ED79" stroke-width="0.300001" x1="591" y1="270" x2="226" y2= "184" />
     <line fill="none" stroke="#96ED79" stroke-width="0.300001" x1="592" y1="266" x2="227" y2= "179" />
     <line fill="none" stroke="#96ED79" stroke-width="0.300001" x1="589" y1="278" x2="224" y2= "192" />
     <line fill="none" stroke="#96ED79" stroke-width="0.300001" x1="589" y1="278" x2="224" y2= "192" />
     <line fill="none" stroke="#96ED79" stroke-width="0.300001" x1="588" y1="286" x2="223" y2= "199" />
     <line fill="none" stroke="#96ED79" stroke-width="0.300001" x1="586" y1="291" x2="221" y2= "204" />
     <line fill="none" stroke="#96ED79" stroke-width="0.300001" x1="584" y1="299" x2="219" y2= "213" />
     <line fill="none" stroke="#96ED79" stroke-width="0.300001" x1="583" y1="306" x2="218" y2= "220" />
     <line fill="none" stroke="#96ED79" stroke-width="0.300001" x1="580" y1="317" x2="215" y2= "231" />
     <line fill="none" stroke="#96ED79" stroke-width="0.300001" x1="581" y1="313" x2="216" y2= "226" />
     <line fill="none" stroke="#96ED79" stroke-width="0.300001" x1="578" y1="325" x2="213" y2= "239" />
     <line fill="none" stroke="#96ED79" stroke-width="0.300001" x1="578" y1="328" x2="213" y2= "241" />
     <line fill="none" stroke="#96ED79" stroke-width="0.300001" x1="576" y1="335" x2="211" y2= "249" />
     <line fill="none" stroke="#96ED79" stroke-width="0.300001" x1="575" y1="340" x2="210" y2= "254" />
     <line fill="none" stroke="#96ED79" stroke-width="0.300001" x1="573" y1="348" x2="208" y2= "262" />
     <line fill="none" stroke="#96ED79" stroke-width="0.300001" x1="571" y1="356" x2="206" y2= "269" />
     <line fill="none" stroke="#96ED79" stroke-width="0.300001" x1="569" y1="366" x2="204" y2= "280" />
     <line fill="none" stroke="#96ED79" stroke-width="0.300001" x1="570" y1="362" x2="205" y2= "275" />
     <line fill="none" stroke="#96ED79" stroke-width="0.300001" x1="567" y1="374" x2="202" y2= "288" />
     <line fill="none" stroke="#96ED79" stroke-width="0.300001" x1="565" y1="381" x2="200" y2= "295" />
     <line fill="none" stroke="#96ED79" stroke-width="0.300001" x1="563" y1="389" x2="198" y2= "303" />
     <line fill="none" stroke="#96ED79" stroke-width="0.300001" x1="562" y1="394" x2="197" y2= "307" />
     <line fill="none" stroke="#96ED79" stroke-width="0.300001" x1="560" y1="402" x2="195" y2= "316" />
     <line fill="none" stroke="#96ED79" stroke-width="0.300001" x1="559" y1="410" x2="194" y2= "323" />
     <line fill="none" stroke="#96ED79" stroke-width="0.300001" x1="556" y1="420" x2="191" y2= "334" />
     <line fill="none" stroke="#96ED79" stroke-width="0.300001" x1="557" y1="416" x2="192" y2= "329" />
     <line fill="none" stroke="#96ED79" stroke-width="0.300001" x1="554" y1="428" x2="189" y2= "342" />
    </g>
   </g>
   <path fill="white" fill-rule="nonzero" d="M553 317c4,1 6,4 5,7 -1,3 -4,5 -7,4l-304 -69c-3,-1 -5,-4 -4,-7 1,-3 4,-5 7,-5l303 70z"/>
  </g>
 </g>
 <g id="landmarks-mz14">
  <metadata id="CorelCorpID_1Corel-Layer"/>
  <polygon id="m14lote18" fill="#35AD0E" points="459,332 493,340 477,409 443,401 "/>
  <polygon id="m14lote17" fill="#35AD0E" points="424,324 458,332 442,401 408,393 "/>
  <polygon id="m14lote16" fill="#35AD0E" points="422,324 388,316 372,385 406,393 "/>
  <polygon id="m14lote15" fill="#35AD0E" points="353,308 387,316 371,384 337,377 "/>
  <polygon id="m14lote14" fill="#35AD0E" points="351,307 317,299 301,368 335,376 "/>
  <polygon id="m14lote13" fill="#35AD0E" points="316,299 282,291 266,360 300,368 "/>
  <polygon id="m14lote12" fill="#35AD0E" points="280,291 247,283 230,352 264,360 "/>
  <polygon id="m14lote11" fill="#35AD0E" points="245,283 211,275 195,344 229,352 "/>
  <polygon id="m14lote10" fill="#35AD0E" points="275,155 241,147 225,216 259,224 "/>
  <polygon id="m14lote9" fill="#35AD0E" points="310,163 277,155 261,224 294,232 "/>
  <path id="m14lote8" fill="#35AD0E" d="M346 171l-34 -7 -16 68 33 8c0,0 16,-69 17,-69z"/>
  <polygon id="m14lote7" fill="#35AD0E" points="381,180 347,172 331,241 365,249 "/>
  <polygon id="m14lote6" fill="#35AD0E" points="417,188 383,180 367,249 400,257 "/>
  <polygon id="m14lote5" fill="#35AD0E" points="452,196 418,188 402,257 436,265 "/>
  <polygon id="m14lote4" fill="#35AD0E" points="487,205 454,197 438,266 471,274 "/>
  <polygon id="m14lote3" fill="#35AD0E" points="523,213 489,205 473,274 506,282 "/>
  <polygon id="m14lote2" fill="#35AD0E" points="558,221 525,213 508,282 542,290 "/>
  <polygon id="m14lote1" fill="#35AD0E" points="560,221 594,229 578,299 544,291 "/>
  <polygon id="m14lote19" fill="#35AD0E" points="512,418 478,410 495,341 529,348 "/>
  <polygon id="m14lote20" fill="#35AD0E" points="514,419 548,426 564,357 530,349 "/>
 </g>
</svg>
