<?xml version="1.0" encoding="UTF-8"?>
<!DOCTYPE svg PUBLIC "-//W3C//DTD SVG 1.1//EN" "http://www.w3.org/Graphics/SVG/1.1/DTD/svg11.dtd">
<!-- Creator: CorelDRAW X7 -->
<svg xmlns="http://www.w3.org/2000/svg" xml:space="preserve" width="800px" height="600px" version="1.1" shape-rendering="geometricPrecision" text-rendering="geometricPrecision" image-rendering="optimizeQuality" fill-rule="evenodd" clip-rule="evenodd"
viewBox="0 0 800 600"
 xmlns:xlink="http://www.w3.org/1999/xlink">
 <g id="base">
  <metadata id="CorelCorpID_0Corel-Layer"/>
  <g id="_483573856">
   <polygon fill="#35AD0E" points="138,52 748,196 666,543 56,400 "/>
   <g>
    <polygon fill="#63D13E" points="126,38 744,183 662,535 43,391 "/>
    <g>
     <line fill="none" stroke="#96ED79" stroke-width="0.300001" x1="134" y1="39" x2="51" y2= "392" />
     <line fill="none" stroke="#96ED79" stroke-width="0.300001" x1="144" y1="42" x2="60" y2= "395" />
     <line fill="none" stroke="#96ED79" stroke-width="0.300001" x1="150" y1="43" x2="66" y2= "396" />
     <line fill="none" stroke="#96ED79" stroke-width="0.300001" x1="160" y1="46" x2="77" y2= "399" />
     <line fill="none" stroke="#96ED79" stroke-width="0.300001" x1="170" y1="48" x2="86" y2= "401" />
     <line fill="none" stroke="#96ED79" stroke-width="0.300001" x1="176" y1="49" x2="92" y2= "402" />
     <line fill="none" stroke="#96ED79" stroke-width="0.300001" x1="178" y1="50" x2="94" y2= "403" />
     <line fill="none" stroke="#96ED79" stroke-width="0.300001" x1="187" y1="52" x2="104" y2= "405" />
     <line fill="none" stroke="#96ED79" stroke-width="0.300001" x1="193" y1="53" x2="110" y2= "406" />
     <line fill="none" stroke="#96ED79" stroke-width="0.300001" x1="210" y1="57" x2="127" y2= "410" />
     <line fill="none" stroke="#96ED79" stroke-width="0.300001" x1="219" y1="60" x2="136" y2= "412" />
     <line fill="none" stroke="#96ED79" stroke-width="0.300001" x1="226" y1="61" x2="142" y2= "414" />
     <line fill="none" stroke="#96ED79" stroke-width="0.300001" x1="235" y1="63" x2="151" y2= "416" />
     <line fill="none" stroke="#96ED79" stroke-width="0.300001" x1="244" y1="65" x2="161" y2= "418" />
     <line fill="none" stroke="#96ED79" stroke-width="0.300001" x1="250" y1="67" x2="167" y2= "420" />
     <line fill="none" stroke="#96ED79" stroke-width="0.300001" x1="259" y1="69" x2="176" y2= "422" />
     <line fill="none" stroke="#96ED79" stroke-width="0.300001" x1="269" y1="71" x2="185" y2= "424" />
     <line fill="none" stroke="#96ED79" stroke-width="0.300001" x1="275" y1="73" x2="191" y2= "425" />
     <line fill="none" stroke="#96ED79" stroke-width="0.300001" x1="281" y1="74" x2="198" y2= "427" />
     <line fill="none" stroke="#96ED79" stroke-width="0.300001" x1="291" y1="76" x2="207" y2= "429" />
     <line fill="none" stroke="#96ED79" stroke-width="0.300001" x1="297" y1="78" x2="213" y2= "430" />
     <line fill="none" stroke="#96ED79" stroke-width="0.300001" x1="304" y1="80" x2="221" y2= "432" />
     <line fill="none" stroke="#96ED79" stroke-width="0.300001" x1="313" y1="82" x2="230" y2= "434" />
     <line fill="none" stroke="#96ED79" stroke-width="0.300001" x1="320" y1="83" x2="236" y2= "436" />
     <line fill="none" stroke="#96ED79" stroke-width="0.300001" x1="329" y1="86" x2="246" y2= "438" />
     <line fill="none" stroke="#96ED79" stroke-width="0.300001" x1="339" y1="88" x2="255" y2= "440" />
     <line fill="none" stroke="#96ED79" stroke-width="0.300001" x1="345" y1="89" x2="262" y2= "442" />
     <line fill="none" stroke="#96ED79" stroke-width="0.300001" x1="315" y1="82" x2="231" y2= "435" />
     <line fill="none" stroke="#96ED79" stroke-width="0.300001" x1="324" y1="84" x2="241" y2= "437" />
     <line fill="none" stroke="#96ED79" stroke-width="0.300001" x1="330" y1="86" x2="247" y2= "438" />
     <line fill="none" stroke="#96ED79" stroke-width="0.300001" x1="341" y1="88" x2="257" y2= "441" />
     <line fill="none" stroke="#96ED79" stroke-width="0.300001" x1="350" y1="90" x2="267" y2= "443" />
     <line fill="none" stroke="#96ED79" stroke-width="0.300001" x1="356" y1="92" x2="273" y2= "444" />
     <line fill="none" stroke="#96ED79" stroke-width="0.300001" x1="358" y1="92" x2="275" y2= "445" />
     <line fill="none" stroke="#96ED79" stroke-width="0.300001" x1="368" y1="95" x2="284" y2= "447" />
     <line fill="none" stroke="#96ED79" stroke-width="0.300001" x1="374" y1="96" x2="290" y2= "448" />
     <line fill="none" stroke="#96ED79" stroke-width="0.300001" x1="390" y1="100" x2="307" y2= "452" />
     <line fill="none" stroke="#96ED79" stroke-width="0.300001" x1="400" y1="102" x2="317" y2= "454" />
     <line fill="none" stroke="#96ED79" stroke-width="0.300001" x1="406" y1="104" x2="323" y2= "456" />
     <line fill="none" stroke="#96ED79" stroke-width="0.300001" x1="415" y1="106" x2="332" y2= "458" />
     <line fill="none" stroke="#96ED79" stroke-width="0.300001" x1="424" y1="109" x2="341" y2= "460" />
     <line fill="none" stroke="#96ED79" stroke-width="0.300001" x1="430" y1="114" x2="347" y2= "462" />
     <line fill="none" stroke="#96ED79" stroke-width="0.300001" x1="439" y1="112" x2="356" y2= "464" />
     <line fill="none" stroke="#96ED79" stroke-width="0.300001" x1="449" y1="114" x2="366" y2= "466" />
     <line fill="none" stroke="#96ED79" stroke-width="0.300001" x1="454" y1="119" x2="372" y2= "467" />
     <line fill="none" stroke="#96ED79" stroke-width="0.300001" x1="462" y1="117" x2="378" y2= "469" />
     <line fill="none" stroke="#96ED79" stroke-width="0.300001" x1="470" y1="123" x2="388" y2= "471" />
     <line fill="none" stroke="#96ED79" stroke-width="0.300001" x1="475" y1="128" x2="394" y2= "473" />
     <line fill="none" stroke="#96ED79" stroke-width="0.300001" x1="484" y1="122" x2="401" y2= "474" />
     <line fill="none" stroke="#96ED79" stroke-width="0.300001" x1="494" y1="124" x2="411" y2= "476" />
     <line fill="none" stroke="#96ED79" stroke-width="0.300001" x1="500" y1="126" x2="417" y2= "478" />
     <line fill="none" stroke="#96ED79" stroke-width="0.300001" x1="510" y1="128" x2="426" y2= "480" />
     <line fill="none" stroke="#96ED79" stroke-width="0.300001" x1="519" y1="130" x2="436" y2= "482" />
     <line fill="none" stroke="#96ED79" stroke-width="0.300001" x1="525" y1="132" x2="442" y2= "484" />
     <line fill="none" stroke="#96ED79" stroke-width="0.300001" x1="516" y1="130" x2="433" y2= "482" />
     <line fill="none" stroke="#96ED79" stroke-width="0.300001" x1="526" y1="132" x2="443" y2= "484" />
     <line fill="none" stroke="#96ED79" stroke-width="0.300001" x1="532" y1="133" x2="449" y2= "485" />
     <line fill="none" stroke="#96ED79" stroke-width="0.300001" x1="542" y1="136" x2="459" y2= "488" />
     <line fill="none" stroke="#96ED79" stroke-width="0.300001" x1="552" y1="138" x2="469" y2= "490" />
     <line fill="none" stroke="#96ED79" stroke-width="0.300001" x1="558" y1="140" x2="475" y2= "491" />
     <line fill="none" stroke="#96ED79" stroke-width="0.300001" x1="560" y1="140" x2="477" y2= "492" />
     <line fill="none" stroke="#96ED79" stroke-width="0.300001" x1="569" y1="142" x2="486" y2= "494" />
     <line fill="none" stroke="#96ED79" stroke-width="0.300001" x1="575" y1="144" x2="492" y2= "495" />
     <line fill="none" stroke="#96ED79" stroke-width="0.300001" x1="592" y1="148" x2="509" y2= "499" />
     <line fill="none" stroke="#96ED79" stroke-width="0.300001" x1="601" y1="150" x2="518" y2= "502" />
     <line fill="none" stroke="#96ED79" stroke-width="0.300001" x1="608" y1="151" x2="524" y2= "503" />
     <line fill="none" stroke="#96ED79" stroke-width="0.300001" x1="617" y1="153" x2="534" y2= "505" />
     <line fill="none" stroke="#96ED79" stroke-width="0.300001" x1="626" y1="156" x2="543" y2= "507" />
     <line fill="none" stroke="#96ED79" stroke-width="0.300001" x1="632" y1="157" x2="549" y2= "509" />
     <line fill="none" stroke="#96ED79" stroke-width="0.300001" x1="641" y1="159" x2="558" y2= "511" />
     <line fill="none" stroke="#96ED79" stroke-width="0.300001" x1="651" y1="161" x2="567" y2= "513" />
     <line fill="none" stroke="#96ED79" stroke-width="0.300001" x1="657" y1="163" x2="574" y2= "514" />
     <line fill="none" stroke="#96ED79" stroke-width="0.300001" x1="663" y1="164" x2="580" y2= "516" />
     <line fill="none" stroke="#96ED79" stroke-width="0.300001" x1="673" y1="167" x2="590" y2= "518" />
     <line fill="none" stroke="#96ED79" stroke-width="0.300001" x1="679" y1="168" x2="596" y2= "520" />
     <line fill="none" stroke="#96ED79" stroke-width="0.300001" x1="686" y1="170" x2="603" y2= "521" />
     <line fill="none" stroke="#96ED79" stroke-width="0.300001" x1="696" y1="172" x2="612" y2= "524" />
     <line fill="none" stroke="#96ED79" stroke-width="0.300001" x1="702" y1="174" x2="619" y2= "525" />
     <line fill="none" stroke="#96ED79" stroke-width="0.300001" x1="711" y1="176" x2="628" y2= "527" />
     <line fill="none" stroke="#96ED79" stroke-width="0.300001" x1="721" y1="178" x2="638" y2= "529" />
     <line fill="none" stroke="#96ED79" stroke-width="0.300001" x1="727" y1="179" x2="644" y2= "531" />
     <line fill="none" stroke="#96ED79" stroke-width="0.300001" x1="737" y1="182" x2="654" y2= "533" />
     <line fill="none" stroke="#96ED79" stroke-width="0.300001" x1="742" y1="191" x2="124" y2= "45" />
     <line fill="none" stroke="#96ED79" stroke-width="0.300001" x1="739" y1="203" x2="122" y2= "57" />
     <line fill="none" stroke="#96ED79" stroke-width="0.300001" x1="737" y1="212" x2="120" y2= "66" />
     <line fill="none" stroke="#96ED79" stroke-width="0.300001" x1="734" y1="226" x2="116" y2= "80" />
     <line fill="none" stroke="#96ED79" stroke-width="0.300001" x1="731" y1="238" x2="113" y2= "92" />
     <line fill="none" stroke="#96ED79" stroke-width="0.300001" x1="727" y1="256" x2="109" y2= "110" />
     <line fill="none" stroke="#96ED79" stroke-width="0.300001" x1="729" y1="249" x2="111" y2= "103" />
     <line fill="none" stroke="#96ED79" stroke-width="0.300001" x1="724" y1="270" x2="106" y2= "124" />
     <line fill="none" stroke="#96ED79" stroke-width="0.300001" x1="724" y1="270" x2="106" y2= "124" />
     <line fill="none" stroke="#96ED79" stroke-width="0.300001" x1="721" y1="283" x2="103" y2= "137" />
     <line fill="none" stroke="#96ED79" stroke-width="0.300001" x1="719" y1="291" x2="101" y2= "145" />
     <line fill="none" stroke="#96ED79" stroke-width="0.300001" x1="715" y1="305" x2="98" y2= "159" />
     <line fill="none" stroke="#96ED79" stroke-width="0.300001" x1="712" y1="318" x2="95" y2= "172" />
     <line fill="none" stroke="#96ED79" stroke-width="0.300001" x1="708" y1="335" x2="91" y2= "189" />
     <line fill="none" stroke="#96ED79" stroke-width="0.300001" x1="710" y1="328" x2="92" y2= "182" />
     <line fill="none" stroke="#96ED79" stroke-width="0.300001" x1="705" y1="349" x2="87" y2= "203" />
     <line fill="none" stroke="#96ED79" stroke-width="0.300001" x1="704" y1="353" x2="86" y2= "207" />
     <line fill="none" stroke="#96ED79" stroke-width="0.300001" x1="701" y1="366" x2="83" y2= "220" />
     <line fill="none" stroke="#96ED79" stroke-width="0.300001" x1="699" y1="374" x2="81" y2= "228" />
     <line fill="none" stroke="#96ED79" stroke-width="0.300001" x1="696" y1="389" x2="78" y2= "243" />
     <line fill="none" stroke="#96ED79" stroke-width="0.300001" x1="693" y1="401" x2="75" y2= "255" />
     <line fill="none" stroke="#96ED79" stroke-width="0.300001" x1="689" y1="419" x2="71" y2= "273" />
     <line fill="none" stroke="#96ED79" stroke-width="0.300001" x1="690" y1="411" x2="73" y2= "265" />
     <line fill="none" stroke="#96ED79" stroke-width="0.300001" x1="685" y1="433" x2="68" y2= "287" />
     <line fill="none" stroke="#96ED79" stroke-width="0.300001" x1="683" y1="445" x2="65" y2= "299" />
     <line fill="none" stroke="#96ED79" stroke-width="0.300001" x1="680" y1="457" x2="62" y2= "311" />
     <line fill="none" stroke="#96ED79" stroke-width="0.300001" x1="678" y1="465" x2="60" y2= "319" />
     <line fill="none" stroke="#96ED79" stroke-width="0.300001" x1="674" y1="480" x2="57" y2= "334" />
     <line fill="none" stroke="#96ED79" stroke-width="0.300001" x1="672" y1="492" x2="54" y2= "346" />
     <line fill="none" stroke="#96ED79" stroke-width="0.300001" x1="667" y1="510" x2="50" y2= "364" />
     <line fill="none" stroke="#96ED79" stroke-width="0.300001" x1="669" y1="503" x2="51" y2= "357" />
     <line fill="none" stroke="#96ED79" stroke-width="0.300001" x1="664" y1="524" x2="46" y2= "378" />
    </g>
   </g>
   <path fill="white" fill-rule="nonzero" d="M663 336c5,1 9,6 7,12 -1,5 -6,8 -12,7l-513 -118c-5,-1 -9,-6 -8,-12 2,-5 7,-8 12,-7l514 118z"/>
  </g>
 </g>
 <g id="landmarks-mz14">
  <metadata id="CorelCorpID_1Corel-Layer"/>
  <polygon id="m14lote18" fill="#35AD0E" points="504,361 560,375 534,491 476,478 "/>
  <polygon id="m14lote17" fill="#35AD0E" points="444,348 501,361 474,477 416,464 "/>
  <polygon id="m14lote16" fill="#35AD0E" points="441,347 383,334 356,450 413,464 "/>
  <polygon id="m14lote15" fill="#35AD0E" points="323,320 380,333 353,449 296,437 "/>
  <polygon id="m14lote14" fill="#35AD0E" points="320,319 263,306 236,423 293,435 "/>
  <polygon id="m14lote13" fill="#35AD0E" points="260,305 203,292 176,409 233,421 "/>
  <polygon id="m14lote12" fill="#35AD0E" points="200,291 143,278 116,395 173,408 "/>
  <polygon id="m14lote11" fill="#35AD0E" points="141,277 83,264 56,381 113,394 "/>
  <polygon id="m14lote10" fill="#35AD0E" points="191,61 134,48 107,165 164,178 "/>
  <polygon id="m14lote9" fill="#35AD0E" points="251,75 194,62 167,178 225,192 "/>
  <path id="m14lote8" fill="#35AD0E" d="M311 89l-57 -13 -27 116 57 14c0,0 27,-117 27,-117z"/>
  <polygon id="m14lote7" fill="#35AD0E" points="371,104 314,90 287,207 344,220 "/>
  <polygon id="m14lote6" fill="#35AD0E" points="431,117 374,104 347,221 404,234 "/>
  <polygon id="m14lote5" fill="#35AD0E" points="491,131 434,118 407,234 464,248 "/>
  <polygon id="m14lote4" fill="#35AD0E" points="551,145 494,132 467,249 524,262 "/>
  <polygon id="m14lote3" fill="#35AD0E" points="611,159 554,146 526,263 583,276 "/>
  <polygon id="m14lote2" fill="#35AD0E" points="671,173 614,159 586,277 644,290 "/>
  <polygon id="m14lote1" fill="#35AD0E" points="674,174 731,187 704,304 647,291 "/>
  <polygon id="m14lote19" fill="#35AD0E" points="593,507 536,493 564,375 621,389 "/>
  <polygon id="m14lote20" fill="#35AD0E" points="596,507 653,520 680,403 623,390 "/>
 </g>
</svg>
