<?xml version="1.0" encoding="UTF-8"?>
<!DOCTYPE svg PUBLIC "-//W3C//DTD SVG 1.1//EN" "http://www.w3.org/Graphics/SVG/1.1/DTD/svg11.dtd">
<!-- Creator: CorelDRAW X7 -->
<svg xmlns="http://www.w3.org/2000/svg" xml:space="preserve" width="800px" height="600px" version="1.1" shape-rendering="geometricPrecision" text-rendering="geometricPrecision" image-rendering="optimizeQuality" fill-rule="evenodd" clip-rule="evenodd"
viewBox="0 0 800 600"
 xmlns:xlink="http://www.w3.org/1999/xlink">
 <g id="base">
  <metadata id="CorelCorpID_0Corel-Layer"/>
  <g id="_483967824">
   <polygon fill="#35AD0E" points="143,53 765,200 682,554 60,409 "/>
   <g>
    <polygon fill="#63D13E" points="131,38 762,187 677,546 46,399 "/>
    <g>
     <line fill="none" stroke="#96ED79" stroke-width="0.300001" x1="139" y1="40" x2="54" y2= "400" />
     <line fill="none" stroke="#96ED79" stroke-width="0.300001" x1="149" y1="42" x2="63" y2= "403" />
     <line fill="none" stroke="#96ED79" stroke-width="0.300001" x1="155" y1="44" x2="70" y2= "404" />
     <line fill="none" stroke="#96ED79" stroke-width="0.300001" x1="166" y1="46" x2="80" y2= "407" />
     <line fill="none" stroke="#96ED79" stroke-width="0.300001" x1="175" y1="49" x2="90" y2= "409" />
     <line fill="none" stroke="#96ED79" stroke-width="0.300001" x1="182" y1="50" x2="96" y2= "410" />
     <line fill="none" stroke="#96ED79" stroke-width="0.300001" x1="183" y1="50" x2="98" y2= "411" />
     <line fill="none" stroke="#96ED79" stroke-width="0.300001" x1="193" y1="53" x2="108" y2= "413" />
     <line fill="none" stroke="#96ED79" stroke-width="0.300001" x1="199" y1="54" x2="114" y2= "415" />
     <line fill="none" stroke="#96ED79" stroke-width="0.300001" x1="216" y1="58" x2="131" y2= "419" />
     <line fill="none" stroke="#96ED79" stroke-width="0.300001" x1="226" y1="61" x2="141" y2= "421" />
     <line fill="none" stroke="#96ED79" stroke-width="0.300001" x1="232" y1="62" x2="147" y2= "422" />
     <line fill="none" stroke="#96ED79" stroke-width="0.300001" x1="241" y1="64" x2="156" y2= "424" />
     <line fill="none" stroke="#96ED79" stroke-width="0.300001" x1="251" y1="66" x2="166" y2= "427" />
     <line fill="none" stroke="#96ED79" stroke-width="0.300001" x1="257" y1="68" x2="172" y2= "428" />
     <line fill="none" stroke="#96ED79" stroke-width="0.300001" x1="267" y1="70" x2="181" y2= "430" />
     <line fill="none" stroke="#96ED79" stroke-width="0.300001" x1="276" y1="72" x2="191" y2= "432" />
     <line fill="none" stroke="#96ED79" stroke-width="0.300001" x1="282" y1="74" x2="197" y2= "434" />
     <line fill="none" stroke="#96ED79" stroke-width="0.300001" x1="289" y1="75" x2="204" y2= "435" />
     <line fill="none" stroke="#96ED79" stroke-width="0.300001" x1="299" y1="78" x2="214" y2= "438" />
     <line fill="none" stroke="#96ED79" stroke-width="0.300001" x1="305" y1="79" x2="220" y2= "439" />
     <line fill="none" stroke="#96ED79" stroke-width="0.300001" x1="312" y1="81" x2="227" y2= "441" />
     <line fill="none" stroke="#96ED79" stroke-width="0.300001" x1="322" y1="83" x2="237" y2= "443" />
     <line fill="none" stroke="#96ED79" stroke-width="0.300001" x1="328" y1="85" x2="243" y2= "445" />
     <line fill="none" stroke="#96ED79" stroke-width="0.300001" x1="338" y1="87" x2="253" y2= "447" />
     <line fill="none" stroke="#96ED79" stroke-width="0.300001" x1="348" y1="89" x2="263" y2= "449" />
     <line fill="none" stroke="#96ED79" stroke-width="0.300001" x1="354" y1="91" x2="269" y2= "451" />
     <line fill="none" stroke="#96ED79" stroke-width="0.300001" x1="323" y1="84" x2="238" y2= "443" />
     <line fill="none" stroke="#96ED79" stroke-width="0.300001" x1="333" y1="86" x2="248" y2= "446" />
     <line fill="none" stroke="#96ED79" stroke-width="0.300001" x1="339" y1="87" x2="254" y2= "447" />
     <line fill="none" stroke="#96ED79" stroke-width="0.300001" x1="350" y1="90" x2="265" y2= "450" />
     <line fill="none" stroke="#96ED79" stroke-width="0.300001" x1="359" y1="92" x2="274" y2= "452" />
     <line fill="none" stroke="#96ED79" stroke-width="0.300001" x1="366" y1="94" x2="281" y2= "453" />
     <line fill="none" stroke="#96ED79" stroke-width="0.300001" x1="368" y1="94" x2="283" y2= "454" />
     <line fill="none" stroke="#96ED79" stroke-width="0.300001" x1="377" y1="96" x2="292" y2= "456" />
     <line fill="none" stroke="#96ED79" stroke-width="0.300001" x1="384" y1="98" x2="299" y2= "458" />
     <line fill="none" stroke="#96ED79" stroke-width="0.300001" x1="401" y1="102" x2="316" y2= "462" />
     <line fill="none" stroke="#96ED79" stroke-width="0.300001" x1="410" y1="104" x2="325" y2= "464" />
     <line fill="none" stroke="#96ED79" stroke-width="0.300001" x1="416" y1="106" x2="331" y2= "465" />
     <line fill="none" stroke="#96ED79" stroke-width="0.300001" x1="426" y1="108" x2="341" y2= "467" />
     <line fill="none" stroke="#96ED79" stroke-width="0.300001" x1="435" y1="111" x2="350" y2= "470" />
     <line fill="none" stroke="#96ED79" stroke-width="0.300001" x1="441" y1="116" x2="357" y2= "471" />
     <line fill="none" stroke="#96ED79" stroke-width="0.300001" x1="451" y1="114" x2="366" y2= "473" />
     <line fill="none" stroke="#96ED79" stroke-width="0.300001" x1="460" y1="116" x2="375" y2= "475" />
     <line fill="none" stroke="#96ED79" stroke-width="0.300001" x1="466" y1="121" x2="382" y2= "477" />
     <line fill="none" stroke="#96ED79" stroke-width="0.300001" x1="473" y1="119" x2="388" y2= "479" />
     <line fill="none" stroke="#96ED79" stroke-width="0.300001" x1="482" y1="125" x2="398" y2= "481" />
     <line fill="none" stroke="#96ED79" stroke-width="0.300001" x1="487" y1="130" x2="404" y2= "482" />
     <line fill="none" stroke="#96ED79" stroke-width="0.300001" x1="497" y1="124" x2="412" y2= "484" />
     <line fill="none" stroke="#96ED79" stroke-width="0.300001" x1="506" y1="127" x2="421" y2= "486" />
     <line fill="none" stroke="#96ED79" stroke-width="0.300001" x1="512" y1="128" x2="428" y2= "488" />
     <line fill="none" stroke="#96ED79" stroke-width="0.300001" x1="522" y1="131" x2="437" y2= "490" />
     <line fill="none" stroke="#96ED79" stroke-width="0.300001" x1="532" y1="133" x2="447" y2= "492" />
     <line fill="none" stroke="#96ED79" stroke-width="0.300001" x1="538" y1="134" x2="453" y2= "494" />
     <line fill="none" stroke="#96ED79" stroke-width="0.300001" x1="529" y1="132" x2="444" y2= "492" />
     <line fill="none" stroke="#96ED79" stroke-width="0.300001" x1="539" y1="134" x2="454" y2= "494" />
     <line fill="none" stroke="#96ED79" stroke-width="0.300001" x1="545" y1="136" x2="460" y2= "495" />
     <line fill="none" stroke="#96ED79" stroke-width="0.300001" x1="556" y1="138" x2="471" y2= "498" />
     <line fill="none" stroke="#96ED79" stroke-width="0.300001" x1="565" y1="141" x2="480" y2= "500" />
     <line fill="none" stroke="#96ED79" stroke-width="0.300001" x1="572" y1="142" x2="487" y2= "501" />
     <line fill="none" stroke="#96ED79" stroke-width="0.300001" x1="574" y1="143" x2="489" y2= "502" />
     <line fill="none" stroke="#96ED79" stroke-width="0.300001" x1="583" y1="145" x2="498" y2= "504" />
     <line fill="none" stroke="#96ED79" stroke-width="0.300001" x1="590" y1="146" x2="505" y2= "506" />
     <line fill="none" stroke="#96ED79" stroke-width="0.300001" x1="606" y1="150" x2="522" y2= "510" />
     <line fill="none" stroke="#96ED79" stroke-width="0.300001" x1="616" y1="153" x2="531" y2= "512" />
     <line fill="none" stroke="#96ED79" stroke-width="0.300001" x1="622" y1="154" x2="538" y2= "513" />
     <line fill="none" stroke="#96ED79" stroke-width="0.300001" x1="632" y1="156" x2="547" y2= "515" />
     <line fill="none" stroke="#96ED79" stroke-width="0.300001" x1="641" y1="159" x2="556" y2= "518" />
     <line fill="none" stroke="#96ED79" stroke-width="0.300001" x1="648" y1="160" x2="563" y2= "519" />
     <line fill="none" stroke="#96ED79" stroke-width="0.300001" x1="657" y1="162" x2="572" y2= "521" />
     <line fill="none" stroke="#96ED79" stroke-width="0.300001" x1="666" y1="165" x2="581" y2= "524" />
     <line fill="none" stroke="#96ED79" stroke-width="0.300001" x1="673" y1="166" x2="588" y2= "525" />
     <line fill="none" stroke="#96ED79" stroke-width="0.300001" x1="679" y1="168" x2="594" y2= "527" />
     <line fill="none" stroke="#96ED79" stroke-width="0.300001" x1="689" y1="170" x2="604" y2= "529" />
     <line fill="none" stroke="#96ED79" stroke-width="0.300001" x1="695" y1="171" x2="610" y2= "530" />
     <line fill="none" stroke="#96ED79" stroke-width="0.300001" x1="703" y1="173" x2="618" y2= "532" />
     <line fill="none" stroke="#96ED79" stroke-width="0.300001" x1="712" y1="175" x2="627" y2= "534" />
     <line fill="none" stroke="#96ED79" stroke-width="0.300001" x1="718" y1="177" x2="634" y2= "536" />
     <line fill="none" stroke="#96ED79" stroke-width="0.300001" x1="728" y1="179" x2="644" y2= "538" />
     <line fill="none" stroke="#96ED79" stroke-width="0.300001" x1="738" y1="182" x2="653" y2= "540" />
     <line fill="none" stroke="#96ED79" stroke-width="0.300001" x1="744" y1="183" x2="659" y2= "542" />
     <line fill="none" stroke="#96ED79" stroke-width="0.300001" x1="754" y1="185" x2="670" y2= "544" />
     <line fill="none" stroke="#96ED79" stroke-width="0.300001" x1="760" y1="195" x2="129" y2= "45" />
     <line fill="none" stroke="#96ED79" stroke-width="0.300001" x1="757" y1="207" x2="126" y2= "58" />
     <line fill="none" stroke="#96ED79" stroke-width="0.300001" x1="755" y1="216" x2="124" y2= "67" />
     <line fill="none" stroke="#96ED79" stroke-width="0.300001" x1="751" y1="231" x2="121" y2= "82" />
     <line fill="none" stroke="#96ED79" stroke-width="0.300001" x1="748" y1="243" x2="118" y2= "94" />
     <line fill="none" stroke="#96ED79" stroke-width="0.300001" x1="744" y1="261" x2="113" y2= "112" />
     <line fill="none" stroke="#96ED79" stroke-width="0.300001" x1="746" y1="254" x2="115" y2= "105" />
     <line fill="none" stroke="#96ED79" stroke-width="0.300001" x1="741" y1="276" x2="110" y2= "127" />
     <line fill="none" stroke="#96ED79" stroke-width="0.300001" x1="741" y1="276" x2="110" y2= "126" />
     <line fill="none" stroke="#96ED79" stroke-width="0.300001" x1="738" y1="288" x2="107" y2= "139" />
     <line fill="none" stroke="#96ED79" stroke-width="0.300001" x1="736" y1="297" x2="105" y2= "148" />
     <line fill="none" stroke="#96ED79" stroke-width="0.300001" x1="732" y1="312" x2="102" y2= "163" />
     <line fill="none" stroke="#96ED79" stroke-width="0.300001" x1="729" y1="324" x2="99" y2= "175" />
     <line fill="none" stroke="#96ED79" stroke-width="0.300001" x1="725" y1="342" x2="94" y2= "193" />
     <line fill="none" stroke="#96ED79" stroke-width="0.300001" x1="727" y1="335" x2="96" y2= "186" />
     <line fill="none" stroke="#96ED79" stroke-width="0.300001" x1="722" y1="357" x2="91" y2= "207" />
     <line fill="none" stroke="#96ED79" stroke-width="0.300001" x1="721" y1="361" x2="90" y2= "212" />
     <line fill="none" stroke="#96ED79" stroke-width="0.300001" x1="718" y1="373" x2="87" y2= "224" />
     <line fill="none" stroke="#96ED79" stroke-width="0.300001" x1="716" y1="382" x2="85" y2= "233" />
     <line fill="none" stroke="#96ED79" stroke-width="0.300001" x1="712" y1="397" x2="82" y2= "248" />
     <line fill="none" stroke="#96ED79" stroke-width="0.300001" x1="709" y1="409" x2="79" y2= "260" />
     <line fill="none" stroke="#96ED79" stroke-width="0.300001" x1="705" y1="427" x2="74" y2= "278" />
     <line fill="none" stroke="#96ED79" stroke-width="0.300001" x1="707" y1="420" x2="76" y2= "271" />
     <line fill="none" stroke="#96ED79" stroke-width="0.300001" x1="702" y1="442" x2="71" y2= "293" />
     <line fill="none" stroke="#96ED79" stroke-width="0.300001" x1="699" y1="454" x2="68" y2= "305" />
     <line fill="none" stroke="#96ED79" stroke-width="0.300001" x1="696" y1="467" x2="65" y2= "317" />
     <line fill="none" stroke="#96ED79" stroke-width="0.300001" x1="694" y1="475" x2="63" y2= "326" />
     <line fill="none" stroke="#96ED79" stroke-width="0.300001" x1="691" y1="490" x2="60" y2= "341" />
     <line fill="none" stroke="#96ED79" stroke-width="0.300001" x1="688" y1="502" x2="57" y2= "353" />
     <line fill="none" stroke="#96ED79" stroke-width="0.300001" x1="683" y1="520" x2="53" y2= "371" />
     <line fill="none" stroke="#96ED79" stroke-width="0.300001" x1="685" y1="513" x2="54" y2= "364" />
     <line fill="none" stroke="#96ED79" stroke-width="0.300001" x1="680" y1="535" x2="49" y2= "386" />
    </g>
   </g>
   <path fill="white" fill-rule="nonzero" d="M679 342c5,2 9,7 7,13 -1,5 -6,8 -12,7l-524 -120c-6,-1 -9,-7 -8,-12 2,-6 7,-9 12,-8l525 120z"/>
  </g>
 </g>
 <g id="landmarks-mz15">
  <metadata id="CorelCorpID_1Corel-Layer"/>
  <polygon id="m15lote18" fill="#35AD0E" points="569,151 627,164 600,283 542,269 "/>
  <polygon id="m15lote17" fill="#35AD0E" points="509,137 567,150 539,269 481,256 "/>
  <polygon id="m15lote16" fill="#35AD0E" points="506,136 447,123 420,241 478,255 "/>
  <polygon id="m15lote15" fill="#35AD0E" points="386,109 444,122 417,240 359,227 "/>
  <polygon id="m15lote14" fill="#35AD0E" points="383,108 325,94 298,213 356,226 "/>
  <polygon id="m15lote13" fill="#35AD0E" points="322,94 264,81 237,199 295,212 "/>
  <polygon id="m15lote12" fill="#35AD0E" points="261,79 204,66 176,185 234,198 "/>
  <polygon id="m15lote11" fill="#35AD0E" points="201,66 142,52 115,170 173,184 "/>
  <polygon id="m15lote10" fill="#35AD0E" points="149,285 91,272 63,390 121,404 "/>
  <polygon id="m15lote9" fill="#35AD0E" points="209,299 152,286 124,404 183,418 "/>
  <path id="m15lote8" fill="#35AD0E" d="M271 313l-58 -13 -28 118 58 14c0,0 27,-119 28,-119z"/>
  <polygon id="m15lote7" fill="#35AD0E" points="331,328 274,314 246,433 304,447 "/>
  <polygon id="m15lote6" fill="#35AD0E" points="393,341 334,328 307,447 364,460 "/>
  <polygon id="m15lote5" fill="#35AD0E" points="453,356 395,342 368,461 425,475 "/>
  <polygon id="m15lote4" fill="#35AD0E" points="514,370 456,357 429,475 486,489 "/>
  <polygon id="m15lote3" fill="#35AD0E" points="575,384 517,371 489,490 547,503 "/>
  <polygon id="m15lote2" fill="#35AD0E" points="636,398 579,385 550,504 609,517 "/>
  <polygon id="m15lote1" fill="#35AD0E" points="639,399 697,413 669,532 611,518 "/>
  <polygon id="m15lote19" fill="#35AD0E" points="661,298 602,285 630,165 689,179 "/>
  <polygon id="m15lote20" fill="#35AD0E" points="663,299 722,312 749,194 691,180 "/>
 </g>
</svg>
