<?xml version="1.0" encoding="UTF-8"?>
<!DOCTYPE svg PUBLIC "-//W3C//DTD SVG 1.1//EN" "http://www.w3.org/Graphics/SVG/1.1/DTD/svg11.dtd">
<!-- Creator: CorelDRAW X8 -->
<svg xmlns="http://www.w3.org/2000/svg" xml:space="preserve" width="800px" height="600px" version="1.1" shape-rendering="geometricPrecision" text-rendering="geometricPrecision" image-rendering="optimizeQuality" fill-rule="evenodd" clip-rule="evenodd"
viewBox="0 0 800 600"
 xmlns:xlink="http://www.w3.org/1999/xlink">
 <g id="base">
  <metadata id="CorelCorpID_0Corel-Layer"/>
  <g id="_2033674456528">
   <polygon fill="#35AD0E" points="255,156 612,241 565,444 207,361 "/>
   <g>
    <polygon fill="#63D13E" points="248,148 610,233 562,440 199,355 "/>
    <g>
     <line fill="none" stroke="#96ED79" stroke-width="0.300001" x1="253" y1="149" x2="204" y2= "356" />
     <line fill="none" stroke="#96ED79" stroke-width="0.300001" x1="258" y1="150" x2="209" y2= "357" />
     <line fill="none" stroke="#96ED79" stroke-width="0.300001" x1="262" y1="151" x2="213" y2= "358" />
     <line fill="none" stroke="#96ED79" stroke-width="0.300001" x1="268" y1="153" x2="219" y2= "360" />
     <line fill="none" stroke="#96ED79" stroke-width="0.300001" x1="273" y1="154" x2="224" y2= "361" />
     <line fill="none" stroke="#96ED79" stroke-width="0.300001" x1="277" y1="155" x2="228" y2= "362" />
     <line fill="none" stroke="#96ED79" stroke-width="0.300001" x1="278" y1="155" x2="229" y2= "362" />
     <line fill="none" stroke="#96ED79" stroke-width="0.300001" x1="284" y1="156" x2="235" y2= "363" />
     <line fill="none" stroke="#96ED79" stroke-width="0.300001" x1="287" y1="157" x2="238" y2= "364" />
     <line fill="none" stroke="#96ED79" stroke-width="0.300001" x1="297" y1="159" x2="248" y2= "366" />
     <line fill="none" stroke="#96ED79" stroke-width="0.300001" x1="302" y1="161" x2="254" y2= "368" />
     <line fill="none" stroke="#96ED79" stroke-width="0.300001" x1="306" y1="162" x2="257" y2= "369" />
     <line fill="none" stroke="#96ED79" stroke-width="0.300001" x1="311" y1="163" x2="262" y2= "370" />
     <line fill="none" stroke="#96ED79" stroke-width="0.300001" x1="317" y1="164" x2="268" y2= "371" />
     <line fill="none" stroke="#96ED79" stroke-width="0.300001" x1="321" y1="165" x2="272" y2= "372" />
     <line fill="none" stroke="#96ED79" stroke-width="0.300001" x1="326" y1="166" x2="277" y2= "373" />
     <line fill="none" stroke="#96ED79" stroke-width="0.300001" x1="331" y1="168" x2="282" y2= "374" />
     <line fill="none" stroke="#96ED79" stroke-width="0.300001" x1="335" y1="168" x2="286" y2= "375" />
     <line fill="none" stroke="#96ED79" stroke-width="0.300001" x1="339" y1="169" x2="290" y2= "376" />
     <line fill="none" stroke="#96ED79" stroke-width="0.300001" x1="344" y1="171" x2="295" y2= "377" />
     <line fill="none" stroke="#96ED79" stroke-width="0.300001" x1="348" y1="171" x2="299" y2= "378" />
     <line fill="none" stroke="#96ED79" stroke-width="0.300001" x1="352" y1="172" x2="303" y2= "379" />
     <line fill="none" stroke="#96ED79" stroke-width="0.300001" x1="358" y1="174" x2="309" y2= "381" />
     <line fill="none" stroke="#96ED79" stroke-width="0.300001" x1="361" y1="175" x2="312" y2= "381" />
     <line fill="none" stroke="#96ED79" stroke-width="0.300001" x1="367" y1="176" x2="318" y2= "383" />
     <line fill="none" stroke="#96ED79" stroke-width="0.300001" x1="372" y1="177" x2="324" y2= "384" />
     <line fill="none" stroke="#96ED79" stroke-width="0.300001" x1="376" y1="178" x2="327" y2= "385" />
     <line fill="none" stroke="#96ED79" stroke-width="0.300001" x1="358" y1="174" x2="310" y2= "381" />
     <line fill="none" stroke="#96ED79" stroke-width="0.300001" x1="364" y1="175" x2="315" y2= "382" />
     <line fill="none" stroke="#96ED79" stroke-width="0.300001" x1="368" y1="176" x2="319" y2= "383" />
     <line fill="none" stroke="#96ED79" stroke-width="0.300001" x1="374" y1="178" x2="325" y2= "384" />
     <line fill="none" stroke="#96ED79" stroke-width="0.300001" x1="379" y1="179" x2="330" y2= "386" />
     <line fill="none" stroke="#96ED79" stroke-width="0.300001" x1="383" y1="180" x2="334" y2= "386" />
     <line fill="none" stroke="#96ED79" stroke-width="0.300001" x1="384" y1="180" x2="335" y2= "387" />
     <line fill="none" stroke="#96ED79" stroke-width="0.300001" x1="389" y1="181" x2="341" y2= "388" />
     <line fill="none" stroke="#96ED79" stroke-width="0.300001" x1="393" y1="182" x2="344" y2= "389" />
     <line fill="none" stroke="#96ED79" stroke-width="0.300001" x1="403" y1="184" x2="354" y2= "391" />
     <line fill="none" stroke="#96ED79" stroke-width="0.300001" x1="408" y1="186" x2="359" y2= "392" />
     <line fill="none" stroke="#96ED79" stroke-width="0.300001" x1="412" y1="187" x2="363" y2= "393" />
     <line fill="none" stroke="#96ED79" stroke-width="0.300001" x1="417" y1="188" x2="368" y2= "394" />
     <line fill="none" stroke="#96ED79" stroke-width="0.300001" x1="423" y1="190" x2="374" y2= "396" />
     <line fill="none" stroke="#96ED79" stroke-width="0.300001" x1="426" y1="192" x2="378" y2= "397" />
     <line fill="none" stroke="#96ED79" stroke-width="0.300001" x1="432" y1="191" x2="383" y2= "398" />
     <line fill="none" stroke="#96ED79" stroke-width="0.300001" x1="437" y1="193" x2="388" y2= "399" />
     <line fill="none" stroke="#96ED79" stroke-width="0.300001" x1="440" y1="196" x2="392" y2= "400" />
     <line fill="none" stroke="#96ED79" stroke-width="0.300001" x1="445" y1="194" x2="396" y2= "401" />
     <line fill="none" stroke="#96ED79" stroke-width="0.300001" x1="450" y1="198" x2="401" y2= "402" />
     <line fill="none" stroke="#96ED79" stroke-width="0.300001" x1="453" y1="201" x2="405" y2= "403" />
     <line fill="none" stroke="#96ED79" stroke-width="0.300001" x1="458" y1="197" x2="409" y2= "404" />
     <line fill="none" stroke="#96ED79" stroke-width="0.300001" x1="463" y1="199" x2="415" y2= "405" />
     <line fill="none" stroke="#96ED79" stroke-width="0.300001" x1="467" y1="200" x2="418" y2= "406" />
     <line fill="none" stroke="#96ED79" stroke-width="0.300001" x1="473" y1="201" x2="424" y2= "407" />
     <line fill="none" stroke="#96ED79" stroke-width="0.300001" x1="478" y1="202" x2="430" y2= "409" />
     <line fill="none" stroke="#96ED79" stroke-width="0.300001" x1="482" y1="203" x2="433" y2= "410" />
     <line fill="none" stroke="#96ED79" stroke-width="0.300001" x1="477" y1="202" x2="428" y2= "408" />
     <line fill="none" stroke="#96ED79" stroke-width="0.300001" x1="482" y1="203" x2="433" y2= "410" />
     <line fill="none" stroke="#96ED79" stroke-width="0.300001" x1="486" y1="204" x2="437" y2= "410" />
     <line fill="none" stroke="#96ED79" stroke-width="0.300001" x1="492" y1="206" x2="443" y2= "412" />
     <line fill="none" stroke="#96ED79" stroke-width="0.300001" x1="497" y1="207" x2="449" y2= "413" />
     <line fill="none" stroke="#96ED79" stroke-width="0.300001" x1="501" y1="208" x2="452" y2= "414" />
     <line fill="none" stroke="#96ED79" stroke-width="0.300001" x1="502" y1="208" x2="453" y2= "414" />
     <line fill="none" stroke="#96ED79" stroke-width="0.300001" x1="508" y1="209" x2="459" y2= "416" />
     <line fill="none" stroke="#96ED79" stroke-width="0.300001" x1="511" y1="210" x2="463" y2= "416" />
     <line fill="none" stroke="#96ED79" stroke-width="0.300001" x1="521" y1="212" x2="472" y2= "419" />
     <line fill="none" stroke="#96ED79" stroke-width="0.300001" x1="527" y1="214" x2="478" y2= "420" />
     <line fill="none" stroke="#96ED79" stroke-width="0.300001" x1="530" y1="215" x2="481" y2= "421" />
     <line fill="none" stroke="#96ED79" stroke-width="0.300001" x1="536" y1="216" x2="487" y2= "422" />
     <line fill="none" stroke="#96ED79" stroke-width="0.300001" x1="541" y1="217" x2="492" y2= "423" />
     <line fill="none" stroke="#96ED79" stroke-width="0.300001" x1="545" y1="218" x2="496" y2= "424" />
     <line fill="none" stroke="#96ED79" stroke-width="0.300001" x1="550" y1="219" x2="501" y2= "425" />
     <line fill="none" stroke="#96ED79" stroke-width="0.300001" x1="555" y1="221" x2="507" y2= "427" />
     <line fill="none" stroke="#96ED79" stroke-width="0.300001" x1="559" y1="221" x2="510" y2= "428" />
     <line fill="none" stroke="#96ED79" stroke-width="0.300001" x1="563" y1="222" x2="514" y2= "428" />
     <line fill="none" stroke="#96ED79" stroke-width="0.300001" x1="568" y1="224" x2="520" y2= "430" />
     <line fill="none" stroke="#96ED79" stroke-width="0.300001" x1="572" y1="224" x2="523" y2= "431" />
     <line fill="none" stroke="#96ED79" stroke-width="0.300001" x1="576" y1="225" x2="528" y2= "432" />
     <line fill="none" stroke="#96ED79" stroke-width="0.300001" x1="582" y1="227" x2="533" y2= "433" />
     <line fill="none" stroke="#96ED79" stroke-width="0.300001" x1="585" y1="228" x2="537" y2= "434" />
     <line fill="none" stroke="#96ED79" stroke-width="0.300001" x1="591" y1="229" x2="542" y2= "435" />
     <line fill="none" stroke="#96ED79" stroke-width="0.300001" x1="597" y1="230" x2="548" y2= "436" />
     <line fill="none" stroke="#96ED79" stroke-width="0.300001" x1="600" y1="231" x2="551" y2= "437" />
     <line fill="none" stroke="#96ED79" stroke-width="0.300001" x1="606" y1="232" x2="557" y2= "439" />
     <line fill="none" stroke="#96ED79" stroke-width="0.300001" x1="609" y1="238" x2="247" y2= "152" />
     <line fill="none" stroke="#96ED79" stroke-width="0.300001" x1="607" y1="245" x2="245" y2= "159" />
     <line fill="none" stroke="#96ED79" stroke-width="0.300001" x1="606" y1="250" x2="244" y2= "164" />
     <line fill="none" stroke="#96ED79" stroke-width="0.300001" x1="604" y1="258" x2="242" y2= "173" />
     <line fill="none" stroke="#96ED79" stroke-width="0.300001" x1="603" y1="266" x2="240" y2= "180" />
     <line fill="none" stroke="#96ED79" stroke-width="0.300001" x1="600" y1="276" x2="238" y2= "190" />
     <line fill="none" stroke="#96ED79" stroke-width="0.300001" x1="601" y1="272" x2="239" y2= "186" />
     <line fill="none" stroke="#96ED79" stroke-width="0.300001" x1="598" y1="284" x2="236" y2= "199" />
     <line fill="none" stroke="#96ED79" stroke-width="0.300001" x1="598" y1="284" x2="236" y2= "199" />
     <line fill="none" stroke="#96ED79" stroke-width="0.300001" x1="597" y1="292" x2="234" y2= "206" />
     <line fill="none" stroke="#96ED79" stroke-width="0.300001" x1="595" y1="296" x2="233" y2= "211" />
     <line fill="none" stroke="#96ED79" stroke-width="0.300001" x1="593" y1="305" x2="231" y2= "219" />
     <line fill="none" stroke="#96ED79" stroke-width="0.300001" x1="592" y1="312" x2="229" y2= "227" />
     <line fill="none" stroke="#96ED79" stroke-width="0.300001" x1="589" y1="323" x2="227" y2= "237" />
     <line fill="none" stroke="#96ED79" stroke-width="0.300001" x1="590" y1="318" x2="228" y2= "233" />
     <line fill="none" stroke="#96ED79" stroke-width="0.300001" x1="587" y1="331" x2="225" y2= "245" />
     <line fill="none" stroke="#96ED79" stroke-width="0.300001" x1="587" y1="333" x2="224" y2= "247" />
     <line fill="none" stroke="#96ED79" stroke-width="0.300001" x1="585" y1="340" x2="223" y2= "255" />
     <line fill="none" stroke="#96ED79" stroke-width="0.300001" x1="584" y1="345" x2="222" y2= "260" />
     <line fill="none" stroke="#96ED79" stroke-width="0.300001" x1="582" y1="354" x2="220" y2= "268" />
     <line fill="none" stroke="#96ED79" stroke-width="0.300001" x1="580" y1="361" x2="218" y2= "275" />
     <line fill="none" stroke="#96ED79" stroke-width="0.300001" x1="578" y1="371" x2="215" y2= "286" />
     <line fill="none" stroke="#96ED79" stroke-width="0.300001" x1="579" y1="367" x2="216" y2= "281" />
     <line fill="none" stroke="#96ED79" stroke-width="0.300001" x1="576" y1="380" x2="214" y2= "294" />
     <line fill="none" stroke="#96ED79" stroke-width="0.300001" x1="574" y1="387" x2="212" y2= "301" />
     <line fill="none" stroke="#96ED79" stroke-width="0.300001" x1="573" y1="394" x2="210" y2= "308" />
     <line fill="none" stroke="#96ED79" stroke-width="0.300001" x1="571" y1="399" x2="209" y2= "313" />
     <line fill="none" stroke="#96ED79" stroke-width="0.300001" x1="569" y1="407" x2="207" y2= "322" />
     <line fill="none" stroke="#96ED79" stroke-width="0.300001" x1="568" y1="415" x2="205" y2= "329" />
     <line fill="none" stroke="#96ED79" stroke-width="0.300001" x1="565" y1="425" x2="203" y2= "339" />
     <line fill="none" stroke="#96ED79" stroke-width="0.300001" x1="566" y1="421" x2="204" y2= "335" />
     <line fill="none" stroke="#96ED79" stroke-width="0.300001" x1="563" y1="433" x2="201" y2= "348" />
    </g>
   </g>
   <path fill="white" fill-rule="nonzero" d="M563 323c3,0 5,4 4,7 -1,3 -4,5 -7,4l-301 -69c-3,-1 -5,-4 -5,-7 1,-3 4,-5 7,-4l302 69z"/>
  </g>
 </g>
 <g id="landmarks-mz15">
  <metadata id="CorelCorpID_1Corel-Layer"/>
  <polygon id="m15lote18" fill="#35AD0E" points="500,213 533,220 518,289 484,281 "/>
  <polygon id="m15lote17" fill="#35AD0E" points="465,205 498,212 482,280 449,273 "/>
  <polygon id="m15lote16" fill="#35AD0E" points="463,204 430,197 414,264 447,272 "/>
  <polygon id="m15lote15" fill="#35AD0E" points="395,189 428,196 412,264 379,257 "/>
  <polygon id="m15lote14" fill="#35AD0E" points="393,188 360,180 344,248 377,256 "/>
  <polygon id="m15lote13" fill="#35AD0E" points="358,180 325,172 309,240 342,248 "/>
  <polygon id="m15lote12" fill="#35AD0E" points="323,172 290,164 274,232 307,240 "/>
  <polygon id="m15lote11" fill="#35AD0E" points="288,164 255,156 239,224 272,232 "/>
  <polygon id="m15lote10" fill="#35AD0E" points="258,290 225,282 209,350 242,358 "/>
  <polygon id="m15lote9" fill="#35AD0E" points="293,298 260,290 244,358 278,366 "/>
  <path id="m15lote8" fill="#35AD0E" d="M328 306l-33 -8 -16 68 33 8c0,0 16,-68 16,-68z"/>
  <polygon id="m15lote7" fill="#35AD0E" points="363,314 330,306 314,375 347,382 "/>
  <polygon id="m15lote6" fill="#35AD0E" points="398,322 365,314 349,383 382,390 "/>
  <polygon id="m15lote5" fill="#35AD0E" points="433,330 400,322 384,391 417,399 "/>
  <polygon id="m15lote4" fill="#35AD0E" points="468,339 435,331 419,399 452,407 "/>
  <polygon id="m15lote3" fill="#35AD0E" points="503,347 470,339 454,407 487,415 "/>
  <polygon id="m15lote2" fill="#35AD0E" points="538,355 505,347 489,416 522,423 "/>
  <polygon id="m15lote1" fill="#35AD0E" points="540,355 573,363 557,431 524,424 "/>
  <polygon id="m15lote19" fill="#35AD0E" points="552,297 519,289 535,221 568,229 "/>
  <polygon id="m15lote20" fill="#35AD0E" points="554,298 587,305 603,237 570,229 "/>
 </g>
</svg>
