<?xml version="1.0" encoding="UTF-8"?>
<!DOCTYPE svg PUBLIC "-//W3C//DTD SVG 1.1//EN" "http://www.w3.org/Graphics/SVG/1.1/DTD/svg11.dtd">
<!-- Creator: CorelDRAW X7 -->
<svg xmlns="http://www.w3.org/2000/svg" xml:space="preserve" width="800px" height="600px" version="1.1" shape-rendering="geometricPrecision" text-rendering="geometricPrecision" image-rendering="optimizeQuality" fill-rule="evenodd" clip-rule="evenodd"
viewBox="0 0 800 600"
 xmlns:xlink="http://www.w3.org/1999/xlink">
 <g id="base">
  <metadata id="CorelCorpID_0Corel-Layer"/>
  <g id="_378086656">
   <polygon fill="#35AD0E" points="137,60 746,204 665,551 55,408 "/>
   <g>
    <polygon fill="#63D13E" points="125,45 743,191 660,543 42,398 "/>
    <g>
     <line fill="none" stroke="#96ED79" stroke-width="0.300001" x1="133" y1="47" x2="50" y2= "400" />
     <line fill="none" stroke="#96ED79" stroke-width="0.300001" x1="142" y1="49" x2="59" y2= "402" />
     <line fill="none" stroke="#96ED79" stroke-width="0.300001" x1="149" y1="51" x2="65" y2= "404" />
     <line fill="none" stroke="#96ED79" stroke-width="0.300001" x1="159" y1="53" x2="76" y2= "406" />
     <line fill="none" stroke="#96ED79" stroke-width="0.300001" x1="168" y1="56" x2="85" y2= "409" />
     <line fill="none" stroke="#96ED79" stroke-width="0.300001" x1="175" y1="57" x2="91" y2= "410" />
     <line fill="none" stroke="#96ED79" stroke-width="0.300001" x1="176" y1="57" x2="93" y2= "410" />
     <line fill="none" stroke="#96ED79" stroke-width="0.300001" x1="186" y1="60" x2="102" y2= "413" />
     <line fill="none" stroke="#96ED79" stroke-width="0.300001" x1="192" y1="61" x2="109" y2= "414" />
     <line fill="none" stroke="#96ED79" stroke-width="0.300001" x1="209" y1="65" x2="125" y2= "418" />
     <line fill="none" stroke="#96ED79" stroke-width="0.300001" x1="218" y1="67" x2="135" y2= "420" />
     <line fill="none" stroke="#96ED79" stroke-width="0.300001" x1="224" y1="69" x2="141" y2= "422" />
     <line fill="none" stroke="#96ED79" stroke-width="0.300001" x1="233" y1="71" x2="150" y2= "424" />
     <line fill="none" stroke="#96ED79" stroke-width="0.300001" x1="243" y1="73" x2="159" y2= "426" />
     <line fill="none" stroke="#96ED79" stroke-width="0.300001" x1="249" y1="75" x2="165" y2= "427" />
     <line fill="none" stroke="#96ED79" stroke-width="0.300001" x1="258" y1="77" x2="174" y2= "429" />
     <line fill="none" stroke="#96ED79" stroke-width="0.300001" x1="267" y1="79" x2="184" y2= "432" />
     <line fill="none" stroke="#96ED79" stroke-width="0.300001" x1="273" y1="80" x2="190" y2= "433" />
     <line fill="none" stroke="#96ED79" stroke-width="0.300001" x1="280" y1="82" x2="197" y2= "435" />
     <line fill="none" stroke="#96ED79" stroke-width="0.300001" x1="289" y1="84" x2="206" y2= "437" />
     <line fill="none" stroke="#96ED79" stroke-width="0.300001" x1="295" y1="86" x2="212" y2= "438" />
     <line fill="none" stroke="#96ED79" stroke-width="0.300001" x1="303" y1="87" x2="219" y2= "440" />
     <line fill="none" stroke="#96ED79" stroke-width="0.300001" x1="312" y1="89" x2="229" y2= "442" />
     <line fill="none" stroke="#96ED79" stroke-width="0.300001" x1="318" y1="91" x2="235" y2= "444" />
     <line fill="none" stroke="#96ED79" stroke-width="0.300001" x1="328" y1="93" x2="245" y2= "446" />
     <line fill="none" stroke="#96ED79" stroke-width="0.300001" x1="337" y1="95" x2="254" y2= "448" />
     <line fill="none" stroke="#96ED79" stroke-width="0.300001" x1="344" y1="97" x2="260" y2= "449" />
     <line fill="none" stroke="#96ED79" stroke-width="0.300001" x1="313" y1="90" x2="230" y2= "442" />
     <line fill="none" stroke="#96ED79" stroke-width="0.300001" x1="323" y1="92" x2="239" y2= "445" />
     <line fill="none" stroke="#96ED79" stroke-width="0.300001" x1="329" y1="93" x2="246" y2= "446" />
     <line fill="none" stroke="#96ED79" stroke-width="0.300001" x1="339" y1="96" x2="256" y2= "448" />
     <line fill="none" stroke="#96ED79" stroke-width="0.300001" x1="349" y1="98" x2="266" y2= "451" />
     <line fill="none" stroke="#96ED79" stroke-width="0.300001" x1="355" y1="100" x2="272" y2= "452" />
     <line fill="none" stroke="#96ED79" stroke-width="0.300001" x1="357" y1="100" x2="274" y2= "453" />
     <line fill="none" stroke="#96ED79" stroke-width="0.300001" x1="366" y1="102" x2="283" y2= "455" />
     <line fill="none" stroke="#96ED79" stroke-width="0.300001" x1="372" y1="104" x2="289" y2= "456" />
     <line fill="none" stroke="#96ED79" stroke-width="0.300001" x1="389" y1="108" x2="306" y2= "460" />
     <line fill="none" stroke="#96ED79" stroke-width="0.300001" x1="399" y1="110" x2="315" y2= "462" />
     <line fill="none" stroke="#96ED79" stroke-width="0.300001" x1="405" y1="111" x2="321" y2= "464" />
     <line fill="none" stroke="#96ED79" stroke-width="0.300001" x1="414" y1="113" x2="330" y2= "466" />
     <line fill="none" stroke="#96ED79" stroke-width="0.300001" x1="423" y1="117" x2="340" y2= "468" />
     <line fill="none" stroke="#96ED79" stroke-width="0.300001" x1="428" y1="121" x2="346" y2= "469" />
     <line fill="none" stroke="#96ED79" stroke-width="0.300001" x1="438" y1="119" x2="355" y2= "472" />
     <line fill="none" stroke="#96ED79" stroke-width="0.300001" x1="448" y1="122" x2="364" y2= "474" />
     <line fill="none" stroke="#96ED79" stroke-width="0.300001" x1="453" y1="127" x2="371" y2= "475" />
     <line fill="none" stroke="#96ED79" stroke-width="0.300001" x1="460" y1="124" x2="377" y2= "477" />
     <line fill="none" stroke="#96ED79" stroke-width="0.300001" x1="469" y1="131" x2="386" y2= "479" />
     <line fill="none" stroke="#96ED79" stroke-width="0.300001" x1="474" y1="135" x2="393" y2= "480" />
     <line fill="none" stroke="#96ED79" stroke-width="0.300001" x1="483" y1="130" x2="400" y2= "482" />
     <line fill="none" stroke="#96ED79" stroke-width="0.300001" x1="493" y1="132" x2="409" y2= "484" />
     <line fill="none" stroke="#96ED79" stroke-width="0.300001" x1="499" y1="134" x2="416" y2= "486" />
     <line fill="none" stroke="#96ED79" stroke-width="0.300001" x1="508" y1="136" x2="425" y2= "488" />
     <line fill="none" stroke="#96ED79" stroke-width="0.300001" x1="518" y1="138" x2="435" y2= "490" />
     <line fill="none" stroke="#96ED79" stroke-width="0.300001" x1="524" y1="140" x2="441" y2= "492" />
     <line fill="none" stroke="#96ED79" stroke-width="0.300001" x1="515" y1="137" x2="432" y2= "489" />
     <line fill="none" stroke="#96ED79" stroke-width="0.300001" x1="525" y1="140" x2="441" y2= "492" />
     <line fill="none" stroke="#96ED79" stroke-width="0.300001" x1="531" y1="141" x2="447" y2= "493" />
     <line fill="none" stroke="#96ED79" stroke-width="0.300001" x1="541" y1="144" x2="458" y2= "496" />
     <line fill="none" stroke="#96ED79" stroke-width="0.300001" x1="551" y1="146" x2="467" y2= "498" />
     <line fill="none" stroke="#96ED79" stroke-width="0.300001" x1="557" y1="147" x2="474" y2= "499" />
     <line fill="none" stroke="#96ED79" stroke-width="0.300001" x1="559" y1="148" x2="475" y2= "500" />
     <line fill="none" stroke="#96ED79" stroke-width="0.300001" x1="568" y1="150" x2="485" y2= "502" />
     <line fill="none" stroke="#96ED79" stroke-width="0.300001" x1="574" y1="151" x2="491" y2= "503" />
     <line fill="none" stroke="#96ED79" stroke-width="0.300001" x1="591" y1="155" x2="508" y2= "507" />
     <line fill="none" stroke="#96ED79" stroke-width="0.300001" x1="600" y1="158" x2="517" y2= "509" />
     <line fill="none" stroke="#96ED79" stroke-width="0.300001" x1="606" y1="159" x2="523" y2= "511" />
     <line fill="none" stroke="#96ED79" stroke-width="0.300001" x1="615" y1="161" x2="532" y2= "513" />
     <line fill="none" stroke="#96ED79" stroke-width="0.300001" x1="625" y1="163" x2="542" y2= "515" />
     <line fill="none" stroke="#96ED79" stroke-width="0.300001" x1="631" y1="165" x2="548" y2= "517" />
     <line fill="none" stroke="#96ED79" stroke-width="0.300001" x1="640" y1="167" x2="557" y2= "519" />
     <line fill="none" stroke="#96ED79" stroke-width="0.300001" x1="649" y1="169" x2="566" y2= "521" />
     <line fill="none" stroke="#96ED79" stroke-width="0.300001" x1="656" y1="171" x2="572" y2= "522" />
     <line fill="none" stroke="#96ED79" stroke-width="0.300001" x1="662" y1="172" x2="579" y2= "524" />
     <line fill="none" stroke="#96ED79" stroke-width="0.300001" x1="671" y1="174" x2="588" y2= "526" />
     <line fill="none" stroke="#96ED79" stroke-width="0.300001" x1="678" y1="176" x2="594" y2= "527" />
     <line fill="none" stroke="#96ED79" stroke-width="0.300001" x1="685" y1="178" x2="602" y2= "529" />
     <line fill="none" stroke="#96ED79" stroke-width="0.300001" x1="694" y1="180" x2="611" y2= "531" />
     <line fill="none" stroke="#96ED79" stroke-width="0.300001" x1="700" y1="181" x2="617" y2= "533" />
     <line fill="none" stroke="#96ED79" stroke-width="0.300001" x1="710" y1="184" x2="627" y2= "535" />
     <line fill="none" stroke="#96ED79" stroke-width="0.300001" x1="720" y1="186" x2="637" y2= "537" />
     <line fill="none" stroke="#96ED79" stroke-width="0.300001" x1="726" y1="187" x2="643" y2= "539" />
     <line fill="none" stroke="#96ED79" stroke-width="0.300001" x1="736" y1="190" x2="653" y2= "541" />
     <line fill="none" stroke="#96ED79" stroke-width="0.300001" x1="741" y1="199" x2="123" y2= "53" />
     <line fill="none" stroke="#96ED79" stroke-width="0.300001" x1="738" y1="211" x2="120" y2= "65" />
     <line fill="none" stroke="#96ED79" stroke-width="0.300001" x1="736" y1="219" x2="118" y2= "73" />
     <line fill="none" stroke="#96ED79" stroke-width="0.300001" x1="733" y1="234" x2="115" y2= "88" />
     <line fill="none" stroke="#96ED79" stroke-width="0.300001" x1="730" y1="246" x2="112" y2= "100" />
     <line fill="none" stroke="#96ED79" stroke-width="0.300001" x1="726" y1="264" x2="108" y2= "118" />
     <line fill="none" stroke="#96ED79" stroke-width="0.300001" x1="727" y1="256" x2="110" y2= "110" />
     <line fill="none" stroke="#96ED79" stroke-width="0.300001" x1="722" y1="278" x2="105" y2= "132" />
     <line fill="none" stroke="#96ED79" stroke-width="0.300001" x1="722" y1="278" x2="105" y2= "132" />
     <line fill="none" stroke="#96ED79" stroke-width="0.300001" x1="719" y1="290" x2="102" y2= "144" />
     <line fill="none" stroke="#96ED79" stroke-width="0.300001" x1="717" y1="299" x2="100" y2= "153" />
     <line fill="none" stroke="#96ED79" stroke-width="0.300001" x1="714" y1="313" x2="96" y2= "167" />
     <line fill="none" stroke="#96ED79" stroke-width="0.300001" x1="711" y1="326" x2="93" y2= "179" />
     <line fill="none" stroke="#96ED79" stroke-width="0.300001" x1="707" y1="343" x2="89" y2= "197" />
     <line fill="none" stroke="#96ED79" stroke-width="0.300001" x1="709" y1="336" x2="91" y2= "190" />
     <line fill="none" stroke="#96ED79" stroke-width="0.300001" x1="704" y1="357" x2="86" y2= "211" />
     <line fill="none" stroke="#96ED79" stroke-width="0.300001" x1="703" y1="361" x2="85" y2= "215" />
     <line fill="none" stroke="#96ED79" stroke-width="0.300001" x1="700" y1="374" x2="82" y2= "228" />
     <line fill="none" stroke="#96ED79" stroke-width="0.300001" x1="698" y1="382" x2="80" y2= "236" />
     <line fill="none" stroke="#96ED79" stroke-width="0.300001" x1="695" y1="397" x2="77" y2= "251" />
     <line fill="none" stroke="#96ED79" stroke-width="0.300001" x1="692" y1="409" x2="74" y2= "263" />
     <line fill="none" stroke="#96ED79" stroke-width="0.300001" x1="688" y1="427" x2="70" y2= "281" />
     <line fill="none" stroke="#96ED79" stroke-width="0.300001" x1="689" y1="419" x2="71" y2= "273" />
     <line fill="none" stroke="#96ED79" stroke-width="0.300001" x1="684" y1="441" x2="66" y2= "295" />
     <line fill="none" stroke="#96ED79" stroke-width="0.300001" x1="681" y1="452" x2="64" y2= "306" />
     <line fill="none" stroke="#96ED79" stroke-width="0.300001" x1="679" y1="465" x2="61" y2= "319" />
     <line fill="none" stroke="#96ED79" stroke-width="0.300001" x1="677" y1="473" x2="59" y2= "327" />
     <line fill="none" stroke="#96ED79" stroke-width="0.300001" x1="673" y1="488" x2="55" y2= "342" />
     <line fill="none" stroke="#96ED79" stroke-width="0.300001" x1="670" y1="500" x2="52" y2= "354" />
     <line fill="none" stroke="#96ED79" stroke-width="0.300001" x1="666" y1="518" x2="48" y2= "372" />
     <line fill="none" stroke="#96ED79" stroke-width="0.300001" x1="668" y1="510" x2="50" y2= "364" />
     <line fill="none" stroke="#96ED79" stroke-width="0.300001" x1="663" y1="532" x2="45" y2= "386" />
    </g>
   </g>
   <path fill="white" fill-rule="nonzero" d="M662 343c5,2 8,7 7,12 -1,6 -6,9 -12,8l-513 -118c-6,-1 -9,-7 -8,-12 1,-5 7,-9 12,-7l514 117z"/>
  </g>
 </g>
 <g id="landmarks-mz16">
  <metadata id="CorelCorpID_1Corel-Layer"/>
  <polygon id="m16lote18" fill="#35AD0E" points="555,155 612,168 585,286 527,272 "/>
  <polygon id="m16lote17" fill="#35AD0E" points="495,141 552,155 525,272 467,259 "/>
  <polygon id="m16lote16" fill="#35AD0E" points="492,141 434,127 407,244 464,258 "/>
  <polygon id="m16lote15" fill="#35AD0E" points="373,114 431,127 404,244 347,231 "/>
  <polygon id="m16lote14" fill="#35AD0E" points="371,113 313,99 286,216 343,229 "/>
  <polygon id="m16lote13" fill="#35AD0E" points="310,99 253,85 226,202 283,215 "/>
  <polygon id="m16lote12" fill="#35AD0E" points="250,84 193,71 165,189 223,202 "/>
  <polygon id="m16lote11" fill="#35AD0E" points="190,71 132,57 105,174 162,188 "/>
  <polygon id="m16lote10" fill="#35AD0E" points="139,287 82,274 54,391 112,404 "/>
  <polygon id="m16lote9" fill="#35AD0E" points="199,301 142,288 115,405 172,418 "/>
  <path id="m16lote8" fill="#35AD0E" d="M259 315l-57 -13 -27 117 57 13c0,0 27,-118 27,-117z"/>
  <polygon id="m16lote7" fill="#35AD0E" points="320,329 263,316 235,433 292,447 "/>
  <polygon id="m16lote6" fill="#35AD0E" points="380,343 323,330 295,447 352,461 "/>
  <polygon id="m16lote5" fill="#35AD0E" points="440,357 383,343 356,461 413,475 "/>
  <polygon id="m16lote4" fill="#35AD0E" points="501,371 443,358 416,475 473,489 "/>
  <polygon id="m16lote3" fill="#35AD0E" points="561,385 504,372 476,490 533,503 "/>
  <polygon id="m16lote1" fill="#35AD0E" points="551,446 537,503 655,531 668,473 "/>
  <polygon id="m16lote2" fill="#35AD0E" points="550,444 564,386 682,414 668,471 "/>
  <polygon id="m16lote19" fill="#35AD0E" points="719,257 705,314 587,287 601,229 "/>
  <polygon id="m16lote20" fill="#35AD0E" points="719,254 732,196 615,169 602,226 "/>
 </g>
</svg>
