<?xml version="1.0" encoding="UTF-8"?>
<!DOCTYPE svg PUBLIC "-//W3C//DTD SVG 1.1//EN" "http://www.w3.org/Graphics/SVG/1.1/DTD/svg11.dtd">
<!-- Creator: CorelDRAW X8 -->
<svg xmlns="http://www.w3.org/2000/svg" xml:space="preserve" width="800px" height="600px" version="1.1" shape-rendering="geometricPrecision" text-rendering="geometricPrecision" image-rendering="optimizeQuality" fill-rule="evenodd" clip-rule="evenodd"
viewBox="0 0 800 600"
 xmlns:xlink="http://www.w3.org/1999/xlink">
 <g id="base">
  <metadata id="CorelCorpID_0Corel-Layer"/>
  <g id="_2070022547984">
   <polygon fill="#35AD0E" points="243,158 601,243 553,446 195,363 "/>
   <g>
    <polygon fill="#63D13E" points="236,149 599,235 551,442 187,357 "/>
    <g>
     <line fill="none" stroke="#96ED79" stroke-width="0.300001" x1="241" y1="151" x2="192" y2= "358" />
     <line fill="none" stroke="#96ED79" stroke-width="0.300001" x1="246" y1="152" x2="197" y2= "359" />
     <line fill="none" stroke="#96ED79" stroke-width="0.300001" x1="250" y1="153" x2="201" y2= "360" />
     <line fill="none" stroke="#96ED79" stroke-width="0.300001" x1="256" y1="154" x2="207" y2= "362" />
     <line fill="none" stroke="#96ED79" stroke-width="0.300001" x1="261" y1="155" x2="212" y2= "363" />
     <line fill="none" stroke="#96ED79" stroke-width="0.300001" x1="265" y1="156" x2="216" y2= "364" />
     <line fill="none" stroke="#96ED79" stroke-width="0.300001" x1="266" y1="157" x2="217" y2= "364" />
     <line fill="none" stroke="#96ED79" stroke-width="0.300001" x1="272" y1="158" x2="223" y2= "365" />
     <line fill="none" stroke="#96ED79" stroke-width="0.300001" x1="275" y1="159" x2="226" y2= "366" />
     <line fill="none" stroke="#96ED79" stroke-width="0.300001" x1="285" y1="161" x2="236" y2= "368" />
     <line fill="none" stroke="#96ED79" stroke-width="0.300001" x1="291" y1="162" x2="242" y2= "370" />
     <line fill="none" stroke="#96ED79" stroke-width="0.300001" x1="294" y1="163" x2="245" y2= "371" />
     <line fill="none" stroke="#96ED79" stroke-width="0.300001" x1="300" y1="164" x2="251" y2= "372" />
     <line fill="none" stroke="#96ED79" stroke-width="0.300001" x1="305" y1="166" x2="256" y2= "373" />
     <line fill="none" stroke="#96ED79" stroke-width="0.300001" x1="309" y1="167" x2="260" y2= "374" />
     <line fill="none" stroke="#96ED79" stroke-width="0.300001" x1="314" y1="168" x2="265" y2= "375" />
     <line fill="none" stroke="#96ED79" stroke-width="0.300001" x1="320" y1="169" x2="271" y2= "376" />
     <line fill="none" stroke="#96ED79" stroke-width="0.300001" x1="323" y1="170" x2="274" y2= "377" />
     <line fill="none" stroke="#96ED79" stroke-width="0.300001" x1="327" y1="171" x2="278" y2= "378" />
     <line fill="none" stroke="#96ED79" stroke-width="0.300001" x1="333" y1="172" x2="284" y2= "380" />
     <line fill="none" stroke="#96ED79" stroke-width="0.300001" x1="336" y1="173" x2="287" y2= "380" />
     <line fill="none" stroke="#96ED79" stroke-width="0.300001" x1="340" y1="174" x2="291" y2= "381" />
     <line fill="none" stroke="#96ED79" stroke-width="0.300001" x1="346" y1="175" x2="297" y2= "383" />
     <line fill="none" stroke="#96ED79" stroke-width="0.300001" x1="350" y1="176" x2="301" y2= "383" />
     <line fill="none" stroke="#96ED79" stroke-width="0.300001" x1="355" y1="178" x2="306" y2= "385" />
     <line fill="none" stroke="#96ED79" stroke-width="0.300001" x1="361" y1="179" x2="312" y2= "386" />
     <line fill="none" stroke="#96ED79" stroke-width="0.300001" x1="364" y1="180" x2="315" y2= "387" />
     <line fill="none" stroke="#96ED79" stroke-width="0.300001" x1="347" y1="176" x2="298" y2= "383" />
     <line fill="none" stroke="#96ED79" stroke-width="0.300001" x1="352" y1="177" x2="303" y2= "384" />
     <line fill="none" stroke="#96ED79" stroke-width="0.300001" x1="356" y1="178" x2="307" y2= "385" />
     <line fill="none" stroke="#96ED79" stroke-width="0.300001" x1="362" y1="179" x2="313" y2= "386" />
     <line fill="none" stroke="#96ED79" stroke-width="0.300001" x1="368" y1="180" x2="319" y2= "388" />
     <line fill="none" stroke="#96ED79" stroke-width="0.300001" x1="371" y1="181" x2="322" y2= "389" />
     <line fill="none" stroke="#96ED79" stroke-width="0.300001" x1="372" y1="182" x2="323" y2= "389" />
     <line fill="none" stroke="#96ED79" stroke-width="0.300001" x1="378" y1="183" x2="329" y2= "390" />
     <line fill="none" stroke="#96ED79" stroke-width="0.300001" x1="381" y1="184" x2="332" y2= "391" />
     <line fill="none" stroke="#96ED79" stroke-width="0.300001" x1="391" y1="186" x2="342" y2= "393" />
     <line fill="none" stroke="#96ED79" stroke-width="0.300001" x1="397" y1="187" x2="348" y2= "394" />
     <line fill="none" stroke="#96ED79" stroke-width="0.300001" x1="400" y1="188" x2="351" y2= "395" />
     <line fill="none" stroke="#96ED79" stroke-width="0.300001" x1="406" y1="189" x2="357" y2= "397" />
     <line fill="none" stroke="#96ED79" stroke-width="0.300001" x1="411" y1="191" x2="362" y2= "398" />
     <line fill="none" stroke="#96ED79" stroke-width="0.300001" x1="414" y1="194" x2="366" y2= "399" />
     <line fill="none" stroke="#96ED79" stroke-width="0.300001" x1="420" y1="193" x2="371" y2= "400" />
     <line fill="none" stroke="#96ED79" stroke-width="0.300001" x1="426" y1="195" x2="377" y2= "401" />
     <line fill="none" stroke="#96ED79" stroke-width="0.300001" x1="429" y1="197" x2="380" y2= "402" />
     <line fill="none" stroke="#96ED79" stroke-width="0.300001" x1="433" y1="196" x2="384" y2= "403" />
     <line fill="none" stroke="#96ED79" stroke-width="0.300001" x1="438" y1="200" x2="390" y2= "404" />
     <line fill="none" stroke="#96ED79" stroke-width="0.300001" x1="441" y1="202" x2="393" y2= "405" />
     <line fill="none" stroke="#96ED79" stroke-width="0.300001" x1="446" y1="199" x2="398" y2= "406" />
     <line fill="none" stroke="#96ED79" stroke-width="0.300001" x1="452" y1="200" x2="403" y2= "407" />
     <line fill="none" stroke="#96ED79" stroke-width="0.300001" x1="456" y1="201" x2="407" y2= "408" />
     <line fill="none" stroke="#96ED79" stroke-width="0.300001" x1="461" y1="203" x2="412" y2= "410" />
     <line fill="none" stroke="#96ED79" stroke-width="0.300001" x1="467" y1="204" x2="418" y2= "411" />
     <line fill="none" stroke="#96ED79" stroke-width="0.300001" x1="470" y1="205" x2="422" y2= "412" />
     <line fill="none" stroke="#96ED79" stroke-width="0.300001" x1="465" y1="204" x2="416" y2= "410" />
     <line fill="none" stroke="#96ED79" stroke-width="0.300001" x1="471" y1="205" x2="422" y2= "412" />
     <line fill="none" stroke="#96ED79" stroke-width="0.300001" x1="474" y1="206" x2="426" y2= "413" />
     <line fill="none" stroke="#96ED79" stroke-width="0.300001" x1="481" y1="207" x2="432" y2= "414" />
     <line fill="none" stroke="#96ED79" stroke-width="0.300001" x1="486" y1="209" x2="437" y2= "415" />
     <line fill="none" stroke="#96ED79" stroke-width="0.300001" x1="490" y1="209" x2="441" y2= "416" />
     <line fill="none" stroke="#96ED79" stroke-width="0.300001" x1="491" y1="210" x2="442" y2= "416" />
     <line fill="none" stroke="#96ED79" stroke-width="0.300001" x1="496" y1="211" x2="448" y2= "418" />
     <line fill="none" stroke="#96ED79" stroke-width="0.300001" x1="500" y1="212" x2="451" y2= "419" />
     <line fill="none" stroke="#96ED79" stroke-width="0.300001" x1="510" y1="214" x2="461" y2= "421" />
     <line fill="none" stroke="#96ED79" stroke-width="0.300001" x1="515" y1="215" x2="466" y2= "422" />
     <line fill="none" stroke="#96ED79" stroke-width="0.300001" x1="519" y1="216" x2="470" y2= "423" />
     <line fill="none" stroke="#96ED79" stroke-width="0.300001" x1="524" y1="218" x2="475" y2= "424" />
     <line fill="none" stroke="#96ED79" stroke-width="0.300001" x1="530" y1="219" x2="481" y2= "426" />
     <line fill="none" stroke="#96ED79" stroke-width="0.300001" x1="533" y1="220" x2="485" y2= "426" />
     <line fill="none" stroke="#96ED79" stroke-width="0.300001" x1="539" y1="221" x2="490" y2= "428" />
     <line fill="none" stroke="#96ED79" stroke-width="0.300001" x1="544" y1="222" x2="495" y2= "429" />
     <line fill="none" stroke="#96ED79" stroke-width="0.300001" x1="548" y1="223" x2="499" y2= "430" />
     <line fill="none" stroke="#96ED79" stroke-width="0.300001" x1="552" y1="224" x2="503" y2= "431" />
     <line fill="none" stroke="#96ED79" stroke-width="0.300001" x1="557" y1="225" x2="508" y2= "432" />
     <line fill="none" stroke="#96ED79" stroke-width="0.300001" x1="561" y1="226" x2="512" y2= "433" />
     <line fill="none" stroke="#96ED79" stroke-width="0.300001" x1="565" y1="227" x2="516" y2= "434" />
     <line fill="none" stroke="#96ED79" stroke-width="0.300001" x1="571" y1="228" x2="522" y2= "435" />
     <line fill="none" stroke="#96ED79" stroke-width="0.300001" x1="574" y1="229" x2="525" y2= "436" />
     <line fill="none" stroke="#96ED79" stroke-width="0.300001" x1="580" y1="231" x2="531" y2= "437" />
     <line fill="none" stroke="#96ED79" stroke-width="0.300001" x1="585" y1="232" x2="537" y2= "439" />
     <line fill="none" stroke="#96ED79" stroke-width="0.300001" x1="589" y1="233" x2="540" y2= "439" />
     <line fill="none" stroke="#96ED79" stroke-width="0.300001" x1="595" y1="234" x2="546" y2= "441" />
     <line fill="none" stroke="#96ED79" stroke-width="0.300001" x1="598" y1="239" x2="235" y2= "154" />
     <line fill="none" stroke="#96ED79" stroke-width="0.300001" x1="596" y1="247" x2="233" y2= "161" />
     <line fill="none" stroke="#96ED79" stroke-width="0.300001" x1="595" y1="252" x2="232" y2= "166" />
     <line fill="none" stroke="#96ED79" stroke-width="0.300001" x1="593" y1="260" x2="230" y2= "174" />
     <line fill="none" stroke="#96ED79" stroke-width="0.300001" x1="591" y1="268" x2="228" y2= "182" />
     <line fill="none" stroke="#96ED79" stroke-width="0.300001" x1="589" y1="278" x2="226" y2= "192" />
     <line fill="none" stroke="#96ED79" stroke-width="0.300001" x1="590" y1="274" x2="227" y2= "188" />
     <line fill="none" stroke="#96ED79" stroke-width="0.300001" x1="587" y1="286" x2="224" y2= "200" />
     <line fill="none" stroke="#96ED79" stroke-width="0.300001" x1="587" y1="286" x2="224" y2= "200" />
     <line fill="none" stroke="#96ED79" stroke-width="0.300001" x1="585" y1="293" x2="222" y2= "208" />
     <line fill="none" stroke="#96ED79" stroke-width="0.300001" x1="584" y1="298" x2="221" y2= "213" />
     <line fill="none" stroke="#96ED79" stroke-width="0.300001" x1="582" y1="307" x2="219" y2= "221" />
     <line fill="none" stroke="#96ED79" stroke-width="0.300001" x1="581" y1="314" x2="217" y2= "228" />
     <line fill="none" stroke="#96ED79" stroke-width="0.300001" x1="578" y1="325" x2="215" y2= "239" />
     <line fill="none" stroke="#96ED79" stroke-width="0.300001" x1="579" y1="320" x2="216" y2= "234" />
     <line fill="none" stroke="#96ED79" stroke-width="0.300001" x1="576" y1="333" x2="213" y2= "247" />
     <line fill="none" stroke="#96ED79" stroke-width="0.300001" x1="576" y1="335" x2="212" y2= "249" />
     <line fill="none" stroke="#96ED79" stroke-width="0.300001" x1="574" y1="342" x2="211" y2= "257" />
     <line fill="none" stroke="#96ED79" stroke-width="0.300001" x1="573" y1="347" x2="210" y2= "262" />
     <line fill="none" stroke="#96ED79" stroke-width="0.300001" x1="571" y1="356" x2="208" y2= "270" />
     <line fill="none" stroke="#96ED79" stroke-width="0.300001" x1="569" y1="363" x2="206" y2= "277" />
     <line fill="none" stroke="#96ED79" stroke-width="0.300001" x1="567" y1="374" x2="203" y2= "288" />
     <line fill="none" stroke="#96ED79" stroke-width="0.300001" x1="568" y1="369" x2="204" y2= "283" />
     <line fill="none" stroke="#96ED79" stroke-width="0.300001" x1="565" y1="382" x2="202" y2= "296" />
     <line fill="none" stroke="#96ED79" stroke-width="0.300001" x1="563" y1="389" x2="200" y2= "303" />
     <line fill="none" stroke="#96ED79" stroke-width="0.300001" x1="561" y1="396" x2="198" y2= "310" />
     <line fill="none" stroke="#96ED79" stroke-width="0.300001" x1="560" y1="401" x2="197" y2= "315" />
     <line fill="none" stroke="#96ED79" stroke-width="0.300001" x1="558" y1="410" x2="195" y2= "324" />
     <line fill="none" stroke="#96ED79" stroke-width="0.300001" x1="556" y1="417" x2="193" y2= "331" />
     <line fill="none" stroke="#96ED79" stroke-width="0.300001" x1="554" y1="427" x2="191" y2= "341" />
     <line fill="none" stroke="#96ED79" stroke-width="0.300001" x1="555" y1="423" x2="192" y2= "337" />
     <line fill="none" stroke="#96ED79" stroke-width="0.300001" x1="552" y1="435" x2="189" y2= "350" />
    </g>
   </g>
   <path fill="white" fill-rule="nonzero" d="M551 325c4,0 6,3 5,7 -1,3 -4,5 -7,4l-302 -69c-3,-1 -5,-4 -4,-7 0,-3 3,-5 6,-5l302 70z"/>
  </g>
 </g>
 <g id="landmarks-mz16">
  <metadata id="CorelCorpID_1Corel-Layer"/>
  <polygon id="m16lote18" fill="#35AD0E" points="489,214 522,222 507,291 472,283 "/>
  <polygon id="m16lote17" fill="#35AD0E" points="453,206 487,214 471,283 437,275 "/>
  <polygon id="m16lote16" fill="#35AD0E" points="451,205 418,198 401,266 435,274 "/>
  <polygon id="m16lote15" fill="#35AD0E" points="382,190 416,197 400,266 366,258 "/>
  <polygon id="m16lote14" fill="#35AD0E" points="380,189 347,181 330,250 364,258 "/>
  <polygon id="m16lote13" fill="#35AD0E" points="345,181 311,173 295,242 329,249 "/>
  <polygon id="m16lote12" fill="#35AD0E" points="309,172 276,165 260,234 293,241 "/>
  <polygon id="m16lote11" fill="#35AD0E" points="274,164 240,156 224,225 258,233 "/>
  <polygon id="m16lote10" fill="#35AD0E" points="244,291 210,284 194,353 228,360 "/>
  <polygon id="m16lote9" fill="#35AD0E" points="279,299 246,292 230,361 264,369 "/>
  <path id="m16lote8" fill="#35AD0E" d="M315 308l-34 -8 -16 69 34 8c0,0 16,-69 16,-69z"/>
  <polygon id="m16lote7" fill="#35AD0E" points="350,316 317,308 301,378 334,385 "/>
  <polygon id="m16lote6" fill="#35AD0E" points="386,324 352,317 336,386 370,394 "/>
  <polygon id="m16lote5" fill="#35AD0E" points="421,333 388,325 372,394 405,402 "/>
  <polygon id="m16lote4" fill="#35AD0E" points="457,341 423,333 407,402 441,410 "/>
  <polygon id="m16lote3" fill="#35AD0E" points="492,349 459,341 442,411 476,418 "/>
  <polygon id="m16lote1" fill="#35AD0E" points="486,385 478,418 548,435 555,401 "/>
  <polygon id="m16lote2" fill="#35AD0E" points="486,384 494,350 563,366 555,400 "/>
  <polygon id="m16lote19" fill="#35AD0E" points="585,274 577,308 508,291 516,257 "/>
  <polygon id="m16lote20" fill="#35AD0E" points="585,272 593,238 524,222 516,256 "/>
 </g>
</svg>
