<?xml version="1.0" encoding="UTF-8"?>
<!DOCTYPE svg PUBLIC "-//W3C//DTD SVG 1.1//EN" "http://www.w3.org/Graphics/SVG/1.1/DTD/svg11.dtd">
<!-- Creator: CorelDRAW X7 -->
<svg xmlns="http://www.w3.org/2000/svg" xml:space="preserve" width="800px" height="600px" version="1.1" shape-rendering="geometricPrecision" text-rendering="geometricPrecision" image-rendering="optimizeQuality" fill-rule="evenodd" clip-rule="evenodd"
viewBox="0 0 800 600"
 xmlns:xlink="http://www.w3.org/1999/xlink">
 <g id="base">
  <metadata id="CorelCorpID_0Corel-Layer"/>
  <polygon fill="#35AD0E" points="158,61 706,234 658,381 625,543 67,411 108,239 "/>
  <g id="_435782568">
   <polygon fill="#63D13E" points="153,53 702,226 653,374 621,535 63,403 104,231 "/>
   <g>
    <line fill="none" stroke="#96ED79" stroke-width="0.300001" x1="145" y1="83" x2="70" y2= "405" />
    <line fill="none" stroke="#96ED79" stroke-width="0.300001" x1="159" y1="55" x2="77" y2= "406" />
    <line fill="none" stroke="#96ED79" stroke-width="0.300001" x1="161" y1="55" x2="79" y2= "407" />
    <line fill="none" stroke="#96ED79" stroke-width="0.300001" x1="171" y1="59" x2="90" y2= "409" />
    <line fill="none" stroke="#96ED79" stroke-width="0.300001" x1="178" y1="61" x2="97" y2= "411" />
    <line fill="none" stroke="#96ED79" stroke-width="0.300001" x1="196" y1="66" x2="115" y2= "415" />
    <line fill="none" stroke="#96ED79" stroke-width="0.300001" x1="206" y1="70" x2="126" y2= "418" />
    <line fill="none" stroke="#96ED79" stroke-width="0.300001" x1="213" y1="72" x2="133" y2= "419" />
    <line fill="none" stroke="#96ED79" stroke-width="0.300001" x1="223" y1="75" x2="143" y2= "422" />
    <line fill="none" stroke="#96ED79" stroke-width="0.300001" x1="233" y1="78" x2="153" y2= "424" />
    <line fill="none" stroke="#96ED79" stroke-width="0.300001" x1="240" y1="80" x2="160" y2= "426" />
    <line fill="none" stroke="#96ED79" stroke-width="0.300001" x1="250" y1="83" x2="170" y2= "428" />
    <line fill="none" stroke="#96ED79" stroke-width="0.300001" x1="260" y1="87" x2="180" y2= "431" />
    <line fill="none" stroke="#96ED79" stroke-width="0.300001" x1="267" y1="89" x2="187" y2= "432" />
    <line fill="none" stroke="#96ED79" stroke-width="0.300001" x1="274" y1="91" x2="195" y2= "434" />
    <line fill="none" stroke="#96ED79" stroke-width="0.300001" x1="285" y1="94" x2="205" y2= "437" />
    <line fill="none" stroke="#96ED79" stroke-width="0.300001" x1="291" y1="96" x2="212" y2= "438" />
    <line fill="none" stroke="#96ED79" stroke-width="0.300001" x1="299" y1="99" x2="220" y2= "440" />
    <line fill="none" stroke="#96ED79" stroke-width="0.300001" x1="310" y1="102" x2="231" y2= "443" />
    <line fill="none" stroke="#96ED79" stroke-width="0.300001" x1="316" y1="104" x2="237" y2= "444" />
    <line fill="none" stroke="#96ED79" stroke-width="0.300001" x1="327" y1="108" x2="248" y2= "447" />
    <line fill="none" stroke="#96ED79" stroke-width="0.300001" x1="337" y1="111" x2="259" y2= "449" />
    <line fill="none" stroke="#96ED79" stroke-width="0.300001" x1="344" y1="113" x2="266" y2= "451" />
    <line fill="none" stroke="#96ED79" stroke-width="0.300001" x1="311" y1="103" x2="232" y2= "443" />
    <line fill="none" stroke="#96ED79" stroke-width="0.300001" x1="321" y1="106" x2="242" y2= "445" />
    <line fill="none" stroke="#96ED79" stroke-width="0.300001" x1="328" y1="108" x2="249" y2= "447" />
    <line fill="none" stroke="#96ED79" stroke-width="0.300001" x1="339" y1="112" x2="261" y2= "450" />
    <line fill="none" stroke="#96ED79" stroke-width="0.300001" x1="350" y1="115" x2="271" y2= "452" />
    <line fill="none" stroke="#96ED79" stroke-width="0.300001" x1="356" y1="117" x2="278" y2= "454" />
    <line fill="none" stroke="#96ED79" stroke-width="0.300001" x1="359" y1="118" x2="280" y2= "454" />
    <line fill="none" stroke="#96ED79" stroke-width="0.300001" x1="369" y1="121" x2="291" y2= "457" />
    <line fill="none" stroke="#96ED79" stroke-width="0.300001" x1="376" y1="123" x2="298" y2= "459" />
    <line fill="none" stroke="#96ED79" stroke-width="0.300001" x1="394" y1="129" x2="316" y2= "463" />
    <line fill="none" stroke="#96ED79" stroke-width="0.300001" x1="404" y1="132" x2="327" y2= "466" />
    <line fill="none" stroke="#96ED79" stroke-width="0.300001" x1="411" y1="134" x2="334" y2= "467" />
    <line fill="none" stroke="#96ED79" stroke-width="0.300001" x1="421" y1="137" x2="344" y2= "470" />
    <line fill="none" stroke="#96ED79" stroke-width="0.300001" x1="431" y1="141" x2="354" y2= "472" />
    <line fill="none" stroke="#96ED79" stroke-width="0.300001" x1="438" y1="143" x2="361" y2= "474" />
    <line fill="none" stroke="#96ED79" stroke-width="0.300001" x1="448" y1="146" x2="371" y2= "476" />
    <line fill="none" stroke="#96ED79" stroke-width="0.300001" x1="458" y1="149" x2="382" y2= "479" />
    <line fill="none" stroke="#96ED79" stroke-width="0.300001" x1="465" y1="151" x2="388" y2= "480" />
    <line fill="none" stroke="#96ED79" stroke-width="0.300001" x1="472" y1="153" x2="396" y2= "482" />
    <line fill="none" stroke="#96ED79" stroke-width="0.300001" x1="482" y1="157" x2="406" y2= "484" />
    <line fill="none" stroke="#96ED79" stroke-width="0.300001" x1="489" y1="159" x2="413" y2= "486" />
    <line fill="none" stroke="#96ED79" stroke-width="0.300001" x1="497" y1="161" x2="421" y2= "488" />
    <line fill="none" stroke="#96ED79" stroke-width="0.300001" x1="507" y1="165" x2="432" y2= "490" />
    <line fill="none" stroke="#96ED79" stroke-width="0.300001" x1="514" y1="167" x2="439" y2= "492" />
    <line fill="none" stroke="#96ED79" stroke-width="0.300001" x1="525" y1="170" x2="449" y2= "495" />
    <line fill="none" stroke="#96ED79" stroke-width="0.300001" x1="535" y1="173" x2="460" y2= "497" />
    <line fill="none" stroke="#96ED79" stroke-width="0.300001" x1="542" y1="176" x2="467" y2= "499" />
    <line fill="none" stroke="#96ED79" stroke-width="0.300001" x1="532" y1="172" x2="457" y2= "496" />
    <line fill="none" stroke="#96ED79" stroke-width="0.300001" x1="542" y1="176" x2="467" y2= "499" />
    <line fill="none" stroke="#96ED79" stroke-width="0.300001" x1="549" y1="178" x2="474" y2= "501" />
    <line fill="none" stroke="#96ED79" stroke-width="0.300001" x1="560" y1="181" x2="486" y2= "503" />
    <line fill="none" stroke="#96ED79" stroke-width="0.300001" x1="571" y1="185" x2="496" y2= "506" />
    <line fill="none" stroke="#96ED79" stroke-width="0.300001" x1="578" y1="187" x2="503" y2= "507" />
    <line fill="none" stroke="#96ED79" stroke-width="0.300001" x1="580" y1="188" x2="505" y2= "508" />
    <line fill="none" stroke="#96ED79" stroke-width="0.300001" x1="590" y1="191" x2="516" y2= "510" />
    <line fill="none" stroke="#96ED79" stroke-width="0.300001" x1="597" y1="193" x2="523" y2= "512" />
    <line fill="none" stroke="#96ED79" stroke-width="0.300001" x1="615" y1="199" x2="541" y2= "516" />
    <line fill="none" stroke="#96ED79" stroke-width="0.300001" x1="625" y1="202" x2="552" y2= "519" />
    <line fill="none" stroke="#96ED79" stroke-width="0.300001" x1="632" y1="204" x2="559" y2= "521" />
    <line fill="none" stroke="#96ED79" stroke-width="0.300001" x1="642" y1="207" x2="569" y2= "523" />
    <line fill="none" stroke="#96ED79" stroke-width="0.300001" x1="652" y1="210" x2="579" y2= "525" />
    <line fill="none" stroke="#96ED79" stroke-width="0.300001" x1="659" y1="213" x2="586" y2= "527" />
    <line fill="none" stroke="#96ED79" stroke-width="0.300001" x1="669" y1="216" x2="596" y2= "529" />
    <line fill="none" stroke="#96ED79" stroke-width="0.300001" x1="679" y1="219" x2="606" y2= "532" />
    <line fill="none" stroke="#96ED79" stroke-width="0.300001" x1="686" y1="221" x2="613" y2= "534" />
    <path fill="none" stroke="#96ED79" stroke-width="0.300001" d="M693 223l-23 101m-46 195l-3 16"/>
    <line fill="none" stroke="#96ED79" stroke-width="0.300001" x1="257" y1="86" x2="151" y2= "60" />
    <line fill="none" stroke="#96ED79" stroke-width="0.300001" x1="489" y1="159" x2="147" y2= "76" />
    <line fill="none" stroke="#96ED79" stroke-width="0.300001" x1="686" y1="221" x2="143" y2= "90" />
    <line fill="none" stroke="#96ED79" stroke-width="0.300001" x1="696" y1="245" x2="137" y2= "110" />
    <line fill="none" stroke="#96ED79" stroke-width="0.300001" x1="698" y1="236" x2="140" y2= "102" />
    <line fill="none" stroke="#96ED79" stroke-width="0.300001" x1="691" y1="260" x2="133" y2= "126" />
    <line fill="none" stroke="#96ED79" stroke-width="0.300001" x1="691" y1="260" x2="133" y2= "126" />
    <line fill="none" stroke="#96ED79" stroke-width="0.300001" x1="686" y1="274" x2="129" y2= "140" />
    <line fill="none" stroke="#96ED79" stroke-width="0.300001" x1="683" y1="283" x2="126" y2= "149" />
    <line fill="none" stroke="#96ED79" stroke-width="0.300001" x1="678" y1="299" x2="122" y2= "165" />
    <line fill="none" stroke="#96ED79" stroke-width="0.300001" x1="673" y1="313" x2="118" y2= "179" />
    <line fill="none" stroke="#96ED79" stroke-width="0.300001" x1="667" y1="333" x2="112" y2= "199" />
    <line fill="none" stroke="#96ED79" stroke-width="0.300001" x1="669" y1="324" x2="115" y2= "191" />
    <line fill="none" stroke="#96ED79" stroke-width="0.300001" x1="662" y1="348" x2="108" y2= "215" />
    <line fill="none" stroke="#96ED79" stroke-width="0.300001" x1="660" y1="353" x2="107" y2= "219" />
    <line fill="none" stroke="#96ED79" stroke-width="0.300001" x1="656" y1="366" x2="103" y2= "233" />
    <line fill="none" stroke="#96ED79" stroke-width="0.300001" x1="653" y1="376" x2="101" y2= "243" />
    <line fill="none" stroke="#96ED79" stroke-width="0.300001" x1="650" y1="392" x2="97" y2= "259" />
    <line fill="none" stroke="#96ED79" stroke-width="0.300001" x1="647" y1="406" x2="94" y2= "273" />
    <line fill="none" stroke="#96ED79" stroke-width="0.300001" x1="643" y1="427" x2="89" y2= "293" />
    <line fill="none" stroke="#96ED79" stroke-width="0.300001" x1="644" y1="418" x2="91" y2= "285" />
    <line fill="none" stroke="#96ED79" stroke-width="0.300001" x1="640" y1="443" x2="85" y2= "309" />
    <line fill="none" stroke="#96ED79" stroke-width="0.300001" x1="637" y1="456" x2="82" y2= "323" />
    <line fill="none" stroke="#96ED79" stroke-width="0.300001" x1="634" y1="471" x2="78" y2= "337" />
    <line fill="none" stroke="#96ED79" stroke-width="0.300001" x1="632" y1="480" x2="76" y2= "346" />
    <line fill="none" stroke="#96ED79" stroke-width="0.300001" x1="629" y1="497" x2="72" y2= "363" />
    <line fill="none" stroke="#96ED79" stroke-width="0.300001" x1="626" y1="511" x2="69" y2= "377" />
    <line fill="none" stroke="#96ED79" stroke-width="0.300001" x1="622" y1="531" x2="64" y2= "397" />
    <line fill="none" stroke="#96ED79" stroke-width="0.300001" x1="624" y1="522" x2="66" y2= "388" />
   </g>
  </g>
  <path fill="white" fill-rule="nonzero" d="M624 360c5,1 8,7 7,12 -1,5 -7,7 -12,6l-479 -131c-5,-2 -8,-7 -6,-12 1,-5 6,-8 11,-6l479 131z"/>
 </g>
 <g id="landmarks-mz17">
  <metadata id="CorelCorpID_1Corel-Layer"/>
  <polygon id="m17lote18" fill="#35AD0E" points="536,179 586,194 555,298 504,282 "/>
  <polygon id="m17lote17" fill="#35AD0E" points="483,163 533,178 501,281 451,266 "/>
  <polygon id="m17lote16" fill="#35AD0E" points="480,162 429,146 398,250 448,265 "/>
  <polygon id="m17lote15" fill="#35AD0E" points="376,131 427,146 395,249 345,234 "/>
  <polygon id="m17lote14" fill="#35AD0E" points="374,130 323,114 291,217 342,232 "/>
  <polygon id="m17lote13" fill="#35AD0E" points="320,113 270,98 239,201 289,216 "/>
  <polygon id="m17lote12" fill="#35AD0E" points="267,97 217,82 185,185 236,200 "/>
  <polygon id="m17lote11" fill="#35AD0E" points="214,81 164,65 132,169 183,184 "/>
  <polygon id="m17lote10" fill="#35AD0E" points="149,306 98,294 74,399 125,411 "/>
  <polygon id="m17lote9" fill="#35AD0E" points="204,318 153,307 128,411 180,424 "/>
  <path id="m17lote8" fill="#35AD0E" d="M258 331l-52 -12 -24 105 51 12c0,0 24,-105 25,-105z"/>
  <polygon id="m17lote7" fill="#35AD0E" points="312,344 260,332 236,437 287,449 "/>
  <polygon id="m17lote6" fill="#35AD0E" points="366,356 314,344 290,450 341,462 "/>
  <polygon id="m17lote5" fill="#35AD0E" points="420,369 368,357 344,462 395,474 "/>
  <polygon id="m17lote4" fill="#35AD0E" points="474,382 422,370 398,475 449,487 "/>
  <polygon id="m17lote3" fill="#35AD0E" points="528,394 477,382 452,488 503,499 "/>
  <polygon id="m17lote2" fill="#35AD0E" points="582,407 531,394 506,500 558,512 "/>
  <polygon id="m17lote1" fill="#35AD0E" points="585,407 636,419 612,525 560,513 "/>
  <polygon id="m17lote19" fill="#35AD0E" points="607,315 557,299 589,195 639,211 "/>
  <polygon id="m17lote20" fill="#35AD0E" points="609,316 661,331 692,227 641,212 "/>
 </g>
</svg>
