<?xml version="1.0" encoding="UTF-8"?>
<!DOCTYPE svg PUBLIC "-//W3C//DTD SVG 1.1//EN" "http://www.w3.org/Graphics/SVG/1.1/DTD/svg11.dtd">
<!-- Creator: CorelDRAW X8 -->
<svg xmlns="http://www.w3.org/2000/svg" xml:space="preserve" width="800px" height="600px" version="1.1" shape-rendering="geometricPrecision" text-rendering="geometricPrecision" image-rendering="optimizeQuality" fill-rule="evenodd" clip-rule="evenodd"
viewBox="0 0 800 600"
 xmlns:xlink="http://www.w3.org/1999/xlink">
 <g id="base">
  <metadata id="CorelCorpID_0Corel-Layer"/>
  <polygon fill="#35AD0E" points="288,161 605,261 577,346 558,440 236,363 260,264 "/>
  <g id="_2033682327024">
   <polygon fill="#96ED79" fill-rule="nonzero" points="281,174 238,360 237,360 281,174 "/>
   <polygon fill="#96ED79" fill-rule="nonzero" points="289,158 242,361 241,361 289,158 "/>
   <polygon fill="#96ED79" fill-rule="nonzero" points="290,158 243,361 243,361 290,158 "/>
   <polygon fill="#96ED79" fill-rule="nonzero" points="296,160 249,362 249,362 296,160 "/>
   <polygon fill="#96ED79" fill-rule="nonzero" points="300,161 253,364 253,363 300,161 "/>
   <polygon fill="#96ED79" fill-rule="nonzero" points="311,164 264,366 263,366 310,164 "/>
   <polygon fill="#96ED79" fill-rule="nonzero" points="316,166 270,368 270,367 316,166 "/>
   <polygon fill="#96ED79" fill-rule="nonzero" points="320,168 274,368 274,368 320,167 "/>
   <polygon fill="#96ED79" fill-rule="nonzero" points="326,169 280,370 280,370 326,169 "/>
   <polygon fill="#96ED79" fill-rule="nonzero" points="332,171 286,371 285,371 332,171 "/>
   <polygon fill="#96ED79" fill-rule="nonzero" points="336,172 290,372 289,372 336,172 "/>
   <polygon fill="#96ED79" fill-rule="nonzero" points="342,174 296,373 295,373 341,174 "/>
   <polygon fill="#96ED79" fill-rule="nonzero" points="348,176 301,375 301,375 347,176 "/>
   <polygon fill="#96ED79" fill-rule="nonzero" points="352,177 305,376 305,376 351,177 "/>
   <polygon fill="#96ED79" fill-rule="nonzero" points="356,179 310,377 310,377 355,178 "/>
   <polygon fill="#96ED79" fill-rule="nonzero" points="362,180 316,379 315,378 362,180 "/>
   <polygon fill="#96ED79" fill-rule="nonzero" points="365,181 320,379 319,379 365,181 "/>
   <polygon fill="#96ED79" fill-rule="nonzero" points="370,183 324,380 324,380 370,183 "/>
   <polygon fill="#96ED79" fill-rule="nonzero" points="376,185 331,382 330,382 376,185 "/>
   <polygon fill="#96ED79" fill-rule="nonzero" points="380,186 334,383 334,383 380,186 "/>
   <polygon fill="#96ED79" fill-rule="nonzero" points="386,188 341,384 340,384 386,188 "/>
   <polygon fill="#96ED79" fill-rule="nonzero" points="392,190 347,385 347,385 392,190 "/>
   <polygon fill="#96ED79" fill-rule="nonzero" points="396,191 351,387 351,387 396,191 "/>
   <polygon fill="#96ED79" fill-rule="nonzero" points="377,185 331,382 331,382 377,185 "/>
   <polygon fill="#96ED79" fill-rule="nonzero" points="383,187 337,383 337,383 382,187 "/>
   <polygon fill="#96ED79" fill-rule="nonzero" points="387,188 341,384 341,384 387,188 "/>
   <polygon fill="#96ED79" fill-rule="nonzero" points="393,191 348,386 348,386 393,191 "/>
   <polygon fill="#96ED79" fill-rule="nonzero" points="400,192 354,387 354,387 399,192 "/>
   <polygon fill="#96ED79" fill-rule="nonzero" points="403,194 358,388 358,388 403,194 "/>
   <polygon fill="#96ED79" fill-rule="nonzero" points="405,194 359,388 359,388 404,194 "/>
   <polygon fill="#96ED79" fill-rule="nonzero" points="411,196 365,390 365,390 410,196 "/>
   <polygon fill="#96ED79" fill-rule="nonzero" points="415,197 370,391 369,391 414,197 "/>
   <polygon fill="#96ED79" fill-rule="nonzero" points="425,201 380,394 380,394 425,200 "/>
   <polygon fill="#96ED79" fill-rule="nonzero" points="431,202 386,395 386,395 430,202 "/>
   <polygon fill="#96ED79" fill-rule="nonzero" points="435,203 390,396 390,396 435,203 "/>
   <polygon fill="#96ED79" fill-rule="nonzero" points="441,205 396,398 396,398 440,205 "/>
   <polygon fill="#96ED79" fill-rule="nonzero" points="446,207 402,399 402,399 446,207 "/>
   <polygon fill="#96ED79" fill-rule="nonzero" points="450,209 406,400 406,400 450,209 "/>
   <polygon fill="#96ED79" fill-rule="nonzero" points="456,210 412,401 411,401 456,210 "/>
   <polygon fill="#96ED79" fill-rule="nonzero" points="462,212 418,403 418,403 462,212 "/>
   <polygon fill="#96ED79" fill-rule="nonzero" points="466,213 422,403 421,403 466,213 "/>
   <polygon fill="#96ED79" fill-rule="nonzero" points="470,214 426,405 426,404 470,214 "/>
   <polygon fill="#96ED79" fill-rule="nonzero" points="476,217 432,406 432,406 476,217 "/>
   <polygon fill="#96ED79" fill-rule="nonzero" points="480,218 436,407 436,407 480,218 "/>
   <polygon fill="#96ED79" fill-rule="nonzero" points="485,219 441,408 440,408 484,219 "/>
   <polygon fill="#96ED79" fill-rule="nonzero" points="490,221 447,409 447,409 490,221 "/>
   <polygon fill="#96ED79" fill-rule="nonzero" points="494,222 451,410 451,410 494,222 "/>
   <polygon fill="#96ED79" fill-rule="nonzero" points="501,224 457,412 456,412 500,224 "/>
   <polygon fill="#96ED79" fill-rule="nonzero" points="507,226 463,413 463,413 506,226 "/>
   <polygon fill="#96ED79" fill-rule="nonzero" points="511,228 467,414 467,414 510,228 "/>
   <polygon fill="#96ED79" fill-rule="nonzero" points="505,225 461,413 461,413 504,225 "/>
   <polygon fill="#96ED79" fill-rule="nonzero" points="511,228 467,414 467,414 510,228 "/>
   <polygon fill="#96ED79" fill-rule="nonzero" points="515,229 471,416 471,415 514,229 "/>
   <polygon fill="#96ED79" fill-rule="nonzero" points="521,231 478,417 478,417 521,231 "/>
   <polygon fill="#96ED79" fill-rule="nonzero" points="527,233 484,418 484,418 527,233 "/>
   <polygon fill="#96ED79" fill-rule="nonzero" points="531,234 488,419 488,419 531,234 "/>
   <polygon fill="#96ED79" fill-rule="nonzero" points="533,235 489,420 489,420 532,235 "/>
   <polygon fill="#96ED79" fill-rule="nonzero" points="538,236 496,421 495,421 538,236 "/>
   <polygon fill="#96ED79" fill-rule="nonzero" points="542,238 500,422 499,422 542,237 "/>
   <polygon fill="#96ED79" fill-rule="nonzero" points="553,241 510,424 510,424 552,241 "/>
   <polygon fill="#96ED79" fill-rule="nonzero" points="559,243 516,426 516,426 558,243 "/>
   <polygon fill="#96ED79" fill-rule="nonzero" points="563,244 520,427 520,427 562,244 "/>
   <polygon fill="#96ED79" fill-rule="nonzero" points="568,246 526,428 526,428 568,246 "/>
   <polygon fill="#96ED79" fill-rule="nonzero" points="574,247 532,429 532,429 574,247 "/>
   <polygon fill="#96ED79" fill-rule="nonzero" points="578,249 536,431 536,430 578,249 "/>
   <polygon fill="#96ED79" fill-rule="nonzero" points="584,251 542,432 541,432 584,251 "/>
   <polygon fill="#96ED79" fill-rule="nonzero" points="590,253 548,433 547,433 589,252 "/>
   <polygon fill="#96ED79" fill-rule="nonzero" points="594,254 552,435 551,435 593,254 "/>
   <path fill="#96ED79" fill-rule="nonzero" d="M598 255l-13 58 -1 0 14 -58 0 0zm-40 171l-2 9 0 0 2 -9 0 0z"/>
   <polygon fill="#96ED79" fill-rule="nonzero" points="346,176 284,161 284,160 346,175 "/>
   <polygon fill="#96ED79" fill-rule="nonzero" points="480,218 282,170 282,170 480,218 "/>
   <polygon fill="#96ED79" fill-rule="nonzero" points="594,254 280,178 280,178 594,253 "/>
   <polygon fill="#96ED79" fill-rule="nonzero" points="599,268 276,190 276,189 599,267 "/>
   <polygon fill="#96ED79" fill-rule="nonzero" points="601,263 278,185 278,185 601,262 "/>
   <polygon fill="#96ED79" fill-rule="nonzero" points="596,276 274,199 274,199 597,276 "/>
   <polygon fill="#96ED79" fill-rule="nonzero" points="596,276 274,199 274,199 597,276 "/>
   <polygon fill="#96ED79" fill-rule="nonzero" points="594,284 272,207 272,207 594,284 "/>
   <polygon fill="#96ED79" fill-rule="nonzero" points="592,290 270,212 270,212 592,289 "/>
   <polygon fill="#96ED79" fill-rule="nonzero" points="589,299 268,221 268,221 589,299 "/>
   <polygon fill="#96ED79" fill-rule="nonzero" points="586,307 265,230 265,229 586,307 "/>
   <polygon fill="#96ED79" fill-rule="nonzero" points="583,319 262,241 262,241 583,318 "/>
   <polygon fill="#96ED79" fill-rule="nonzero" points="584,313 264,236 264,236 584,313 "/>
   <polygon fill="#96ED79" fill-rule="nonzero" points="580,327 259,250 260,250 580,327 "/>
   <polygon fill="#96ED79" fill-rule="nonzero" points="579,330 259,253 259,252 579,330 "/>
   <polygon fill="#96ED79" fill-rule="nonzero" points="576,338 257,261 257,260 576,337 "/>
   <polygon fill="#96ED79" fill-rule="nonzero" points="575,343 255,267 256,266 575,343 "/>
   <polygon fill="#96ED79" fill-rule="nonzero" points="573,353 253,276 253,275 573,352 "/>
   <polygon fill="#96ED79" fill-rule="nonzero" points="571,361 251,284 251,284 571,360 "/>
   <polygon fill="#96ED79" fill-rule="nonzero" points="569,373 249,295 249,295 569,373 "/>
   <polygon fill="#96ED79" fill-rule="nonzero" points="569,368 250,291 250,290 569,367 "/>
   <polygon fill="#96ED79" fill-rule="nonzero" points="567,382 246,305 246,304 567,382 "/>
   <polygon fill="#96ED79" fill-rule="nonzero" points="565,390 244,313 245,312 565,389 "/>
   <polygon fill="#96ED79" fill-rule="nonzero" points="564,398 242,321 242,321 564,398 "/>
   <polygon fill="#96ED79" fill-rule="nonzero" points="562,404 241,326 241,326 562,403 "/>
   <polygon fill="#96ED79" fill-rule="nonzero" points="561,413 239,336 239,336 561,413 "/>
   <polygon fill="#96ED79" fill-rule="nonzero" points="559,421 237,344 237,344 559,421 "/>
   <polygon fill="#96ED79" fill-rule="nonzero" points="557,433 234,356 234,355 557,433 "/>
   <polygon fill="#96ED79" fill-rule="nonzero" points="558,428 235,350 235,350 558,427 "/>
  </g>
  <polygon fill="#63D13E" points="286,157 603,257 575,342 556,435 234,359 257,259 "/>
  <path fill="white" fill-rule="nonzero" d="M558 334c3,1 4,4 4,7 -1,3 -4,4 -7,3l-277 -75c-3,-1 -5,-4 -3,-7 0,-3 3,-5 6,-4l277 76z"/>
 </g>
 <g id="landmarks-mz17">
  <metadata id="CorelCorpID_1Corel-Layer"/>
  <polygon id="m17lote18" fill="#35AD0E" points="507,229 536,238 518,298 488,289 "/>
  <polygon id="m17lote17" fill="#35AD0E" points="476,220 505,229 487,288 458,280 "/>
  <polygon id="m17lote16" fill="#35AD0E" points="475,220 445,210 427,270 456,279 "/>
  <polygon id="m17lote15" fill="#35AD0E" points="414,202 444,210 425,270 397,261 "/>
  <polygon id="m17lote14" fill="#35AD0E" points="413,201 384,192 365,251 395,260 "/>
  <polygon id="m17lote13" fill="#35AD0E" points="382,191 353,183 335,242 364,251 "/>
  <polygon id="m17lote12" fill="#35AD0E" points="351,182 323,173 304,233 334,242 "/>
  <polygon id="m17lote11" fill="#35AD0E" points="321,173 292,163 273,224 303,232 "/>
  <polygon id="m17lote10" fill="#35AD0E" points="283,303 254,296 240,357 269,363 "/>
  <polygon id="m17lote9" fill="#35AD0E" points="315,310 286,303 271,363 301,371 "/>
  <path id="m17lote8" fill="#35AD0E" d="M346 317l-30 -7 -14 61 30 7c0,0 14,-61 14,-61l0 0z"/>
  <polygon id="m17lote7" fill="#35AD0E" points="377,325 347,318 334,379 363,385 "/>
  <polygon id="m17lote6" fill="#35AD0E" points="409,332 379,325 365,386 394,393 "/>
  <polygon id="m17lote5" fill="#35AD0E" points="440,339 410,332 396,393 425,400 "/>
  <polygon id="m17lote4" fill="#35AD0E" points="471,347 441,340 427,400 457,407 "/>
  <polygon id="m17lote3" fill="#35AD0E" points="502,354 473,347 458,408 488,414 "/>
  <polygon id="m17lote2" fill="#35AD0E" points="534,361 504,354 490,415 520,422 "/>
  <polygon id="m17lote1" fill="#35AD0E" points="535,361 565,368 551,429 521,422 "/>
  <polygon id="m17lote19" fill="#35AD0E" points="548,308 519,299 538,239 566,248 "/>
  <polygon id="m17lote20" fill="#35AD0E" points="549,309 579,317 597,257 568,248 "/>
 </g>
</svg>
