<?xml version="1.0" encoding="UTF-8"?>
<!DOCTYPE svg PUBLIC "-//W3C//DTD SVG 1.1//EN" "http://www.w3.org/Graphics/SVG/1.1/DTD/svg11.dtd">
<!-- Creator: CorelDRAW X8 -->
<svg xmlns="http://www.w3.org/2000/svg" xml:space="preserve" width="800px" height="600px" version="1.1" shape-rendering="geometricPrecision" text-rendering="geometricPrecision" image-rendering="optimizeQuality" fill-rule="evenodd" clip-rule="evenodd"
viewBox="0 0 800 600"
 xmlns:xlink="http://www.w3.org/1999/xlink">
 <g id="base">
  <metadata id="CorelCorpID_0Corel-Layer"/>
  <g id="_2070034811024">
   <polygon fill="#35AD0E" points="252,157 597,264 537,461 191,354 "/>
   <g>
    <polygon fill="#63D13E" points="245,148 596,257 534,456 183,348 "/>
    <g>
     <line fill="none" stroke="#96ED79" stroke-width="0.300001" x1="250" y1="149" x2="188" y2= "349" />
     <line fill="none" stroke="#96ED79" stroke-width="0.300001" x1="255" y1="151" x2="193" y2= "351" />
     <line fill="none" stroke="#96ED79" stroke-width="0.300001" x1="259" y1="152" x2="197" y2= "352" />
     <line fill="none" stroke="#96ED79" stroke-width="0.300001" x1="265" y1="154" x2="202" y2= "354" />
     <line fill="none" stroke="#96ED79" stroke-width="0.300001" x1="270" y1="155" x2="208" y2= "356" />
     <line fill="none" stroke="#96ED79" stroke-width="0.300001" x1="274" y1="157" x2="211" y2= "357" />
     <line fill="none" stroke="#96ED79" stroke-width="0.300001" x1="275" y1="157" x2="212" y2= "357" />
     <line fill="none" stroke="#96ED79" stroke-width="0.300001" x1="280" y1="159" x2="218" y2= "359" />
     <line fill="none" stroke="#96ED79" stroke-width="0.300001" x1="284" y1="160" x2="221" y2= "360" />
     <line fill="none" stroke="#96ED79" stroke-width="0.300001" x1="293" y1="163" x2="231" y2= "363" />
     <line fill="none" stroke="#96ED79" stroke-width="0.300001" x1="298" y1="164" x2="236" y2= "364" />
     <line fill="none" stroke="#96ED79" stroke-width="0.300001" x1="302" y1="165" x2="239" y2= "365" />
     <line fill="none" stroke="#96ED79" stroke-width="0.300001" x1="307" y1="167" x2="245" y2= "367" />
     <line fill="none" stroke="#96ED79" stroke-width="0.300001" x1="312" y1="169" x2="250" y2= "369" />
     <line fill="none" stroke="#96ED79" stroke-width="0.300001" x1="316" y1="170" x2="253" y2= "370" />
     <line fill="none" stroke="#96ED79" stroke-width="0.300001" x1="321" y1="171" x2="258" y2= "371" />
     <line fill="none" stroke="#96ED79" stroke-width="0.300001" x1="326" y1="173" x2="264" y2= "373" />
     <line fill="none" stroke="#96ED79" stroke-width="0.300001" x1="330" y1="174" x2="267" y2= "374" />
     <line fill="none" stroke="#96ED79" stroke-width="0.300001" x1="333" y1="175" x2="271" y2= "375" />
     <line fill="none" stroke="#96ED79" stroke-width="0.300001" x1="339" y1="177" x2="276" y2= "377" />
     <line fill="none" stroke="#96ED79" stroke-width="0.300001" x1="342" y1="178" x2="280" y2= "378" />
     <line fill="none" stroke="#96ED79" stroke-width="0.300001" x1="346" y1="179" x2="284" y2= "379" />
     <line fill="none" stroke="#96ED79" stroke-width="0.300001" x1="352" y1="181" x2="289" y2= "381" />
     <line fill="none" stroke="#96ED79" stroke-width="0.300001" x1="355" y1="182" x2="293" y2= "382" />
     <line fill="none" stroke="#96ED79" stroke-width="0.300001" x1="361" y1="184" x2="298" y2= "384" />
     <line fill="none" stroke="#96ED79" stroke-width="0.300001" x1="366" y1="185" x2="304" y2= "385" />
     <line fill="none" stroke="#96ED79" stroke-width="0.300001" x1="369" y1="186" x2="307" y2= "386" />
     <line fill="none" stroke="#96ED79" stroke-width="0.300001" x1="352" y1="181" x2="290" y2= "381" />
     <line fill="none" stroke="#96ED79" stroke-width="0.300001" x1="358" y1="183" x2="295" y2= "383" />
     <line fill="none" stroke="#96ED79" stroke-width="0.300001" x1="361" y1="184" x2="299" y2= "384" />
     <line fill="none" stroke="#96ED79" stroke-width="0.300001" x1="367" y1="186" x2="305" y2= "386" />
     <line fill="none" stroke="#96ED79" stroke-width="0.300001" x1="372" y1="187" x2="310" y2= "387" />
     <line fill="none" stroke="#96ED79" stroke-width="0.300001" x1="376" y1="188" x2="314" y2= "388" />
     <line fill="none" stroke="#96ED79" stroke-width="0.300001" x1="377" y1="189" x2="315" y2= "389" />
     <line fill="none" stroke="#96ED79" stroke-width="0.300001" x1="382" y1="190" x2="320" y2= "390" />
     <line fill="none" stroke="#96ED79" stroke-width="0.300001" x1="386" y1="192" x2="324" y2= "391" />
     <line fill="none" stroke="#96ED79" stroke-width="0.300001" x1="395" y1="194" x2="333" y2= "394" />
     <line fill="none" stroke="#96ED79" stroke-width="0.300001" x1="401" y1="196" x2="338" y2= "396" />
     <line fill="none" stroke="#96ED79" stroke-width="0.300001" x1="404" y1="197" x2="342" y2= "397" />
     <line fill="none" stroke="#96ED79" stroke-width="0.300001" x1="409" y1="199" x2="347" y2= "399" />
     <line fill="none" stroke="#96ED79" stroke-width="0.300001" x1="414" y1="201" x2="352" y2= "400" />
     <line fill="none" stroke="#96ED79" stroke-width="0.300001" x1="417" y1="204" x2="356" y2= "401" />
     <line fill="none" stroke="#96ED79" stroke-width="0.300001" x1="423" y1="203" x2="361" y2= "403" />
     <line fill="none" stroke="#96ED79" stroke-width="0.300001" x1="428" y1="205" x2="366" y2= "404" />
     <line fill="none" stroke="#96ED79" stroke-width="0.300001" x1="431" y1="208" x2="370" y2= "406" />
     <line fill="none" stroke="#96ED79" stroke-width="0.300001" x1="436" y1="207" x2="373" y2= "407" />
     <line fill="none" stroke="#96ED79" stroke-width="0.300001" x1="440" y1="211" x2="379" y2= "408" />
     <line fill="none" stroke="#96ED79" stroke-width="0.300001" x1="443" y1="214" x2="382" y2= "409" />
     <line fill="none" stroke="#96ED79" stroke-width="0.300001" x1="449" y1="211" x2="386" y2= "411" />
     <line fill="none" stroke="#96ED79" stroke-width="0.300001" x1="454" y1="213" x2="392" y2= "412" />
     <line fill="none" stroke="#96ED79" stroke-width="0.300001" x1="457" y1="214" x2="395" y2= "413" />
     <line fill="none" stroke="#96ED79" stroke-width="0.300001" x1="463" y1="216" x2="401" y2= "415" />
     <line fill="none" stroke="#96ED79" stroke-width="0.300001" x1="468" y1="217" x2="406" y2= "417" />
     <line fill="none" stroke="#96ED79" stroke-width="0.300001" x1="472" y1="218" x2="410" y2= "418" />
     <line fill="none" stroke="#96ED79" stroke-width="0.300001" x1="467" y1="217" x2="405" y2= "416" />
     <line fill="none" stroke="#96ED79" stroke-width="0.300001" x1="472" y1="218" x2="410" y2= "418" />
     <line fill="none" stroke="#96ED79" stroke-width="0.300001" x1="475" y1="219" x2="413" y2= "419" />
     <line fill="none" stroke="#96ED79" stroke-width="0.300001" x1="481" y1="221" x2="419" y2= "421" />
     <line fill="none" stroke="#96ED79" stroke-width="0.300001" x1="487" y1="223" x2="425" y2= "422" />
     <line fill="none" stroke="#96ED79" stroke-width="0.300001" x1="490" y1="224" x2="428" y2= "424" />
     <line fill="none" stroke="#96ED79" stroke-width="0.300001" x1="491" y1="224" x2="429" y2= "424" />
     <line fill="none" stroke="#96ED79" stroke-width="0.300001" x1="497" y1="226" x2="435" y2= "426" />
     <line fill="none" stroke="#96ED79" stroke-width="0.300001" x1="500" y1="227" x2="438" y2= "427" />
     <line fill="none" stroke="#96ED79" stroke-width="0.300001" x1="510" y1="230" x2="447" y2= "430" />
     <line fill="none" stroke="#96ED79" stroke-width="0.300001" x1="515" y1="232" x2="453" y2= "431" />
     <line fill="none" stroke="#96ED79" stroke-width="0.300001" x1="518" y1="233" x2="456" y2= "432" />
     <line fill="none" stroke="#96ED79" stroke-width="0.300001" x1="524" y1="234" x2="461" y2= "434" />
     <line fill="none" stroke="#96ED79" stroke-width="0.300001" x1="529" y1="236" x2="467" y2= "435" />
     <line fill="none" stroke="#96ED79" stroke-width="0.300001" x1="532" y1="237" x2="470" y2= "437" />
     <line fill="none" stroke="#96ED79" stroke-width="0.300001" x1="537" y1="239" x2="475" y2= "438" />
     <line fill="none" stroke="#96ED79" stroke-width="0.300001" x1="543" y1="240" x2="481" y2= "440" />
     <line fill="none" stroke="#96ED79" stroke-width="0.300001" x1="546" y1="241" x2="484" y2= "441" />
     <line fill="none" stroke="#96ED79" stroke-width="0.300001" x1="550" y1="243" x2="488" y2= "442" />
     <line fill="none" stroke="#96ED79" stroke-width="0.300001" x1="555" y1="244" x2="493" y2= "444" />
     <line fill="none" stroke="#96ED79" stroke-width="0.300001" x1="559" y1="245" x2="497" y2= "445" />
     <line fill="none" stroke="#96ED79" stroke-width="0.300001" x1="563" y1="247" x2="501" y2= "446" />
     <line fill="none" stroke="#96ED79" stroke-width="0.300001" x1="568" y1="248" x2="506" y2= "448" />
     <line fill="none" stroke="#96ED79" stroke-width="0.300001" x1="572" y1="249" x2="510" y2= "449" />
     <line fill="none" stroke="#96ED79" stroke-width="0.300001" x1="577" y1="251" x2="515" y2= "450" />
     <line fill="none" stroke="#96ED79" stroke-width="0.300001" x1="583" y1="253" x2="521" y2= "452" />
     <line fill="none" stroke="#96ED79" stroke-width="0.300001" x1="586" y1="254" x2="524" y2= "453" />
     <line fill="none" stroke="#96ED79" stroke-width="0.300001" x1="592" y1="256" x2="530" y2= "455" />
     <line fill="none" stroke="#96ED79" stroke-width="0.300001" x1="594" y1="261" x2="244" y2= "152" />
     <line fill="none" stroke="#96ED79" stroke-width="0.300001" x1="592" y1="268" x2="242" y2= "159" />
     <line fill="none" stroke="#96ED79" stroke-width="0.300001" x1="591" y1="273" x2="240" y2= "164" />
     <line fill="none" stroke="#96ED79" stroke-width="0.300001" x1="588" y1="281" x2="238" y2= "172" />
     <line fill="none" stroke="#96ED79" stroke-width="0.300001" x1="586" y1="288" x2="236" y2= "179" />
     <line fill="none" stroke="#96ED79" stroke-width="0.300001" x1="583" y1="298" x2="233" y2= "189" />
     <line fill="none" stroke="#96ED79" stroke-width="0.300001" x1="584" y1="294" x2="234" y2= "185" />
     <line fill="none" stroke="#96ED79" stroke-width="0.300001" x1="580" y1="306" x2="230" y2= "197" />
     <line fill="none" stroke="#96ED79" stroke-width="0.300001" x1="580" y1="306" x2="230" y2= "197" />
     <line fill="none" stroke="#96ED79" stroke-width="0.300001" x1="578" y1="313" x2="228" y2= "204" />
     <line fill="none" stroke="#96ED79" stroke-width="0.300001" x1="577" y1="318" x2="227" y2= "209" />
     <line fill="none" stroke="#96ED79" stroke-width="0.300001" x1="574" y1="326" x2="224" y2= "217" />
     <line fill="none" stroke="#96ED79" stroke-width="0.300001" x1="572" y1="333" x2="222" y2= "224" />
     <line fill="none" stroke="#96ED79" stroke-width="0.300001" x1="569" y1="343" x2="219" y2= "234" />
     <line fill="none" stroke="#96ED79" stroke-width="0.300001" x1="570" y1="339" x2="220" y2= "230" />
     <line fill="none" stroke="#96ED79" stroke-width="0.300001" x1="567" y1="351" x2="216" y2= "242" />
     <line fill="none" stroke="#96ED79" stroke-width="0.300001" x1="566" y1="353" x2="216" y2= "244" />
     <line fill="none" stroke="#96ED79" stroke-width="0.300001" x1="564" y1="360" x2="213" y2= "251" />
     <line fill="none" stroke="#96ED79" stroke-width="0.300001" x1="562" y1="365" x2="212" y2= "256" />
     <line fill="none" stroke="#96ED79" stroke-width="0.300001" x1="560" y1="373" x2="209" y2= "264" />
     <line fill="none" stroke="#96ED79" stroke-width="0.300001" x1="557" y1="380" x2="207" y2= "271" />
     <line fill="none" stroke="#96ED79" stroke-width="0.300001" x1="554" y1="390" x2="204" y2= "281" />
     <line fill="none" stroke="#96ED79" stroke-width="0.300001" x1="556" y1="386" x2="205" y2= "277" />
     <line fill="none" stroke="#96ED79" stroke-width="0.300001" x1="552" y1="398" x2="202" y2= "289" />
     <line fill="none" stroke="#96ED79" stroke-width="0.300001" x1="550" y1="405" x2="200" y2= "296" />
     <line fill="none" stroke="#96ED79" stroke-width="0.300001" x1="548" y1="412" x2="197" y2= "303" />
     <line fill="none" stroke="#96ED79" stroke-width="0.300001" x1="546" y1="417" x2="196" y2= "308" />
     <line fill="none" stroke="#96ED79" stroke-width="0.300001" x1="544" y1="425" x2="193" y2= "316" />
     <line fill="none" stroke="#96ED79" stroke-width="0.300001" x1="542" y1="432" x2="191" y2= "323" />
     <line fill="none" stroke="#96ED79" stroke-width="0.300001" x1="538" y1="442" x2="188" y2= "333" />
     <line fill="none" stroke="#96ED79" stroke-width="0.300001" x1="540" y1="438" x2="189" y2= "329" />
     <line fill="none" stroke="#96ED79" stroke-width="0.300001" x1="536" y1="450" x2="186" y2= "341" />
    </g>
   </g>
   <path fill="white" fill-rule="nonzero" d="M543 341c3,1 5,4 4,7 -1,4 -4,5 -7,4l-292 -88c-3,-1 -5,-4 -4,-7 1,-4 4,-5 7,-4l292 88z"/>
  </g>
 </g>
 <g id="landmarks-mz18">
  <metadata id="CorelCorpID_1Corel-Layer"/>
  <polygon id="m18lote18" fill="#35AD0E" points="486,228 518,238 498,304 465,294 "/>
  <polygon id="m18lote17" fill="#35AD0E" points="452,218 484,228 464,294 432,284 "/>
  <polygon id="m18lote16" fill="#35AD0E" points="450,218 418,208 398,273 430,283 "/>
  <polygon id="m18lote15" fill="#35AD0E" points="384,198 416,207 396,273 364,263 "/>
  <polygon id="m18lote14" fill="#35AD0E" points="382,197 350,187 330,253 362,262 "/>
  <polygon id="m18lote13" fill="#35AD0E" points="348,187 316,177 296,242 328,252 "/>
  <polygon id="m18lote12" fill="#35AD0E" points="315,176 283,166 262,232 295,242 "/>
  <polygon id="m18lote11" fill="#35AD0E" points="281,166 249,156 228,222 261,232 "/>
  <polygon id="m18lote10" fill="#35AD0E" points="243,286 211,276 191,342 223,352 "/>
  <polygon id="m18lote9" fill="#35AD0E" points="277,296 245,287 225,352 257,362 "/>
  <path id="m18lote8" fill="#35AD0E" d="M311 307l-32 -10 -21 66 32 10c0,0 21,-66 21,-66z"/>
  <polygon id="m18lote7" fill="#35AD0E" points="345,318 313,308 292,374 324,384 "/>
  <polygon id="m18lote6" fill="#35AD0E" points="379,328 346,318 326,384 358,394 "/>
  <polygon id="m18lote5" fill="#35AD0E" points="412,338 380,328 360,394 392,404 "/>
  <polygon id="m18lote4" fill="#35AD0E" points="446,349 414,339 394,405 426,415 "/>
  <polygon id="m18lote3" fill="#35AD0E" points="480,359 448,349 428,415 460,425 "/>
  <polygon id="m18lote2" fill="#35AD0E" points="514,370 482,360 461,426 494,435 "/>
  <polygon id="m18lote1" fill="#35AD0E" points="515,370 548,380 527,446 495,436 "/>
  <polygon id="m18lote19" fill="#35AD0E" points="531,315 499,305 520,239 552,249 "/>
  <polygon id="m18lote20" fill="#35AD0E" points="533,316 566,325 586,259 554,250 "/>
 </g>
</svg>
