<?xml version="1.0" encoding="UTF-8"?>
<!DOCTYPE svg PUBLIC "-//W3C//DTD SVG 1.1//EN" "http://www.w3.org/Graphics/SVG/1.1/DTD/svg11.dtd">
<!-- Creator: CorelDRAW X7 -->
<svg xmlns="http://www.w3.org/2000/svg" xml:space="preserve" width="800px" height="600px" version="1.1" shape-rendering="geometricPrecision" text-rendering="geometricPrecision" image-rendering="optimizeQuality" fill-rule="evenodd" clip-rule="evenodd"
viewBox="0 0 800 600"
 xmlns:xlink="http://www.w3.org/1999/xlink">
 <g id="base">
  <metadata id="CorelCorpID_0Corel-Layer"/>
  <g id="_441515656">
   <polygon fill="#35AD0E" points="168,70 691,232 600,530 76,369 "/>
   <g>
    <polygon fill="#63D13E" points="158,57 689,221 596,523 65,360 "/>
    <g>
     <line fill="none" stroke="#96ED79" stroke-width="0.300001" x1="165" y1="59" x2="71" y2= "362" />
     <line fill="none" stroke="#96ED79" stroke-width="0.300001" x1="173" y1="61" x2="79" y2= "365" />
     <line fill="none" stroke="#96ED79" stroke-width="0.300001" x1="179" y1="63" x2="85" y2= "366" />
     <line fill="none" stroke="#96ED79" stroke-width="0.300001" x1="188" y1="66" x2="94" y2= "369" />
     <line fill="none" stroke="#96ED79" stroke-width="0.300001" x1="196" y1="68" x2="102" y2= "372" />
     <line fill="none" stroke="#96ED79" stroke-width="0.300001" x1="201" y1="70" x2="107" y2= "373" />
     <line fill="none" stroke="#96ED79" stroke-width="0.300001" x1="203" y1="71" x2="109" y2= "374" />
     <line fill="none" stroke="#96ED79" stroke-width="0.300001" x1="211" y1="73" x2="117" y2= "376" />
     <line fill="none" stroke="#96ED79" stroke-width="0.300001" x1="216" y1="75" x2="122" y2= "378" />
     <line fill="none" stroke="#96ED79" stroke-width="0.300001" x1="230" y1="79" x2="136" y2= "382" />
     <line fill="none" stroke="#96ED79" stroke-width="0.300001" x1="238" y1="82" x2="144" y2= "385" />
     <line fill="none" stroke="#96ED79" stroke-width="0.300001" x1="244" y1="83" x2="150" y2= "386" />
     <line fill="none" stroke="#96ED79" stroke-width="0.300001" x1="251" y1="86" x2="158" y2= "389" />
     <line fill="none" stroke="#96ED79" stroke-width="0.300001" x1="259" y1="88" x2="166" y2= "391" />
     <line fill="none" stroke="#96ED79" stroke-width="0.300001" x1="265" y1="90" x2="171" y2= "393" />
     <line fill="none" stroke="#96ED79" stroke-width="0.300001" x1="272" y1="92" x2="179" y2= "395" />
     <line fill="none" stroke="#96ED79" stroke-width="0.300001" x1="280" y1="95" x2="187" y2= "398" />
     <line fill="none" stroke="#96ED79" stroke-width="0.300001" x1="286" y1="96" x2="192" y2= "399" />
     <line fill="none" stroke="#96ED79" stroke-width="0.300001" x1="291" y1="98" x2="198" y2= "401" />
     <line fill="none" stroke="#96ED79" stroke-width="0.300001" x1="299" y1="101" x2="206" y2= "403" />
     <line fill="none" stroke="#96ED79" stroke-width="0.300001" x1="305" y1="102" x2="211" y2= "405" />
     <line fill="none" stroke="#96ED79" stroke-width="0.300001" x1="311" y1="104" x2="217" y2= "407" />
     <line fill="none" stroke="#96ED79" stroke-width="0.300001" x1="319" y1="107" x2="225" y2= "409" />
     <line fill="none" stroke="#96ED79" stroke-width="0.300001" x1="324" y1="108" x2="231" y2= "411" />
     <line fill="none" stroke="#96ED79" stroke-width="0.300001" x1="333" y1="111" x2="239" y2= "414" />
     <line fill="none" stroke="#96ED79" stroke-width="0.300001" x1="341" y1="113" x2="247" y2= "416" />
     <line fill="none" stroke="#96ED79" stroke-width="0.300001" x1="346" y1="115" x2="252" y2= "418" />
     <line fill="none" stroke="#96ED79" stroke-width="0.300001" x1="320" y1="107" x2="226" y2= "410" />
     <line fill="none" stroke="#96ED79" stroke-width="0.300001" x1="328" y1="109" x2="235" y2= "412" />
     <line fill="none" stroke="#96ED79" stroke-width="0.300001" x1="333" y1="111" x2="240" y2= "414" />
     <line fill="none" stroke="#96ED79" stroke-width="0.300001" x1="342" y1="114" x2="249" y2= "417" />
     <line fill="none" stroke="#96ED79" stroke-width="0.300001" x1="351" y1="116" x2="257" y2= "419" />
     <line fill="none" stroke="#96ED79" stroke-width="0.300001" x1="356" y1="118" x2="262" y2= "421" />
     <line fill="none" stroke="#96ED79" stroke-width="0.300001" x1="357" y1="118" x2="264" y2= "421" />
     <line fill="none" stroke="#96ED79" stroke-width="0.300001" x1="366" y1="121" x2="272" y2= "424" />
     <line fill="none" stroke="#96ED79" stroke-width="0.300001" x1="371" y1="123" x2="277" y2= "425" />
     <line fill="none" stroke="#96ED79" stroke-width="0.300001" x1="385" y1="127" x2="291" y2= "430" />
     <line fill="none" stroke="#96ED79" stroke-width="0.300001" x1="393" y1="130" x2="300" y2= "432" />
     <line fill="none" stroke="#96ED79" stroke-width="0.300001" x1="398" y1="131" x2="305" y2= "434" />
     <line fill="none" stroke="#96ED79" stroke-width="0.300001" x1="406" y1="134" x2="313" y2= "436" />
     <line fill="none" stroke="#96ED79" stroke-width="0.300001" x1="414" y1="137" x2="321" y2= "439" />
     <line fill="none" stroke="#96ED79" stroke-width="0.300001" x1="418" y1="141" x2="326" y2= "440" />
     <line fill="none" stroke="#96ED79" stroke-width="0.300001" x1="427" y1="140" x2="334" y2= "443" />
     <line fill="none" stroke="#96ED79" stroke-width="0.300001" x1="435" y1="143" x2="342" y2= "445" />
     <line fill="none" stroke="#96ED79" stroke-width="0.300001" x1="440" y1="147" x2="347" y2= "447" />
     <line fill="none" stroke="#96ED79" stroke-width="0.300001" x1="446" y1="146" x2="353" y2= "448" />
     <line fill="none" stroke="#96ED79" stroke-width="0.300001" x1="453" y1="152" x2="361" y2= "451" />
     <line fill="none" stroke="#96ED79" stroke-width="0.300001" x1="458" y1="156" x2="366" y2= "452" />
     <line fill="none" stroke="#96ED79" stroke-width="0.300001" x1="466" y1="152" x2="372" y2= "454" />
     <line fill="none" stroke="#96ED79" stroke-width="0.300001" x1="474" y1="155" x2="380" y2= "457" />
     <line fill="none" stroke="#96ED79" stroke-width="0.300001" x1="479" y1="156" x2="386" y2= "458" />
     <line fill="none" stroke="#96ED79" stroke-width="0.300001" x1="488" y1="159" x2="394" y2= "461" />
     <line fill="none" stroke="#96ED79" stroke-width="0.300001" x1="496" y1="161" x2="402" y2= "464" />
     <line fill="none" stroke="#96ED79" stroke-width="0.300001" x1="501" y1="163" x2="407" y2= "465" />
     <line fill="none" stroke="#96ED79" stroke-width="0.300001" x1="493" y1="161" x2="400" y2= "463" />
     <line fill="none" stroke="#96ED79" stroke-width="0.300001" x1="501" y1="163" x2="408" y2= "465" />
     <line fill="none" stroke="#96ED79" stroke-width="0.300001" x1="507" y1="165" x2="413" y2= "467" />
     <line fill="none" stroke="#96ED79" stroke-width="0.300001" x1="516" y1="167" x2="422" y2= "470" />
     <line fill="none" stroke="#96ED79" stroke-width="0.300001" x1="524" y1="170" x2="430" y2= "472" />
     <line fill="none" stroke="#96ED79" stroke-width="0.300001" x1="529" y1="172" x2="435" y2= "474" />
     <line fill="none" stroke="#96ED79" stroke-width="0.300001" x1="531" y1="172" x2="437" y2= "474" />
     <line fill="none" stroke="#96ED79" stroke-width="0.300001" x1="539" y1="175" x2="445" y2= "477" />
     <line fill="none" stroke="#96ED79" stroke-width="0.300001" x1="544" y1="176" x2="451" y2= "478" />
     <line fill="none" stroke="#96ED79" stroke-width="0.300001" x1="558" y1="181" x2="465" y2= "483" />
     <line fill="none" stroke="#96ED79" stroke-width="0.300001" x1="566" y1="183" x2="473" y2= "485" />
     <line fill="none" stroke="#96ED79" stroke-width="0.300001" x1="572" y1="185" x2="478" y2= "487" />
     <line fill="none" stroke="#96ED79" stroke-width="0.300001" x1="579" y1="187" x2="486" y2= "489" />
     <line fill="none" stroke="#96ED79" stroke-width="0.300001" x1="588" y1="190" x2="494" y2= "492" />
     <line fill="none" stroke="#96ED79" stroke-width="0.300001" x1="593" y1="191" x2="499" y2= "493" />
     <line fill="none" stroke="#96ED79" stroke-width="0.300001" x1="601" y1="194" x2="507" y2= "496" />
     <line fill="none" stroke="#96ED79" stroke-width="0.300001" x1="609" y1="196" x2="515" y2= "498" />
     <line fill="none" stroke="#96ED79" stroke-width="0.300001" x1="614" y1="198" x2="520" y2= "500" />
     <line fill="none" stroke="#96ED79" stroke-width="0.300001" x1="619" y1="200" x2="526" y2= "501" />
     <line fill="none" stroke="#96ED79" stroke-width="0.300001" x1="628" y1="202" x2="534" y2= "504" />
     <line fill="none" stroke="#96ED79" stroke-width="0.300001" x1="633" y1="204" x2="539" y2= "506" />
     <line fill="none" stroke="#96ED79" stroke-width="0.300001" x1="639" y1="206" x2="546" y2= "508" />
     <line fill="none" stroke="#96ED79" stroke-width="0.300001" x1="647" y1="208" x2="554" y2= "510" />
     <line fill="none" stroke="#96ED79" stroke-width="0.300001" x1="652" y1="210" x2="559" y2= "512" />
     <line fill="none" stroke="#96ED79" stroke-width="0.300001" x1="661" y1="212" x2="567" y2= "514" />
     <line fill="none" stroke="#96ED79" stroke-width="0.300001" x1="669" y1="215" x2="575" y2= "517" />
     <line fill="none" stroke="#96ED79" stroke-width="0.300001" x1="674" y1="216" x2="581" y2= "518" />
     <line fill="none" stroke="#96ED79" stroke-width="0.300001" x1="683" y1="219" x2="589" y2= "521" />
     <line fill="none" stroke="#96ED79" stroke-width="0.300001" x1="687" y1="227" x2="156" y2= "63" />
     <line fill="none" stroke="#96ED79" stroke-width="0.300001" x1="683" y1="238" x2="153" y2= "74" />
     <line fill="none" stroke="#96ED79" stroke-width="0.300001" x1="681" y1="245" x2="151" y2= "81" />
     <line fill="none" stroke="#96ED79" stroke-width="0.300001" x1="677" y1="258" x2="147" y2= "93" />
     <line fill="none" stroke="#96ED79" stroke-width="0.300001" x1="674" y1="268" x2="144" y2= "104" />
     <line fill="none" stroke="#96ED79" stroke-width="0.300001" x1="670" y1="283" x2="139" y2= "119" />
     <line fill="none" stroke="#96ED79" stroke-width="0.300001" x1="671" y1="277" x2="141" y2= "113" />
     <line fill="none" stroke="#96ED79" stroke-width="0.300001" x1="666" y1="295" x2="135" y2= "131" />
     <line fill="none" stroke="#96ED79" stroke-width="0.300001" x1="666" y1="295" x2="135" y2= "131" />
     <line fill="none" stroke="#96ED79" stroke-width="0.300001" x1="663" y1="306" x2="132" y2= "142" />
     <line fill="none" stroke="#96ED79" stroke-width="0.300001" x1="660" y1="313" x2="130" y2= "149" />
     <line fill="none" stroke="#96ED79" stroke-width="0.300001" x1="656" y1="326" x2="126" y2= "162" />
     <line fill="none" stroke="#96ED79" stroke-width="0.300001" x1="653" y1="336" x2="123" y2= "172" />
     <line fill="none" stroke="#96ED79" stroke-width="0.300001" x1="649" y1="352" x2="118" y2= "187" />
     <line fill="none" stroke="#96ED79" stroke-width="0.300001" x1="651" y1="345" x2="120" y2= "181" />
     <line fill="none" stroke="#96ED79" stroke-width="0.300001" x1="645" y1="364" x2="114" y2= "199" />
     <line fill="none" stroke="#96ED79" stroke-width="0.300001" x1="644" y1="367" x2="113" y2= "203" />
     <line fill="none" stroke="#96ED79" stroke-width="0.300001" x1="641" y1="378" x2="110" y2= "214" />
     <line fill="none" stroke="#96ED79" stroke-width="0.300001" x1="638" y1="385" x2="108" y2= "221" />
     <line fill="none" stroke="#96ED79" stroke-width="0.300001" x1="635" y1="397" x2="104" y2= "233" />
     <line fill="none" stroke="#96ED79" stroke-width="0.300001" x1="631" y1="408" x2="101" y2= "244" />
     <line fill="none" stroke="#96ED79" stroke-width="0.300001" x1="627" y1="423" x2="96" y2= "259" />
     <line fill="none" stroke="#96ED79" stroke-width="0.300001" x1="629" y1="417" x2="98" y2= "253" />
     <line fill="none" stroke="#96ED79" stroke-width="0.300001" x1="623" y1="435" x2="92" y2= "271" />
     <line fill="none" stroke="#96ED79" stroke-width="0.300001" x1="620" y1="445" x2="89" y2= "281" />
     <line fill="none" stroke="#96ED79" stroke-width="0.300001" x1="616" y1="456" x2="86" y2= "292" />
     <line fill="none" stroke="#96ED79" stroke-width="0.300001" x1="614" y1="463" x2="84" y2= "299" />
     <line fill="none" stroke="#96ED79" stroke-width="0.300001" x1="610" y1="476" x2="80" y2= "311" />
     <line fill="none" stroke="#96ED79" stroke-width="0.300001" x1="607" y1="486" x2="77" y2= "322" />
     <line fill="none" stroke="#96ED79" stroke-width="0.300001" x1="603" y1="501" x2="72" y2= "337" />
     <line fill="none" stroke="#96ED79" stroke-width="0.300001" x1="604" y1="495" x2="74" y2= "331" />
     <line fill="none" stroke="#96ED79" stroke-width="0.300001" x1="599" y1="513" x2="68" y2= "349" />
    </g>
   </g>
   <path fill="white" fill-rule="nonzero" d="M609 349c5,1 7,6 6,11 -2,4 -6,7 -11,6l-441 -134c-5,-1 -8,-6 -6,-11 1,-4 6,-7 11,-5l441 133z"/>
  </g>
 </g>
 <g id="landmarks-mz18">
  <metadata id="CorelCorpID_1Corel-Layer"/>
  <polygon id="m18lote18" fill="#35AD0E" points="526,178 575,193 545,293 496,278 "/>
  <polygon id="m18lote17" fill="#35AD0E" points="475,163 524,177 493,278 444,263 "/>
  <polygon id="m18lote16" fill="#35AD0E" points="472,162 423,147 392,247 441,262 "/>
  <polygon id="m18lote15" fill="#35AD0E" points="371,131 421,146 390,246 341,231 "/>
  <polygon id="m18lote14" fill="#35AD0E" points="369,130 320,115 289,215 338,230 "/>
  <polygon id="m18lote13" fill="#35AD0E" points="317,115 268,100 238,200 287,214 "/>
  <polygon id="m18lote12" fill="#35AD0E" points="266,98 217,84 186,184 235,199 "/>
  <polygon id="m18lote11" fill="#35AD0E" points="215,83 165,68 135,168 184,184 "/>
  <polygon id="m18lote10" fill="#35AD0E" points="157,268 108,254 78,354 126,369 "/>
  <polygon id="m18lote9" fill="#35AD0E" points="208,284 160,270 129,369 178,384 "/>
  <path id="m18lote8" fill="#35AD0E" d="M260 300l-49 -15 -31 100 49 15c0,0 31,-100 31,-100z"/>
  <polygon id="m18lote7" fill="#35AD0E" points="311,316 263,301 232,401 281,416 "/>
  <polygon id="m18lote6" fill="#35AD0E" points="363,331 314,316 283,417 332,432 "/>
  <polygon id="m18lote5" fill="#35AD0E" points="415,347 366,332 335,432 384,448 "/>
  <polygon id="m18lote4" fill="#35AD0E" points="466,363 417,348 386,449 435,464 "/>
  <polygon id="m18lote3" fill="#35AD0E" points="517,379 469,364 438,465 486,479 "/>
  <polygon id="m18lote2" fill="#35AD0E" points="569,395 520,379 489,480 539,495 "/>
  <polygon id="m18lote1" fill="#35AD0E" points="572,395 621,411 590,511 541,496 "/>
  <polygon id="m18lote19" fill="#35AD0E" points="596,310 547,295 578,194 627,209 "/>
  <polygon id="m18lote20" fill="#35AD0E" points="598,311 648,326 678,225 629,210 "/>
 </g>
</svg>
