<?xml version="1.0" encoding="UTF-8"?>
<!DOCTYPE svg PUBLIC "-//W3C//DTD SVG 1.1//EN" "http://www.w3.org/Graphics/SVG/1.1/DTD/svg11.dtd">
<!-- Creator: CorelDRAW X7 -->
<svg xmlns="http://www.w3.org/2000/svg" xml:space="preserve" width="800px" height="600px" version="1.1" shape-rendering="geometricPrecision" text-rendering="geometricPrecision" image-rendering="optimizeQuality" fill-rule="evenodd" clip-rule="evenodd"
viewBox="0 0 800 600"
 xmlns:xlink="http://www.w3.org/1999/xlink">
 <g id="base">
  <metadata id="CorelCorpID_0Corel-Layer"/>
  <g id="_485987160">
   <polygon fill="#35AD0E" points="154,53 743,236 639,571 50,389 "/>
   <g>
    <polygon fill="#63D13E" points="144,38 740,224 635,563 38,379 "/>
    <g>
     <line fill="none" stroke="#96ED79" stroke-width="0.300001" x1="151" y1="40" x2="45" y2= "381" />
     <line fill="none" stroke="#96ED79" stroke-width="0.300001" x1="161" y1="43" x2="54" y2= "384" />
     <line fill="none" stroke="#96ED79" stroke-width="0.300001" x1="167" y1="45" x2="60" y2= "386" />
     <line fill="none" stroke="#96ED79" stroke-width="0.300001" x1="177" y1="48" x2="70" y2= "389" />
     <line fill="none" stroke="#96ED79" stroke-width="0.300001" x1="186" y1="51" x2="80" y2= "392" />
     <line fill="none" stroke="#96ED79" stroke-width="0.300001" x1="192" y1="53" x2="86" y2= "393" />
     <line fill="none" stroke="#96ED79" stroke-width="0.300001" x1="193" y1="53" x2="87" y2= "394" />
     <line fill="none" stroke="#96ED79" stroke-width="0.300001" x1="203" y1="56" x2="97" y2= "397" />
     <line fill="none" stroke="#96ED79" stroke-width="0.300001" x1="208" y1="58" x2="102" y2= "399" />
     <line fill="none" stroke="#96ED79" stroke-width="0.300001" x1="225" y1="63" x2="118" y2= "404" />
     <line fill="none" stroke="#96ED79" stroke-width="0.300001" x1="234" y1="66" x2="128" y2= "406" />
     <line fill="none" stroke="#96ED79" stroke-width="0.300001" x1="240" y1="68" x2="134" y2= "408" />
     <line fill="none" stroke="#96ED79" stroke-width="0.300001" x1="248" y1="71" x2="142" y2= "411" />
     <line fill="none" stroke="#96ED79" stroke-width="0.300001" x1="257" y1="73" x2="151" y2= "414" />
     <line fill="none" stroke="#96ED79" stroke-width="0.300001" x1="263" y1="75" x2="157" y2= "416" />
     <line fill="none" stroke="#96ED79" stroke-width="0.300001" x1="272" y1="78" x2="166" y2= "418" />
     <line fill="none" stroke="#96ED79" stroke-width="0.300001" x1="281" y1="81" x2="175" y2= "421" />
     <line fill="none" stroke="#96ED79" stroke-width="0.300001" x1="287" y1="83" x2="181" y2= "423" />
     <line fill="none" stroke="#96ED79" stroke-width="0.300001" x1="293" y1="85" x2="187" y2= "425" />
     <line fill="none" stroke="#96ED79" stroke-width="0.300001" x1="302" y1="87" x2="196" y2= "428" />
     <line fill="none" stroke="#96ED79" stroke-width="0.300001" x1="308" y1="89" x2="202" y2= "429" />
     <line fill="none" stroke="#96ED79" stroke-width="0.300001" x1="315" y1="91" x2="209" y2= "432" />
     <line fill="none" stroke="#96ED79" stroke-width="0.300001" x1="324" y1="94" x2="218" y2= "434" />
     <line fill="none" stroke="#96ED79" stroke-width="0.300001" x1="330" y1="96" x2="224" y2= "436" />
     <line fill="none" stroke="#96ED79" stroke-width="0.300001" x1="340" y1="99" x2="234" y2= "439" />
     <line fill="none" stroke="#96ED79" stroke-width="0.300001" x1="349" y1="102" x2="243" y2= "442" />
     <line fill="none" stroke="#96ED79" stroke-width="0.300001" x1="355" y1="104" x2="249" y2= "444" />
     <line fill="none" stroke="#96ED79" stroke-width="0.300001" x1="326" y1="95" x2="220" y2= "435" />
     <line fill="none" stroke="#96ED79" stroke-width="0.300001" x1="335" y1="97" x2="229" y2= "438" />
     <line fill="none" stroke="#96ED79" stroke-width="0.300001" x1="341" y1="99" x2="235" y2= "439" />
     <line fill="none" stroke="#96ED79" stroke-width="0.300001" x1="351" y1="102" x2="245" y2= "443" />
     <line fill="none" stroke="#96ED79" stroke-width="0.300001" x1="360" y1="105" x2="254" y2= "445" />
     <line fill="none" stroke="#96ED79" stroke-width="0.300001" x1="366" y1="107" x2="260" y2= "447" />
     <line fill="none" stroke="#96ED79" stroke-width="0.300001" x1="368" y1="108" x2="262" y2= "448" />
     <line fill="none" stroke="#96ED79" stroke-width="0.300001" x1="377" y1="110" x2="271" y2= "451" />
     <line fill="none" stroke="#96ED79" stroke-width="0.300001" x1="383" y1="112" x2="277" y2= "452" />
     <line fill="none" stroke="#96ED79" stroke-width="0.300001" x1="399" y1="117" x2="293" y2= "457" />
     <line fill="none" stroke="#96ED79" stroke-width="0.300001" x1="408" y1="120" x2="302" y2= "460" />
     <line fill="none" stroke="#96ED79" stroke-width="0.300001" x1="414" y1="122" x2="308" y2= "462" />
     <line fill="none" stroke="#96ED79" stroke-width="0.300001" x1="422" y1="125" x2="316" y2= "465" />
     <line fill="none" stroke="#96ED79" stroke-width="0.300001" x1="431" y1="129" x2="326" y2= "467" />
     <line fill="none" stroke="#96ED79" stroke-width="0.300001" x1="436" y1="133" x2="332" y2= "469" />
     <line fill="none" stroke="#96ED79" stroke-width="0.300001" x1="446" y1="132" x2="340" y2= "472" />
     <line fill="none" stroke="#96ED79" stroke-width="0.300001" x1="455" y1="135" x2="349" y2= "475" />
     <line fill="none" stroke="#96ED79" stroke-width="0.300001" x1="460" y1="140" x2="355" y2= "477" />
     <line fill="none" stroke="#96ED79" stroke-width="0.300001" x1="467" y1="139" x2="361" y2= "479" />
     <line fill="none" stroke="#96ED79" stroke-width="0.300001" x1="475" y1="145" x2="371" y2= "481" />
     <line fill="none" stroke="#96ED79" stroke-width="0.300001" x1="480" y1="150" x2="377" y2= "483" />
     <line fill="none" stroke="#96ED79" stroke-width="0.300001" x1="489" y1="146" x2="384" y2= "485" />
     <line fill="none" stroke="#96ED79" stroke-width="0.300001" x1="498" y1="148" x2="393" y2= "488" />
     <line fill="none" stroke="#96ED79" stroke-width="0.300001" x1="504" y1="150" x2="399" y2= "490" />
     <line fill="none" stroke="#96ED79" stroke-width="0.300001" x1="514" y1="153" x2="408" y2= "493" />
     <line fill="none" stroke="#96ED79" stroke-width="0.300001" x1="523" y1="156" x2="417" y2= "496" />
     <line fill="none" stroke="#96ED79" stroke-width="0.300001" x1="529" y1="158" x2="423" y2= "497" />
     <line fill="none" stroke="#96ED79" stroke-width="0.300001" x1="520" y1="155" x2="414" y2= "495" />
     <line fill="none" stroke="#96ED79" stroke-width="0.300001" x1="529" y1="158" x2="424" y2= "498" />
     <line fill="none" stroke="#96ED79" stroke-width="0.300001" x1="535" y1="160" x2="429" y2= "499" />
     <line fill="none" stroke="#96ED79" stroke-width="0.300001" x1="545" y1="163" x2="440" y2= "503" />
     <line fill="none" stroke="#96ED79" stroke-width="0.300001" x1="554" y1="166" x2="449" y2= "505" />
     <line fill="none" stroke="#96ED79" stroke-width="0.300001" x1="560" y1="168" x2="455" y2= "507" />
     <line fill="none" stroke="#96ED79" stroke-width="0.300001" x1="562" y1="168" x2="456" y2= "508" />
     <line fill="none" stroke="#96ED79" stroke-width="0.300001" x1="571" y1="171" x2="466" y2= "511" />
     <line fill="none" stroke="#96ED79" stroke-width="0.300001" x1="577" y1="173" x2="471" y2= "512" />
     <line fill="none" stroke="#96ED79" stroke-width="0.300001" x1="593" y1="178" x2="488" y2= "517" />
     <line fill="none" stroke="#96ED79" stroke-width="0.300001" x1="602" y1="181" x2="497" y2= "520" />
     <line fill="none" stroke="#96ED79" stroke-width="0.300001" x1="608" y1="183" x2="503" y2= "522" />
     <line fill="none" stroke="#96ED79" stroke-width="0.300001" x1="617" y1="185" x2="511" y2= "525" />
     <line fill="none" stroke="#96ED79" stroke-width="0.300001" x1="626" y1="188" x2="520" y2= "528" />
     <line fill="none" stroke="#96ED79" stroke-width="0.300001" x1="632" y1="190" x2="526" y2= "529" />
     <line fill="none" stroke="#96ED79" stroke-width="0.300001" x1="641" y1="193" x2="535" y2= "532" />
     <line fill="none" stroke="#96ED79" stroke-width="0.300001" x1="650" y1="196" x2="544" y2= "535" />
     <line fill="none" stroke="#96ED79" stroke-width="0.300001" x1="656" y1="197" x2="550" y2= "537" />
     <line fill="none" stroke="#96ED79" stroke-width="0.300001" x1="662" y1="199" x2="556" y2= "539" />
     <line fill="none" stroke="#96ED79" stroke-width="0.300001" x1="671" y1="202" x2="565" y2= "541" />
     <line fill="none" stroke="#96ED79" stroke-width="0.300001" x1="677" y1="204" x2="571" y2= "543" />
     <line fill="none" stroke="#96ED79" stroke-width="0.300001" x1="684" y1="206" x2="578" y2= "545" />
     <line fill="none" stroke="#96ED79" stroke-width="0.300001" x1="693" y1="209" x2="587" y2= "548" />
     <line fill="none" stroke="#96ED79" stroke-width="0.300001" x1="699" y1="211" x2="593" y2= "550" />
     <line fill="none" stroke="#96ED79" stroke-width="0.300001" x1="708" y1="214" x2="603" y2= "553" />
     <line fill="none" stroke="#96ED79" stroke-width="0.300001" x1="717" y1="217" x2="612" y2= "556" />
     <line fill="none" stroke="#96ED79" stroke-width="0.300001" x1="723" y1="218" x2="618" y2= "558" />
     <line fill="none" stroke="#96ED79" stroke-width="0.300001" x1="733" y1="221" x2="627" y2= "561" />
     <line fill="none" stroke="#96ED79" stroke-width="0.300001" x1="738" y1="231" x2="141" y2= "45" />
     <line fill="none" stroke="#96ED79" stroke-width="0.300001" x1="734" y1="243" x2="138" y2= "57" />
     <line fill="none" stroke="#96ED79" stroke-width="0.300001" x1="731" y1="251" x2="135" y2= "65" />
     <line fill="none" stroke="#96ED79" stroke-width="0.300001" x1="727" y1="265" x2="131" y2= "79" />
     <line fill="none" stroke="#96ED79" stroke-width="0.300001" x1="723" y1="277" x2="127" y2= "91" />
     <line fill="none" stroke="#96ED79" stroke-width="0.300001" x1="718" y1="294" x2="122" y2= "108" />
     <line fill="none" stroke="#96ED79" stroke-width="0.300001" x1="720" y1="287" x2="124" y2= "101" />
     <line fill="none" stroke="#96ED79" stroke-width="0.300001" x1="714" y1="307" x2="118" y2= "122" />
     <line fill="none" stroke="#96ED79" stroke-width="0.300001" x1="714" y1="307" x2="118" y2= "121" />
     <line fill="none" stroke="#96ED79" stroke-width="0.300001" x1="710" y1="319" x2="114" y2= "134" />
     <line fill="none" stroke="#96ED79" stroke-width="0.300001" x1="708" y1="327" x2="112" y2= "142" />
     <line fill="none" stroke="#96ED79" stroke-width="0.300001" x1="703" y1="341" x2="107" y2= "156" />
     <line fill="none" stroke="#96ED79" stroke-width="0.300001" x1="700" y1="353" x2="104" y2= "167" />
     <line fill="none" stroke="#96ED79" stroke-width="0.300001" x1="694" y1="370" x2="98" y2= "185" />
     <line fill="none" stroke="#96ED79" stroke-width="0.300001" x1="697" y1="363" x2="100" y2= "177" />
     <line fill="none" stroke="#96ED79" stroke-width="0.300001" x1="690" y1="384" x2="94" y2= "198" />
     <line fill="none" stroke="#96ED79" stroke-width="0.300001" x1="689" y1="388" x2="93" y2= "202" />
     <line fill="none" stroke="#96ED79" stroke-width="0.300001" x1="685" y1="400" x2="89" y2= "214" />
     <line fill="none" stroke="#96ED79" stroke-width="0.300001" x1="683" y1="408" x2="87" y2= "222" />
     <line fill="none" stroke="#96ED79" stroke-width="0.300001" x1="678" y1="422" x2="82" y2= "236" />
     <line fill="none" stroke="#96ED79" stroke-width="0.300001" x1="675" y1="434" x2="79" y2= "248" />
     <line fill="none" stroke="#96ED79" stroke-width="0.300001" x1="670" y1="451" x2="73" y2= "265" />
     <line fill="none" stroke="#96ED79" stroke-width="0.300001" x1="672" y1="443" x2="76" y2= "258" />
     <line fill="none" stroke="#96ED79" stroke-width="0.300001" x1="665" y1="464" x2="69" y2= "279" />
     <line fill="none" stroke="#96ED79" stroke-width="0.300001" x1="662" y1="476" x2="66" y2= "290" />
     <line fill="none" stroke="#96ED79" stroke-width="0.300001" x1="658" y1="488" x2="62" y2= "302" />
     <line fill="none" stroke="#96ED79" stroke-width="0.300001" x1="656" y1="496" x2="59" y2= "310" />
     <line fill="none" stroke="#96ED79" stroke-width="0.300001" x1="651" y1="510" x2="55" y2= "324" />
     <line fill="none" stroke="#96ED79" stroke-width="0.300001" x1="648" y1="522" x2="51" y2= "336" />
     <line fill="none" stroke="#96ED79" stroke-width="0.300001" x1="642" y1="539" x2="46" y2= "353" />
     <line fill="none" stroke="#96ED79" stroke-width="0.300001" x1="645" y1="532" x2="48" y2= "346" />
     <line fill="none" stroke="#96ED79" stroke-width="0.300001" x1="638" y1="552" x2="42" y2= "367" />
    </g>
   </g>
   <path fill="white" fill-rule="nonzero" d="M650 367c5,2 8,7 6,12 -1,6 -7,9 -12,7l-496 -151c-5,-1 -8,-7 -6,-12 1,-5 7,-8 12,-7l496 151z"/>
  </g>
 </g>
 <g id="landmarks-mz19">
  <metadata id="CorelCorpID_1Corel-Layer"/>
  <polygon id="m19lote18" fill="#35AD0E" points="553,175 607,192 574,304 518,287 "/>
  <polygon id="m19lote17" fill="#35AD0E" points="496,158 550,175 516,286 461,270 "/>
  <polygon id="m19lote16" fill="#35AD0E" points="493,157 437,140 403,252 458,269 "/>
  <polygon id="m19lote15" fill="#35AD0E" points="380,123 435,139 400,251 346,235 "/>
  <polygon id="m19lote14" fill="#35AD0E" points="377,121 322,105 287,217 342,233 "/>
  <polygon id="m19lote13" fill="#35AD0E" points="319,104 264,87 230,199 285,215 "/>
  <polygon id="m19lote12" fill="#35AD0E" points="261,86 207,69 172,181 227,198 "/>
  <polygon id="m19lote11" fill="#35AD0E" points="204,68 149,51 115,163 169,181 "/>
  <polygon id="m19lote10" fill="#35AD0E" points="140,273 85,257 51,369 105,386 "/>
  <polygon id="m19lote9" fill="#35AD0E" points="197,291 143,275 108,386 164,403 "/>
  <path id="m19lote8" fill="#35AD0E" d="M255 309l-55 -17 -34 112 54 17c0,0 35,-112 35,-112z"/>
  <polygon id="m19lote7" fill="#35AD0E" points="313,327 258,310 223,422 278,439 "/>
  <polygon id="m19lote6" fill="#35AD0E" points="371,344 315,328 281,440 336,457 "/>
  <polygon id="m19lote5" fill="#35AD0E" points="428,362 373,345 339,457 393,475 "/>
  <polygon id="m19lote4" fill="#35AD0E" points="486,380 431,363 396,475 451,492 "/>
  <polygon id="m19lote3" fill="#35AD0E" points="543,398 489,381 454,493 508,510 "/>
  <polygon id="m19lote2" fill="#35AD0E" points="601,415 546,398 511,511 566,528 "/>
  <polygon id="m19lote1" fill="#35AD0E" points="603,416 658,434 624,546 569,529 "/>
  <polygon id="m19lote19" fill="#35AD0E" points="630,323 575,306 610,193 665,210 "/>
  <polygon id="m19lote20" fill="#35AD0E" points="633,324 689,340 723,228 668,211 "/>
 </g>
</svg>
