<?xml version="1.0" encoding="UTF-8"?>
<!DOCTYPE svg PUBLIC "-//W3C//DTD SVG 1.1//EN" "http://www.w3.org/Graphics/SVG/1.1/DTD/svg11.dtd">
<!-- Creator: CorelDRAW X7 -->
<svg xmlns="http://www.w3.org/2000/svg" xml:space="preserve" width="800px" height="600px" version="1.1" shape-rendering="geometricPrecision" text-rendering="geometricPrecision" image-rendering="optimizeQuality" fill-rule="evenodd" clip-rule="evenodd"
viewBox="0 0 800 600"
 xmlns:xlink="http://www.w3.org/1999/xlink">
 <g id="base">
  <metadata id="CorelCorpID_0Corel-Layer"/>
  <polygon fill="#35AD0E" points="540,575 283,541 374,184 157,123 175,54 649,185 "/>
  <g id="_442263520">
   <polygon fill="#63D13E" points="537,567 280,534 371,176 154,116 172,46 646,178 "/>
   <g>
    <line fill="none" stroke="#96ED79" stroke-width="0.300001" x1="175" y1="47" x2="170" y2= "120" />
    <line fill="none" stroke="#96ED79" stroke-width="0.300001" x1="191" y1="51" x2="186" y2= "124" />
    <line fill="none" stroke="#96ED79" stroke-width="0.300001" x1="207" y1="56" x2="202" y2= "129" />
    <line fill="none" stroke="#96ED79" stroke-width="0.300001" x1="231" y1="62" x2="226" y2= "136" />
    <line fill="none" stroke="#96ED79" stroke-width="0.300001" x1="247" y1="67" x2="242" y2= "140" />
    <line fill="none" stroke="#96ED79" stroke-width="0.300001" x1="265" y1="72" x2="260" y2= "145" />
    <line fill="none" stroke="#96ED79" stroke-width="0.300001" x1="289" y1="79" x2="284" y2= "152" />
    <line fill="none" stroke="#96ED79" stroke-width="0.300001" x1="305" y1="83" x2="300" y2= "156" />
    <path fill="none" stroke="#96ED79" stroke-width="0.300001" d="M330 90l-5 73m-19 267l-7 106"/>
    <path fill="none" stroke="#96ED79" stroke-width="0.300001" d="M354 96l-5 74m-9 129l-17 240"/>
    <path fill="none" stroke="#96ED79" stroke-width="0.300001" d="M369 101l-5 73m-2 39l-23 328"/>
    <line fill="none" stroke="#96ED79" stroke-width="0.300001" x1="292" y1="79" x2="287" y2= "153" />
    <path fill="none" stroke="#96ED79" stroke-width="0.300001" d="M317 86l-6 74m-23 343l-2 31"/>
    <path fill="none" stroke="#96ED79" stroke-width="0.300001" d="M332 90l-5 74m-17 253l-8 120"/>
    <path fill="none" stroke="#96ED79" stroke-width="0.300001" d="M359 98l-5 74m-7 99l-19 269"/>
    <line fill="none" stroke="#96ED79" stroke-width="0.300001" x1="383" y1="105" x2="353" y2= "543" />
    <line fill="none" stroke="#96ED79" stroke-width="0.300001" x1="398" y1="109" x2="368" y2= "545" />
    <line fill="none" stroke="#96ED79" stroke-width="0.300001" x1="403" y1="110" x2="373" y2= "546" />
    <line fill="none" stroke="#96ED79" stroke-width="0.300001" x1="427" y1="117" x2="398" y2= "549" />
    <line fill="none" stroke="#96ED79" stroke-width="0.300001" x1="443" y1="121" x2="413" y2= "551" />
    <line fill="none" stroke="#96ED79" stroke-width="0.300001" x1="485" y1="133" x2="456" y2= "557" />
    <line fill="none" stroke="#96ED79" stroke-width="0.300001" x1="509" y1="140" x2="480" y2= "560" />
    <line fill="none" stroke="#96ED79" stroke-width="0.300001" x1="525" y1="144" x2="496" y2= "562" />
    <line fill="none" stroke="#96ED79" stroke-width="0.300001" x1="548" y1="150" x2="520" y2= "565" />
    <line fill="none" stroke="#96ED79" stroke-width="0.300001" x1="572" y1="157" x2="546" y2= "537" />
    <line fill="none" stroke="#96ED79" stroke-width="0.300001" x1="588" y1="161" x2="567" y2= "461" />
    <line fill="none" stroke="#96ED79" stroke-width="0.300001" x1="610" y1="168" x2="598" y2= "351" />
    <line fill="none" stroke="#96ED79" stroke-width="0.300001" x1="634" y1="174" x2="630" y2= "235" />
    <line fill="none" stroke="#96ED79" stroke-width="0.300001" x1="250" y1="68" x2="168" y2= "62" />
    <line fill="none" stroke="#96ED79" stroke-width="0.300001" x1="421" y1="115" x2="159" y2= "98" />
    <line fill="none" stroke="#96ED79" stroke-width="0.300001" x1="420" y1="115" x2="159" y2= "97" />
    <line fill="none" stroke="#96ED79" stroke-width="0.300001" x1="574" y1="158" x2="219" y2= "134" />
    <line fill="none" stroke="#96ED79" stroke-width="0.300001" x1="645" y1="184" x2="319" y2= "162" />
    <line fill="none" stroke="#96ED79" stroke-width="0.300001" x1="634" y1="220" x2="364" y2= "202" />
    <line fill="none" stroke="#96ED79" stroke-width="0.300001" x1="626" y1="251" x2="357" y2= "233" />
    <line fill="none" stroke="#96ED79" stroke-width="0.300001" x1="613" y1="296" x2="345" y2= "278" />
    <line fill="none" stroke="#96ED79" stroke-width="0.300001" x1="619" y1="277" x2="350" y2= "259" />
    <line fill="none" stroke="#96ED79" stroke-width="0.300001" x1="603" y1="331" x2="336" y2= "313" />
    <line fill="none" stroke="#96ED79" stroke-width="0.300001" x1="601" y1="341" x2="334" y2= "323" />
    <line fill="none" stroke="#96ED79" stroke-width="0.300001" x1="592" y1="373" x2="326" y2= "355" />
    <line fill="none" stroke="#96ED79" stroke-width="0.300001" x1="586" y1="394" x2="320" y2= "376" />
    <line fill="none" stroke="#96ED79" stroke-width="0.300001" x1="576" y1="431" x2="311" y2= "413" />
    <line fill="none" stroke="#96ED79" stroke-width="0.300001" x1="567" y1="462" x2="303" y2= "444" />
    <line fill="none" stroke="#96ED79" stroke-width="0.300001" x1="555" y1="506" x2="292" y2= "489" />
    <line fill="none" stroke="#96ED79" stroke-width="0.300001" x1="560" y1="488" x2="296" y2= "470" />
    <line fill="none" stroke="#96ED79" stroke-width="0.300001" x1="545" y1="542" x2="283" y2= "524" />
   </g>
  </g>
 </g>
 <g id="landmarks-mz2">
  <metadata id="CorelCorpID_1Corel-Layer"/>
  <polygon id="m2lote1" fill="#35AD0E" points="620,243 381,176 292,526 532,558 "/>
  <polygon id="m2lote2" fill="#35AD0E" points="637,184 608,177 593,233 621,241 "/>
  <polygon id="m2lote3" fill="#35AD0E" points="607,176 580,169 564,225 591,233 "/>
  <polygon id="m2lote4" fill="#35AD0E" points="578,168 551,161 535,217 563,225 "/>
  <polygon id="m2lote5" fill="#35AD0E" points="550,160 522,153 506,209 534,217 "/>
  <polygon id="m2lote6" fill="#35AD0E" points="521,152 493,144 478,201 505,208 "/>
  <polygon id="m2lote7" fill="#35AD0E" points="492,144 465,136 449,193 477,200 "/>
  <polygon id="m2lote8" fill="#35AD0E" points="464,136 436,129 420,185 448,192 "/>
  <polygon id="m2lote9" fill="#35AD0E" points="435,128 407,120 391,177 419,184 "/>
  <polygon id="m2lote10" fill="#35AD0E" points="406,120 379,112 363,169 390,176 "/>
  <polygon id="m2lote11" fill="#35AD0E" points="378,112 350,104 334,161 362,168 "/>
  <polygon id="m2lote12" fill="#35AD0E" points="349,104 321,96 305,153 333,160 "/>
  <polygon id="m2lote13" fill="#35AD0E" points="320,96 292,88 277,145 304,152 "/>
  <polygon id="m2lote14" fill="#35AD0E" points="291,88 264,80 248,137 275,144 "/>
  <polygon id="m2lote15" fill="#35AD0E" points="263,80 235,72 219,129 247,136 "/>
  <polygon id="m2lote16" fill="#35AD0E" points="234,72 207,64 191,121 218,128 "/>
  <polygon id="m2lote17" fill="#35AD0E" points="205,64 175,56 161,113 189,120 "/>
 </g>
</svg>
