<?xml version="1.0" encoding="UTF-8"?>
<!DOCTYPE svg PUBLIC "-//W3C//DTD SVG 1.1//EN" "http://www.w3.org/Graphics/SVG/1.1/DTD/svg11.dtd">
<!-- Creator: CorelDRAW X8 -->
<svg xmlns="http://www.w3.org/2000/svg" xml:space="preserve" width="800px" height="600px" version="1.1" shape-rendering="geometricPrecision" text-rendering="geometricPrecision" image-rendering="optimizeQuality" fill-rule="evenodd" clip-rule="evenodd"
viewBox="0 0 800 600"
 xmlns:xlink="http://www.w3.org/1999/xlink">
 <g id="base">
  <metadata id="CorelCorpID_0Corel-Layer"/>
  <polygon fill="#35AD0E" points="488,485 306,461 370,209 217,166 230,117 565,210 "/>
  <g id="_2070010419984">
   <polygon fill="#63D13E" points="486,479 304,456 368,203 215,161 228,111 563,204 "/>
   <g>
    <line fill="none" stroke="#96ED79" stroke-width="0.300001" x1="230" y1="112" x2="226" y2= "164" />
    <line fill="none" stroke="#96ED79" stroke-width="0.300001" x1="241" y1="115" x2="237" y2= "167" />
    <line fill="none" stroke="#96ED79" stroke-width="0.300001" x1="253" y1="118" x2="249" y2= "170" />
    <line fill="none" stroke="#96ED79" stroke-width="0.300001" x1="270" y1="123" x2="266" y2= "175" />
    <line fill="none" stroke="#96ED79" stroke-width="0.300001" x1="281" y1="126" x2="277" y2= "178" />
    <line fill="none" stroke="#96ED79" stroke-width="0.300001" x1="294" y1="130" x2="290" y2= "182" />
    <line fill="none" stroke="#96ED79" stroke-width="0.300001" x1="311" y1="134" x2="307" y2= "186" />
    <line fill="none" stroke="#96ED79" stroke-width="0.300001" x1="322" y1="137" x2="318" y2= "189" />
    <path fill="none" stroke="#96ED79" stroke-width="0.300001" d="M339 142l-3 52m-13 189l-5 75"/>
    <path fill="none" stroke="#96ED79" stroke-width="0.300001" d="M356 147l-3 52m-7 91l-11 170"/>
    <path fill="none" stroke="#96ED79" stroke-width="0.300001" d="M367 150l-3 52m-2 27l-16 232"/>
    <line fill="none" stroke="#96ED79" stroke-width="0.300001" x1="313" y1="135" x2="309" y2= "187" />
    <path fill="none" stroke="#96ED79" stroke-width="0.300001" d="M330 140l-4 52m-16 242l-2 22"/>
    <path fill="none" stroke="#96ED79" stroke-width="0.300001" d="M341 143l-4 52m-12 178l-6 85"/>
    <path fill="none" stroke="#96ED79" stroke-width="0.300001" d="M360 148l-4 52m-5 71l-13 189"/>
    <line fill="none" stroke="#96ED79" stroke-width="0.300001" x1="377" y1="153" x2="356" y2= "462" />
    <line fill="none" stroke="#96ED79" stroke-width="0.300001" x1="388" y1="156" x2="367" y2= "464" />
    <line fill="none" stroke="#96ED79" stroke-width="0.300001" x1="391" y1="157" x2="370" y2= "464" />
    <line fill="none" stroke="#96ED79" stroke-width="0.300001" x1="408" y1="161" x2="387" y2= "467" />
    <line fill="none" stroke="#96ED79" stroke-width="0.300001" x1="419" y1="165" x2="398" y2= "468" />
    <line fill="none" stroke="#96ED79" stroke-width="0.300001" x1="449" y1="173" x2="429" y2= "472" />
    <line fill="none" stroke="#96ED79" stroke-width="0.300001" x1="466" y1="178" x2="446" y2= "474" />
    <line fill="none" stroke="#96ED79" stroke-width="0.300001" x1="477" y1="181" x2="457" y2= "476" />
    <line fill="none" stroke="#96ED79" stroke-width="0.300001" x1="493" y1="185" x2="473" y2= "478" />
    <line fill="none" stroke="#96ED79" stroke-width="0.300001" x1="510" y1="190" x2="492" y2= "458" />
    <line fill="none" stroke="#96ED79" stroke-width="0.300001" x1="521" y1="193" x2="507" y2= "405" />
    <line fill="none" stroke="#96ED79" stroke-width="0.300001" x1="537" y1="197" x2="529" y2= "327" />
    <line fill="none" stroke="#96ED79" stroke-width="0.300001" x1="554" y1="202" x2="552" y2= "245" />
    <line fill="none" stroke="#96ED79" stroke-width="0.300001" x1="283" y1="127" x2="225" y2= "123" />
    <line fill="none" stroke="#96ED79" stroke-width="0.300001" x1="404" y1="160" x2="219" y2= "148" />
    <line fill="none" stroke="#96ED79" stroke-width="0.300001" x1="403" y1="160" x2="219" y2= "148" />
    <line fill="none" stroke="#96ED79" stroke-width="0.300001" x1="512" y1="190" x2="261" y2= "173" />
    <line fill="none" stroke="#96ED79" stroke-width="0.300001" x1="562" y1="209" x2="332" y2= "193" />
    <line fill="none" stroke="#96ED79" stroke-width="0.300001" x1="554" y1="235" x2="364" y2= "222" />
    <line fill="none" stroke="#96ED79" stroke-width="0.300001" x1="548" y1="256" x2="358" y2= "244" />
    <line fill="none" stroke="#96ED79" stroke-width="0.300001" x1="540" y1="288" x2="350" y2= "275" />
    <line fill="none" stroke="#96ED79" stroke-width="0.300001" x1="543" y1="275" x2="354" y2= "262" />
    <line fill="none" stroke="#96ED79" stroke-width="0.300001" x1="533" y1="313" x2="344" y2= "300" />
    <line fill="none" stroke="#96ED79" stroke-width="0.300001" x1="531" y1="320" x2="342" y2= "307" />
    <line fill="none" stroke="#96ED79" stroke-width="0.300001" x1="524" y1="342" x2="336" y2= "330" />
    <line fill="none" stroke="#96ED79" stroke-width="0.300001" x1="520" y1="357" x2="333" y2= "345" />
    <line fill="none" stroke="#96ED79" stroke-width="0.300001" x1="513" y1="383" x2="326" y2= "370" />
    <line fill="none" stroke="#96ED79" stroke-width="0.300001" x1="507" y1="405" x2="320" y2= "392" />
    <line fill="none" stroke="#96ED79" stroke-width="0.300001" x1="498" y1="436" x2="312" y2= "424" />
    <line fill="none" stroke="#96ED79" stroke-width="0.300001" x1="502" y1="423" x2="316" y2= "411" />
    <line fill="none" stroke="#96ED79" stroke-width="0.300001" x1="491" y1="461" x2="306" y2= "449" />
   </g>
  </g>
 </g>
 <g id="landmarks-mz2">
  <metadata id="CorelCorpID_1Corel-Layer"/>
  <polygon id="m2lote1" fill="#35AD0E" points="545,251 375,203 312,451 482,473 "/>
  <polygon id="m2lote2" fill="#35AD0E" points="556,209 536,204 525,243 545,249 "/>
  <polygon id="m2lote3" fill="#35AD0E" points="535,204 516,198 505,238 524,243 "/>
  <polygon id="m2lote4" fill="#35AD0E" points="515,198 495,192 484,232 504,237 "/>
  <polygon id="m2lote5" fill="#35AD0E" points="495,192 475,187 464,227 484,232 "/>
  <polygon id="m2lote6" fill="#35AD0E" points="474,186 455,181 444,221 463,226 "/>
  <polygon id="m2lote7" fill="#35AD0E" points="454,181 435,175 423,215 443,220 "/>
  <polygon id="m2lote8" fill="#35AD0E" points="434,175 414,170 403,210 423,215 "/>
  <polygon id="m2lote9" fill="#35AD0E" points="414,169 394,164 383,204 402,209 "/>
  <polygon id="m2lote10" fill="#35AD0E" points="393,164 374,158 363,198 382,203 "/>
  <polygon id="m2lote11" fill="#35AD0E" points="373,158 354,153 342,192 362,198 "/>
  <polygon id="m2lote12" fill="#35AD0E" points="353,152 333,147 322,187 342,192 "/>
  <polygon id="m2lote13" fill="#35AD0E" points="332,147 313,141 302,181 321,186 "/>
  <polygon id="m2lote14" fill="#35AD0E" points="312,141 293,136 281,175 301,181 "/>
  <polygon id="m2lote15" fill="#35AD0E" points="292,135 273,130 261,170 281,175 "/>
  <polygon id="m2lote16" fill="#35AD0E" points="272,130 252,124 241,164 261,170 "/>
  <polygon id="m2lote17" fill="#35AD0E" points="251,124 230,118 220,158 240,164 "/>
 </g>
</svg>
