<?xml version="1.0" encoding="UTF-8"?>
<!DOCTYPE svg PUBLIC "-//W3C//DTD SVG 1.1//EN" "http://www.w3.org/Graphics/SVG/1.1/DTD/svg11.dtd">
<!-- Creator: CorelDRAW X8 -->
<svg xmlns="http://www.w3.org/2000/svg" xml:space="preserve" width="800px" height="600px" version="1.1" shape-rendering="geometricPrecision" text-rendering="geometricPrecision" image-rendering="optimizeQuality" fill-rule="evenodd" clip-rule="evenodd"
viewBox="0 0 800 600"
 xmlns:xlink="http://www.w3.org/1999/xlink">
 <g id="base">
  <metadata id="CorelCorpID_0Corel-Layer"/>
  <polygon fill="#35AD0E" points="257,144 596,248 529,464 191,361 "/>
  <g id="_2070022482672">
   <polygon fill="#63D13E" points="257,142 590,245 525,458 192,356 "/>
   <g>
    <line fill="none" stroke="#96ED79" stroke-width="0.300001" x1="258" y1="143" x2="192" y2= "355" />
    <line fill="none" stroke="#96ED79" stroke-width="0.300001" x1="262" y1="144" x2="196" y2= "357" />
    <line fill="none" stroke="#96ED79" stroke-width="0.300001" x1="270" y1="146" x2="204" y2= "359" />
    <line fill="none" stroke="#96ED79" stroke-width="0.300001" x1="277" y1="148" x2="210" y2= "361" />
    <line fill="none" stroke="#96ED79" stroke-width="0.300001" x1="281" y1="150" x2="215" y2= "363" />
    <line fill="none" stroke="#96ED79" stroke-width="0.300001" x1="282" y1="150" x2="216" y2= "363" />
    <line fill="none" stroke="#96ED79" stroke-width="0.300001" x1="289" y1="152" x2="223" y2= "365" />
    <line fill="none" stroke="#96ED79" stroke-width="0.300001" x1="294" y1="154" x2="227" y2= "367" />
    <line fill="none" stroke="#96ED79" stroke-width="0.300001" x1="305" y1="157" x2="239" y2= "370" />
    <line fill="none" stroke="#96ED79" stroke-width="0.300001" x1="312" y1="159" x2="246" y2= "372" />
    <line fill="none" stroke="#96ED79" stroke-width="0.300001" x1="317" y1="161" x2="250" y2= "374" />
    <line fill="none" stroke="#96ED79" stroke-width="0.300001" x1="323" y1="163" x2="257" y2= "376" />
    <line fill="none" stroke="#96ED79" stroke-width="0.300001" x1="330" y1="165" x2="263" y2= "378" />
    <line fill="none" stroke="#96ED79" stroke-width="0.300001" x1="334" y1="166" x2="268" y2= "379" />
    <line fill="none" stroke="#96ED79" stroke-width="0.300001" x1="341" y1="168" x2="274" y2= "381" />
    <line fill="none" stroke="#96ED79" stroke-width="0.300001" x1="347" y1="170" x2="281" y2= "383" />
    <line fill="none" stroke="#96ED79" stroke-width="0.300001" x1="352" y1="171" x2="285" y2= "384" />
    <line fill="none" stroke="#96ED79" stroke-width="0.300001" x1="356" y1="173" x2="290" y2= "386" />
    <line fill="none" stroke="#96ED79" stroke-width="0.300001" x1="363" y1="175" x2="297" y2= "388" />
    <line fill="none" stroke="#96ED79" stroke-width="0.300001" x1="368" y1="176" x2="301" y2= "389" />
    <line fill="none" stroke="#96ED79" stroke-width="0.300001" x1="373" y1="178" x2="306" y2= "391" />
    <line fill="none" stroke="#96ED79" stroke-width="0.300001" x1="379" y1="180" x2="313" y2= "393" />
    <line fill="none" stroke="#96ED79" stroke-width="0.300001" x1="384" y1="181" x2="318" y2= "394" />
    <line fill="none" stroke="#96ED79" stroke-width="0.300001" x1="391" y1="183" x2="324" y2= "396" />
    <line fill="none" stroke="#96ED79" stroke-width="0.300001" x1="398" y1="186" x2="331" y2= "398" />
    <line fill="none" stroke="#96ED79" stroke-width="0.300001" x1="402" y1="187" x2="336" y2= "400" />
    <line fill="none" stroke="#96ED79" stroke-width="0.300001" x1="380" y1="180" x2="314" y2= "393" />
    <line fill="none" stroke="#96ED79" stroke-width="0.300001" x1="387" y1="182" x2="321" y2= "395" />
    <line fill="none" stroke="#96ED79" stroke-width="0.300001" x1="392" y1="184" x2="325" y2= "397" />
    <line fill="none" stroke="#96ED79" stroke-width="0.300001" x1="399" y1="186" x2="333" y2= "399" />
    <line fill="none" stroke="#96ED79" stroke-width="0.300001" x1="406" y1="188" x2="339" y2= "401" />
    <line fill="none" stroke="#96ED79" stroke-width="0.300001" x1="410" y1="189" x2="344" y2= "402" />
    <line fill="none" stroke="#96ED79" stroke-width="0.300001" x1="411" y1="190" x2="345" y2= "403" />
    <line fill="none" stroke="#96ED79" stroke-width="0.300001" x1="418" y1="192" x2="352" y2= "405" />
    <line fill="none" stroke="#96ED79" stroke-width="0.300001" x1="423" y1="193" x2="356" y2= "406" />
    <line fill="none" stroke="#96ED79" stroke-width="0.300001" x1="435" y1="197" x2="368" y2= "410" />
    <line fill="none" stroke="#96ED79" stroke-width="0.300001" x1="441" y1="199" x2="375" y2= "412" />
    <line fill="none" stroke="#96ED79" stroke-width="0.300001" x1="446" y1="200" x2="379" y2= "413" />
    <line fill="none" stroke="#96ED79" stroke-width="0.300001" x1="452" y1="202" x2="386" y2= "415" />
    <line fill="none" stroke="#96ED79" stroke-width="0.300001" x1="459" y1="204" x2="393" y2= "417" />
    <line fill="none" stroke="#96ED79" stroke-width="0.300001" x1="463" y1="206" x2="397" y2= "419" />
    <line fill="none" stroke="#96ED79" stroke-width="0.300001" x1="470" y1="208" x2="403" y2= "420" />
    <line fill="none" stroke="#96ED79" stroke-width="0.300001" x1="476" y1="210" x2="410" y2= "423" />
    <line fill="none" stroke="#96ED79" stroke-width="0.300001" x1="481" y1="211" x2="415" y2= "424" />
    <line fill="none" stroke="#96ED79" stroke-width="0.300001" x1="485" y1="212" x2="419" y2= "425" />
    <line fill="none" stroke="#96ED79" stroke-width="0.300001" x1="492" y1="215" x2="426" y2= "427" />
    <line fill="none" stroke="#96ED79" stroke-width="0.300001" x1="497" y1="216" x2="430" y2= "429" />
    <line fill="none" stroke="#96ED79" stroke-width="0.300001" x1="502" y1="217" x2="436" y2= "430" />
    <line fill="none" stroke="#96ED79" stroke-width="0.300001" x1="509" y1="220" x2="442" y2= "432" />
    <line fill="none" stroke="#96ED79" stroke-width="0.300001" x1="513" y1="221" x2="447" y2= "434" />
    <line fill="none" stroke="#96ED79" stroke-width="0.300001" x1="520" y1="223" x2="454" y2= "436" />
    <line fill="none" stroke="#96ED79" stroke-width="0.300001" x1="527" y1="225" x2="460" y2= "438" />
    <line fill="none" stroke="#96ED79" stroke-width="0.300001" x1="531" y1="226" x2="465" y2= "439" />
    <line fill="none" stroke="#96ED79" stroke-width="0.300001" x1="525" y1="224" x2="458" y2= "437" />
    <line fill="none" stroke="#96ED79" stroke-width="0.300001" x1="531" y1="227" x2="465" y2= "439" />
    <line fill="none" stroke="#96ED79" stroke-width="0.300001" x1="536" y1="228" x2="470" y2= "441" />
    <line fill="none" stroke="#96ED79" stroke-width="0.300001" x1="543" y1="230" x2="477" y2= "443" />
    <line fill="none" stroke="#96ED79" stroke-width="0.300001" x1="550" y1="232" x2="484" y2= "445" />
    <line fill="none" stroke="#96ED79" stroke-width="0.300001" x1="554" y1="234" x2="488" y2= "446" />
    <line fill="none" stroke="#96ED79" stroke-width="0.300001" x1="556" y1="234" x2="490" y2= "447" />
    <line fill="none" stroke="#96ED79" stroke-width="0.300001" x1="563" y1="236" x2="496" y2= "449" />
    <line fill="none" stroke="#96ED79" stroke-width="0.300001" x1="567" y1="237" x2="501" y2= "450" />
    <line fill="none" stroke="#96ED79" stroke-width="0.300001" x1="579" y1="241" x2="513" y2= "454" />
    <line fill="none" stroke="#96ED79" stroke-width="0.300001" x1="586" y1="243" x2="519" y2= "456" />
    <line fill="none" stroke="#96ED79" stroke-width="0.300001" x1="590" y1="245" x2="524" y2= "457" />
    <line fill="none" stroke="#96ED79" stroke-width="0.300001" x1="590" y1="247" x2="256" y2= "143" />
    <line fill="none" stroke="#96ED79" stroke-width="0.300001" x1="586" y1="257" x2="253" y2= "154" />
    <line fill="none" stroke="#96ED79" stroke-width="0.300001" x1="584" y1="266" x2="250" y2= "162" />
    <line fill="none" stroke="#96ED79" stroke-width="0.300001" x1="580" y1="279" x2="247" y2= "175" />
    <line fill="none" stroke="#96ED79" stroke-width="0.300001" x1="582" y1="274" x2="248" y2= "170" />
    <line fill="none" stroke="#96ED79" stroke-width="0.300001" x1="577" y1="289" x2="244" y2= "185" />
    <line fill="none" stroke="#96ED79" stroke-width="0.300001" x1="577" y1="289" x2="244" y2= "185" />
    <line fill="none" stroke="#96ED79" stroke-width="0.300001" x1="574" y1="298" x2="241" y2= "194" />
    <line fill="none" stroke="#96ED79" stroke-width="0.300001" x1="572" y1="304" x2="239" y2= "200" />
    <line fill="none" stroke="#96ED79" stroke-width="0.300001" x1="569" y1="314" x2="236" y2= "210" />
    <line fill="none" stroke="#96ED79" stroke-width="0.300001" x1="566" y1="323" x2="233" y2= "219" />
    <line fill="none" stroke="#96ED79" stroke-width="0.300001" x1="563" y1="336" x2="229" y2= "232" />
    <line fill="none" stroke="#96ED79" stroke-width="0.300001" x1="564" y1="330" x2="231" y2= "226" />
    <line fill="none" stroke="#96ED79" stroke-width="0.300001" x1="559" y1="346" x2="226" y2= "242" />
    <line fill="none" stroke="#96ED79" stroke-width="0.300001" x1="559" y1="348" x2="225" y2= "245" />
    <line fill="none" stroke="#96ED79" stroke-width="0.300001" x1="556" y1="357" x2="223" y2= "254" />
    <line fill="none" stroke="#96ED79" stroke-width="0.300001" x1="554" y1="363" x2="221" y2= "260" />
    <line fill="none" stroke="#96ED79" stroke-width="0.300001" x1="551" y1="374" x2="218" y2= "270" />
    <line fill="none" stroke="#96ED79" stroke-width="0.300001" x1="548" y1="383" x2="215" y2= "279" />
    <line fill="none" stroke="#96ED79" stroke-width="0.300001" x1="544" y1="395" x2="211" y2= "291" />
    <line fill="none" stroke="#96ED79" stroke-width="0.300001" x1="546" y1="390" x2="213" y2= "286" />
    <line fill="none" stroke="#96ED79" stroke-width="0.300001" x1="541" y1="405" x2="208" y2= "301" />
    <line fill="none" stroke="#96ED79" stroke-width="0.300001" x1="539" y1="414" x2="206" y2= "310" />
    <line fill="none" stroke="#96ED79" stroke-width="0.300001" x1="536" y1="423" x2="203" y2= "319" />
    <line fill="none" stroke="#96ED79" stroke-width="0.300001" x1="534" y1="429" x2="201" y2= "325" />
    <line fill="none" stroke="#96ED79" stroke-width="0.300001" x1="531" y1="439" x2="198" y2= "335" />
    <line fill="none" stroke="#96ED79" stroke-width="0.300001" x1="528" y1="448" x2="195" y2= "344" />
    <line fill="none" stroke="#96ED79" stroke-width="0.300001" x1="526" y1="455" x2="193" y2= "351" />
   </g>
  </g>
 </g>
 <g id="landmarks-mz20">
  <metadata id="CorelCorpID_1Corel-Layer"/>
  <polygon id="m20lote1" fill="#35AD0E" points="582,249 262,150 200,353 520,451 "/>
 </g>
</svg>
