<?xml version="1.0" encoding="UTF-8"?>
<!DOCTYPE svg PUBLIC "-//W3C//DTD SVG 1.1//EN" "http://www.w3.org/Graphics/SVG/1.1/DTD/svg11.dtd">
<!-- Creator: CorelDRAW X7 -->
<svg xmlns="http://www.w3.org/2000/svg" xml:space="preserve" width="800px" height="600px" version="1.1" shape-rendering="geometricPrecision" text-rendering="geometricPrecision" image-rendering="optimizeQuality" fill-rule="evenodd" clip-rule="evenodd"
viewBox="0 0 800 600"
 xmlns:xlink="http://www.w3.org/1999/xlink">
 <g id="base">
  <metadata id="CorelCorpID_0Corel-Layer"/>
  <polygon fill="#35AD0E" points="173,46 720,214 613,563 66,396 "/>
  <g id="_483444704">
   <polygon fill="#63D13E" points="173,43 711,209 606,552 68,388 "/>
   <g>
    <line fill="none" stroke="#96ED79" stroke-width="0.300001" x1="175" y1="44" x2="68" y2= "386" />
    <line fill="none" stroke="#96ED79" stroke-width="0.300001" x1="182" y1="46" x2="75" y2= "390" />
    <line fill="none" stroke="#96ED79" stroke-width="0.300001" x1="194" y1="50" x2="87" y2= "394" />
    <line fill="none" stroke="#96ED79" stroke-width="0.300001" x1="205" y1="53" x2="98" y2= "397" />
    <line fill="none" stroke="#96ED79" stroke-width="0.300001" x1="212" y1="55" x2="105" y2= "399" />
    <line fill="none" stroke="#96ED79" stroke-width="0.300001" x1="214" y1="56" x2="107" y2= "400" />
    <line fill="none" stroke="#96ED79" stroke-width="0.300001" x1="225" y1="60" x2="118" y2= "403" />
    <line fill="none" stroke="#96ED79" stroke-width="0.300001" x1="232" y1="62" x2="125" y2= "406" />
    <line fill="none" stroke="#96ED79" stroke-width="0.300001" x1="252" y1="68" x2="145" y2= "411" />
    <line fill="none" stroke="#96ED79" stroke-width="0.300001" x1="262" y1="71" x2="155" y2= "415" />
    <line fill="none" stroke="#96ED79" stroke-width="0.300001" x1="270" y1="73" x2="163" y2= "417" />
    <line fill="none" stroke="#96ED79" stroke-width="0.300001" x1="280" y1="76" x2="173" y2= "420" />
    <line fill="none" stroke="#96ED79" stroke-width="0.300001" x1="291" y1="80" x2="184" y2= "423" />
    <line fill="none" stroke="#96ED79" stroke-width="0.300001" x1="298" y1="82" x2="191" y2= "426" />
    <line fill="none" stroke="#96ED79" stroke-width="0.300001" x1="308" y1="85" x2="201" y2= "429" />
    <line fill="none" stroke="#96ED79" stroke-width="0.300001" x1="319" y1="88" x2="212" y2= "432" />
    <line fill="none" stroke="#96ED79" stroke-width="0.300001" x1="326" y1="90" x2="219" y2= "434" />
    <line fill="none" stroke="#96ED79" stroke-width="0.300001" x1="334" y1="93" x2="227" y2= "437" />
    <line fill="none" stroke="#96ED79" stroke-width="0.300001" x1="345" y1="96" x2="238" y2= "440" />
    <line fill="none" stroke="#96ED79" stroke-width="0.300001" x1="352" y1="98" x2="245" y2= "442" />
    <line fill="none" stroke="#96ED79" stroke-width="0.300001" x1="360" y1="101" x2="253" y2= "445" />
    <line fill="none" stroke="#96ED79" stroke-width="0.300001" x1="371" y1="104" x2="264" y2= "448" />
    <line fill="none" stroke="#96ED79" stroke-width="0.300001" x1="378" y1="106" x2="271" y2= "450" />
    <line fill="none" stroke="#96ED79" stroke-width="0.300001" x1="389" y1="110" x2="282" y2= "453" />
    <line fill="none" stroke="#96ED79" stroke-width="0.300001" x1="400" y1="113" x2="293" y2= "457" />
    <line fill="none" stroke="#96ED79" stroke-width="0.300001" x1="407" y1="115" x2="300" y2= "459" />
    <line fill="none" stroke="#96ED79" stroke-width="0.300001" x1="373" y1="105" x2="265" y2= "448" />
    <line fill="none" stroke="#96ED79" stroke-width="0.300001" x1="383" y1="108" x2="276" y2= "452" />
    <line fill="none" stroke="#96ED79" stroke-width="0.300001" x1="391" y1="110" x2="283" y2= "454" />
    <line fill="none" stroke="#96ED79" stroke-width="0.300001" x1="403" y1="114" x2="296" y2= "458" />
    <line fill="none" stroke="#96ED79" stroke-width="0.300001" x1="413" y1="117" x2="306" y2= "461" />
    <line fill="none" stroke="#96ED79" stroke-width="0.300001" x1="421" y1="119" x2="313" y2= "463" />
    <line fill="none" stroke="#96ED79" stroke-width="0.300001" x1="423" y1="120" x2="316" y2= "464" />
    <line fill="none" stroke="#96ED79" stroke-width="0.300001" x1="434" y1="123" x2="327" y2= "467" />
    <line fill="none" stroke="#96ED79" stroke-width="0.300001" x1="441" y1="126" x2="334" y2= "469" />
    <line fill="none" stroke="#96ED79" stroke-width="0.300001" x1="460" y1="131" x2="353" y2= "475" />
    <line fill="none" stroke="#96ED79" stroke-width="0.300001" x1="471" y1="135" x2="364" y2= "478" />
    <line fill="none" stroke="#96ED79" stroke-width="0.300001" x1="478" y1="137" x2="371" y2= "481" />
    <line fill="none" stroke="#96ED79" stroke-width="0.300001" x1="488" y1="140" x2="381" y2= "484" />
    <line fill="none" stroke="#96ED79" stroke-width="0.300001" x1="499" y1="144" x2="392" y2= "487" />
    <line fill="none" stroke="#96ED79" stroke-width="0.300001" x1="506" y1="146" x2="399" y2= "489" />
    <line fill="none" stroke="#96ED79" stroke-width="0.300001" x1="517" y1="149" x2="410" y2= "492" />
    <line fill="none" stroke="#96ED79" stroke-width="0.300001" x1="528" y1="152" x2="421" y2= "496" />
    <line fill="none" stroke="#96ED79" stroke-width="0.300001" x1="535" y1="154" x2="428" y2= "498" />
    <line fill="none" stroke="#96ED79" stroke-width="0.300001" x1="542" y1="157" x2="435" y2= "500" />
    <line fill="none" stroke="#96ED79" stroke-width="0.300001" x1="553" y1="160" x2="446" y2= "504" />
    <line fill="none" stroke="#96ED79" stroke-width="0.300001" x1="560" y1="162" x2="453" y2= "506" />
    <line fill="none" stroke="#96ED79" stroke-width="0.300001" x1="569" y1="165" x2="462" y2= "508" />
    <line fill="none" stroke="#96ED79" stroke-width="0.300001" x1="579" y1="168" x2="472" y2= "512" />
    <line fill="none" stroke="#96ED79" stroke-width="0.300001" x1="586" y1="170" x2="480" y2= "514" />
    <line fill="none" stroke="#96ED79" stroke-width="0.300001" x1="598" y1="174" x2="491" y2= "517" />
    <line fill="none" stroke="#96ED79" stroke-width="0.300001" x1="609" y1="177" x2="502" y2= "521" />
    <line fill="none" stroke="#96ED79" stroke-width="0.300001" x1="616" y1="179" x2="509" y2= "523" />
    <line fill="none" stroke="#96ED79" stroke-width="0.300001" x1="605" y1="176" x2="498" y2= "520" />
    <line fill="none" stroke="#96ED79" stroke-width="0.300001" x1="616" y1="179" x2="509" y2= "523" />
    <line fill="none" stroke="#96ED79" stroke-width="0.300001" x1="623" y1="182" x2="516" y2= "525" />
    <line fill="none" stroke="#96ED79" stroke-width="0.300001" x1="635" y1="185" x2="528" y2= "529" />
    <line fill="none" stroke="#96ED79" stroke-width="0.300001" x1="646" y1="189" x2="539" y2= "532" />
    <line fill="none" stroke="#96ED79" stroke-width="0.300001" x1="653" y1="191" x2="546" y2= "534" />
    <line fill="none" stroke="#96ED79" stroke-width="0.300001" x1="656" y1="191" x2="549" y2= "535" />
    <line fill="none" stroke="#96ED79" stroke-width="0.300001" x1="667" y1="195" x2="560" y2= "538" />
    <line fill="none" stroke="#96ED79" stroke-width="0.300001" x1="674" y1="197" x2="567" y2= "540" />
    <line fill="none" stroke="#96ED79" stroke-width="0.300001" x1="693" y1="203" x2="586" y2= "546" />
    <line fill="none" stroke="#96ED79" stroke-width="0.300001" x1="704" y1="206" x2="597" y2= "550" />
    <line fill="none" stroke="#96ED79" stroke-width="0.300001" x1="711" y1="208" x2="604" y2= "552" />
    <line fill="none" stroke="#96ED79" stroke-width="0.300001" x1="710" y1="212" x2="172" y2= "45" />
    <line fill="none" stroke="#96ED79" stroke-width="0.300001" x1="705" y1="229" x2="167" y2= "62" />
    <line fill="none" stroke="#96ED79" stroke-width="0.300001" x1="701" y1="243" x2="163" y2= "76" />
    <line fill="none" stroke="#96ED79" stroke-width="0.300001" x1="695" y1="264" x2="157" y2= "96" />
    <line fill="none" stroke="#96ED79" stroke-width="0.300001" x1="697" y1="255" x2="159" y2= "88" />
    <line fill="none" stroke="#96ED79" stroke-width="0.300001" x1="690" y1="280" x2="152" y2= "112" />
    <line fill="none" stroke="#96ED79" stroke-width="0.300001" x1="690" y1="280" x2="152" y2= "112" />
    <line fill="none" stroke="#96ED79" stroke-width="0.300001" x1="685" y1="294" x2="147" y2= "127" />
    <line fill="none" stroke="#96ED79" stroke-width="0.300001" x1="682" y1="304" x2="144" y2= "136" />
    <line fill="none" stroke="#96ED79" stroke-width="0.300001" x1="677" y1="321" x2="139" y2= "153" />
    <line fill="none" stroke="#96ED79" stroke-width="0.300001" x1="673" y1="335" x2="135" y2= "167" />
    <line fill="none" stroke="#96ED79" stroke-width="0.300001" x1="667" y1="355" x2="129" y2= "188" />
    <line fill="none" stroke="#96ED79" stroke-width="0.300001" x1="669" y1="347" x2="131" y2= "179" />
    <line fill="none" stroke="#96ED79" stroke-width="0.300001" x1="662" y1="372" x2="124" y2= "204" />
    <line fill="none" stroke="#96ED79" stroke-width="0.300001" x1="660" y1="376" x2="123" y2= "209" />
    <line fill="none" stroke="#96ED79" stroke-width="0.300001" x1="656" y1="391" x2="118" y2= "223" />
    <line fill="none" stroke="#96ED79" stroke-width="0.300001" x1="653" y1="400" x2="115" y2= "233" />
    <line fill="none" stroke="#96ED79" stroke-width="0.300001" x1="648" y1="417" x2="110" y2= "249" />
    <line fill="none" stroke="#96ED79" stroke-width="0.300001" x1="643" y1="431" x2="106" y2= "264" />
    <line fill="none" stroke="#96ED79" stroke-width="0.300001" x1="637" y1="452" x2="100" y2= "284" />
    <line fill="none" stroke="#96ED79" stroke-width="0.300001" x1="640" y1="443" x2="102" y2= "276" />
    <line fill="none" stroke="#96ED79" stroke-width="0.300001" x1="632" y1="468" x2="95" y2= "300" />
    <line fill="none" stroke="#96ED79" stroke-width="0.300001" x1="628" y1="481" x2="90" y2= "314" />
    <line fill="none" stroke="#96ED79" stroke-width="0.300001" x1="624" y1="496" x2="86" y2= "328" />
    <line fill="none" stroke="#96ED79" stroke-width="0.300001" x1="621" y1="505" x2="83" y2= "338" />
    <line fill="none" stroke="#96ED79" stroke-width="0.300001" x1="615" y1="522" x2="78" y2= "355" />
    <line fill="none" stroke="#96ED79" stroke-width="0.300001" x1="611" y1="536" x2="74" y2= "369" />
    <line fill="none" stroke="#96ED79" stroke-width="0.300001" x1="607" y1="548" x2="70" y2= "381" />
   </g>
  </g>
  <path fill="white" fill-rule="nonzero" d="M677 -209c1,1 2,2 1,4 0,1 -2,2 -3,2l-140 -43c-2,0 -3,-2 -2,-3 0,-2 2,-3 3,-2l141 42z"/>
 </g>
 <g id="landmarks-mz20">
  <metadata id="CorelCorpID_1Corel-Layer"/>
  <polygon id="m20lote1" fill="#35AD0E" points="698,215 182,56 81,383 597,541 "/>
 </g>
</svg>
