<?xml version="1.0" encoding="UTF-8"?>
<!DOCTYPE svg PUBLIC "-//W3C//DTD SVG 1.1//EN" "http://www.w3.org/Graphics/SVG/1.1/DTD/svg11.dtd">
<!-- Creator: CorelDRAW X8 -->
<svg xmlns="http://www.w3.org/2000/svg" xml:space="preserve" width="800px" height="600px" version="1.1" shape-rendering="geometricPrecision" text-rendering="geometricPrecision" image-rendering="optimizeQuality" fill-rule="evenodd" clip-rule="evenodd"
viewBox="0 0 800 600"
 xmlns:xlink="http://www.w3.org/1999/xlink">
 <g id="base">
  <metadata id="CorelCorpID_0Corel-Layer"/>
  <polygon fill="#35AD0E" points="304,139 561,297 504,483 226,398 "/>
  <g id="_2070008485120">
   <polygon fill="#63D13E" points="271,232 553,319 503,480 221,393 "/>
   <g>
    <line fill="none" stroke="#96ED79" stroke-width="0.300001" x1="275" y1="233" x2="225" y2= "394" />
    <line fill="none" stroke="#96ED79" stroke-width="0.300001" x1="279" y1="234" x2="229" y2= "395" />
    <line fill="none" stroke="#96ED79" stroke-width="0.300001" x1="282" y1="235" x2="232" y2= "396" />
    <line fill="none" stroke="#96ED79" stroke-width="0.300001" x1="287" y1="237" x2="237" y2= "397" />
    <line fill="none" stroke="#96ED79" stroke-width="0.300001" x1="291" y1="238" x2="241" y2= "399" />
    <line fill="none" stroke="#96ED79" stroke-width="0.300001" x1="294" y1="239" x2="244" y2= "400" />
    <line fill="none" stroke="#96ED79" stroke-width="0.300001" x1="295" y1="239" x2="245" y2= "400" />
    <line fill="none" stroke="#96ED79" stroke-width="0.300001" x1="299" y1="240" x2="249" y2= "401" />
    <line fill="none" stroke="#96ED79" stroke-width="0.300001" x1="302" y1="241" x2="252" y2= "402" />
    <line fill="none" stroke="#96ED79" stroke-width="0.300001" x1="309" y1="244" x2="259" y2= "404" />
    <line fill="none" stroke="#96ED79" stroke-width="0.300001" x1="314" y1="245" x2="264" y2= "406" />
    <line fill="none" stroke="#96ED79" stroke-width="0.300001" x1="317" y1="246" x2="266" y2= "407" />
    <line fill="none" stroke="#96ED79" stroke-width="0.300001" x1="321" y1="247" x2="271" y2= "408" />
    <line fill="none" stroke="#96ED79" stroke-width="0.300001" x1="325" y1="249" x2="275" y2= "409" />
    <line fill="none" stroke="#96ED79" stroke-width="0.300001" x1="328" y1="249" x2="278" y2= "410" />
    <line fill="none" stroke="#96ED79" stroke-width="0.300001" x1="332" y1="251" x2="282" y2= "411" />
    <line fill="none" stroke="#96ED79" stroke-width="0.300001" x1="336" y1="252" x2="286" y2= "413" />
    <line fill="none" stroke="#96ED79" stroke-width="0.300001" x1="339" y1="253" x2="289" y2= "413" />
    <line fill="none" stroke="#96ED79" stroke-width="0.300001" x1="342" y1="254" x2="292" y2= "414" />
    <line fill="none" stroke="#96ED79" stroke-width="0.300001" x1="346" y1="255" x2="296" y2= "416" />
    <line fill="none" stroke="#96ED79" stroke-width="0.300001" x1="349" y1="256" x2="299" y2= "417" />
    <line fill="none" stroke="#96ED79" stroke-width="0.300001" x1="352" y1="257" x2="302" y2= "418" />
    <line fill="none" stroke="#96ED79" stroke-width="0.300001" x1="357" y1="258" x2="307" y2= "419" />
    <line fill="none" stroke="#96ED79" stroke-width="0.300001" x1="359" y1="259" x2="309" y2= "420" />
    <line fill="none" stroke="#96ED79" stroke-width="0.300001" x1="364" y1="261" x2="314" y2= "421" />
    <line fill="none" stroke="#96ED79" stroke-width="0.300001" x1="368" y1="262" x2="318" y2= "422" />
    <line fill="none" stroke="#96ED79" stroke-width="0.300001" x1="371" y1="263" x2="321" y2= "423" />
    <line fill="none" stroke="#96ED79" stroke-width="0.300001" x1="357" y1="259" x2="307" y2= "419" />
    <line fill="none" stroke="#96ED79" stroke-width="0.300001" x1="361" y1="260" x2="311" y2= "420" />
    <line fill="none" stroke="#96ED79" stroke-width="0.300001" x1="364" y1="261" x2="314" y2= "421" />
    <line fill="none" stroke="#96ED79" stroke-width="0.300001" x1="369" y1="262" x2="319" y2= "423" />
    <line fill="none" stroke="#96ED79" stroke-width="0.300001" x1="373" y1="264" x2="323" y2= "424" />
    <line fill="none" stroke="#96ED79" stroke-width="0.300001" x1="376" y1="264" x2="326" y2= "425" />
    <line fill="none" stroke="#96ED79" stroke-width="0.300001" x1="377" y1="265" x2="327" y2= "425" />
    <line fill="none" stroke="#96ED79" stroke-width="0.300001" x1="381" y1="266" x2="331" y2= "427" />
    <line fill="none" stroke="#96ED79" stroke-width="0.300001" x1="384" y1="267" x2="334" y2= "427" />
    <line fill="none" stroke="#96ED79" stroke-width="0.300001" x1="392" y1="269" x2="342" y2= "430" />
    <line fill="none" stroke="#96ED79" stroke-width="0.300001" x1="396" y1="271" x2="346" y2= "431" />
    <line fill="none" stroke="#96ED79" stroke-width="0.300001" x1="399" y1="272" x2="349" y2= "432" />
    <line fill="none" stroke="#96ED79" stroke-width="0.300001" x1="403" y1="273" x2="353" y2= "433" />
    <line fill="none" stroke="#96ED79" stroke-width="0.300001" x1="407" y1="275" x2="357" y2= "435" />
    <line fill="none" stroke="#96ED79" stroke-width="0.300001" x1="409" y1="277" x2="360" y2= "435" />
    <line fill="none" stroke="#96ED79" stroke-width="0.300001" x1="414" y1="276" x2="364" y2= "437" />
    <line fill="none" stroke="#96ED79" stroke-width="0.300001" x1="418" y1="278" x2="368" y2= "438" />
    <line fill="none" stroke="#96ED79" stroke-width="0.300001" x1="421" y1="280" x2="371" y2= "439" />
    <line fill="none" stroke="#96ED79" stroke-width="0.300001" x1="424" y1="279" x2="374" y2= "440" />
    <line fill="none" stroke="#96ED79" stroke-width="0.300001" x1="428" y1="283" x2="378" y2= "441" />
    <line fill="none" stroke="#96ED79" stroke-width="0.300001" x1="430" y1="285" x2="381" y2= "442" />
    <line fill="none" stroke="#96ED79" stroke-width="0.300001" x1="434" y1="283" x2="385" y2= "443" />
    <line fill="none" stroke="#96ED79" stroke-width="0.300001" x1="439" y1="284" x2="389" y2= "444" />
    <line fill="none" stroke="#96ED79" stroke-width="0.300001" x1="442" y1="285" x2="392" y2= "445" />
    <line fill="none" stroke="#96ED79" stroke-width="0.300001" x1="446" y1="286" x2="396" y2= "447" />
    <line fill="none" stroke="#96ED79" stroke-width="0.300001" x1="450" y1="288" x2="400" y2= "448" />
    <line fill="none" stroke="#96ED79" stroke-width="0.300001" x1="453" y1="288" x2="403" y2= "449" />
    <line fill="none" stroke="#96ED79" stroke-width="0.300001" x1="449" y1="287" x2="399" y2= "447" />
    <line fill="none" stroke="#96ED79" stroke-width="0.300001" x1="453" y1="289" x2="403" y2= "449" />
    <line fill="none" stroke="#96ED79" stroke-width="0.300001" x1="456" y1="289" x2="406" y2= "450" />
    <line fill="none" stroke="#96ED79" stroke-width="0.300001" x1="461" y1="291" x2="411" y2= "451" />
    <line fill="none" stroke="#96ED79" stroke-width="0.300001" x1="465" y1="292" x2="415" y2= "452" />
    <line fill="none" stroke="#96ED79" stroke-width="0.300001" x1="468" y1="293" x2="418" y2= "453" />
    <line fill="none" stroke="#96ED79" stroke-width="0.300001" x1="469" y1="293" x2="419" y2= "454" />
    <line fill="none" stroke="#96ED79" stroke-width="0.300001" x1="473" y1="295" x2="423" y2= "455" />
    <line fill="none" stroke="#96ED79" stroke-width="0.300001" x1="476" y1="296" x2="426" y2= "456" />
    <line fill="none" stroke="#96ED79" stroke-width="0.300001" x1="483" y1="298" x2="434" y2= "458" />
    <line fill="none" stroke="#96ED79" stroke-width="0.300001" x1="488" y1="299" x2="438" y2= "459" />
    <line fill="none" stroke="#96ED79" stroke-width="0.300001" x1="491" y1="300" x2="441" y2= "460" />
    <line fill="none" stroke="#96ED79" stroke-width="0.300001" x1="495" y1="301" x2="445" y2= "462" />
    <line fill="none" stroke="#96ED79" stroke-width="0.300001" x1="499" y1="303" x2="449" y2= "463" />
    <line fill="none" stroke="#96ED79" stroke-width="0.300001" x1="502" y1="304" x2="452" y2= "464" />
    <line fill="none" stroke="#96ED79" stroke-width="0.300001" x1="506" y1="305" x2="456" y2= "465" />
    <line fill="none" stroke="#96ED79" stroke-width="0.300001" x1="510" y1="306" x2="460" y2= "466" />
    <line fill="none" stroke="#96ED79" stroke-width="0.300001" x1="513" y1="307" x2="463" y2= "467" />
    <line fill="none" stroke="#96ED79" stroke-width="0.300001" x1="516" y1="308" x2="466" y2= "468" />
    <line fill="none" stroke="#96ED79" stroke-width="0.300001" x1="520" y1="309" x2="470" y2= "469" />
    <line fill="none" stroke="#96ED79" stroke-width="0.300001" x1="523" y1="310" x2="473" y2= "470" />
    <line fill="none" stroke="#96ED79" stroke-width="0.300001" x1="526" y1="311" x2="476" y2= "471" />
    <line fill="none" stroke="#96ED79" stroke-width="0.300001" x1="531" y1="313" x2="481" y2= "473" />
    <line fill="none" stroke="#96ED79" stroke-width="0.300001" x1="533" y1="313" x2="484" y2= "474" />
    <line fill="none" stroke="#96ED79" stroke-width="0.300001" x1="538" y1="315" x2="488" y2= "475" />
    <line fill="none" stroke="#96ED79" stroke-width="0.300001" x1="542" y1="316" x2="492" y2= "476" />
    <line fill="none" stroke="#96ED79" stroke-width="0.300001" x1="545" y1="317" x2="495" y2= "477" />
    <line fill="none" stroke="#96ED79" stroke-width="0.300001" x1="549" y1="318" x2="500" y2= "478" />
    <line fill="none" stroke="#96ED79" stroke-width="0.300001" x1="552" y1="323" x2="270" y2= "235" />
    <line fill="none" stroke="#96ED79" stroke-width="0.300001" x1="550" y1="328" x2="268" y2= "241" />
    <line fill="none" stroke="#96ED79" stroke-width="0.300001" x1="549" y1="332" x2="267" y2= "245" />
    <line fill="none" stroke="#96ED79" stroke-width="0.300001" x1="547" y1="339" x2="265" y2= "251" />
    <line fill="none" stroke="#96ED79" stroke-width="0.300001" x1="545" y1="344" x2="264" y2= "257" />
    <line fill="none" stroke="#96ED79" stroke-width="0.300001" x1="542" y1="353" x2="261" y2= "265" />
    <line fill="none" stroke="#96ED79" stroke-width="0.300001" x1="543" y1="349" x2="262" y2= "262" />
    <line fill="none" stroke="#96ED79" stroke-width="0.300001" x1="540" y1="359" x2="259" y2= "271" />
    <line fill="none" stroke="#96ED79" stroke-width="0.300001" x1="540" y1="359" x2="259" y2= "271" />
    <line fill="none" stroke="#96ED79" stroke-width="0.300001" x1="539" y1="365" x2="257" y2= "277" />
    <line fill="none" stroke="#96ED79" stroke-width="0.300001" x1="537" y1="368" x2="256" y2= "281" />
    <line fill="none" stroke="#96ED79" stroke-width="0.300001" x1="535" y1="375" x2="254" y2= "287" />
    <line fill="none" stroke="#96ED79" stroke-width="0.300001" x1="534" y1="381" x2="252" y2= "293" />
    <line fill="none" stroke="#96ED79" stroke-width="0.300001" x1="531" y1="389" x2="250" y2= "301" />
    <line fill="none" stroke="#96ED79" stroke-width="0.300001" x1="532" y1="385" x2="251" y2= "298" />
    <line fill="none" stroke="#96ED79" stroke-width="0.300001" x1="529" y1="395" x2="248" y2= "307" />
    <line fill="none" stroke="#96ED79" stroke-width="0.300001" x1="529" y1="397" x2="247" y2= "309" />
    <line fill="none" stroke="#96ED79" stroke-width="0.300001" x1="527" y1="403" x2="246" y2= "315" />
    <line fill="none" stroke="#96ED79" stroke-width="0.300001" x1="526" y1="406" x2="244" y2= "319" />
    <line fill="none" stroke="#96ED79" stroke-width="0.300001" x1="524" y1="413" x2="242" y2= "325" />
    <line fill="none" stroke="#96ED79" stroke-width="0.300001" x1="522" y1="419" x2="241" y2= "331" />
    <line fill="none" stroke="#96ED79" stroke-width="0.300001" x1="519" y1="427" x2="238" y2= "339" />
    <line fill="none" stroke="#96ED79" stroke-width="0.300001" x1="520" y1="423" x2="239" y2= "336" />
    <line fill="none" stroke="#96ED79" stroke-width="0.300001" x1="517" y1="433" x2="236" y2= "345" />
    <line fill="none" stroke="#96ED79" stroke-width="0.300001" x1="516" y1="438" x2="234" y2= "351" />
    <line fill="none" stroke="#96ED79" stroke-width="0.300001" x1="514" y1="444" x2="233" y2= "356" />
    <line fill="none" stroke="#96ED79" stroke-width="0.300001" x1="513" y1="448" x2="232" y2= "360" />
    <line fill="none" stroke="#96ED79" stroke-width="0.300001" x1="511" y1="455" x2="229" y2= "367" />
    <line fill="none" stroke="#96ED79" stroke-width="0.300001" x1="509" y1="460" x2="228" y2= "372" />
    <line fill="none" stroke="#96ED79" stroke-width="0.300001" x1="507" y1="468" x2="225" y2= "381" />
    <line fill="none" stroke="#96ED79" stroke-width="0.300001" x1="508" y1="465" x2="226" y2= "377" />
    <line fill="none" stroke="#96ED79" stroke-width="0.300001" x1="505" y1="475" x2="223" y2= "387" />
   </g>
  </g>
  <path fill="white" fill-rule="nonzero" d="M504 390c3,1 4,4 3,6 0,2 -3,4 -5,3l-234 -71c-3,-1 -4,-3 -3,-6 0,-2 3,-4 5,-3l234 71z"/>
  <g id="_2070023596688">
   <polygon fill="#63D13E" points="551,322 271,236 302,133 560,293 "/>
   <g>
    <line fill="none" stroke="#96ED79" stroke-width="0.300001" x1="305" y1="135" x2="274" y2= "236" />
    <line fill="none" stroke="#96ED79" stroke-width="0.300001" x1="308" y1="137" x2="276" y2= "237" />
    <line fill="none" stroke="#96ED79" stroke-width="0.300001" x1="312" y1="139" x2="281" y2= "239" />
    <line fill="none" stroke="#96ED79" stroke-width="0.300001" x1="316" y1="142" x2="286" y2= "240" />
    <line fill="none" stroke="#96ED79" stroke-width="0.300001" x1="319" y1="144" x2="289" y2= "241" />
    <line fill="none" stroke="#96ED79" stroke-width="0.300001" x1="320" y1="144" x2="290" y2= "241" />
    <line fill="none" stroke="#96ED79" stroke-width="0.300001" x1="324" y1="147" x2="294" y2= "243" />
    <line fill="none" stroke="#96ED79" stroke-width="0.300001" x1="326" y1="148" x2="297" y2= "244" />
    <line fill="none" stroke="#96ED79" stroke-width="0.300001" x1="334" y1="153" x2="305" y2= "246" />
    <line fill="none" stroke="#96ED79" stroke-width="0.300001" x1="338" y1="155" x2="309" y2= "247" />
    <line fill="none" stroke="#96ED79" stroke-width="0.300001" x1="340" y1="157" x2="312" y2= "248" />
    <line fill="none" stroke="#96ED79" stroke-width="0.300001" x1="344" y1="159" x2="316" y2= "249" />
    <line fill="none" stroke="#96ED79" stroke-width="0.300001" x1="348" y1="162" x2="321" y2= "251" />
    <line fill="none" stroke="#96ED79" stroke-width="0.300001" x1="351" y1="163" x2="323" y2= "252" />
    <line fill="none" stroke="#96ED79" stroke-width="0.300001" x1="355" y1="166" x2="328" y2= "253" />
    <line fill="none" stroke="#96ED79" stroke-width="0.300001" x1="359" y1="168" x2="332" y2= "254" />
    <line fill="none" stroke="#96ED79" stroke-width="0.300001" x1="361" y1="170" x2="335" y2= "255" />
    <line fill="none" stroke="#96ED79" stroke-width="0.300001" x1="364" y1="172" x2="338" y2= "256" />
    <line fill="none" stroke="#96ED79" stroke-width="0.300001" x1="368" y1="174" x2="342" y2= "258" />
    <line fill="none" stroke="#96ED79" stroke-width="0.300001" x1="371" y1="176" x2="345" y2= "258" />
    <line fill="none" stroke="#96ED79" stroke-width="0.300001" x1="374" y1="178" x2="349" y2= "259" />
    <line fill="none" stroke="#96ED79" stroke-width="0.300001" x1="378" y1="180" x2="353" y2= "261" />
    <line fill="none" stroke="#96ED79" stroke-width="0.300001" x1="381" y1="182" x2="356" y2= "262" />
    <line fill="none" stroke="#96ED79" stroke-width="0.300001" x1="385" y1="184" x2="360" y2= "263" />
    <line fill="none" stroke="#96ED79" stroke-width="0.300001" x1="389" y1="187" x2="365" y2= "264" />
    <line fill="none" stroke="#96ED79" stroke-width="0.300001" x1="392" y1="188" x2="368" y2= "265" />
    <line fill="none" stroke="#96ED79" stroke-width="0.300001" x1="379" y1="180" x2="354" y2= "261" />
    <line fill="none" stroke="#96ED79" stroke-width="0.300001" x1="383" y1="183" x2="358" y2= "262" />
    <line fill="none" stroke="#96ED79" stroke-width="0.300001" x1="385" y1="185" x2="361" y2= "263" />
    <line fill="none" stroke="#96ED79" stroke-width="0.300001" x1="390" y1="187" x2="366" y2= "265" />
    <line fill="none" stroke="#96ED79" stroke-width="0.300001" x1="394" y1="190" x2="370" y2= "266" />
    <line fill="none" stroke="#96ED79" stroke-width="0.300001" x1="396" y1="192" x2="373" y2= "267" />
    <line fill="none" stroke="#96ED79" stroke-width="0.300001" x1="397" y1="192" x2="374" y2= "267" />
    <line fill="none" stroke="#96ED79" stroke-width="0.300001" x1="401" y1="195" x2="378" y2= "269" />
    <line fill="none" stroke="#96ED79" stroke-width="0.300001" x1="404" y1="196" x2="381" y2= "269" />
    <line fill="none" stroke="#96ED79" stroke-width="0.300001" x1="411" y1="201" x2="389" y2= "272" />
    <line fill="none" stroke="#96ED79" stroke-width="0.300001" x1="415" y1="203" x2="393" y2= "273" />
    <line fill="none" stroke="#96ED79" stroke-width="0.300001" x1="418" y1="205" x2="396" y2= "274" />
    <line fill="none" stroke="#96ED79" stroke-width="0.300001" x1="422" y1="207" x2="400" y2= "275" />
    <line fill="none" stroke="#96ED79" stroke-width="0.300001" x1="426" y1="210" x2="405" y2= "277" />
    <line fill="none" stroke="#96ED79" stroke-width="0.300001" x1="428" y1="211" x2="408" y2= "278" />
    <line fill="none" stroke="#96ED79" stroke-width="0.300001" x1="432" y1="214" x2="412" y2= "279" />
    <line fill="none" stroke="#96ED79" stroke-width="0.300001" x1="436" y1="216" x2="416" y2= "280" />
    <line fill="none" stroke="#96ED79" stroke-width="0.300001" x1="439" y1="218" x2="419" y2= "281" />
    <line fill="none" stroke="#96ED79" stroke-width="0.300001" x1="442" y1="219" x2="422" y2= "282" />
    <line fill="none" stroke="#96ED79" stroke-width="0.300001" x1="446" y1="222" x2="427" y2= "283" />
    <line fill="none" stroke="#96ED79" stroke-width="0.300001" x1="448" y1="224" x2="430" y2= "284" />
    <line fill="none" stroke="#96ED79" stroke-width="0.300001" x1="452" y1="226" x2="433" y2= "285" />
    <line fill="none" stroke="#96ED79" stroke-width="0.300001" x1="456" y1="228" x2="437" y2= "287" />
    <line fill="none" stroke="#96ED79" stroke-width="0.300001" x1="458" y1="230" x2="440" y2= "288" />
    <line fill="none" stroke="#96ED79" stroke-width="0.300001" x1="462" y1="232" x2="445" y2= "289" />
    <line fill="none" stroke="#96ED79" stroke-width="0.300001" x1="466" y1="235" x2="449" y2= "290" />
    <line fill="none" stroke="#96ED79" stroke-width="0.300001" x1="469" y1="236" x2="452" y2= "291" />
    <line fill="none" stroke="#96ED79" stroke-width="0.300001" x1="465" y1="234" x2="448" y2= "290" />
    <line fill="none" stroke="#96ED79" stroke-width="0.300001" x1="469" y1="237" x2="452" y2= "291" />
    <line fill="none" stroke="#96ED79" stroke-width="0.300001" x1="472" y1="238" x2="455" y2= "292" />
    <line fill="none" stroke="#96ED79" stroke-width="0.300001" x1="476" y1="241" x2="460" y2= "294" />
    <line fill="none" stroke="#96ED79" stroke-width="0.300001" x1="481" y1="243" x2="464" y2= "295" />
    <line fill="none" stroke="#96ED79" stroke-width="0.300001" x1="483" y1="245" x2="467" y2= "296" />
    <line fill="none" stroke="#96ED79" stroke-width="0.300001" x1="484" y1="246" x2="468" y2= "296" />
    <line fill="none" stroke="#96ED79" stroke-width="0.300001" x1="488" y1="248" x2="473" y2= "298" />
    <line fill="none" stroke="#96ED79" stroke-width="0.300001" x1="491" y1="250" x2="475" y2= "298" />
    <line fill="none" stroke="#96ED79" stroke-width="0.300001" x1="498" y1="254" x2="483" y2= "301" />
    <line fill="none" stroke="#96ED79" stroke-width="0.300001" x1="502" y1="257" x2="488" y2= "302" />
    <line fill="none" stroke="#96ED79" stroke-width="0.300001" x1="505" y1="258" x2="491" y2= "303" />
    <line fill="none" stroke="#96ED79" stroke-width="0.300001" x1="508" y1="261" x2="495" y2= "304" />
    <line fill="none" stroke="#96ED79" stroke-width="0.300001" x1="512" y1="263" x2="499" y2= "306" />
    <line fill="none" stroke="#96ED79" stroke-width="0.300001" x1="515" y1="265" x2="502" y2= "307" />
    <line fill="none" stroke="#96ED79" stroke-width="0.300001" x1="519" y1="267" x2="506" y2= "308" />
    <line fill="none" stroke="#96ED79" stroke-width="0.300001" x1="523" y1="270" x2="511" y2= "309" />
    <line fill="none" stroke="#96ED79" stroke-width="0.300001" x1="526" y1="271" x2="514" y2= "310" />
    <line fill="none" stroke="#96ED79" stroke-width="0.300001" x1="528" y1="273" x2="517" y2= "311" />
    <line fill="none" stroke="#96ED79" stroke-width="0.300001" x1="532" y1="276" x2="521" y2= "312" />
    <line fill="none" stroke="#96ED79" stroke-width="0.300001" x1="535" y1="277" x2="524" y2= "313" />
    <line fill="none" stroke="#96ED79" stroke-width="0.300001" x1="538" y1="279" x2="527" y2= "314" />
    <line fill="none" stroke="#96ED79" stroke-width="0.300001" x1="542" y1="282" x2="532" y2= "316" />
    <line fill="none" stroke="#96ED79" stroke-width="0.300001" x1="545" y1="283" x2="535" y2= "317" />
    <line fill="none" stroke="#96ED79" stroke-width="0.300001" x1="549" y1="286" x2="539" y2= "318" />
    <line fill="none" stroke="#96ED79" stroke-width="0.300001" x1="553" y1="288" x2="543" y2= "319" />
    <line fill="none" stroke="#96ED79" stroke-width="0.300001" x1="556" y1="290" x2="546" y2= "320" />
    <line fill="none" stroke="#96ED79" stroke-width="0.300001" x1="560" y1="293" x2="551" y2= "322" />
    <line fill="none" stroke="#96ED79" stroke-width="0.300001" x1="312" y1="139" x2="301" y2= "136" />
    <line fill="none" stroke="#96ED79" stroke-width="0.300001" x1="326" y1="148" x2="300" y2= "140" />
    <line fill="none" stroke="#96ED79" stroke-width="0.300001" x1="350" y1="163" x2="298" y2= "147" />
    <line fill="none" stroke="#96ED79" stroke-width="0.300001" x1="371" y1="176" x2="296" y2= "152" />
    <line fill="none" stroke="#96ED79" stroke-width="0.300001" x1="400" y1="194" x2="294" y2= "161" />
    <line fill="none" stroke="#96ED79" stroke-width="0.300001" x1="388" y1="186" x2="295" y2= "157" />
    <line fill="none" stroke="#96ED79" stroke-width="0.300001" x1="424" y1="208" x2="292" y2= "167" />
    <line fill="none" stroke="#96ED79" stroke-width="0.300001" x1="424" y1="208" x2="292" y2= "167" />
    <line fill="none" stroke="#96ED79" stroke-width="0.300001" x1="445" y1="221" x2="290" y2= "173" />
    <line fill="none" stroke="#96ED79" stroke-width="0.300001" x1="459" y1="230" x2="289" y2= "177" />
    <line fill="none" stroke="#96ED79" stroke-width="0.300001" x1="483" y1="245" x2="287" y2= "184" />
    <line fill="none" stroke="#96ED79" stroke-width="0.300001" x1="503" y1="258" x2="285" y2= "190" />
    <line fill="none" stroke="#96ED79" stroke-width="0.300001" x1="533" y1="276" x2="282" y2= "198" />
    <line fill="none" stroke="#96ED79" stroke-width="0.300001" x1="521" y1="268" x2="283" y2= "194" />
    <line fill="none" stroke="#96ED79" stroke-width="0.300001" x1="556" y1="290" x2="280" y2= "204" />
    <line fill="none" stroke="#96ED79" stroke-width="0.300001" x1="560" y1="293" x2="280" y2= "206" />
    <line fill="none" stroke="#96ED79" stroke-width="0.300001" x1="558" y1="299" x2="278" y2= "212" />
    <line fill="none" stroke="#96ED79" stroke-width="0.300001" x1="557" y1="303" x2="277" y2= "216" />
    <line fill="none" stroke="#96ED79" stroke-width="0.300001" x1="555" y1="310" x2="275" y2= "223" />
    <line fill="none" stroke="#96ED79" stroke-width="0.300001" x1="553" y1="316" x2="273" y2= "229" />
    <line fill="none" stroke="#96ED79" stroke-width="0.300001" x1="552" y1="321" x2="272" y2= "233" />
   </g>
  </g>
 </g>
 <g id="landmarks-mz21">
  <metadata id="CorelCorpID_1Corel-Layer"/>
  <polygon id="m21lote21" fill="#35AD0E" points="546,322 273,238 303,138 555,293 "/>
  <polygon id="m21lote18" fill="#35AD0E" points="465,299 491,307 475,361 449,352 "/>
  <polygon id="m21lote17" fill="#35AD0E" points="438,290 464,298 447,352 421,344 "/>
  <polygon id="m21lote16" fill="#35AD0E" points="436,290 410,282 393,335 420,344 "/>
  <polygon id="m21lote15" fill="#35AD0E" points="382,274 409,282 392,335 366,327 "/>
  <polygon id="m21lote14" fill="#35AD0E" points="381,273 355,265 338,319 364,326 "/>
  <polygon id="m21lote13" fill="#35AD0E" points="353,265 327,257 311,310 337,318 "/>
  <polygon id="m21lote12" fill="#35AD0E" points="326,256 300,248 283,302 309,310 "/>
  <polygon id="m21lote11" fill="#35AD0E" points="298,248 272,239 256,293 282,301 "/>
  <polygon id="m21lote10" fill="#35AD0E" points="267,346 241,338 225,392 251,400 "/>
  <polygon id="m21lote9" fill="#35AD0E" points="295,354 269,346 252,400 279,408 "/>
  <path id="m21lote8" fill="#35AD0E" d="M323 363l-27 -8 -16 53 26 8c0,0 17,-53 17,-53z"/>
  <polygon id="m21lote7" fill="#35AD0E" points="350,372 324,363 308,417 334,425 "/>
  <polygon id="m21lote6" fill="#35AD0E" points="378,380 352,372 335,425 361,434 "/>
  <polygon id="m21lote5" fill="#35AD0E" points="405,388 379,380 363,434 389,442 "/>
  <polygon id="m21lote4" fill="#35AD0E" points="433,397 407,389 390,443 416,451 "/>
  <polygon id="m21lote3" fill="#35AD0E" points="461,405 434,397 418,451 444,459 "/>
  <polygon id="m21lote2" fill="#35AD0E" points="488,414 462,406 445,460 472,467 "/>
  <polygon id="m21lote1" fill="#35AD0E" points="489,414 516,422 499,476 473,468 "/>
  <polygon id="m21lote19" fill="#35AD0E" points="502,369 476,361 493,307 519,315 "/>
  <polygon id="m21lote20" fill="#35AD0E" points="504,370 530,378 547,324 520,316 "/>
 </g>
</svg>
