<?xml version="1.0" encoding="UTF-8"?>
<!DOCTYPE svg PUBLIC "-//W3C//DTD SVG 1.1//EN" "http://www.w3.org/Graphics/SVG/1.1/DTD/svg11.dtd">
<!-- Creator: CorelDRAW X7 -->
<svg xmlns="http://www.w3.org/2000/svg" xml:space="preserve" width="800px" height="600px" version="1.1" shape-rendering="geometricPrecision" text-rendering="geometricPrecision" image-rendering="optimizeQuality" fill-rule="evenodd" clip-rule="evenodd"
viewBox="0 0 800 600"
 xmlns:xlink="http://www.w3.org/1999/xlink">
 <g id="base">
  <metadata id="CorelCorpID_0Corel-Layer"/>
  <polygon fill="#35AD0E" points="264,43 640,274 557,547 150,422 "/>
  <g id="_476889048">
   <polygon fill="#63D13E" points="216,179 628,307 555,542 143,414 "/>
   <g>
    <line fill="none" stroke="#96ED79" stroke-width="0.300001" x1="222" y1="181" x2="148" y2= "416" />
    <line fill="none" stroke="#96ED79" stroke-width="0.300001" x1="228" y1="183" x2="155" y2= "418" />
    <line fill="none" stroke="#96ED79" stroke-width="0.300001" x1="232" y1="184" x2="159" y2= "419" />
    <line fill="none" stroke="#96ED79" stroke-width="0.300001" x1="239" y1="186" x2="166" y2= "421" />
    <line fill="none" stroke="#96ED79" stroke-width="0.300001" x1="245" y1="188" x2="172" y2= "423" />
    <line fill="none" stroke="#96ED79" stroke-width="0.300001" x1="249" y1="189" x2="176" y2= "425" />
    <line fill="none" stroke="#96ED79" stroke-width="0.300001" x1="251" y1="190" x2="177" y2= "425" />
    <line fill="none" stroke="#96ED79" stroke-width="0.300001" x1="257" y1="192" x2="184" y2= "427" />
    <line fill="none" stroke="#96ED79" stroke-width="0.300001" x1="261" y1="193" x2="188" y2= "428" />
    <line fill="none" stroke="#96ED79" stroke-width="0.300001" x1="272" y1="196" x2="199" y2= "432" />
    <line fill="none" stroke="#96ED79" stroke-width="0.300001" x1="278" y1="198" x2="205" y2= "434" />
    <line fill="none" stroke="#96ED79" stroke-width="0.300001" x1="282" y1="200" x2="209" y2= "435" />
    <line fill="none" stroke="#96ED79" stroke-width="0.300001" x1="288" y1="202" x2="215" y2= "437" />
    <line fill="none" stroke="#96ED79" stroke-width="0.300001" x1="295" y1="203" x2="222" y2= "439" />
    <line fill="none" stroke="#96ED79" stroke-width="0.300001" x1="299" y1="205" x2="226" y2= "440" />
    <line fill="none" stroke="#96ED79" stroke-width="0.300001" x1="305" y1="207" x2="232" y2= "442" />
    <line fill="none" stroke="#96ED79" stroke-width="0.300001" x1="311" y1="209" x2="238" y2= "444" />
    <line fill="none" stroke="#96ED79" stroke-width="0.300001" x1="315" y1="210" x2="242" y2= "445" />
    <line fill="none" stroke="#96ED79" stroke-width="0.300001" x1="320" y1="211" x2="246" y2= "446" />
    <line fill="none" stroke="#96ED79" stroke-width="0.300001" x1="326" y1="213" x2="253" y2= "448" />
    <line fill="none" stroke="#96ED79" stroke-width="0.300001" x1="330" y1="214" x2="257" y2= "449" />
    <line fill="none" stroke="#96ED79" stroke-width="0.300001" x1="335" y1="216" x2="262" y2= "451" />
    <line fill="none" stroke="#96ED79" stroke-width="0.300001" x1="341" y1="218" x2="268" y2= "453" />
    <line fill="none" stroke="#96ED79" stroke-width="0.300001" x1="345" y1="219" x2="272" y2= "454" />
    <line fill="none" stroke="#96ED79" stroke-width="0.300001" x1="352" y1="221" x2="278" y2= "456" />
    <line fill="none" stroke="#96ED79" stroke-width="0.300001" x1="358" y1="223" x2="285" y2= "458" />
    <line fill="none" stroke="#96ED79" stroke-width="0.300001" x1="362" y1="224" x2="289" y2= "459" />
    <line fill="none" stroke="#96ED79" stroke-width="0.300001" x1="342" y1="218" x2="269" y2= "453" />
    <line fill="none" stroke="#96ED79" stroke-width="0.300001" x1="348" y1="220" x2="275" y2= "455" />
    <line fill="none" stroke="#96ED79" stroke-width="0.300001" x1="352" y1="221" x2="279" y2= "456" />
    <line fill="none" stroke="#96ED79" stroke-width="0.300001" x1="359" y1="224" x2="286" y2= "458" />
    <line fill="none" stroke="#96ED79" stroke-width="0.300001" x1="366" y1="226" x2="292" y2= "460" />
    <line fill="none" stroke="#96ED79" stroke-width="0.300001" x1="370" y1="227" x2="296" y2= "462" />
    <line fill="none" stroke="#96ED79" stroke-width="0.300001" x1="371" y1="227" x2="298" y2= "462" />
    <line fill="none" stroke="#96ED79" stroke-width="0.300001" x1="377" y1="229" x2="304" y2= "464" />
    <line fill="none" stroke="#96ED79" stroke-width="0.300001" x1="381" y1="230" x2="308" y2= "465" />
    <line fill="none" stroke="#96ED79" stroke-width="0.300001" x1="392" y1="234" x2="319" y2= "469" />
    <line fill="none" stroke="#96ED79" stroke-width="0.300001" x1="399" y1="236" x2="325" y2= "471" />
    <line fill="none" stroke="#96ED79" stroke-width="0.300001" x1="403" y1="237" x2="330" y2= "472" />
    <line fill="none" stroke="#96ED79" stroke-width="0.300001" x1="409" y1="239" x2="336" y2= "474" />
    <line fill="none" stroke="#96ED79" stroke-width="0.300001" x1="415" y1="242" x2="342" y2= "476" />
    <line fill="none" stroke="#96ED79" stroke-width="0.300001" x1="418" y1="245" x2="346" y2= "477" />
    <line fill="none" stroke="#96ED79" stroke-width="0.300001" x1="425" y1="244" x2="352" y2= "479" />
    <line fill="none" stroke="#96ED79" stroke-width="0.300001" x1="431" y1="246" x2="358" y2= "481" />
    <line fill="none" stroke="#96ED79" stroke-width="0.300001" x1="435" y1="250" x2="362" y2= "482" />
    <line fill="none" stroke="#96ED79" stroke-width="0.300001" x1="440" y1="249" x2="367" y2= "483" />
    <line fill="none" stroke="#96ED79" stroke-width="0.300001" x1="445" y1="253" x2="373" y2= "485" />
    <line fill="none" stroke="#96ED79" stroke-width="0.300001" x1="449" y1="257" x2="377" y2= "487" />
    <line fill="none" stroke="#96ED79" stroke-width="0.300001" x1="455" y1="253" x2="382" y2= "488" />
    <line fill="none" stroke="#96ED79" stroke-width="0.300001" x1="461" y1="255" x2="388" y2= "490" />
    <line fill="none" stroke="#96ED79" stroke-width="0.300001" x1="465" y1="257" x2="392" y2= "491" />
    <line fill="none" stroke="#96ED79" stroke-width="0.300001" x1="472" y1="259" x2="399" y2= "493" />
    <line fill="none" stroke="#96ED79" stroke-width="0.300001" x1="478" y1="261" x2="405" y2= "495" />
    <line fill="none" stroke="#96ED79" stroke-width="0.300001" x1="482" y1="262" x2="409" y2= "496" />
    <line fill="none" stroke="#96ED79" stroke-width="0.300001" x1="476" y1="260" x2="403" y2= "495" />
    <line fill="none" stroke="#96ED79" stroke-width="0.300001" x1="483" y1="262" x2="410" y2= "497" />
    <line fill="none" stroke="#96ED79" stroke-width="0.300001" x1="487" y1="263" x2="414" y2= "498" />
    <line fill="none" stroke="#96ED79" stroke-width="0.300001" x1="494" y1="265" x2="421" y2= "500" />
    <line fill="none" stroke="#96ED79" stroke-width="0.300001" x1="500" y1="267" x2="427" y2= "502" />
    <line fill="none" stroke="#96ED79" stroke-width="0.300001" x1="504" y1="269" x2="431" y2= "503" />
    <line fill="none" stroke="#96ED79" stroke-width="0.300001" x1="505" y1="269" x2="432" y2= "504" />
    <line fill="none" stroke="#96ED79" stroke-width="0.300001" x1="512" y1="271" x2="439" y2= "506" />
    <line fill="none" stroke="#96ED79" stroke-width="0.300001" x1="516" y1="272" x2="443" y2= "507" />
    <line fill="none" stroke="#96ED79" stroke-width="0.300001" x1="527" y1="276" x2="454" y2= "510" />
    <line fill="none" stroke="#96ED79" stroke-width="0.300001" x1="533" y1="278" x2="460" y2= "512" />
    <line fill="none" stroke="#96ED79" stroke-width="0.300001" x1="537" y1="279" x2="464" y2= "513" />
    <line fill="none" stroke="#96ED79" stroke-width="0.300001" x1="543" y1="281" x2="470" y2= "515" />
    <line fill="none" stroke="#96ED79" stroke-width="0.300001" x1="549" y1="283" x2="476" y2= "517" />
    <line fill="none" stroke="#96ED79" stroke-width="0.300001" x1="554" y1="284" x2="481" y2= "518" />
    <line fill="none" stroke="#96ED79" stroke-width="0.300001" x1="560" y1="286" x2="487" y2= "520" />
    <line fill="none" stroke="#96ED79" stroke-width="0.300001" x1="566" y1="288" x2="493" y2= "522" />
    <line fill="none" stroke="#96ED79" stroke-width="0.300001" x1="570" y1="289" x2="497" y2= "523" />
    <line fill="none" stroke="#96ED79" stroke-width="0.300001" x1="574" y1="291" x2="501" y2= "525" />
    <line fill="none" stroke="#96ED79" stroke-width="0.300001" x1="581" y1="292" x2="508" y2= "527" />
    <line fill="none" stroke="#96ED79" stroke-width="0.300001" x1="585" y1="294" x2="512" y2= "528" />
    <line fill="none" stroke="#96ED79" stroke-width="0.300001" x1="589" y1="295" x2="516" y2= "530" />
    <line fill="none" stroke="#96ED79" stroke-width="0.300001" x1="596" y1="297" x2="523" y2= "531" />
    <line fill="none" stroke="#96ED79" stroke-width="0.300001" x1="600" y1="298" x2="527" y2= "533" />
    <line fill="none" stroke="#96ED79" stroke-width="0.300001" x1="606" y1="300" x2="533" y2= "535" />
    <line fill="none" stroke="#96ED79" stroke-width="0.300001" x1="613" y1="302" x2="540" y2= "537" />
    <line fill="none" stroke="#96ED79" stroke-width="0.300001" x1="617" y1="304" x2="544" y2= "538" />
    <line fill="none" stroke="#96ED79" stroke-width="0.300001" x1="623" y1="306" x2="550" y2= "540" />
    <line fill="none" stroke="#96ED79" stroke-width="0.300001" x1="626" y1="312" x2="215" y2= "184" />
    <line fill="none" stroke="#96ED79" stroke-width="0.300001" x1="624" y1="320" x2="212" y2= "192" />
    <line fill="none" stroke="#96ED79" stroke-width="0.300001" x1="622" y1="326" x2="210" y2= "198" />
    <line fill="none" stroke="#96ED79" stroke-width="0.300001" x1="619" y1="336" x2="207" y2= "207" />
    <line fill="none" stroke="#96ED79" stroke-width="0.300001" x1="617" y1="344" x2="205" y2= "216" />
    <line fill="none" stroke="#96ED79" stroke-width="0.300001" x1="613" y1="356" x2="201" y2= "227" />
    <line fill="none" stroke="#96ED79" stroke-width="0.300001" x1="614" y1="351" x2="203" y2= "223" />
    <line fill="none" stroke="#96ED79" stroke-width="0.300001" x1="610" y1="365" x2="198" y2= "237" />
    <line fill="none" stroke="#96ED79" stroke-width="0.300001" x1="610" y1="365" x2="198" y2= "237" />
    <line fill="none" stroke="#96ED79" stroke-width="0.300001" x1="608" y1="373" x2="196" y2= "245" />
    <line fill="none" stroke="#96ED79" stroke-width="0.300001" x1="606" y1="379" x2="194" y2= "251" />
    <line fill="none" stroke="#96ED79" stroke-width="0.300001" x1="603" y1="389" x2="191" y2= "260" />
    <line fill="none" stroke="#96ED79" stroke-width="0.300001" x1="600" y1="397" x2="189" y2= "269" />
    <line fill="none" stroke="#96ED79" stroke-width="0.300001" x1="597" y1="409" x2="185" y2= "280" />
    <line fill="none" stroke="#96ED79" stroke-width="0.300001" x1="598" y1="404" x2="186" y2= "275" />
    <line fill="none" stroke="#96ED79" stroke-width="0.300001" x1="594" y1="418" x2="182" y2= "290" />
    <line fill="none" stroke="#96ED79" stroke-width="0.300001" x1="593" y1="421" x2="181" y2= "292" />
    <line fill="none" stroke="#96ED79" stroke-width="0.300001" x1="590" y1="429" x2="179" y2= "301" />
    <line fill="none" stroke="#96ED79" stroke-width="0.300001" x1="589" y1="434" x2="177" y2= "306" />
    <line fill="none" stroke="#96ED79" stroke-width="0.300001" x1="586" y1="444" x2="174" y2= "316" />
    <line fill="none" stroke="#96ED79" stroke-width="0.300001" x1="583" y1="452" x2="171" y2= "324" />
    <line fill="none" stroke="#96ED79" stroke-width="0.300001" x1="579" y1="464" x2="168" y2= "336" />
    <line fill="none" stroke="#96ED79" stroke-width="0.300001" x1="581" y1="459" x2="169" y2= "331" />
    <line fill="none" stroke="#96ED79" stroke-width="0.300001" x1="577" y1="473" x2="165" y2= "345" />
    <line fill="none" stroke="#96ED79" stroke-width="0.300001" x1="574" y1="481" x2="162" y2= "353" />
    <line fill="none" stroke="#96ED79" stroke-width="0.300001" x1="572" y1="490" x2="160" y2= "361" />
    <line fill="none" stroke="#96ED79" stroke-width="0.300001" x1="570" y1="495" x2="158" y2= "367" />
    <line fill="none" stroke="#96ED79" stroke-width="0.300001" x1="567" y1="505" x2="155" y2= "377" />
    <line fill="none" stroke="#96ED79" stroke-width="0.300001" x1="564" y1="513" x2="153" y2= "385" />
    <line fill="none" stroke="#96ED79" stroke-width="0.300001" x1="561" y1="525" x2="149" y2= "397" />
    <line fill="none" stroke="#96ED79" stroke-width="0.300001" x1="562" y1="520" x2="150" y2= "392" />
    <line fill="none" stroke="#96ED79" stroke-width="0.300001" x1="558" y1="534" x2="146" y2= "406" />
   </g>
  </g>
  <path fill="white" fill-rule="nonzero" d="M557 411c4,1 6,5 5,8 -1,4 -5,6 -9,5l-342 -104c-4,-1 -6,-5 -4,-9 1,-3 4,-5 8,-4l342 104z"/>
  <g id="_473448024">
   <polygon fill="#63D13E" points="626,311 216,185 261,35 639,268 "/>
   <g>
    <line fill="none" stroke="#96ED79" stroke-width="0.300001" x1="266" y1="37" x2="220" y2= "186" />
    <line fill="none" stroke="#96ED79" stroke-width="0.300001" x1="270" y1="40" x2="224" y2= "187" />
    <line fill="none" stroke="#96ED79" stroke-width="0.300001" x1="276" y1="44" x2="231" y2= "189" />
    <line fill="none" stroke="#96ED79" stroke-width="0.300001" x1="282" y1="48" x2="237" y2= "191" />
    <line fill="none" stroke="#96ED79" stroke-width="0.300001" x1="286" y1="50" x2="242" y2= "192" />
    <line fill="none" stroke="#96ED79" stroke-width="0.300001" x1="287" y1="51" x2="243" y2= "193" />
    <line fill="none" stroke="#96ED79" stroke-width="0.300001" x1="293" y1="54" x2="249" y2= "195" />
    <line fill="none" stroke="#96ED79" stroke-width="0.300001" x1="297" y1="57" x2="254" y2= "196" />
    <line fill="none" stroke="#96ED79" stroke-width="0.300001" x1="307" y1="63" x2="265" y2= "200" />
    <line fill="none" stroke="#96ED79" stroke-width="0.300001" x1="313" y1="67" x2="271" y2= "202" />
    <line fill="none" stroke="#96ED79" stroke-width="0.300001" x1="317" y1="69" x2="276" y2= "203" />
    <line fill="none" stroke="#96ED79" stroke-width="0.300001" x1="323" y1="73" x2="282" y2= "205" />
    <line fill="none" stroke="#96ED79" stroke-width="0.300001" x1="329" y1="76" x2="288" y2= "207" />
    <line fill="none" stroke="#96ED79" stroke-width="0.300001" x1="333" y1="79" x2="292" y2= "208" />
    <line fill="none" stroke="#96ED79" stroke-width="0.300001" x1="338" y1="82" x2="299" y2= "210" />
    <line fill="none" stroke="#96ED79" stroke-width="0.300001" x1="344" y1="86" x2="305" y2= "212" />
    <line fill="none" stroke="#96ED79" stroke-width="0.300001" x1="348" y1="88" x2="309" y2= "213" />
    <line fill="none" stroke="#96ED79" stroke-width="0.300001" x1="352" y1="91" x2="314" y2= "215" />
    <line fill="none" stroke="#96ED79" stroke-width="0.300001" x1="358" y1="95" x2="320" y2= "217" />
    <line fill="none" stroke="#96ED79" stroke-width="0.300001" x1="362" y1="97" x2="324" y2= "218" />
    <line fill="none" stroke="#96ED79" stroke-width="0.300001" x1="367" y1="100" x2="329" y2= "219" />
    <line fill="none" stroke="#96ED79" stroke-width="0.300001" x1="373" y1="103" x2="336" y2= "221" />
    <line fill="none" stroke="#96ED79" stroke-width="0.300001" x1="376" y1="106" x2="340" y2= "223" />
    <line fill="none" stroke="#96ED79" stroke-width="0.300001" x1="383" y1="110" x2="347" y2= "225" />
    <line fill="none" stroke="#96ED79" stroke-width="0.300001" x1="388" y1="113" x2="353" y2= "227" />
    <line fill="none" stroke="#96ED79" stroke-width="0.300001" x1="392" y1="116" x2="357" y2= "228" />
    <line fill="none" stroke="#96ED79" stroke-width="0.300001" x1="373" y1="104" x2="337" y2= "222" />
    <line fill="none" stroke="#96ED79" stroke-width="0.300001" x1="379" y1="108" x2="343" y2= "224" />
    <line fill="none" stroke="#96ED79" stroke-width="0.300001" x1="383" y1="110" x2="347" y2= "225" />
    <line fill="none" stroke="#96ED79" stroke-width="0.300001" x1="390" y1="114" x2="354" y2= "227" />
    <line fill="none" stroke="#96ED79" stroke-width="0.300001" x1="396" y1="118" x2="361" y2= "229" />
    <line fill="none" stroke="#96ED79" stroke-width="0.300001" x1="399" y1="120" x2="365" y2= "230" />
    <line fill="none" stroke="#96ED79" stroke-width="0.300001" x1="401" y1="121" x2="366" y2= "231" />
    <line fill="none" stroke="#96ED79" stroke-width="0.300001" x1="407" y1="124" x2="373" y2= "233" />
    <line fill="none" stroke="#96ED79" stroke-width="0.300001" x1="410" y1="127" x2="377" y2= "234" />
    <line fill="none" stroke="#96ED79" stroke-width="0.300001" x1="421" y1="133" x2="388" y2= "238" />
    <line fill="none" stroke="#96ED79" stroke-width="0.300001" x1="427" y1="137" x2="395" y2= "240" />
    <line fill="none" stroke="#96ED79" stroke-width="0.300001" x1="431" y1="139" x2="399" y2= "241" />
    <line fill="none" stroke="#96ED79" stroke-width="0.300001" x1="436" y1="143" x2="405" y2= "243" />
    <line fill="none" stroke="#96ED79" stroke-width="0.300001" x1="442" y1="147" x2="412" y2= "245" />
    <line fill="none" stroke="#96ED79" stroke-width="0.300001" x1="446" y1="149" x2="416" y2= "246" />
    <line fill="none" stroke="#96ED79" stroke-width="0.300001" x1="452" y1="152" x2="422" y2= "248" />
    <line fill="none" stroke="#96ED79" stroke-width="0.300001" x1="458" y1="156" x2="429" y2= "250" />
    <line fill="none" stroke="#96ED79" stroke-width="0.300001" x1="462" y1="158" x2="433" y2= "251" />
    <line fill="none" stroke="#96ED79" stroke-width="0.300001" x1="466" y1="161" x2="437" y2= "253" />
    <line fill="none" stroke="#96ED79" stroke-width="0.300001" x1="472" y1="165" x2="444" y2= "255" />
    <line fill="none" stroke="#96ED79" stroke-width="0.300001" x1="476" y1="167" x2="448" y2= "256" />
    <line fill="none" stroke="#96ED79" stroke-width="0.300001" x1="480" y1="170" x2="453" y2= "257" />
    <line fill="none" stroke="#96ED79" stroke-width="0.300001" x1="486" y1="173" x2="459" y2= "259" />
    <line fill="none" stroke="#96ED79" stroke-width="0.300001" x1="490" y1="176" x2="463" y2= "261" />
    <line fill="none" stroke="#96ED79" stroke-width="0.300001" x1="496" y1="180" x2="470" y2= "263" />
    <line fill="none" stroke="#96ED79" stroke-width="0.300001" x1="502" y1="183" x2="477" y2= "265" />
    <line fill="none" stroke="#96ED79" stroke-width="0.300001" x1="506" y1="186" x2="481" y2= "266" />
    <line fill="none" stroke="#96ED79" stroke-width="0.300001" x1="500" y1="182" x2="475" y2= "264" />
    <line fill="none" stroke="#96ED79" stroke-width="0.300001" x1="506" y1="186" x2="481" y2= "266" />
    <line fill="none" stroke="#96ED79" stroke-width="0.300001" x1="510" y1="188" x2="485" y2= "267" />
    <line fill="none" stroke="#96ED79" stroke-width="0.300001" x1="517" y1="192" x2="492" y2= "270" />
    <line fill="none" stroke="#96ED79" stroke-width="0.300001" x1="522" y1="196" x2="499" y2= "272" />
    <line fill="none" stroke="#96ED79" stroke-width="0.300001" x1="526" y1="198" x2="503" y2= "273" />
    <line fill="none" stroke="#96ED79" stroke-width="0.300001" x1="528" y1="199" x2="504" y2= "273" />
    <line fill="none" stroke="#96ED79" stroke-width="0.300001" x1="533" y1="203" x2="511" y2= "275" />
    <line fill="none" stroke="#96ED79" stroke-width="0.300001" x1="537" y1="205" x2="515" y2= "277" />
    <line fill="none" stroke="#96ED79" stroke-width="0.300001" x1="548" y1="212" x2="526" y2= "280" />
    <line fill="none" stroke="#96ED79" stroke-width="0.300001" x1="554" y1="215" x2="533" y2= "282" />
    <line fill="none" stroke="#96ED79" stroke-width="0.300001" x1="558" y1="218" x2="537" y2= "283" />
    <line fill="none" stroke="#96ED79" stroke-width="0.300001" x1="563" y1="221" x2="543" y2= "285" />
    <line fill="none" stroke="#96ED79" stroke-width="0.300001" x1="569" y1="225" x2="550" y2= "287" />
    <line fill="none" stroke="#96ED79" stroke-width="0.300001" x1="573" y1="227" x2="554" y2= "288" />
    <line fill="none" stroke="#96ED79" stroke-width="0.300001" x1="579" y1="231" x2="560" y2= "290" />
    <line fill="none" stroke="#96ED79" stroke-width="0.300001" x1="585" y1="234" x2="567" y2= "292" />
    <line fill="none" stroke="#96ED79" stroke-width="0.300001" x1="588" y1="237" x2="571" y2= "294" />
    <line fill="none" stroke="#96ED79" stroke-width="0.300001" x1="593" y1="239" x2="575" y2= "295" />
    <line fill="none" stroke="#96ED79" stroke-width="0.300001" x1="598" y1="243" x2="582" y2= "297" />
    <line fill="none" stroke="#96ED79" stroke-width="0.300001" x1="602" y1="245" x2="586" y2= "298" />
    <line fill="none" stroke="#96ED79" stroke-width="0.300001" x1="607" y1="248" x2="591" y2= "300" />
    <line fill="none" stroke="#96ED79" stroke-width="0.300001" x1="613" y1="252" x2="597" y2= "302" />
    <line fill="none" stroke="#96ED79" stroke-width="0.300001" x1="617" y1="254" x2="602" y2= "303" />
    <line fill="none" stroke="#96ED79" stroke-width="0.300001" x1="623" y1="258" x2="608" y2= "305" />
    <line fill="none" stroke="#96ED79" stroke-width="0.300001" x1="629" y1="262" x2="615" y2= "307" />
    <line fill="none" stroke="#96ED79" stroke-width="0.300001" x1="633" y1="264" x2="619" y2= "308" />
    <line fill="none" stroke="#96ED79" stroke-width="0.300001" x1="639" y1="268" x2="626" y2= "310" />
    <line fill="none" stroke="#96ED79" stroke-width="0.300001" x1="276" y1="44" x2="260" y2= "39" />
    <line fill="none" stroke="#96ED79" stroke-width="0.300001" x1="296" y1="56" x2="258" y2= "44" />
    <line fill="none" stroke="#96ED79" stroke-width="0.300001" x1="332" y1="78" x2="255" y2= "54" />
    <line fill="none" stroke="#96ED79" stroke-width="0.300001" x1="362" y1="97" x2="253" y2= "63" />
    <line fill="none" stroke="#96ED79" stroke-width="0.300001" x1="405" y1="124" x2="249" y2= "75" />
    <line fill="none" stroke="#96ED79" stroke-width="0.300001" x1="387" y1="112" x2="250" y2= "70" />
    <line fill="none" stroke="#96ED79" stroke-width="0.300001" x1="440" y1="145" x2="246" y2= "85" />
    <line fill="none" stroke="#96ED79" stroke-width="0.300001" x1="439" y1="145" x2="246" y2= "84" />
    <line fill="none" stroke="#96ED79" stroke-width="0.300001" x1="470" y1="164" x2="243" y2= "93" />
    <line fill="none" stroke="#96ED79" stroke-width="0.300001" x1="490" y1="176" x2="242" y2= "99" />
    <line fill="none" stroke="#96ED79" stroke-width="0.300001" x1="526" y1="198" x2="239" y2= "109" />
    <line fill="none" stroke="#96ED79" stroke-width="0.300001" x1="556" y1="217" x2="236" y2= "117" />
    <line fill="none" stroke="#96ED79" stroke-width="0.300001" x1="599" y1="243" x2="232" y2= "129" />
    <line fill="none" stroke="#96ED79" stroke-width="0.300001" x1="581" y1="232" x2="234" y2= "124" />
    <line fill="none" stroke="#96ED79" stroke-width="0.300001" x1="634" y1="265" x2="230" y2= "139" />
    <line fill="none" stroke="#96ED79" stroke-width="0.300001" x1="639" y1="269" x2="229" y2= "142" />
    <line fill="none" stroke="#96ED79" stroke-width="0.300001" x1="636" y1="278" x2="226" y2= "150" />
    <line fill="none" stroke="#96ED79" stroke-width="0.300001" x1="635" y1="284" x2="224" y2= "156" />
    <line fill="none" stroke="#96ED79" stroke-width="0.300001" x1="631" y1="294" x2="221" y2= "166" />
    <line fill="none" stroke="#96ED79" stroke-width="0.300001" x1="629" y1="302" x2="219" y2= "174" />
    <line fill="none" stroke="#96ED79" stroke-width="0.300001" x1="627" y1="309" x2="217" y2= "181" />
   </g>
  </g>
 </g>
 <g id="landmarks-mz21">
  <metadata id="CorelCorpID_1Corel-Layer"/>
  <polygon id="m21lote21" fill="#35AD0E" points="619,311 219,188 263,42 632,269 "/>
  <polygon id="m21lote18" fill="#35AD0E" points="500,277 538,289 515,367 476,355 "/>
  <polygon id="m21lote17" fill="#35AD0E" points="460,265 498,276 474,355 435,343 "/>
  <polygon id="m21lote16" fill="#35AD0E" points="458,264 419,252 395,331 433,343 "/>
  <polygon id="m21lote15" fill="#35AD0E" points="379,240 417,252 393,330 355,319 "/>
  <polygon id="m21lote14" fill="#35AD0E" points="377,239 338,227 314,306 353,317 "/>
  <polygon id="m21lote13" fill="#35AD0E" points="336,227 298,215 274,294 312,305 "/>
  <polygon id="m21lote12" fill="#35AD0E" points="296,214 258,203 233,281 272,293 "/>
  <polygon id="m21lote11" fill="#35AD0E" points="256,202 217,190 193,269 232,281 "/>
  <polygon id="m21lote10" fill="#35AD0E" points="211,346 172,334 148,413 187,424 "/>
  <polygon id="m21lote9" fill="#35AD0E" points="251,358 213,347 189,425 227,437 "/>
  <path id="m21lote8" fill="#35AD0E" d="M292 370l-39 -11 -24 78 38 12c0,0 24,-79 25,-79z"/>
  <polygon id="m21lote7" fill="#35AD0E" points="332,383 294,371 269,450 308,462 "/>
  <polygon id="m21lote6" fill="#35AD0E" points="372,395 334,384 310,462 348,474 "/>
  <polygon id="m21lote5" fill="#35AD0E" points="413,408 374,396 350,475 388,487 "/>
  <polygon id="m21lote4" fill="#35AD0E" points="453,421 415,409 390,487 429,499 "/>
  <polygon id="m21lote3" fill="#35AD0E" points="493,433 455,421 431,500 469,512 "/>
  <polygon id="m21lote2" fill="#35AD0E" points="534,445 496,433 471,512 510,524 "/>
  <polygon id="m21lote1" fill="#35AD0E" points="535,446 574,458 550,537 511,525 "/>
  <polygon id="m21lote19" fill="#35AD0E" points="554,380 516,368 540,289 579,301 "/>
  <polygon id="m21lote20" fill="#35AD0E" points="556,381 595,392 619,314 581,302 "/>
 </g>
</svg>
