<?xml version="1.0" encoding="UTF-8"?>
<!DOCTYPE svg PUBLIC "-//W3C//DTD SVG 1.1//EN" "http://www.w3.org/Graphics/SVG/1.1/DTD/svg11.dtd">
<!-- Creator: CorelDRAW X7 -->
<svg xmlns="http://www.w3.org/2000/svg" xml:space="preserve" width="800px" height="600px" version="1.1" shape-rendering="geometricPrecision" text-rendering="geometricPrecision" image-rendering="optimizeQuality" fill-rule="evenodd" clip-rule="evenodd"
viewBox="0 0 800 600"
 xmlns:xlink="http://www.w3.org/1999/xlink">
 <g id="base">
  <metadata id="CorelCorpID_0Corel-Layer"/>
  <polygon fill="#35AD0E" points="188,53 660,340 514,566 110,312 "/>
  <g id="_479280064">
   <polygon fill="#63D13E" points="187,40 658,327 513,553 109,299 "/>
   <g>
    <line fill="none" stroke="#96ED79" stroke-width="0.300001" x1="189" y1="41" x2="125" y2= "245" />
    <line fill="none" stroke="#96ED79" stroke-width="0.300001" x1="210" y1="54" x2="129" y2= "312" />
    <line fill="none" stroke="#96ED79" stroke-width="0.300001" x1="221" y1="61" x2="141" y2= "319" />
    <line fill="none" stroke="#96ED79" stroke-width="0.300001" x1="229" y1="66" x2="149" y2= "324" />
    <line fill="none" stroke="#96ED79" stroke-width="0.300001" x1="241" y1="73" x2="160" y2= "331" />
    <line fill="none" stroke="#96ED79" stroke-width="0.300001" x1="253" y1="80" x2="172" y2= "339" />
    <line fill="none" stroke="#96ED79" stroke-width="0.300001" x1="260" y1="85" x2="180" y2= "344" />
    <line fill="none" stroke="#96ED79" stroke-width="0.300001" x1="272" y1="92" x2="191" y2= "351" />
    <line fill="none" stroke="#96ED79" stroke-width="0.300001" x1="284" y1="99" x2="203" y2= "358" />
    <line fill="none" stroke="#96ED79" stroke-width="0.300001" x1="291" y1="104" x2="211" y2= "363" />
    <line fill="none" stroke="#96ED79" stroke-width="0.300001" x1="300" y1="109" x2="219" y2= "368" />
    <line fill="none" stroke="#96ED79" stroke-width="0.300001" x1="312" y1="116" x2="231" y2= "376" />
    <line fill="none" stroke="#96ED79" stroke-width="0.300001" x1="319" y1="121" x2="238" y2= "381" />
    <line fill="none" stroke="#96ED79" stroke-width="0.300001" x1="329" y1="126" x2="248" y2= "386" />
    <line fill="none" stroke="#96ED79" stroke-width="0.300001" x1="341" y1="134" x2="260" y2= "394" />
    <line fill="none" stroke="#96ED79" stroke-width="0.300001" x1="348" y1="138" x2="267" y2= "399" />
    <line fill="none" stroke="#96ED79" stroke-width="0.300001" x1="361" y1="146" x2="279" y2= "406" />
    <line fill="none" stroke="#96ED79" stroke-width="0.300001" x1="373" y1="153" x2="291" y2= "414" />
    <line fill="none" stroke="#96ED79" stroke-width="0.300001" x1="380" y1="158" x2="299" y2= "419" />
    <line fill="none" stroke="#96ED79" stroke-width="0.300001" x1="342" y1="135" x2="261" y2= "395" />
    <line fill="none" stroke="#96ED79" stroke-width="0.300001" x1="354" y1="142" x2="273" y2= "402" />
    <line fill="none" stroke="#96ED79" stroke-width="0.300001" x1="362" y1="147" x2="281" y2= "407" />
    <line fill="none" stroke="#96ED79" stroke-width="0.300001" x1="375" y1="155" x2="294" y2= "415" />
    <line fill="none" stroke="#96ED79" stroke-width="0.300001" x1="387" y1="162" x2="306" y2= "423" />
    <line fill="none" stroke="#96ED79" stroke-width="0.300001" x1="395" y1="167" x2="313" y2= "428" />
    <line fill="none" stroke="#96ED79" stroke-width="0.300001" x1="397" y1="168" x2="316" y2= "429" />
    <line fill="none" stroke="#96ED79" stroke-width="0.300001" x1="409" y1="175" x2="328" y2= "437" />
    <line fill="none" stroke="#96ED79" stroke-width="0.300001" x1="417" y1="180" x2="336" y2= "442" />
    <line fill="none" stroke="#96ED79" stroke-width="0.300001" x1="438" y1="193" x2="356" y2= "455" />
    <line fill="none" stroke="#96ED79" stroke-width="0.300001" x1="450" y1="200" x2="368" y2= "462" />
    <line fill="none" stroke="#96ED79" stroke-width="0.300001" x1="458" y1="205" x2="376" y2= "467" />
    <line fill="none" stroke="#96ED79" stroke-width="0.300001" x1="469" y1="212" x2="387" y2= "474" />
    <line fill="none" stroke="#96ED79" stroke-width="0.300001" x1="481" y1="219" x2="399" y2= "482" />
    <line fill="none" stroke="#96ED79" stroke-width="0.300001" x1="489" y1="224" x2="407" y2= "486" />
    <line fill="none" stroke="#96ED79" stroke-width="0.300001" x1="500" y1="231" x2="418" y2= "494" />
    <line fill="none" stroke="#96ED79" stroke-width="0.300001" x1="512" y1="238" x2="430" y2= "501" />
    <line fill="none" stroke="#96ED79" stroke-width="0.300001" x1="520" y1="243" x2="438" y2= "506" />
    <line fill="none" stroke="#96ED79" stroke-width="0.300001" x1="528" y1="248" x2="446" y2= "511" />
    <line fill="none" stroke="#96ED79" stroke-width="0.300001" x1="540" y1="255" x2="458" y2= "518" />
    <line fill="none" stroke="#96ED79" stroke-width="0.300001" x1="548" y1="260" x2="466" y2= "523" />
    <line fill="none" stroke="#96ED79" stroke-width="0.300001" x1="557" y1="265" x2="475" y2= "529" />
    <line fill="none" stroke="#96ED79" stroke-width="0.300001" x1="569" y1="273" x2="487" y2= "536" />
    <line fill="none" stroke="#96ED79" stroke-width="0.300001" x1="577" y1="277" x2="495" y2= "541" />
    <line fill="none" stroke="#96ED79" stroke-width="0.300001" x1="589" y1="285" x2="507" y2= "549" />
    <line fill="none" stroke="#96ED79" stroke-width="0.300001" x1="601" y1="292" x2="527" y2= "531" />
    <line fill="none" stroke="#96ED79" stroke-width="0.300001" x1="609" y1="297" x2="544" y2= "504" />
    <line fill="none" stroke="#96ED79" stroke-width="0.300001" x1="598" y1="290" x2="519" y2= "544" />
    <line fill="none" stroke="#96ED79" stroke-width="0.300001" x1="610" y1="297" x2="546" y2= "501" />
    <line fill="none" stroke="#96ED79" stroke-width="0.300001" x1="617" y1="302" x2="564" y2= "473" />
    <line fill="none" stroke="#96ED79" stroke-width="0.300001" x1="630" y1="310" x2="594" y2= "426" />
    <line fill="none" stroke="#96ED79" stroke-width="0.300001" x1="642" y1="317" x2="622" y2= "384" />
    <line fill="none" stroke="#96ED79" stroke-width="0.300001" x1="650" y1="322" x2="640" y2= "356" />
    <line fill="none" stroke="#96ED79" stroke-width="0.300001" x1="653" y1="324" x2="645" y2= "348" />
    <line fill="none" stroke="#96ED79" stroke-width="0.300001" x1="211" y1="55" x2="185" y2= "47" />
    <line fill="none" stroke="#96ED79" stroke-width="0.300001" x1="273" y1="93" x2="180" y2= "63" />
    <line fill="none" stroke="#96ED79" stroke-width="0.300001" x1="363" y1="147" x2="172" y2= "88" />
    <line fill="none" stroke="#96ED79" stroke-width="0.300001" x1="325" y1="124" x2="175" y2= "78" />
    <line fill="none" stroke="#96ED79" stroke-width="0.300001" x1="434" y1="190" x2="166" y2= "107" />
    <line fill="none" stroke="#96ED79" stroke-width="0.300001" x1="434" y1="190" x2="166" y2= "107" />
    <line fill="none" stroke="#96ED79" stroke-width="0.300001" x1="497" y1="229" x2="161" y2= "124" />
    <line fill="none" stroke="#96ED79" stroke-width="0.300001" x1="539" y1="254" x2="158" y2= "136" />
    <line fill="none" stroke="#96ED79" stroke-width="0.300001" x1="613" y1="299" x2="152" y2= "156" />
    <line fill="none" stroke="#96ED79" stroke-width="0.300001" x1="656" y1="331" x2="147" y2= "173" />
    <line fill="none" stroke="#96ED79" stroke-width="0.300001" x1="641" y1="353" x2="139" y2= "197" />
    <line fill="none" stroke="#96ED79" stroke-width="0.300001" x1="647" y1="344" x2="143" y2= "187" />
    <line fill="none" stroke="#96ED79" stroke-width="0.300001" x1="630" y1="371" x2="134" y2= "216" />
    <line fill="none" stroke="#96ED79" stroke-width="0.300001" x1="627" y1="376" x2="132" y2= "222" />
    <line fill="none" stroke="#96ED79" stroke-width="0.300001" x1="617" y1="392" x2="127" y2= "239" />
    <line fill="none" stroke="#96ED79" stroke-width="0.300001" x1="610" y1="402" x2="123" y2= "250" />
    <line fill="none" stroke="#96ED79" stroke-width="0.300001" x1="598" y1="420" x2="117" y2= "270" />
    <line fill="none" stroke="#96ED79" stroke-width="0.300001" x1="588" y1="436" x2="112" y2= "287" />
    <line fill="none" stroke="#96ED79" stroke-width="0.300001" x1="574" y1="458" x2="152" y2= "326" />
    <line fill="none" stroke="#96ED79" stroke-width="0.300001" x1="580" y1="449" x2="117" y2= "304" />
    <line fill="none" stroke="#96ED79" stroke-width="0.300001" x1="563" y1="475" x2="219" y2= "368" />
    <line fill="none" stroke="#96ED79" stroke-width="0.300001" x1="553" y1="490" x2="275" y2= "404" />
    <line fill="none" stroke="#96ED79" stroke-width="0.300001" x1="543" y1="506" x2="335" y2= "441" />
    <line fill="none" stroke="#96ED79" stroke-width="0.300001" x1="536" y1="516" x2="375" y2= "466" />
    <line fill="none" stroke="#96ED79" stroke-width="0.300001" x1="524" y1="535" x2="444" y2= "509" />
    <line fill="none" stroke="#96ED79" stroke-width="0.300001" x1="514" y1="550" x2="502" y2= "546" />
   </g>
  </g>
  <path fill="white" fill-rule="nonzero" d="M526 399c3,2 4,6 2,10 -2,3 -6,5 -10,2l-337 -206c-4,-2 -5,-7 -2,-10 2,-4 6,-5 10,-3l337 207z"/>
 </g>
 <g id="landmarks-mz22">
  <metadata id="CorelCorpID_1Corel-Layer"/>
  <polygon id="m22lote2" fill="#35AD0E" points="237,270 204,249 161,318 195,338 "/>
  <polygon id="m22lote3" fill="#35AD0E" points="272,291 239,270 196,339 230,360 "/>
  <polygon id="m22lote4" fill="#35AD0E" points="308,313 274,292 232,361 265,382 "/>
  <polygon id="m22lote5" fill="#35AD0E" points="343,335 309,314 267,383 300,403 "/>
  <polygon id="m22lote6" fill="#35AD0E" points="378,356 345,335 302,404 336,425 "/>
  <polygon id="m22lote7" fill="#35AD0E" points="413,378 379,357 337,426 371,447 "/>
  <polygon id="m22lote8" fill="#35AD0E" points="448,399 415,379 372,447 406,468 "/>
  <polygon id="m22lote9" fill="#35AD0E" points="483,421 450,400 407,469 441,490 "/>
  <polygon id="m22lote10" fill="#35AD0E" points="518,442 485,422 442,490 476,511 "/>
  <polygon id="m22lote11" fill="#35AD0E" points="554,464 520,444 478,512 511,533 "/>
  <polygon id="m22lote1" fill="#35AD0E" points="202,248 150,216 126,296 160,317 "/>
  <polygon id="m22lote21" fill="#35AD0E" points="320,138 287,118 241,192 274,213 "/>
  <polygon id="m22lote20" fill="#35AD0E" points="355,160 322,140 276,214 309,235 "/>
  <polygon id="m22lote19" fill="#35AD0E" points="391,182 357,161 311,235 345,256 "/>
  <polygon id="m22lote18" fill="#35AD0E" points="426,203 392,183 346,257 380,278 "/>
  <polygon id="m22lote17" fill="#35AD0E" points="461,225 427,204 381,279 415,300 "/>
  <polygon id="m22lote16" fill="#35AD0E" points="496,247 462,226 416,300 450,321 "/>
  <polygon id="m22lote15" fill="#35AD0E" points="531,268 497,248 451,322 485,343 "/>
  <polygon id="m22lote14" fill="#35AD0E" points="566,290 532,269 486,344 520,364 "/>
  <polygon id="m22lote13" fill="#35AD0E" points="601,312 568,291 522,365 555,386 "/>
  <polygon id="m22lote12" fill="#35AD0E" points="637,333 603,312 557,387 591,408 "/>
  <polygon id="m22lote22" fill="#35AD0E" points="285,117 251,96 205,170 239,191 "/>
  <polygon id="m22lote23" fill="#35AD0E" points="250,95 196,63 170,149 204,170 "/>
 </g>
</svg>
