<?xml version="1.0" encoding="UTF-8"?>
<!DOCTYPE svg PUBLIC "-//W3C//DTD SVG 1.1//EN" "http://www.w3.org/Graphics/SVG/1.1/DTD/svg11.dtd">
<!-- Creator: CorelDRAW X8 -->
<svg xmlns="http://www.w3.org/2000/svg" xml:space="preserve" width="800px" height="600px" version="1.1" shape-rendering="geometricPrecision" text-rendering="geometricPrecision" image-rendering="optimizeQuality" fill-rule="evenodd" clip-rule="evenodd"
viewBox="0 0 800 600"
 xmlns:xlink="http://www.w3.org/1999/xlink">
 <g id="base">
  <metadata id="CorelCorpID_0Corel-Layer"/>
  <polygon fill="#35AD0E" points="287,140 613,338 512,494 233,319 "/>
  <g id="_2069967901584">
   <polygon fill="#63D13E" points="286,131 612,329 511,485 232,310 "/>
   <g>
    <line fill="none" stroke="#96ED79" stroke-width="0.300001" x1="287" y1="131" x2="244" y2= "272" />
    <line fill="none" stroke="#96ED79" stroke-width="0.300001" x1="302" y1="140" x2="246" y2= "319" />
    <line fill="none" stroke="#96ED79" stroke-width="0.300001" x1="310" y1="145" x2="255" y2= "324" />
    <line fill="none" stroke="#96ED79" stroke-width="0.300001" x1="316" y1="149" x2="260" y2= "327" />
    <line fill="none" stroke="#96ED79" stroke-width="0.300001" x1="324" y1="153" x2="268" y2= "332" />
    <line fill="none" stroke="#96ED79" stroke-width="0.300001" x1="332" y1="158" x2="276" y2= "337" />
    <line fill="none" stroke="#96ED79" stroke-width="0.300001" x1="337" y1="162" x2="281" y2= "340" />
    <line fill="none" stroke="#96ED79" stroke-width="0.300001" x1="345" y1="166" x2="289" y2= "345" />
    <line fill="none" stroke="#96ED79" stroke-width="0.300001" x1="353" y1="171" x2="297" y2= "351" />
    <line fill="none" stroke="#96ED79" stroke-width="0.300001" x1="359" y1="175" x2="303" y2= "354" />
    <line fill="none" stroke="#96ED79" stroke-width="0.300001" x1="364" y1="178" x2="308" y2= "357" />
    <line fill="none" stroke="#96ED79" stroke-width="0.300001" x1="373" y1="183" x2="317" y2= "363" />
    <line fill="none" stroke="#96ED79" stroke-width="0.300001" x1="378" y1="186" x2="322" y2= "366" />
    <line fill="none" stroke="#96ED79" stroke-width="0.300001" x1="384" y1="190" x2="328" y2= "370" />
    <line fill="none" stroke="#96ED79" stroke-width="0.300001" x1="392" y1="195" x2="337" y2= "375" />
    <line fill="none" stroke="#96ED79" stroke-width="0.300001" x1="398" y1="199" x2="342" y2= "378" />
    <line fill="none" stroke="#96ED79" stroke-width="0.300001" x1="406" y1="204" x2="350" y2= "384" />
    <line fill="none" stroke="#96ED79" stroke-width="0.300001" x1="415" y1="209" x2="359" y2= "389" />
    <line fill="none" stroke="#96ED79" stroke-width="0.300001" x1="420" y1="212" x2="364" y2= "392" />
    <line fill="none" stroke="#96ED79" stroke-width="0.300001" x1="394" y1="196" x2="338" y2= "376" />
    <line fill="none" stroke="#96ED79" stroke-width="0.300001" x1="402" y1="201" x2="346" y2= "381" />
    <line fill="none" stroke="#96ED79" stroke-width="0.300001" x1="407" y1="204" x2="351" y2= "384" />
    <line fill="none" stroke="#96ED79" stroke-width="0.300001" x1="416" y1="210" x2="360" y2= "390" />
    <line fill="none" stroke="#96ED79" stroke-width="0.300001" x1="425" y1="215" x2="368" y2= "395" />
    <line fill="none" stroke="#96ED79" stroke-width="0.300001" x1="430" y1="218" x2="374" y2= "398" />
    <line fill="none" stroke="#96ED79" stroke-width="0.300001" x1="432" y1="219" x2="375" y2= "399" />
    <line fill="none" stroke="#96ED79" stroke-width="0.300001" x1="440" y1="224" x2="384" y2= "405" />
    <line fill="none" stroke="#96ED79" stroke-width="0.300001" x1="445" y1="227" x2="389" y2= "408" />
    <line fill="none" stroke="#96ED79" stroke-width="0.300001" x1="460" y1="236" x2="403" y2= "417" />
    <line fill="none" stroke="#96ED79" stroke-width="0.300001" x1="468" y1="241" x2="412" y2= "422" />
    <line fill="none" stroke="#96ED79" stroke-width="0.300001" x1="473" y1="245" x2="417" y2= "426" />
    <line fill="none" stroke="#96ED79" stroke-width="0.300001" x1="481" y1="249" x2="425" y2= "430" />
    <line fill="none" stroke="#96ED79" stroke-width="0.300001" x1="490" y1="254" x2="433" y2= "436" />
    <line fill="none" stroke="#96ED79" stroke-width="0.300001" x1="495" y1="258" x2="438" y2= "439" />
    <line fill="none" stroke="#96ED79" stroke-width="0.300001" x1="503" y1="262" x2="446" y2= "444" />
    <line fill="none" stroke="#96ED79" stroke-width="0.300001" x1="511" y1="267" x2="454" y2= "449" />
    <line fill="none" stroke="#96ED79" stroke-width="0.300001" x1="516" y1="271" x2="460" y2= "452" />
    <line fill="none" stroke="#96ED79" stroke-width="0.300001" x1="522" y1="274" x2="465" y2= "456" />
    <line fill="none" stroke="#96ED79" stroke-width="0.300001" x1="530" y1="279" x2="474" y2= "461" />
    <line fill="none" stroke="#96ED79" stroke-width="0.300001" x1="536" y1="282" x2="479" y2= "464" />
    <line fill="none" stroke="#96ED79" stroke-width="0.300001" x1="542" y1="286" x2="485" y2= "468" />
    <line fill="none" stroke="#96ED79" stroke-width="0.300001" x1="550" y1="291" x2="494" y2= "474" />
    <line fill="none" stroke="#96ED79" stroke-width="0.300001" x1="556" y1="295" x2="499" y2= "477" />
    <line fill="none" stroke="#96ED79" stroke-width="0.300001" x1="564" y1="300" x2="507" y2= "482" />
    <line fill="none" stroke="#96ED79" stroke-width="0.300001" x1="572" y1="305" x2="521" y2= "470" />
    <line fill="none" stroke="#96ED79" stroke-width="0.300001" x1="578" y1="308" x2="533" y2= "451" />
    <line fill="none" stroke="#96ED79" stroke-width="0.300001" x1="570" y1="303" x2="515" y2= "478" />
    <line fill="none" stroke="#96ED79" stroke-width="0.300001" x1="578" y1="308" x2="534" y2= "449" />
    <line fill="none" stroke="#96ED79" stroke-width="0.300001" x1="584" y1="312" x2="547" y2= "430" />
    <line fill="none" stroke="#96ED79" stroke-width="0.300001" x1="593" y1="317" x2="568" y2= "398" />
    <line fill="none" stroke="#96ED79" stroke-width="0.300001" x1="601" y1="322" x2="587" y2= "368" />
    <line fill="none" stroke="#96ED79" stroke-width="0.300001" x1="606" y1="325" x2="599" y2= "349" />
    <line fill="none" stroke="#96ED79" stroke-width="0.300001" x1="608" y1="326" x2="603" y2= "343" />
    <line fill="none" stroke="#96ED79" stroke-width="0.300001" x1="303" y1="141" x2="285" y2= "135" />
    <line fill="none" stroke="#96ED79" stroke-width="0.300001" x1="346" y1="167" x2="281" y2= "147" />
    <line fill="none" stroke="#96ED79" stroke-width="0.300001" x1="408" y1="205" x2="276" y2= "164" />
    <line fill="none" stroke="#96ED79" stroke-width="0.300001" x1="382" y1="189" x2="278" y2= "157" />
    <line fill="none" stroke="#96ED79" stroke-width="0.300001" x1="457" y1="235" x2="272" y2= "177" />
    <line fill="none" stroke="#96ED79" stroke-width="0.300001" x1="457" y1="234" x2="272" y2= "177" />
    <line fill="none" stroke="#96ED79" stroke-width="0.300001" x1="501" y1="261" x2="269" y2= "189" />
    <line fill="none" stroke="#96ED79" stroke-width="0.300001" x1="530" y1="279" x2="266" y2= "197" />
    <line fill="none" stroke="#96ED79" stroke-width="0.300001" x1="580" y1="310" x2="262" y2= "211" />
    <line fill="none" stroke="#96ED79" stroke-width="0.300001" x1="610" y1="332" x2="259" y2= "222" />
    <line fill="none" stroke="#96ED79" stroke-width="0.300001" x1="600" y1="347" x2="254" y2= "239" />
    <line fill="none" stroke="#96ED79" stroke-width="0.300001" x1="604" y1="341" x2="256" y2= "232" />
    <line fill="none" stroke="#96ED79" stroke-width="0.300001" x1="592" y1="359" x2="250" y2= "252" />
    <line fill="none" stroke="#96ED79" stroke-width="0.300001" x1="590" y1="363" x2="248" y2= "256" />
    <line fill="none" stroke="#96ED79" stroke-width="0.300001" x1="583" y1="374" x2="245" y2= "268" />
    <line fill="none" stroke="#96ED79" stroke-width="0.300001" x1="579" y1="381" x2="242" y2= "276" />
    <line fill="none" stroke="#96ED79" stroke-width="0.300001" x1="570" y1="393" x2="238" y2= "290" />
    <line fill="none" stroke="#96ED79" stroke-width="0.300001" x1="564" y1="404" x2="235" y2= "302" />
    <line fill="none" stroke="#96ED79" stroke-width="0.300001" x1="554" y1="419" x2="262" y2= "328" />
    <line fill="none" stroke="#96ED79" stroke-width="0.300001" x1="558" y1="413" x2="238" y2= "313" />
    <line fill="none" stroke="#96ED79" stroke-width="0.300001" x1="546" y1="431" x2="308" y2= "357" />
    <line fill="none" stroke="#96ED79" stroke-width="0.300001" x1="539" y1="442" x2="347" y2= "382" />
    <line fill="none" stroke="#96ED79" stroke-width="0.300001" x1="532" y1="452" x2="389" y2= "408" />
    <line fill="none" stroke="#96ED79" stroke-width="0.300001" x1="528" y1="460" x2="416" y2= "425" />
    <line fill="none" stroke="#96ED79" stroke-width="0.300001" x1="519" y1="472" x2="464" y2= "455" />
    <line fill="none" stroke="#96ED79" stroke-width="0.300001" x1="513" y1="483" x2="504" y2= "480" />
   </g>
  </g>
  <path fill="white" fill-rule="nonzero" d="M520 378c3,2 4,5 2,7 -1,3 -5,4 -7,2l-233 -142c-2,-2 -3,-5 -1,-7 1,-3 4,-4 7,-2l232 142z"/>
 </g>
 <g id="landmarks-mz22">
  <metadata id="CorelCorpID_1Corel-Layer"/>
  <polygon id="m22lote2" fill="#35AD0E" points="321,289 298,275 269,322 292,337 "/>
  <polygon id="m22lote3" fill="#35AD0E" points="345,304 322,290 293,337 316,352 "/>
  <polygon id="m22lote4" fill="#35AD0E" points="370,319 347,305 317,352 340,367 "/>
  <polygon id="m22lote5" fill="#35AD0E" points="394,334 371,320 342,367 365,382 "/>
  <polygon id="m22lote6" fill="#35AD0E" points="418,349 395,335 366,382 389,397 "/>
  <polygon id="m22lote7" fill="#35AD0E" points="443,364 419,350 390,397 413,411 "/>
  <polygon id="m22lote8" fill="#35AD0E" points="467,379 444,365 414,412 437,426 "/>
  <polygon id="m22lote9" fill="#35AD0E" points="491,394 468,380 438,427 462,441 "/>
  <polygon id="m22lote10" fill="#35AD0E" points="515,409 492,394 463,442 486,456 "/>
  <polygon id="m22lote11" fill="#35AD0E" points="540,424 517,409 487,457 510,471 "/>
  <polygon id="m22lote1" fill="#35AD0E" points="297,274 261,252 244,307 268,322 "/>
  <polygon id="m22lote21" fill="#35AD0E" points="378,199 355,184 323,236 347,250 "/>
  <polygon id="m22lote20" fill="#35AD0E" points="403,213 379,200 348,251 371,265 "/>
  <polygon id="m22lote19" fill="#35AD0E" points="427,229 404,215 372,266 395,280 "/>
  <polygon id="m22lote18" fill="#35AD0E" points="451,244 428,229 396,281 419,295 "/>
  <polygon id="m22lote17" fill="#35AD0E" points="475,258 452,244 421,296 444,310 "/>
  <polygon id="m22lote16" fill="#35AD0E" points="500,273 476,259 445,310 468,325 "/>
  <polygon id="m22lote15" fill="#35AD0E" points="524,288 501,274 469,325 492,340 "/>
  <polygon id="m22lote14" fill="#35AD0E" points="548,303 525,289 493,340 516,355 "/>
  <polygon id="m22lote13" fill="#35AD0E" points="572,318 549,304 518,355 541,369 "/>
  <polygon id="m22lote12" fill="#35AD0E" points="597,333 574,319 542,370 565,385 "/>
  <polygon id="m22lote22" fill="#35AD0E" points="354,184 331,169 299,221 322,235 "/>
  <polygon id="m22lote23" fill="#35AD0E" points="330,169 293,146 275,206 298,220 "/>
 </g>
</svg>
