<?xml version="1.0" encoding="UTF-8"?>
<!DOCTYPE svg PUBLIC "-//W3C//DTD SVG 1.1//EN" "http://www.w3.org/Graphics/SVG/1.1/DTD/svg11.dtd">
<!-- Creator: CorelDRAW X7 -->
<svg xmlns="http://www.w3.org/2000/svg" xml:space="preserve" width="800px" height="600px" version="1.1" shape-rendering="geometricPrecision" text-rendering="geometricPrecision" image-rendering="optimizeQuality" fill-rule="evenodd" clip-rule="evenodd"
viewBox="0 0 800 600"
 xmlns:xlink="http://www.w3.org/1999/xlink">
 <g id="base">
  <metadata id="CorelCorpID_0Corel-Layer"/>
  <path fill="#35AD0E" d="M595 190l-354 396 155 -531c2,-9 2,-11 11,-5l181 111c11,7 17,17 7,29z"/>
  <g id="_491969912">
   <path fill="#63D13E" d="M589 190l-350 391 153 -524c3,-10 3,-11 11,-6l179 110c11,7 17,18 7,29z"/>
   <g>
    <line fill="none" stroke="#96ED79" stroke-width="0.300001" x1="424" y1="64" x2="393" y2= "54" />
    <line fill="none" stroke="#96ED79" stroke-width="0.300001" x1="464" y1="89" x2="390" y2= "66" />
    <line fill="none" stroke="#96ED79" stroke-width="0.300001" x1="491" y1="105" x2="387" y2= "73" />
    <line fill="none" stroke="#96ED79" stroke-width="0.300001" x1="499" y1="110" x2="387" y2= "75" />
    <line fill="none" stroke="#96ED79" stroke-width="0.300001" x1="539" y1="135" x2="384" y2= "86" />
    <line fill="none" stroke="#96ED79" stroke-width="0.300001" x1="566" y1="151" x2="381" y2= "94" />
    <line fill="none" stroke="#96ED79" stroke-width="0.300001" x1="594" y1="182" x2="376" y2= "114" />
    <line fill="none" stroke="#96ED79" stroke-width="0.300001" x1="588" y1="192" x2="372" y2= "125" />
    <line fill="none" stroke="#96ED79" stroke-width="0.300001" x1="582" y1="198" x2="370" y2= "132" />
    <line fill="none" stroke="#96ED79" stroke-width="0.300001" x1="574" y1="207" x2="367" y2= "143" />
    <line fill="none" stroke="#96ED79" stroke-width="0.300001" x1="565" y1="217" x2="364" y2= "154" />
    <line fill="none" stroke="#96ED79" stroke-width="0.300001" x1="560" y1="223" x2="362" y2= "161" />
    <line fill="none" stroke="#96ED79" stroke-width="0.300001" x1="551" y1="232" x2="359" y2= "172" />
    <line fill="none" stroke="#96ED79" stroke-width="0.300001" x1="543" y1="242" x2="355" y2= "183" />
    <line fill="none" stroke="#96ED79" stroke-width="0.300001" x1="537" y1="248" x2="353" y2= "191" />
    <line fill="none" stroke="#96ED79" stroke-width="0.300001" x1="531" y1="255" x2="351" y2= "198" />
    <line fill="none" stroke="#96ED79" stroke-width="0.300001" x1="523" y1="264" x2="348" y2= "210" />
    <line fill="none" stroke="#96ED79" stroke-width="0.300001" x1="517" y1="270" x2="346" y2= "217" />
    <line fill="none" stroke="#96ED79" stroke-width="0.300001" x1="511" y1="278" x2="343" y2= "226" />
    <line fill="none" stroke="#96ED79" stroke-width="0.300001" x1="502" y1="287" x2="340" y2= "237" />
    <line fill="none" stroke="#96ED79" stroke-width="0.300001" x1="496" y1="294" x2="338" y2= "244" />
    <line fill="none" stroke="#96ED79" stroke-width="0.300001" x1="488" y1="303" x2="334" y2= "256" />
    <line fill="none" stroke="#96ED79" stroke-width="0.300001" x1="479" y1="313" x2="331" y2= "267" />
    <line fill="none" stroke="#96ED79" stroke-width="0.300001" x1="474" y1="319" x2="329" y2= "274" />
    <line fill="none" stroke="#96ED79" stroke-width="0.300001" x1="501" y1="289" x2="339" y2= "238" />
    <line fill="none" stroke="#96ED79" stroke-width="0.300001" x1="492" y1="298" x2="336" y2= "250" />
    <line fill="none" stroke="#96ED79" stroke-width="0.300001" x1="487" y1="304" x2="334" y2= "257" />
    <line fill="none" stroke="#96ED79" stroke-width="0.300001" x1="477" y1="315" x2="330" y2= "269" />
    <line fill="none" stroke="#96ED79" stroke-width="0.300001" x1="469" y1="325" x2="327" y2= "281" />
    <line fill="none" stroke="#96ED79" stroke-width="0.300001" x1="463" y1="331" x2="325" y2= "288" />
    <line fill="none" stroke="#96ED79" stroke-width="0.300001" x1="461" y1="333" x2="324" y2= "290" />
    <line fill="none" stroke="#96ED79" stroke-width="0.300001" x1="453" y1="342" x2="321" y2= "301" />
    <line fill="none" stroke="#96ED79" stroke-width="0.300001" x1="447" y1="349" x2="319" y2= "309" />
    <line fill="none" stroke="#96ED79" stroke-width="0.300001" x1="432" y1="366" x2="313" y2= "328" />
    <line fill="none" stroke="#96ED79" stroke-width="0.300001" x1="424" y1="375" x2="310" y2= "340" />
    <line fill="none" stroke="#96ED79" stroke-width="0.300001" x1="418" y1="381" x2="308" y2= "347" />
    <line fill="none" stroke="#96ED79" stroke-width="0.300001" x1="410" y1="391" x2="304" y2= "358" />
    <line fill="none" stroke="#96ED79" stroke-width="0.300001" x1="401" y1="400" x2="301" y2= "369" />
    <line fill="none" stroke="#96ED79" stroke-width="0.300001" x1="396" y1="406" x2="299" y2= "376" />
    <line fill="none" stroke="#96ED79" stroke-width="0.300001" x1="388" y1="415" x2="296" y2= "387" />
    <line fill="none" stroke="#96ED79" stroke-width="0.300001" x1="379" y1="425" x2="293" y2= "398" />
    <line fill="none" stroke="#96ED79" stroke-width="0.300001" x1="373" y1="431" x2="291" y2= "406" />
    <line fill="none" stroke="#96ED79" stroke-width="0.300001" x1="367" y1="438" x2="288" y2= "413" />
    <line fill="none" stroke="#96ED79" stroke-width="0.300001" x1="359" y1="448" x2="285" y2= "425" />
    <line fill="none" stroke="#96ED79" stroke-width="0.300001" x1="353" y1="454" x2="283" y2= "432" />
    <line fill="none" stroke="#96ED79" stroke-width="0.300001" x1="347" y1="461" x2="280" y2= "441" />
    <line fill="none" stroke="#96ED79" stroke-width="0.300001" x1="338" y1="471" x2="277" y2= "452" />
    <line fill="none" stroke="#96ED79" stroke-width="0.300001" x1="333" y1="477" x2="275" y2= "459" />
    <line fill="none" stroke="#96ED79" stroke-width="0.300001" x1="324" y1="487" x2="272" y2= "471" />
    <line fill="none" stroke="#96ED79" stroke-width="0.300001" x1="315" y1="496" x2="268" y2= "482" />
    <line fill="none" stroke="#96ED79" stroke-width="0.300001" x1="310" y1="503" x2="266" y2= "489" />
    <line fill="none" stroke="#96ED79" stroke-width="0.300001" x1="318" y1="494" x2="269" y2= "479" />
    <line fill="none" stroke="#96ED79" stroke-width="0.300001" x1="309" y1="503" x2="266" y2= "490" />
    <line fill="none" stroke="#96ED79" stroke-width="0.300001" x1="303" y1="509" x2="264" y2= "497" />
    <line fill="none" stroke="#96ED79" stroke-width="0.300001" x1="294" y1="520" x2="260" y2= "510" />
    <line fill="none" stroke="#96ED79" stroke-width="0.300001" x1="285" y1="530" x2="257" y2= "521" />
    <line fill="none" stroke="#96ED79" stroke-width="0.300001" x1="280" y1="536" x2="255" y2= "528" />
    <line fill="none" stroke="#96ED79" stroke-width="0.300001" x1="278" y1="538" x2="254" y2= "530" />
    <line fill="none" stroke="#96ED79" stroke-width="0.300001" x1="270" y1="547" x2="251" y2= "542" />
    <line fill="none" stroke="#96ED79" stroke-width="0.300001" x1="264" y1="554" x2="249" y2= "549" />
    <line fill="none" stroke="#96ED79" stroke-width="0.300001" x1="249" y1="571" x2="243" y2= "569" />
    <line fill="none" stroke="#96ED79" stroke-width="0.300001" x1="240" y1="580" x2="240" y2= "580" />
    <line fill="none" stroke="#96ED79" stroke-width="0.300001" x1="587" y1="193" x2="593" y2= "173" />
    <line fill="none" stroke="#96ED79" stroke-width="0.300001" x1="562" y1="220" x2="581" y2= "161" />
    <line fill="none" stroke="#96ED79" stroke-width="0.300001" x1="527" y1="259" x2="562" y2= "149" />
    <line fill="none" stroke="#96ED79" stroke-width="0.300001" x1="542" y1="243" x2="570" y2= "154" />
    <line fill="none" stroke="#96ED79" stroke-width="0.300001" x1="499" y1="291" x2="546" y2= "139" />
    <line fill="none" stroke="#96ED79" stroke-width="0.300001" x1="499" y1="290" x2="546" y2= "139" />
    <line fill="none" stroke="#96ED79" stroke-width="0.300001" x1="474" y1="318" x2="533" y2= "131" />
    <line fill="none" stroke="#96ED79" stroke-width="0.300001" x1="458" y1="337" x2="524" y2= "125" />
    <line fill="none" stroke="#96ED79" stroke-width="0.300001" x1="429" y1="369" x2="508" y2= "116" />
    <line fill="none" stroke="#96ED79" stroke-width="0.300001" x1="404" y1="397" x2="494" y2= "107" />
    <line fill="none" stroke="#96ED79" stroke-width="0.300001" x1="369" y1="436" x2="475" y2= "95" />
    <line fill="none" stroke="#96ED79" stroke-width="0.300001" x1="384" y1="420" x2="483" y2= "100" />
    <line fill="none" stroke="#96ED79" stroke-width="0.300001" x1="341" y1="467" x2="460" y2= "86" />
    <line fill="none" stroke="#96ED79" stroke-width="0.300001" x1="333" y1="476" x2="456" y2= "83" />
    <line fill="none" stroke="#96ED79" stroke-width="0.300001" x1="308" y1="504" x2="442" y2= "75" />
    <line fill="none" stroke="#96ED79" stroke-width="0.300001" x1="292" y1="523" x2="433" y2= "69" />
    <line fill="none" stroke="#96ED79" stroke-width="0.300001" x1="263" y1="555" x2="417" y2= "60" />
    <line fill="none" stroke="#96ED79" stroke-width="0.300001" x1="250" y1="543" x2="404" y2= "51" />
   </g>
  </g>
 </g>
 <g id="landmarks-mz23">
  <metadata id="CorelCorpID_1Corel-Layer"/>
  <polygon id="m23lote21" fill="#35AD0E" points="305,504 278,480 266,494 294,518 "/>
  <polygon id="m23lote20" fill="#35AD0E" points="318,490 291,466 279,480 306,504 "/>
  <polygon id="m23lote19" fill="#35AD0E" points="330,477 303,452 291,466 318,490 "/>
  <polygon id="m23lote18" fill="#35AD0E" points="343,463 315,439 304,452 331,476 "/>
  <polygon id="m23lote17" fill="#35AD0E" points="355,449 328,425 316,438 343,462 "/>
  <polygon id="m23lote16" fill="#35AD0E" points="367,435 340,411 328,424 355,448 "/>
  <polygon id="m23lote15" fill="#35AD0E" points="379,421 352,397 340,410 368,434 "/>
  <polygon id="m23lote14" fill="#35AD0E" points="392,407 365,383 353,396 380,421 "/>
  <polygon id="m23lote13" fill="#35AD0E" points="404,394 377,369 365,383 392,407 "/>
  <polygon id="m23lote12" fill="#35AD0E" points="416,380 389,355 377,369 405,393 "/>
  <polygon id="m23lote11" fill="#35AD0E" points="428,366 401,341 390,355 417,379 "/>
  <polygon id="m23lote10" fill="#35AD0E" points="441,352 414,328 402,341 429,365 "/>
  <polygon id="m23lote9" fill="#35AD0E" points="453,338 426,314 414,327 441,351 "/>
  <polygon id="m23lote8" fill="#35AD0E" points="466,324 438,300 427,313 454,337 "/>
  <polygon id="m23lote7" fill="#35AD0E" points="478,310 451,286 439,299 466,323 "/>
  <polygon id="m23lote6" fill="#35AD0E" points="490,296 463,272 451,285 478,310 "/>
  <polygon id="m23lote5" fill="#35AD0E" points="503,282 475,258 464,272 491,296 "/>
  <polygon id="m23lote4" fill="#35AD0E" points="515,268 488,244 476,258 503,282 "/>
  <polygon id="m23lote3" fill="#35AD0E" points="527,255 500,231 488,244 515,268 "/>
  <polygon id="m23lote2" fill="#35AD0E" points="540,241 512,217 501,230 528,254 "/>
  <polygon id="m23lote1" fill="#35AD0E" points="552,227 525,203 513,216 540,240 "/>
  <polygon id="m23lote22" fill="#35AD0E" points="329,410 295,400 290,417 324,427 "/>
  <polygon id="m23lote23" fill="#35AD0E" points="335,392 300,382 295,399 330,409 "/>
  <polygon id="m23lote24" fill="#35AD0E" points="340,374 306,364 300,381 335,391 "/>
  <polygon id="m23lote25" fill="#35AD0E" points="346,357 311,346 306,363 340,374 "/>
  <polygon id="m23lote26" fill="#35AD0E" points="351,339 316,328 311,345 346,356 "/>
  <polygon id="m23lote27" fill="#35AD0E" points="356,321 322,311 316,328 351,338 "/>
  <polygon id="m23lote28" fill="#35AD0E" points="362,303 327,293 322,310 356,320 "/>
  <polygon id="m23lote29" fill="#35AD0E" points="367,286 332,275 327,292 362,303 "/>
  <polygon id="m23lote30" fill="#35AD0E" points="372,268 338,257 332,274 367,285 "/>
  <polygon id="m23lote31" fill="#35AD0E" points="378,250 343,240 338,257 373,267 "/>
  <polygon id="m23lote32" fill="#35AD0E" points="383,232 348,222 343,239 378,249 "/>
  <polygon id="m23lote33" fill="#35AD0E" points="388,214 354,204 348,221 383,232 "/>
  <polygon id="m23lote34" fill="#35AD0E" points="394,197 359,186 354,203 389,214 "/>
  <polygon id="m23lote35" fill="#35AD0E" points="399,179 364,169 359,186 394,196 "/>
  <polygon id="m23lote36" fill="#35AD0E" points="404,161 370,151 365,168 399,178 "/>
  <polygon id="m23lote37" fill="#35AD0E" points="410,143 375,133 370,150 405,160 "/>
  <polygon id="m23lote38" fill="#35AD0E" points="415,126 380,115 375,132 410,143 "/>
 </g>
</svg>
