<?xml version="1.0" encoding="UTF-8"?>
<!DOCTYPE svg PUBLIC "-//W3C//DTD SVG 1.1//EN" "http://www.w3.org/Graphics/SVG/1.1/DTD/svg11.dtd">
<!-- Creator: CorelDRAW X8 -->
<svg xmlns="http://www.w3.org/2000/svg" xml:space="preserve" width="800px" height="600px" version="1.1" shape-rendering="geometricPrecision" text-rendering="geometricPrecision" image-rendering="optimizeQuality" fill-rule="evenodd" clip-rule="evenodd"
viewBox="0 0 800 600"
 xmlns:xlink="http://www.w3.org/1999/xlink">
 <g id="base">
  <metadata id="CorelCorpID_0Corel-Layer"/>
  <path fill="#35AD0E" d="M536 232l-235 263 103 -353c1,-6 1,-7 7,-3l120 74c8,5 12,12 5,19z"/>
  <g id="_2070014231728">
   <path fill="#63D13E" d="M532 232l-232 260 101 -348c2,-7 2,-8 8,-4l119 73c7,5 11,12 4,19z"/>
   <g>
    <line fill="none" stroke="#96ED79" stroke-width="0.300001" x1="423" y1="149" x2="402" y2= "142" />
    <line fill="none" stroke="#96ED79" stroke-width="0.300001" x1="449" y1="165" x2="400" y2= "150" />
    <line fill="none" stroke="#96ED79" stroke-width="0.300001" x1="467" y1="176" x2="398" y2= "154" />
    <line fill="none" stroke="#96ED79" stroke-width="0.300001" x1="472" y1="179" x2="398" y2= "156" />
    <line fill="none" stroke="#96ED79" stroke-width="0.300001" x1="499" y1="196" x2="396" y2= "163" />
    <line fill="none" stroke="#96ED79" stroke-width="0.300001" x1="517" y1="206" x2="394" y2= "168" />
    <line fill="none" stroke="#96ED79" stroke-width="0.300001" x1="536" y1="227" x2="390" y2= "181" />
    <line fill="none" stroke="#96ED79" stroke-width="0.300001" x1="531" y1="233" x2="388" y2= "189" />
    <line fill="none" stroke="#96ED79" stroke-width="0.300001" x1="528" y1="238" x2="387" y2= "194" />
    <line fill="none" stroke="#96ED79" stroke-width="0.300001" x1="522" y1="244" x2="385" y2= "201" />
    <line fill="none" stroke="#96ED79" stroke-width="0.300001" x1="516" y1="250" x2="383" y2= "208" />
    <line fill="none" stroke="#96ED79" stroke-width="0.300001" x1="513" y1="254" x2="381" y2= "213" />
    <line fill="none" stroke="#96ED79" stroke-width="0.300001" x1="507" y1="260" x2="379" y2= "220" />
    <line fill="none" stroke="#96ED79" stroke-width="0.300001" x1="502" y1="267" x2="377" y2= "228" />
    <line fill="none" stroke="#96ED79" stroke-width="0.300001" x1="498" y1="271" x2="375" y2= "233" />
    <line fill="none" stroke="#96ED79" stroke-width="0.300001" x1="494" y1="275" x2="374" y2= "238" />
    <line fill="none" stroke="#96ED79" stroke-width="0.300001" x1="488" y1="282" x2="372" y2= "245" />
    <line fill="none" stroke="#96ED79" stroke-width="0.300001" x1="485" y1="286" x2="370" y2= "250" />
    <line fill="none" stroke="#96ED79" stroke-width="0.300001" x1="480" y1="291" x2="369" y2= "256" />
    <line fill="none" stroke="#96ED79" stroke-width="0.300001" x1="474" y1="297" x2="367" y2= "263" />
    <line fill="none" stroke="#96ED79" stroke-width="0.300001" x1="471" y1="301" x2="365" y2= "268" />
    <line fill="none" stroke="#96ED79" stroke-width="0.300001" x1="465" y1="308" x2="363" y2= "276" />
    <line fill="none" stroke="#96ED79" stroke-width="0.300001" x1="459" y1="314" x2="361" y2= "283" />
    <line fill="none" stroke="#96ED79" stroke-width="0.300001" x1="456" y1="318" x2="359" y2= "288" />
    <line fill="none" stroke="#96ED79" stroke-width="0.300001" x1="474" y1="298" x2="366" y2= "264" />
    <line fill="none" stroke="#96ED79" stroke-width="0.300001" x1="468" y1="304" x2="364" y2= "272" />
    <line fill="none" stroke="#96ED79" stroke-width="0.300001" x1="464" y1="308" x2="363" y2= "277" />
    <line fill="none" stroke="#96ED79" stroke-width="0.300001" x1="458" y1="315" x2="360" y2= "285" />
    <line fill="none" stroke="#96ED79" stroke-width="0.300001" x1="452" y1="322" x2="358" y2= "292" />
    <line fill="none" stroke="#96ED79" stroke-width="0.300001" x1="449" y1="326" x2="357" y2= "297" />
    <line fill="none" stroke="#96ED79" stroke-width="0.300001" x1="447" y1="327" x2="356" y2= "299" />
    <line fill="none" stroke="#96ED79" stroke-width="0.300001" x1="442" y1="334" x2="354" y2= "306" />
    <line fill="none" stroke="#96ED79" stroke-width="0.300001" x1="438" y1="338" x2="353" y2= "311" />
    <line fill="none" stroke="#96ED79" stroke-width="0.300001" x1="428" y1="349" x2="349" y2= "324" />
    <line fill="none" stroke="#96ED79" stroke-width="0.300001" x1="422" y1="355" x2="347" y2= "332" />
    <line fill="none" stroke="#96ED79" stroke-width="0.300001" x1="419" y1="360" x2="345" y2= "337" />
    <line fill="none" stroke="#96ED79" stroke-width="0.300001" x1="413" y1="366" x2="343" y2= "344" />
    <line fill="none" stroke="#96ED79" stroke-width="0.300001" x1="407" y1="372" x2="341" y2= "351" />
    <line fill="none" stroke="#96ED79" stroke-width="0.300001" x1="404" y1="376" x2="339" y2= "356" />
    <line fill="none" stroke="#96ED79" stroke-width="0.300001" x1="398" y1="382" x2="337" y2= "363" />
    <line fill="none" stroke="#96ED79" stroke-width="0.300001" x1="393" y1="389" x2="335" y2= "371" />
    <line fill="none" stroke="#96ED79" stroke-width="0.300001" x1="389" y1="393" x2="334" y2= "376" />
    <line fill="none" stroke="#96ED79" stroke-width="0.300001" x1="385" y1="397" x2="332" y2= "381" />
    <line fill="none" stroke="#96ED79" stroke-width="0.300001" x1="379" y1="404" x2="330" y2= "388" />
    <line fill="none" stroke="#96ED79" stroke-width="0.300001" x1="376" y1="408" x2="329" y2= "393" />
    <line fill="none" stroke="#96ED79" stroke-width="0.300001" x1="371" y1="413" x2="327" y2= "399" />
    <line fill="none" stroke="#96ED79" stroke-width="0.300001" x1="365" y1="419" x2="325" y2= "406" />
    <line fill="none" stroke="#96ED79" stroke-width="0.300001" x1="362" y1="423" x2="323" y2= "411" />
    <line fill="none" stroke="#96ED79" stroke-width="0.300001" x1="356" y1="430" x2="321" y2= "419" />
    <line fill="none" stroke="#96ED79" stroke-width="0.300001" x1="350" y1="436" x2="319" y2= "426" />
    <line fill="none" stroke="#96ED79" stroke-width="0.300001" x1="346" y1="440" x2="318" y2= "431" />
    <line fill="none" stroke="#96ED79" stroke-width="0.300001" x1="352" y1="434" x2="320" y2= "424" />
    <line fill="none" stroke="#96ED79" stroke-width="0.300001" x1="346" y1="441" x2="318" y2= "432" />
    <line fill="none" stroke="#96ED79" stroke-width="0.300001" x1="342" y1="445" x2="316" y2= "436" />
    <line fill="none" stroke="#96ED79" stroke-width="0.300001" x1="336" y1="452" x2="314" y2= "445" />
    <line fill="none" stroke="#96ED79" stroke-width="0.300001" x1="330" y1="458" x2="312" y2= "452" />
    <line fill="none" stroke="#96ED79" stroke-width="0.300001" x1="327" y1="462" x2="310" y2= "457" />
    <line fill="none" stroke="#96ED79" stroke-width="0.300001" x1="326" y1="464" x2="310" y2= "459" />
    <line fill="none" stroke="#96ED79" stroke-width="0.300001" x1="320" y1="470" x2="307" y2= "466" />
    <line fill="none" stroke="#96ED79" stroke-width="0.300001" x1="316" y1="474" x2="306" y2= "471" />
    <line fill="none" stroke="#96ED79" stroke-width="0.300001" x1="306" y1="485" x2="302" y2= "484" />
    <line fill="none" stroke="#96ED79" stroke-width="0.300001" x1="300" y1="492" x2="300" y2= "492" />
    <line fill="none" stroke="#96ED79" stroke-width="0.300001" x1="531" y1="234" x2="535" y2= "221" />
    <line fill="none" stroke="#96ED79" stroke-width="0.300001" x1="515" y1="252" x2="527" y2= "213" />
    <line fill="none" stroke="#96ED79" stroke-width="0.300001" x1="491" y1="278" x2="514" y2= "205" />
    <line fill="none" stroke="#96ED79" stroke-width="0.300001" x1="501" y1="267" x2="519" y2= "208" />
    <line fill="none" stroke="#96ED79" stroke-width="0.300001" x1="473" y1="299" x2="504" y2= "199" />
    <line fill="none" stroke="#96ED79" stroke-width="0.300001" x1="473" y1="299" x2="504" y2= "199" />
    <line fill="none" stroke="#96ED79" stroke-width="0.300001" x1="456" y1="318" x2="495" y2= "193" />
    <line fill="none" stroke="#96ED79" stroke-width="0.300001" x1="445" y1="330" x2="489" y2= "189" />
    <line fill="none" stroke="#96ED79" stroke-width="0.300001" x1="426" y1="352" x2="478" y2= "183" />
    <line fill="none" stroke="#96ED79" stroke-width="0.300001" x1="409" y1="370" x2="469" y2= "177" />
    <line fill="none" stroke="#96ED79" stroke-width="0.300001" x1="386" y1="396" x2="457" y2= "169" />
    <line fill="none" stroke="#96ED79" stroke-width="0.300001" x1="396" y1="385" x2="462" y2= "173" />
    <line fill="none" stroke="#96ED79" stroke-width="0.300001" x1="367" y1="417" x2="446" y2= "163" />
    <line fill="none" stroke="#96ED79" stroke-width="0.300001" x1="362" y1="423" x2="444" y2= "161" />
    <line fill="none" stroke="#96ED79" stroke-width="0.300001" x1="346" y1="441" x2="434" y2= "156" />
    <line fill="none" stroke="#96ED79" stroke-width="0.300001" x1="335" y1="453" x2="428" y2= "152" />
    <line fill="none" stroke="#96ED79" stroke-width="0.300001" x1="315" y1="475" x2="418" y2= "146" />
    <line fill="none" stroke="#96ED79" stroke-width="0.300001" x1="307" y1="467" x2="409" y2= "140" />
   </g>
  </g>
 </g>
 <g id="landmarks-mz23">
  <metadata id="CorelCorpID_1Corel-Layer"/>
  <polygon id="m23lote21" fill="#35AD0E" points="344,441 326,425 318,434 336,450 "/>
  <polygon id="m23lote20" fill="#35AD0E" points="352,432 334,416 326,425 344,441 "/>
  <polygon id="m23lote19" fill="#35AD0E" points="360,423 342,407 334,416 352,432 "/>
  <polygon id="m23lote18" fill="#35AD0E" points="368,414 350,398 342,406 361,422 "/>
  <polygon id="m23lote17" fill="#35AD0E" points="377,404 359,388 351,397 369,413 "/>
  <polygon id="m23lote16" fill="#35AD0E" points="385,395 367,379 359,388 377,404 "/>
  <polygon id="m23lote15" fill="#35AD0E" points="393,386 375,370 367,379 385,395 "/>
  <polygon id="m23lote14" fill="#35AD0E" points="401,377 383,361 375,370 393,386 "/>
  <polygon id="m23lote13" fill="#35AD0E" points="409,368 391,352 383,360 401,376 "/>
  <polygon id="m23lote12" fill="#35AD0E" points="418,358 399,342 392,351 410,367 "/>
  <polygon id="m23lote11" fill="#35AD0E" points="426,349 407,333 400,342 418,358 "/>
  <polygon id="m23lote10" fill="#35AD0E" points="434,340 416,324 408,333 426,349 "/>
  <polygon id="m23lote9" fill="#35AD0E" points="442,331 424,315 416,323 434,340 "/>
  <polygon id="m23lote8" fill="#35AD0E" points="450,321 432,305 424,314 442,330 "/>
  <polygon id="m23lote7" fill="#35AD0E" points="459,312 440,296 433,305 451,321 "/>
  <polygon id="m23lote6" fill="#35AD0E" points="467,303 448,287 441,296 459,312 "/>
  <polygon id="m23lote5" fill="#35AD0E" points="475,294 457,278 449,287 467,303 "/>
  <polygon id="m23lote4" fill="#35AD0E" points="483,284 465,268 457,277 475,293 "/>
  <polygon id="m23lote3" fill="#35AD0E" points="491,275 473,259 465,268 483,284 "/>
  <polygon id="m23lote2" fill="#35AD0E" points="499,266 481,250 473,259 492,275 "/>
  <polygon id="m23lote1" fill="#35AD0E" points="508,257 489,241 482,250 500,266 "/>
  <polygon id="m23lote22" fill="#35AD0E" points="360,379 337,372 333,383 356,390 "/>
  <polygon id="m23lote23" fill="#35AD0E" points="363,367 340,360 337,371 360,378 "/>
  <polygon id="m23lote24" fill="#35AD0E" points="367,355 344,348 340,359 363,366 "/>
  <polygon id="m23lote25" fill="#35AD0E" points="370,343 347,336 344,347 367,354 "/>
  <polygon id="m23lote26" fill="#35AD0E" points="374,331 351,324 347,336 371,343 "/>
  <polygon id="m23lote27" fill="#35AD0E" points="377,319 354,313 351,324 374,331 "/>
  <polygon id="m23lote28" fill="#35AD0E" points="381,308 358,301 355,312 378,319 "/>
  <polygon id="m23lote29" fill="#35AD0E" points="385,296 362,289 358,300 381,307 "/>
  <polygon id="m23lote30" fill="#35AD0E" points="388,284 365,277 362,288 385,295 "/>
  <polygon id="m23lote31" fill="#35AD0E" points="392,272 369,265 365,277 388,284 "/>
  <polygon id="m23lote32" fill="#35AD0E" points="395,260 372,253 369,265 392,272 "/>
  <polygon id="m23lote33" fill="#35AD0E" points="399,249 376,242 372,253 395,260 "/>
  <polygon id="m23lote34" fill="#35AD0E" points="402,237 379,230 376,241 399,248 "/>
  <polygon id="m23lote35" fill="#35AD0E" points="406,225 383,218 379,229 403,236 "/>
  <polygon id="m23lote36" fill="#35AD0E" points="410,213 387,206 383,217 406,224 "/>
  <polygon id="m23lote37" fill="#35AD0E" points="413,201 390,194 387,206 410,213 "/>
  <polygon id="m23lote38" fill="#35AD0E" points="417,190 394,183 390,194 413,201 "/>
 </g>
</svg>
