<?xml version="1.0" encoding="UTF-8"?>
<!DOCTYPE svg PUBLIC "-//W3C//DTD SVG 1.1//EN" "http://www.w3.org/Graphics/SVG/1.1/DTD/svg11.dtd">
<!-- Creator: CorelDRAW X8 -->
<svg xmlns="http://www.w3.org/2000/svg" xml:space="preserve" width="800px" height="600px" version="1.1" shape-rendering="geometricPrecision" text-rendering="geometricPrecision" image-rendering="optimizeQuality" fill-rule="evenodd" clip-rule="evenodd"
viewBox="0 0 800 600"
 xmlns:xlink="http://www.w3.org/1999/xlink">
 <g id="base">
  <metadata id="CorelCorpID_0Corel-Layer"/>
  <polygon fill="#35AD0E" points="513,149 541,174 292,453 264,429 "/>
  <g id="_2069967900656">
   <polygon fill="#63D13E" points="513,146 541,172 292,450 264,426 "/>
   <g>
    <line fill="none" stroke="#96ED79" stroke-width="0.300001" x1="513" y1="147" x2="513" y2= "146" />
    <line fill="none" stroke="#96ED79" stroke-width="0.300001" x1="539" y1="170" x2="509" y2= "151" />
    <line fill="none" stroke="#96ED79" stroke-width="0.300001" x1="537" y1="176" x2="504" y2= "156" />
    <line fill="none" stroke="#96ED79" stroke-width="0.300001" x1="534" y1="179" x2="502" y2= "159" />
    <line fill="none" stroke="#96ED79" stroke-width="0.300001" x1="534" y1="180" x2="501" y2= "160" />
    <line fill="none" stroke="#96ED79" stroke-width="0.300001" x1="530" y1="184" x2="497" y2= "164" />
    <line fill="none" stroke="#96ED79" stroke-width="0.300001" x1="527" y1="187" x2="494" y2= "167" />
    <line fill="none" stroke="#96ED79" stroke-width="0.300001" x1="520" y1="195" x2="487" y2= "175" />
    <line fill="none" stroke="#96ED79" stroke-width="0.300001" x1="516" y1="200" x2="483" y2= "180" />
    <line fill="none" stroke="#96ED79" stroke-width="0.300001" x1="513" y1="203" x2="481" y2= "182" />
    <line fill="none" stroke="#96ED79" stroke-width="0.300001" x1="509" y1="207" x2="477" y2= "187" />
    <line fill="none" stroke="#96ED79" stroke-width="0.300001" x1="505" y1="211" x2="473" y2= "191" />
    <line fill="none" stroke="#96ED79" stroke-width="0.300001" x1="503" y1="214" x2="470" y2= "194" />
    <line fill="none" stroke="#96ED79" stroke-width="0.300001" x1="499" y1="219" x2="466" y2= "199" />
    <line fill="none" stroke="#96ED79" stroke-width="0.300001" x1="495" y1="223" x2="462" y2= "203" />
    <line fill="none" stroke="#96ED79" stroke-width="0.300001" x1="492" y1="226" x2="460" y2= "206" />
    <line fill="none" stroke="#96ED79" stroke-width="0.300001" x1="490" y1="229" x2="457" y2= "209" />
    <line fill="none" stroke="#96ED79" stroke-width="0.300001" x1="485" y1="234" x2="453" y2= "214" />
    <line fill="none" stroke="#96ED79" stroke-width="0.300001" x1="483" y1="237" x2="450" y2= "217" />
    <line fill="none" stroke="#96ED79" stroke-width="0.300001" x1="480" y1="240" x2="447" y2= "220" />
    <line fill="none" stroke="#96ED79" stroke-width="0.300001" x1="476" y1="245" x2="443" y2= "225" />
    <line fill="none" stroke="#96ED79" stroke-width="0.300001" x1="473" y1="248" x2="441" y2= "228" />
    <line fill="none" stroke="#96ED79" stroke-width="0.300001" x1="469" y1="252" x2="436" y2= "232" />
    <line fill="none" stroke="#96ED79" stroke-width="0.300001" x1="465" y1="257" x2="432" y2= "237" />
    <line fill="none" stroke="#96ED79" stroke-width="0.300001" x1="462" y1="260" x2="430" y2= "240" />
    <line fill="none" stroke="#96ED79" stroke-width="0.300001" x1="475" y1="245" x2="443" y2= "225" />
    <line fill="none" stroke="#96ED79" stroke-width="0.300001" x1="471" y1="250" x2="439" y2= "230" />
    <line fill="none" stroke="#96ED79" stroke-width="0.300001" x1="469" y1="253" x2="436" y2= "233" />
    <line fill="none" stroke="#96ED79" stroke-width="0.300001" x1="464" y1="258" x2="432" y2= "238" />
    <line fill="none" stroke="#96ED79" stroke-width="0.300001" x1="460" y1="262" x2="428" y2= "242" />
    <line fill="none" stroke="#96ED79" stroke-width="0.300001" x1="457" y1="265" x2="425" y2= "245" />
    <line fill="none" stroke="#96ED79" stroke-width="0.300001" x1="457" y1="266" x2="424" y2= "246" />
    <line fill="none" stroke="#96ED79" stroke-width="0.300001" x1="453" y1="271" x2="420" y2= "251" />
    <line fill="none" stroke="#96ED79" stroke-width="0.300001" x1="450" y1="273" x2="418" y2= "253" />
    <line fill="none" stroke="#96ED79" stroke-width="0.300001" x1="443" y1="281" x2="410" y2= "261" />
    <line fill="none" stroke="#96ED79" stroke-width="0.300001" x1="439" y1="286" x2="406" y2= "266" />
    <line fill="none" stroke="#96ED79" stroke-width="0.300001" x1="436" y1="289" x2="404" y2= "269" />
    <line fill="none" stroke="#96ED79" stroke-width="0.300001" x1="432" y1="293" x2="400" y2= "273" />
    <line fill="none" stroke="#96ED79" stroke-width="0.300001" x1="428" y1="298" x2="396" y2= "278" />
    <line fill="none" stroke="#96ED79" stroke-width="0.300001" x1="426" y1="301" x2="393" y2= "281" />
    <line fill="none" stroke="#96ED79" stroke-width="0.300001" x1="422" y1="305" x2="390" y2= "285" />
    <line fill="none" stroke="#96ED79" stroke-width="0.300001" x1="418" y1="309" x2="385" y2= "289" />
    <line fill="none" stroke="#96ED79" stroke-width="0.300001" x1="415" y1="312" x2="383" y2= "292" />
    <line fill="none" stroke="#96ED79" stroke-width="0.300001" x1="412" y1="315" x2="380" y2= "296" />
    <line fill="none" stroke="#96ED79" stroke-width="0.300001" x1="408" y1="320" x2="376" y2= "300" />
    <line fill="none" stroke="#96ED79" stroke-width="0.300001" x1="406" y1="323" x2="373" y2= "303" />
    <line fill="none" stroke="#96ED79" stroke-width="0.300001" x1="403" y1="326" x2="370" y2= "306" />
    <line fill="none" stroke="#96ED79" stroke-width="0.300001" x1="399" y1="331" x2="366" y2= "311" />
    <line fill="none" stroke="#96ED79" stroke-width="0.300001" x1="396" y1="334" x2="364" y2= "314" />
    <line fill="none" stroke="#96ED79" stroke-width="0.300001" x1="392" y1="338" x2="360" y2= "319" />
    <line fill="none" stroke="#96ED79" stroke-width="0.300001" x1="388" y1="343" x2="356" y2= "323" />
    <line fill="none" stroke="#96ED79" stroke-width="0.300001" x1="385" y1="346" x2="353" y2= "326" />
    <line fill="none" stroke="#96ED79" stroke-width="0.300001" x1="389" y1="342" x2="357" y2= "322" />
    <line fill="none" stroke="#96ED79" stroke-width="0.300001" x1="385" y1="346" x2="353" y2= "326" />
    <line fill="none" stroke="#96ED79" stroke-width="0.300001" x1="382" y1="349" x2="350" y2= "329" />
    <line fill="none" stroke="#96ED79" stroke-width="0.300001" x1="378" y1="354" x2="346" y2= "334" />
    <line fill="none" stroke="#96ED79" stroke-width="0.300001" x1="374" y1="359" x2="342" y2= "339" />
    <line fill="none" stroke="#96ED79" stroke-width="0.300001" x1="371" y1="362" x2="339" y2= "342" />
    <line fill="none" stroke="#96ED79" stroke-width="0.300001" x1="371" y1="362" x2="338" y2= "343" />
    <line fill="none" stroke="#96ED79" stroke-width="0.300001" x1="366" y1="367" x2="334" y2= "347" />
    <line fill="none" stroke="#96ED79" stroke-width="0.300001" x1="364" y1="370" x2="332" y2= "350" />
    <line fill="none" stroke="#96ED79" stroke-width="0.300001" x1="357" y1="378" x2="325" y2= "358" />
    <line fill="none" stroke="#96ED79" stroke-width="0.300001" x1="353" y1="382" x2="320" y2= "363" />
    <line fill="none" stroke="#96ED79" stroke-width="0.300001" x1="350" y1="385" x2="318" y2= "365" />
    <line fill="none" stroke="#96ED79" stroke-width="0.300001" x1="346" y1="390" x2="314" y2= "370" />
    <line fill="none" stroke="#96ED79" stroke-width="0.300001" x1="342" y1="394" x2="310" y2= "374" />
    <line fill="none" stroke="#96ED79" stroke-width="0.300001" x1="340" y1="397" x2="307" y2= "377" />
    <line fill="none" stroke="#96ED79" stroke-width="0.300001" x1="336" y1="401" x2="304" y2= "382" />
    <line fill="none" stroke="#96ED79" stroke-width="0.300001" x1="332" y1="406" x2="300" y2= "386" />
    <line fill="none" stroke="#96ED79" stroke-width="0.300001" x1="329" y1="409" x2="297" y2= "389" />
    <line fill="none" stroke="#96ED79" stroke-width="0.300001" x1="326" y1="412" x2="294" y2= "392" />
    <line fill="none" stroke="#96ED79" stroke-width="0.300001" x1="322" y1="416" x2="290" y2= "397" />
    <line fill="none" stroke="#96ED79" stroke-width="0.300001" x1="320" y1="419" x2="288" y2= "400" />
    <line fill="none" stroke="#96ED79" stroke-width="0.300001" x1="317" y1="423" x2="284" y2= "403" />
    <line fill="none" stroke="#96ED79" stroke-width="0.300001" x1="313" y1="427" x2="280" y2= "408" />
    <line fill="none" stroke="#96ED79" stroke-width="0.300001" x1="310" y1="430" x2="278" y2= "411" />
    <line fill="none" stroke="#96ED79" stroke-width="0.300001" x1="306" y1="435" x2="274" y2= "415" />
    <line fill="none" stroke="#96ED79" stroke-width="0.300001" x1="302" y1="439" x2="270" y2= "420" />
    <line fill="none" stroke="#96ED79" stroke-width="0.300001" x1="299" y1="442" x2="267" y2= "423" />
    <line fill="none" stroke="#96ED79" stroke-width="0.300001" x1="295" y1="447" x2="273" y2= "434" />
    <line fill="none" stroke="#96ED79" stroke-width="0.300001" x1="522" y1="193" x2="538" y2= "169" />
    <line fill="none" stroke="#96ED79" stroke-width="0.300001" x1="483" y1="237" x2="531" y2= "163" />
    <line fill="none" stroke="#96ED79" stroke-width="0.300001" x1="472" y1="249" x2="529" y2= "161" />
    <line fill="none" stroke="#96ED79" stroke-width="0.300001" x1="436" y1="289" x2="523" y2= "155" />
    <line fill="none" stroke="#96ED79" stroke-width="0.300001" x1="413" y1="315" x2="519" y2= "152" />
    <line fill="none" stroke="#96ED79" stroke-width="0.300001" x1="372" y1="360" x2="508" y2= "152" />
    <line fill="none" stroke="#96ED79" stroke-width="0.300001" x1="338" y1="399" x2="473" y2= "191" />
    <line fill="none" stroke="#96ED79" stroke-width="0.300001" x1="291" y1="450" x2="423" y2= "247" />
    <line fill="none" stroke="#96ED79" stroke-width="0.300001" x1="309" y1="431" x2="444" y2= "224" />
    <line fill="none" stroke="#96ED79" stroke-width="0.300001" x1="285" y1="444" x2="384" y2= "292" />
    <line fill="none" stroke="#96ED79" stroke-width="0.300001" x1="279" y1="439" x2="350" y2= "329" />
    <line fill="none" stroke="#96ED79" stroke-width="0.300001" x1="273" y1="434" x2="315" y2= "369" />
    <line fill="none" stroke="#96ED79" stroke-width="0.300001" x1="269" y1="430" x2="291" y2= "395" />
   </g>
  </g>
 </g>
 <g id="landmarks-mz24">
  <metadata id="CorelCorpID_1Corel-Layer"/>
  <polygon id="m24lote26" fill="#35AD0E" points="269,426 291,446 300,436 278,416 "/>
  <polygon id="m24lote25" fill="#35AD0E" points="278,416 301,436 310,426 287,406 "/>
  <polygon id="m24lote24" fill="#35AD0E" points="288,405 310,425 319,415 297,395 "/>
  <polygon id="m24lote23" fill="#35AD0E" points="297,395 319,415 328,404 306,384 "/>
  <polygon id="m24lote22" fill="#35AD0E" points="306,384 329,404 338,394 315,374 "/>
  <polygon id="m24lote21" fill="#35AD0E" points="316,373 338,393 347,383 325,363 "/>
  <polygon id="m24lote20" fill="#35AD0E" points="325,363 348,383 357,373 334,352 "/>
  <polygon id="m24lote19" fill="#35AD0E" points="334,352 357,372 366,362 343,342 "/>
  <polygon id="m24lote18" fill="#35AD0E" points="344,341 366,361 375,351 353,331 "/>
  <polygon id="m24lote17" fill="#35AD0E" points="353,331 376,351 385,341 362,321 "/>
  <polygon id="m24lote16" fill="#35AD0E" points="363,320 385,340 394,330 372,310 "/>
  <polygon id="m24lote15" fill="#35AD0E" points="372,310 395,330 404,319 381,299 "/>
  <polygon id="m24lote14" fill="#35AD0E" points="382,299 404,319 413,309 391,289 "/>
  <polygon id="m24lote13" fill="#35AD0E" points="391,288 414,308 423,298 400,278 "/>
  <polygon id="m24lote12" fill="#35AD0E" points="400,278 423,298 432,287 409,267 "/>
  <polygon id="m24lote11" fill="#35AD0E" points="410,267 433,287 442,277 419,257 "/>
  <polygon id="m24lote10" fill="#35AD0E" points="419,256 442,276 451,266 428,246 "/>
  <polygon id="m24lote9" fill="#35AD0E" points="429,246 451,266 460,256 438,236 "/>
  <polygon id="m24lote8" fill="#35AD0E" points="438,235 461,255 470,245 447,225 "/>
  <polygon id="m24lote7" fill="#35AD0E" points="448,225 470,245 479,234 457,214 "/>
  <polygon id="m24lote6" fill="#35AD0E" points="457,214 480,234 489,224 466,204 "/>
  <polygon id="m24lote5" fill="#35AD0E" points="466,203 489,223 498,213 475,193 "/>
  <polygon id="m24lote4" fill="#35AD0E" points="476,193 498,213 507,203 485,182 "/>
  <polygon id="m24lote3" fill="#35AD0E" points="485,182 508,202 517,192 494,172 "/>
  <polygon id="m24lote2" fill="#35AD0E" points="495,171 517,191 526,181 504,161 "/>
  <polygon id="m24lote1" fill="#35AD0E" points="504,161 527,181 536,171 513,151 "/>
 </g>
</svg>
