<?xml version="1.0" encoding="UTF-8"?>
<!DOCTYPE svg PUBLIC "-//W3C//DTD SVG 1.1//EN" "http://www.w3.org/Graphics/SVG/1.1/DTD/svg11.dtd">
<!-- Creator: CorelDRAW X7 -->
<svg xmlns="http://www.w3.org/2000/svg" xml:space="preserve" width="800px" height="600px" version="1.1" shape-rendering="geometricPrecision" text-rendering="geometricPrecision" image-rendering="optimizeQuality" fill-rule="evenodd" clip-rule="evenodd"
viewBox="0 0 800 600"
 xmlns:xlink="http://www.w3.org/1999/xlink">
 <g id="base">
  <metadata id="CorelCorpID_0Corel-Layer"/>
  <polygon fill="#35AD0E" points="583,53 629,95 222,550 177,510 "/>
  <g id="_488943880">
   <polygon fill="#63D13E" points="583,49 628,91 222,546 176,506 "/>
   <g>
    <line fill="none" stroke="#96ED79" stroke-width="0.300001" x1="584" y1="49" x2="583" y2= "49" />
    <line fill="none" stroke="#96ED79" stroke-width="0.300001" x1="625" y1="88" x2="576" y2= "57" />
    <line fill="none" stroke="#96ED79" stroke-width="0.300001" x1="622" y1="97" x2="569" y2= "65" />
    <line fill="none" stroke="#96ED79" stroke-width="0.300001" x1="618" y1="102" x2="565" y2= "69" />
    <line fill="none" stroke="#96ED79" stroke-width="0.300001" x1="617" y1="104" x2="563" y2= "71" />
    <line fill="none" stroke="#96ED79" stroke-width="0.300001" x1="610" y1="111" x2="557" y2= "78" />
    <line fill="none" stroke="#96ED79" stroke-width="0.300001" x1="606" y1="116" x2="553" y2= "83" />
    <line fill="none" stroke="#96ED79" stroke-width="0.300001" x1="594" y1="129" x2="541" y2= "96" />
    <line fill="none" stroke="#96ED79" stroke-width="0.300001" x1="588" y1="136" x2="534" y2= "103" />
    <line fill="none" stroke="#96ED79" stroke-width="0.300001" x1="583" y1="141" x2="530" y2= "108" />
    <line fill="none" stroke="#96ED79" stroke-width="0.300001" x1="577" y1="148" x2="524" y2= "115" />
    <line fill="none" stroke="#96ED79" stroke-width="0.300001" x1="571" y1="155" x2="517" y2= "123" />
    <line fill="none" stroke="#96ED79" stroke-width="0.300001" x1="566" y1="160" x2="513" y2= "128" />
    <line fill="none" stroke="#96ED79" stroke-width="0.300001" x1="560" y1="167" x2="507" y2= "135" />
    <line fill="none" stroke="#96ED79" stroke-width="0.300001" x1="553" y1="175" x2="500" y2= "142" />
    <line fill="none" stroke="#96ED79" stroke-width="0.300001" x1="549" y1="179" x2="496" y2= "147" />
    <line fill="none" stroke="#96ED79" stroke-width="0.300001" x1="545" y1="184" x2="491" y2= "152" />
    <line fill="none" stroke="#96ED79" stroke-width="0.300001" x1="538" y1="192" x2="485" y2= "159" />
    <line fill="none" stroke="#96ED79" stroke-width="0.300001" x1="534" y1="197" x2="481" y2= "164" />
    <line fill="none" stroke="#96ED79" stroke-width="0.300001" x1="529" y1="202" x2="476" y2= "170" />
    <line fill="none" stroke="#96ED79" stroke-width="0.300001" x1="522" y1="210" x2="469" y2= "177" />
    <line fill="none" stroke="#96ED79" stroke-width="0.300001" x1="518" y1="214" x2="465" y2= "182" />
    <line fill="none" stroke="#96ED79" stroke-width="0.300001" x1="511" y1="222" x2="458" y2= "189" />
    <line fill="none" stroke="#96ED79" stroke-width="0.300001" x1="504" y1="229" x2="451" y2= "197" />
    <line fill="none" stroke="#96ED79" stroke-width="0.300001" x1="500" y1="234" x2="447" y2= "202" />
    <line fill="none" stroke="#96ED79" stroke-width="0.300001" x1="521" y1="211" x2="468" y2= "178" />
    <line fill="none" stroke="#96ED79" stroke-width="0.300001" x1="515" y1="218" x2="462" y2= "185" />
    <line fill="none" stroke="#96ED79" stroke-width="0.300001" x1="510" y1="223" x2="457" y2= "190" />
    <line fill="none" stroke="#96ED79" stroke-width="0.300001" x1="503" y1="231" x2="450" y2= "198" />
    <line fill="none" stroke="#96ED79" stroke-width="0.300001" x1="497" y1="238" x2="443" y2= "206" />
    <line fill="none" stroke="#96ED79" stroke-width="0.300001" x1="492" y1="243" x2="439" y2= "211" />
    <line fill="none" stroke="#96ED79" stroke-width="0.300001" x1="491" y1="245" x2="438" y2= "212" />
    <line fill="none" stroke="#96ED79" stroke-width="0.300001" x1="484" y1="252" x2="431" y2= "219" />
    <line fill="none" stroke="#96ED79" stroke-width="0.300001" x1="480" y1="257" x2="427" y2= "224" />
    <line fill="none" stroke="#96ED79" stroke-width="0.300001" x1="468" y1="270" x2="415" y2= "237" />
    <line fill="none" stroke="#96ED79" stroke-width="0.300001" x1="462" y1="277" x2="409" y2= "245" />
    <line fill="none" stroke="#96ED79" stroke-width="0.300001" x1="458" y1="282" x2="405" y2= "249" />
    <line fill="none" stroke="#96ED79" stroke-width="0.300001" x1="451" y1="289" x2="398" y2= "256" />
    <line fill="none" stroke="#96ED79" stroke-width="0.300001" x1="445" y1="296" x2="392" y2= "264" />
    <line fill="none" stroke="#96ED79" stroke-width="0.300001" x1="440" y1="301" x2="387" y2= "269" />
    <line fill="none" stroke="#96ED79" stroke-width="0.300001" x1="434" y1="308" x2="381" y2= "276" />
    <line fill="none" stroke="#96ED79" stroke-width="0.300001" x1="428" y1="316" x2="375" y2= "283" />
    <line fill="none" stroke="#96ED79" stroke-width="0.300001" x1="423" y1="320" x2="370" y2= "288" />
    <line fill="none" stroke="#96ED79" stroke-width="0.300001" x1="419" y1="325" x2="366" y2= "293" />
    <line fill="none" stroke="#96ED79" stroke-width="0.300001" x1="412" y1="333" x2="359" y2= "300" />
    <line fill="none" stroke="#96ED79" stroke-width="0.300001" x1="408" y1="338" x2="355" y2= "305" />
    <line fill="none" stroke="#96ED79" stroke-width="0.300001" x1="403" y1="343" x2="350" y2= "311" />
    <line fill="none" stroke="#96ED79" stroke-width="0.300001" x1="396" y1="351" x2="343" y2= "318" />
    <line fill="none" stroke="#96ED79" stroke-width="0.300001" x1="392" y1="355" x2="339" y2= "323" />
    <line fill="none" stroke="#96ED79" stroke-width="0.300001" x1="385" y1="363" x2="332" y2= "331" />
    <line fill="none" stroke="#96ED79" stroke-width="0.300001" x1="379" y1="370" x2="326" y2= "338" />
    <line fill="none" stroke="#96ED79" stroke-width="0.300001" x1="374" y1="375" x2="322" y2= "343" />
    <line fill="none" stroke="#96ED79" stroke-width="0.300001" x1="381" y1="368" x2="328" y2= "336" />
    <line fill="none" stroke="#96ED79" stroke-width="0.300001" x1="374" y1="376" x2="321" y2= "343" />
    <line fill="none" stroke="#96ED79" stroke-width="0.300001" x1="370" y1="380" x2="317" y2= "348" />
    <line fill="none" stroke="#96ED79" stroke-width="0.300001" x1="362" y1="389" x2="310" y2= "356" />
    <line fill="none" stroke="#96ED79" stroke-width="0.300001" x1="356" y1="396" x2="303" y2= "364" />
    <line fill="none" stroke="#96ED79" stroke-width="0.300001" x1="352" y1="401" x2="299" y2= "368" />
    <line fill="none" stroke="#96ED79" stroke-width="0.300001" x1="350" y1="402" x2="297" y2= "370" />
    <line fill="none" stroke="#96ED79" stroke-width="0.300001" x1="344" y1="410" x2="291" y2= "377" />
    <line fill="none" stroke="#96ED79" stroke-width="0.300001" x1="339" y1="414" x2="287" y2= "382" />
    <line fill="none" stroke="#96ED79" stroke-width="0.300001" x1="328" y1="427" x2="275" y2= "395" />
    <line fill="none" stroke="#96ED79" stroke-width="0.300001" x1="321" y1="435" x2="268" y2= "402" />
    <line fill="none" stroke="#96ED79" stroke-width="0.300001" x1="317" y1="440" x2="264" y2= "407" />
    <line fill="none" stroke="#96ED79" stroke-width="0.300001" x1="311" y1="447" x2="258" y2= "414" />
    <line fill="none" stroke="#96ED79" stroke-width="0.300001" x1="304" y1="454" x2="251" y2= "422" />
    <line fill="none" stroke="#96ED79" stroke-width="0.300001" x1="300" y1="459" x2="247" y2= "426" />
    <line fill="none" stroke="#96ED79" stroke-width="0.300001" x1="294" y1="466" x2="241" y2= "433" />
    <line fill="none" stroke="#96ED79" stroke-width="0.300001" x1="287" y1="473" x2="234" y2= "441" />
    <line fill="none" stroke="#96ED79" stroke-width="0.300001" x1="283" y1="478" x2="230" y2= "446" />
    <line fill="none" stroke="#96ED79" stroke-width="0.300001" x1="278" y1="483" x2="225" y2= "451" />
    <line fill="none" stroke="#96ED79" stroke-width="0.300001" x1="272" y1="490" x2="219" y2= "458" />
    <line fill="none" stroke="#96ED79" stroke-width="0.300001" x1="267" y1="495" x2="215" y2= "463" />
    <line fill="none" stroke="#96ED79" stroke-width="0.300001" x1="262" y1="501" x2="210" y2= "469" />
    <line fill="none" stroke="#96ED79" stroke-width="0.300001" x1="256" y1="508" x2="203" y2= "476" />
    <line fill="none" stroke="#96ED79" stroke-width="0.300001" x1="251" y1="513" x2="199" y2= "481" />
    <line fill="none" stroke="#96ED79" stroke-width="0.300001" x1="245" y1="521" x2="192" y2= "488" />
    <line fill="none" stroke="#96ED79" stroke-width="0.300001" x1="238" y1="528" x2="185" y2= "496" />
    <line fill="none" stroke="#96ED79" stroke-width="0.300001" x1="234" y1="533" x2="181" y2= "501" />
    <line fill="none" stroke="#96ED79" stroke-width="0.300001" x1="227" y1="541" x2="190" y2= "518" />
    <line fill="none" stroke="#96ED79" stroke-width="0.300001" x1="598" y1="125" x2="623" y2= "86" />
    <line fill="none" stroke="#96ED79" stroke-width="0.300001" x1="533" y1="197" x2="612" y2= "76" />
    <line fill="none" stroke="#96ED79" stroke-width="0.300001" x1="515" y1="217" x2="609" y2= "73" />
    <line fill="none" stroke="#96ED79" stroke-width="0.300001" x1="458" y1="282" x2="599" y2= "64" />
    <line fill="none" stroke="#96ED79" stroke-width="0.300001" x1="420" y1="324" x2="593" y2= "58" />
    <line fill="none" stroke="#96ED79" stroke-width="0.300001" x1="353" y1="399" x2="575" y2= "58" />
    <line fill="none" stroke="#96ED79" stroke-width="0.300001" x1="297" y1="462" x2="518" y2= "122" />
    <line fill="none" stroke="#96ED79" stroke-width="0.300001" x1="221" y1="545" x2="436" y2= "214" />
    <line fill="none" stroke="#96ED79" stroke-width="0.300001" x1="250" y1="515" x2="470" y2= "175" />
    <line fill="none" stroke="#96ED79" stroke-width="0.300001" x1="210" y1="535" x2="371" y2= "287" />
    <line fill="none" stroke="#96ED79" stroke-width="0.300001" x1="200" y1="527" x2="317" y2= "348" />
    <line fill="none" stroke="#96ED79" stroke-width="0.300001" x1="191" y1="518" x2="259" y2= "413" />
    <line fill="none" stroke="#96ED79" stroke-width="0.300001" x1="184" y1="513" x2="221" y2= "456" />
   </g>
  </g>
 </g>
 <g id="landmarks-mz24">
  <metadata id="CorelCorpID_1Corel-Layer"/>
  <polygon id="m24lote26" fill="#35AD0E" points="184,507 220,539 235,523 198,490 "/>
  <polygon id="m24lote25" fill="#35AD0E" points="199,489 236,522 251,505 214,473 "/>
  <polygon id="m24lote24" fill="#35AD0E" points="215,472 251,505 266,488 229,455 "/>
  <polygon id="m24lote23" fill="#35AD0E" points="230,455 267,487 281,471 245,438 "/>
  <polygon id="m24lote22" fill="#35AD0E" points="245,437 282,470 297,453 260,421 "/>
  <polygon id="m24lote21" fill="#35AD0E" points="261,420 298,453 312,436 275,403 "/>
  <polygon id="m24lote20" fill="#35AD0E" points="276,403 313,435 328,419 291,386 "/>
  <polygon id="m24lote19" fill="#35AD0E" points="291,385 328,418 343,401 306,368 "/>
  <polygon id="m24lote18" fill="#35AD0E" points="307,368 344,401 358,384 322,351 "/>
  <polygon id="m24lote17" fill="#35AD0E" points="322,350 359,383 374,367 337,334 "/>
  <polygon id="m24lote16" fill="#35AD0E" points="338,333 375,366 389,349 352,316 "/>
  <polygon id="m24lote15" fill="#35AD0E" points="353,316 390,349 405,332 368,299 "/>
  <polygon id="m24lote14" fill="#35AD0E" points="368,299 405,331 420,315 383,282 "/>
  <polygon id="m24lote13" fill="#35AD0E" points="384,281 421,314 435,297 399,264 "/>
  <polygon id="m24lote12" fill="#35AD0E" points="399,264 436,296 451,280 414,247 "/>
  <polygon id="m24lote11" fill="#35AD0E" points="415,246 452,279 466,263 430,230 "/>
  <polygon id="m24lote10" fill="#35AD0E" points="430,229 467,262 482,245 445,212 "/>
  <polygon id="m24lote9" fill="#35AD0E" points="446,212 482,245 497,228 460,195 "/>
  <polygon id="m24lote8" fill="#35AD0E" points="461,194 498,227 512,210 476,178 "/>
  <polygon id="m24lote7" fill="#35AD0E" points="476,177 513,210 528,193 491,160 "/>
  <polygon id="m24lote6" fill="#35AD0E" points="492,160 528,192 543,176 506,143 "/>
  <polygon id="m24lote5" fill="#35AD0E" points="507,142 544,175 558,158 522,126 "/>
  <polygon id="m24lote4" fill="#35AD0E" points="522,125 559,158 574,141 537,108 "/>
  <polygon id="m24lote3" fill="#35AD0E" points="538,107 575,140 589,124 553,91 "/>
  <polygon id="m24lote2" fill="#35AD0E" points="553,90 590,123 605,106 568,73 "/>
  <polygon id="m24lote1" fill="#35AD0E" points="569,73 605,106 620,89 583,56 "/>
 </g>
</svg>
