<?xml version="1.0" encoding="UTF-8"?>
<!DOCTYPE svg PUBLIC "-//W3C//DTD SVG 1.1//EN" "http://www.w3.org/Graphics/SVG/1.1/DTD/svg11.dtd">
<!-- Creator: CorelDRAW X8 -->
<svg xmlns="http://www.w3.org/2000/svg" xml:space="preserve" width="800px" height="600px" version="1.1" shape-rendering="geometricPrecision" text-rendering="geometricPrecision" image-rendering="optimizeQuality" fill-rule="evenodd" clip-rule="evenodd"
viewBox="0 0 800 600"
 xmlns:xlink="http://www.w3.org/1999/xlink">
 <g id="base">
  <metadata id="CorelCorpID_0Corel-Layer"/>
  <polygon fill="#35AD0E" points="336,151 509,199 436,485 263,462 "/>
  <g id="_2070014723680">
   <polygon fill="#63D13E" points="326,143 506,193 433,480 253,456 "/>
   <g>
    <line fill="none" stroke="#96ED79" stroke-width="0.300001" x1="338" y1="146" x2="287" y2= "311" />
    <line fill="none" stroke="#96ED79" stroke-width="0.300001" x1="330" y1="144" x2="315" y2= "193" />
    <line fill="none" stroke="#96ED79" stroke-width="0.300001" x1="349" y1="149" x2="253" y2= "456" />
    <line fill="none" stroke="#96ED79" stroke-width="0.300001" x1="361" y1="153" x2="266" y2= "458" />
    <line fill="none" stroke="#96ED79" stroke-width="0.300001" x1="365" y1="154" x2="270" y2= "459" />
    <line fill="none" stroke="#96ED79" stroke-width="0.300001" x1="384" y1="159" x2="290" y2= "461" />
    <line fill="none" stroke="#96ED79" stroke-width="0.300001" x1="396" y1="162" x2="303" y2= "463" />
    <line fill="none" stroke="#96ED79" stroke-width="0.300001" x1="430" y1="172" x2="338" y2= "467" />
    <line fill="none" stroke="#96ED79" stroke-width="0.300001" x1="449" y1="177" x2="358" y2= "470" />
    <line fill="none" stroke="#96ED79" stroke-width="0.300001" x1="461" y1="180" x2="370" y2= "472" />
    <line fill="none" stroke="#96ED79" stroke-width="0.300001" x1="479" y1="186" x2="389" y2= "474" />
    <line fill="none" stroke="#96ED79" stroke-width="0.300001" x1="498" y1="191" x2="409" y2= "477" />
    <line fill="none" stroke="#96ED79" stroke-width="0.300001" x1="483" y1="283" x2="422" y2= "479" />
    <line fill="none" stroke="#96ED79" stroke-width="0.300001" x1="506" y1="194" x2="472" y2= "184" />
    <line fill="none" stroke="#96ED79" stroke-width="0.300001" x1="501" y1="211" x2="323" y2= "155" />
    <line fill="none" stroke="#96ED79" stroke-width="0.300001" x1="494" y1="240" x2="317" y2= "185" />
    <line fill="none" stroke="#96ED79" stroke-width="0.300001" x1="488" y1="265" x2="311" y2= "210" />
    <line fill="none" stroke="#96ED79" stroke-width="0.300001" x1="478" y1="301" x2="302" y2= "246" />
    <line fill="none" stroke="#96ED79" stroke-width="0.300001" x1="482" y1="286" x2="306" y2= "231" />
    <line fill="none" stroke="#96ED79" stroke-width="0.300001" x1="471" y1="329" x2="296" y2= "275" />
    <line fill="none" stroke="#96ED79" stroke-width="0.300001" x1="469" y1="337" x2="294" y2= "283" />
    <line fill="none" stroke="#96ED79" stroke-width="0.300001" x1="463" y1="363" x2="288" y2= "308" />
    <line fill="none" stroke="#96ED79" stroke-width="0.300001" x1="458" y1="379" x2="284" y2= "325" />
    <line fill="none" stroke="#96ED79" stroke-width="0.300001" x1="451" y1="409" x2="277" y2= "355" />
    <line fill="none" stroke="#96ED79" stroke-width="0.300001" x1="445" y1="434" x2="271" y2= "380" />
    <line fill="none" stroke="#96ED79" stroke-width="0.300001" x1="436" y1="470" x2="263" y2= "416" />
    <line fill="none" stroke="#96ED79" stroke-width="0.300001" x1="439" y1="455" x2="266" y2= "401" />
    <line fill="none" stroke="#96ED79" stroke-width="0.300001" x1="325" y1="466" x2="256" y2= "444" />
   </g>
  </g>
 </g>
 <g id="landmarks-mz3">
  <metadata id="CorelCorpID_1Corel-Layer"/>
  <polygon id="m3lote1" fill="#35AD0E" points="501,201 329,150 260,450 430,472 "/>
 </g>
</svg>
