<?xml version="1.0" encoding="UTF-8"?>
<!DOCTYPE svg PUBLIC "-//W3C//DTD SVG 1.1//EN" "http://www.w3.org/Graphics/SVG/1.1/DTD/svg11.dtd">
<!-- Creator: CorelDRAW X7 -->
<svg xmlns="http://www.w3.org/2000/svg" xml:space="preserve" width="800px" height="600px" version="1.1" shape-rendering="geometricPrecision" text-rendering="geometricPrecision" image-rendering="optimizeQuality" fill-rule="evenodd" clip-rule="evenodd"
viewBox="0 0 800 600"
 xmlns:xlink="http://www.w3.org/1999/xlink">
 <g id="base">
  <metadata id="CorelCorpID_0Corel-Layer"/>
  <polygon fill="#35AD0E" points="314,50 588,127 472,579 198,544 "/>
  <g id="_442395592">
   <polygon fill="#63D13E" points="299,37 583,117 467,571 183,534 "/>
   <g>
    <line fill="none" stroke="#96ED79" stroke-width="0.300001" x1="318" y1="43" x2="236" y2= "303" />
    <line fill="none" stroke="#96ED79" stroke-width="0.300001" x1="304" y1="39" x2="280" y2= "117" />
    <line fill="none" stroke="#96ED79" stroke-width="0.300001" x1="334" y1="47" x2="183" y2= "534" />
    <line fill="none" stroke="#96ED79" stroke-width="0.300001" x1="354" y1="53" x2="203" y2= "537" />
    <line fill="none" stroke="#96ED79" stroke-width="0.300001" x1="360" y1="54" x2="210" y2= "538" />
    <line fill="none" stroke="#96ED79" stroke-width="0.300001" x1="390" y1="63" x2="241" y2= "542" />
    <line fill="none" stroke="#96ED79" stroke-width="0.300001" x1="410" y1="68" x2="261" y2= "544" />
    <line fill="none" stroke="#96ED79" stroke-width="0.300001" x1="463" y1="83" x2="317" y2= "552" />
    <line fill="none" stroke="#96ED79" stroke-width="0.300001" x1="493" y1="92" x2="348" y2= "556" />
    <line fill="none" stroke="#96ED79" stroke-width="0.300001" x1="512" y1="97" x2="368" y2= "558" />
    <line fill="none" stroke="#96ED79" stroke-width="0.300001" x1="541" y1="105" x2="399" y2= "562" />
    <line fill="none" stroke="#96ED79" stroke-width="0.300001" x1="571" y1="114" x2="430" y2= "566" />
    <line fill="none" stroke="#96ED79" stroke-width="0.300001" x1="547" y1="259" x2="450" y2= "569" />
    <line fill="none" stroke="#96ED79" stroke-width="0.300001" x1="583" y1="118" x2="530" y2= "102" />
    <line fill="none" stroke="#96ED79" stroke-width="0.300001" x1="576" y1="145" x2="294" y2= "57" />
    <line fill="none" stroke="#96ED79" stroke-width="0.300001" x1="564" y1="192" x2="283" y2= "104" />
    <line fill="none" stroke="#96ED79" stroke-width="0.300001" x1="554" y1="231" x2="274" y2= "144" />
    <line fill="none" stroke="#96ED79" stroke-width="0.300001" x1="540" y1="288" x2="260" y2= "201" />
    <line fill="none" stroke="#96ED79" stroke-width="0.300001" x1="546" y1="264" x2="266" y2= "177" />
    <line fill="none" stroke="#96ED79" stroke-width="0.300001" x1="528" y1="333" x2="250" y2= "246" />
    <line fill="none" stroke="#96ED79" stroke-width="0.300001" x1="525" y1="345" x2="247" y2= "259" />
    <line fill="none" stroke="#96ED79" stroke-width="0.300001" x1="515" y1="386" x2="237" y2= "299" />
    <line fill="none" stroke="#96ED79" stroke-width="0.300001" x1="508" y1="412" x2="231" y2= "326" />
    <line fill="none" stroke="#96ED79" stroke-width="0.300001" x1="496" y1="459" x2="220" y2= "373" />
    <line fill="none" stroke="#96ED79" stroke-width="0.300001" x1="486" y1="498" x2="211" y2= "413" />
    <line fill="none" stroke="#96ED79" stroke-width="0.300001" x1="472" y1="555" x2="198" y2= "470" />
    <line fill="none" stroke="#96ED79" stroke-width="0.300001" x1="478" y1="531" x2="203" y2= "446" />
    <line fill="none" stroke="#96ED79" stroke-width="0.300001" x1="297" y1="549" x2="187" y2= "515" />
   </g>
  </g>
 </g>
 <g id="landmarks-mz3">
  <metadata id="CorelCorpID_1Corel-Layer"/>
  <polygon id="m3lote1" fill="#35AD0E" points="576,129 303,49 193,524 463,559 "/>
 </g>
</svg>
