<?xml version="1.0" encoding="UTF-8"?>
<!DOCTYPE svg PUBLIC "-//W3C//DTD SVG 1.1//EN" "http://www.w3.org/Graphics/SVG/1.1/DTD/svg11.dtd">
<!-- Creator: CorelDRAW X8 -->
<svg xmlns="http://www.w3.org/2000/svg" xml:space="preserve" width="800px" height="600px" version="1.1" shape-rendering="geometricPrecision" text-rendering="geometricPrecision" image-rendering="optimizeQuality" fill-rule="evenodd" clip-rule="evenodd"
viewBox="0 0 800 600"
 xmlns:xlink="http://www.w3.org/1999/xlink">
 <g id="base">
  <metadata id="CorelCorpID_0Corel-Layer"/>
  <polygon fill="#35AD0E" points="378,156 525,197 453,457 303,415 "/>
  <g id="_2069966770752">
   <polygon fill="#63D13E" points="375,151 522,193 450,452 300,410 "/>
   <g>
    <line fill="none" stroke="#96ED79" stroke-width="0.300001" x1="522" y1="195" x2="372" y2= "161" />
    <line fill="none" stroke="#96ED79" stroke-width="0.300001" x1="519" y1="203" x2="369" y2= "170" />
    <line fill="none" stroke="#96ED79" stroke-width="0.300001" x1="516" y1="217" x2="365" y2= "183" />
    <line fill="none" stroke="#96ED79" stroke-width="0.300001" x1="512" y1="230" x2="361" y2= "197" />
    <line fill="none" stroke="#96ED79" stroke-width="0.300001" x1="509" y1="239" x2="359" y2= "205" />
    <line fill="none" stroke="#96ED79" stroke-width="0.300001" x1="521" y1="196" x2="371" y2= "163" />
    <line fill="none" stroke="#96ED79" stroke-width="0.300001" x1="518" y1="210" x2="367" y2= "176" />
    <line fill="none" stroke="#96ED79" stroke-width="0.300001" x1="515" y1="218" x2="365" y2= "185" />
    <line fill="none" stroke="#96ED79" stroke-width="0.300001" x1="511" y1="233" x2="361" y2= "200" />
    <line fill="none" stroke="#96ED79" stroke-width="0.300001" x1="507" y1="247" x2="357" y2= "213" />
    <line fill="none" stroke="#96ED79" stroke-width="0.300001" x1="505" y1="255" x2="354" y2= "222" />
    <line fill="none" stroke="#96ED79" stroke-width="0.300001" x1="504" y1="258" x2="354" y2= "224" />
    <line fill="none" stroke="#96ED79" stroke-width="0.300001" x1="500" y1="271" x2="350" y2= "238" />
    <line fill="none" stroke="#96ED79" stroke-width="0.300001" x1="498" y1="280" x2="347" y2= "246" />
    <line fill="none" stroke="#96ED79" stroke-width="0.300001" x1="492" y1="303" x2="340" y2= "270" />
    <line fill="none" stroke="#96ED79" stroke-width="0.300001" x1="488" y1="317" x2="337" y2= "283" />
    <line fill="none" stroke="#96ED79" stroke-width="0.300001" x1="485" y1="326" x2="334" y2= "292" />
    <line fill="none" stroke="#96ED79" stroke-width="0.300001" x1="482" y1="338" x2="330" y2= "305" />
    <line fill="none" stroke="#96ED79" stroke-width="0.300001" x1="478" y1="352" x2="327" y2= "318" />
    <line fill="none" stroke="#96ED79" stroke-width="0.300001" x1="476" y1="360" x2="324" y2= "327" />
    <line fill="none" stroke="#96ED79" stroke-width="0.300001" x1="472" y1="373" x2="320" y2= "339" />
    <line fill="none" stroke="#96ED79" stroke-width="0.300001" x1="469" y1="386" x2="317" y2= "353" />
    <line fill="none" stroke="#96ED79" stroke-width="0.300001" x1="466" y1="395" x2="314" y2= "361" />
    <line fill="none" stroke="#96ED79" stroke-width="0.300001" x1="464" y1="404" x2="311" y2= "370" />
    <line fill="none" stroke="#96ED79" stroke-width="0.300001" x1="460" y1="418" x2="308" y2= "384" />
    <line fill="none" stroke="#96ED79" stroke-width="0.300001" x1="457" y1="426" x2="305" y2= "392" />
    <line fill="none" stroke="#96ED79" stroke-width="0.300001" x1="455" y1="437" x2="302" y2= "403" />
    <line fill="none" stroke="#96ED79" stroke-width="0.300001" x1="451" y1="450" x2="408" y2= "441" />
    <line fill="none" stroke="#96ED79" stroke-width="0.300001" x1="445" y1="451" x2="506" y2= "188" />
    <line fill="none" stroke="#96ED79" stroke-width="0.300001" x1="485" y1="326" x2="517" y2= "191" />
    <line fill="none" stroke="#96ED79" stroke-width="0.300001" x1="425" y1="445" x2="486" y2= "182" />
    <line fill="none" stroke="#96ED79" stroke-width="0.300001" x1="419" y1="444" x2="480" y2= "181" />
    <line fill="none" stroke="#96ED79" stroke-width="0.300001" x1="401" y1="438" x2="462" y2= "176" />
    <line fill="none" stroke="#96ED79" stroke-width="0.300001" x1="389" y1="435" x2="450" y2= "172" />
    <line fill="none" stroke="#96ED79" stroke-width="0.300001" x1="368" y1="429" x2="429" y2= "166" />
    <line fill="none" stroke="#96ED79" stroke-width="0.300001" x1="350" y1="424" x2="411" y2= "161" />
    <line fill="none" stroke="#96ED79" stroke-width="0.300001" x1="325" y1="417" x2="386" y2= "154" />
    <line fill="none" stroke="#96ED79" stroke-width="0.300001" x1="335" y1="420" x2="397" y2= "157" />
    <line fill="none" stroke="#96ED79" stroke-width="0.300001" x1="304" y1="411" x2="325" y2= "325" />
   </g>
  </g>
  <path fill="white" fill-rule="nonzero" d="M433 207c1,-2 3,-3 5,-3 2,1 3,3 3,5l-54 193c-1,2 -3,3 -5,3 -2,-1 -3,-3 -3,-5l54 -193z"/>
 </g>
 <g id="landmarks-mz31">
  <metadata id="CorelCorpID_1Corel-Layer"/>
  <polygon id="m31lote16" fill="#35AD0E" points="392,299 344,286 337,309 385,323 "/>
  <polygon id="m31lote15" fill="#35AD0E" points="399,274 350,261 344,284 392,298 "/>
  <polygon id="m31lote14" fill="#35AD0E" points="406,250 357,236 351,260 399,273 "/>
  <polygon id="m31lote13" fill="#35AD0E" points="413,225 364,212 358,235 406,249 "/>
  <polygon id="m31lote1" fill="#35AD0E" points="453,423 405,409 398,433 447,446 "/>
  <polygon id="m31lote2" fill="#35AD0E" points="460,398 412,384 405,408 454,421 "/>
  <polygon id="m31lote3" fill="#35AD0E" points="467,373 419,360 412,383 461,397 "/>
  <polygon id="m31lote4" fill="#35AD0E" points="474,348 426,335 419,359 467,372 "/>
  <polygon id="m31lote5" fill="#35AD0E" points="481,324 433,310 426,334 474,347 "/>
  <polygon id="m31lote6" fill="#35AD0E" points="488,299 439,286 433,309 481,323 "/>
  <polygon id="m31lote7" fill="#35AD0E" points="495,274 446,261 440,285 488,298 "/>
  <polygon id="m31lote8" fill="#35AD0E" points="502,250 453,236 447,260 495,273 "/>
  <polygon id="m31lote9" fill="#35AD0E" points="508,225 460,212 454,235 502,249 "/>
  <polygon id="m31lote10" fill="#35AD0E" points="515,200 467,187 461,211 509,224 "/>
  <polygon id="m31lote11" fill="#35AD0E" points="426,176 378,162 372,186 420,199 "/>
  <polygon id="m31lote12" fill="#35AD0E" points="420,200 371,187 365,210 413,224 "/>
  <polygon id="m31lote17" fill="#35AD0E" points="385,324 337,310 330,334 378,347 "/>
  <polygon id="m31lote18" fill="#35AD0E" points="378,349 330,335 323,358 372,372 "/>
  <polygon id="m31lote19" fill="#35AD0E" points="371,373 323,360 317,383 365,397 "/>
  <polygon id="m31lote20" fill="#35AD0E" points="364,398 316,384 310,408 358,421 "/>
 </g>
</svg>
