<?xml version="1.0" encoding="UTF-8"?>
<!DOCTYPE svg PUBLIC "-//W3C//DTD SVG 1.1//EN" "http://www.w3.org/Graphics/SVG/1.1/DTD/svg11.dtd">
<!-- Creator: CorelDRAW X7 -->
<svg xmlns="http://www.w3.org/2000/svg" xml:space="preserve" width="800px" height="600px" version="1.1" shape-rendering="geometricPrecision" text-rendering="geometricPrecision" image-rendering="optimizeQuality" fill-rule="evenodd" clip-rule="evenodd"
viewBox="0 0 800 600"
 xmlns:xlink="http://www.w3.org/1999/xlink">
 <g id="base">
  <metadata id="CorelCorpID_0Corel-Layer"/>
  <polygon fill="#35AD0E" points="748,200 667,546 71,467 166,65 "/>
  <g id="_444495176">
   <polygon fill="#63D13E" points="593,157 742,195 663,537 78,460 67,458 161,56 "/>
   <g>
    <line fill="none" stroke="#96ED79" stroke-width="0.300001" x1="72" y1="435" x2="208" y2= "478" />
    <line fill="none" stroke="#96ED79" stroke-width="0.300001" x1="68" y1="455" x2="93" y2= "462" />
    <line fill="none" stroke="#96ED79" stroke-width="0.300001" x1="78" y1="411" x2="353" y2= "497" />
    <line fill="none" stroke="#96ED79" stroke-width="0.300001" x1="85" y1="383" x2="522" y2= "519" />
    <line fill="none" stroke="#96ED79" stroke-width="0.300001" x1="87" y1="374" x2="575" y2= "526" />
    <line fill="none" stroke="#96ED79" stroke-width="0.300001" x1="97" y1="330" x2="669" y2= "508" />
    <line fill="none" stroke="#96ED79" stroke-width="0.300001" x1="104" y1="302" x2="676" y2= "480" />
    <line fill="none" stroke="#96ED79" stroke-width="0.300001" x1="122" y1="225" x2="694" y2= "403" />
    <line fill="none" stroke="#96ED79" stroke-width="0.300001" x1="132" y1="182" x2="704" y2= "360" />
    <line fill="none" stroke="#96ED79" stroke-width="0.300001" x1="138" y1="153" x2="711" y2= "331" />
    <line fill="none" stroke="#96ED79" stroke-width="0.300001" x1="148" y1="111" x2="720" y2= "289" />
    <line fill="none" stroke="#96ED79" stroke-width="0.300001" x1="159" y1="68" x2="730" y2= "246" />
    <line fill="none" stroke="#96ED79" stroke-width="0.300001" x1="392" y1="110" x2="737" y2= "217" />
    <line fill="none" stroke="#96ED79" stroke-width="0.300001" x1="217" y1="69" x2="94" y2= "463" />
    <line fill="none" stroke="#96ED79" stroke-width="0.300001" x1="273" y1="82" x2="153" y2= "470" />
    <line fill="none" stroke="#96ED79" stroke-width="0.300001" x1="355" y1="101" x2="237" y2= "481" />
    <line fill="none" stroke="#96ED79" stroke-width="0.300001" x1="321" y1="94" x2="201" y2= "477" />
    <line fill="none" stroke="#96ED79" stroke-width="0.300001" x1="420" y1="117" x2="304" y2= "490" />
    <line fill="none" stroke="#96ED79" stroke-width="0.300001" x1="438" y1="121" x2="322" y2= "493" />
    <line fill="none" stroke="#96ED79" stroke-width="0.300001" x1="496" y1="134" x2="382" y2= "500" />
    <line fill="none" stroke="#96ED79" stroke-width="0.300001" x1="534" y1="143" x2="422" y2= "506" />
    <line fill="none" stroke="#96ED79" stroke-width="0.300001" x1="602" y1="159" x2="491" y2= "515" />
    <line fill="none" stroke="#96ED79" stroke-width="0.300001" x1="658" y1="173" x2="549" y2= "522" />
    <line fill="none" stroke="#96ED79" stroke-width="0.300001" x1="739" y1="194" x2="633" y2= "534" />
    <line fill="none" stroke="#96ED79" stroke-width="0.300001" x1="705" y1="185" x2="598" y2= "529" />
   </g>
  </g>
 </g>
 <g id="landmarks-mz4">
  <metadata id="CorelCorpID_1Corel-Layer"/>
  <polygon id="m4lote1" fill="#35AD0E" points="730,199 175,70 86,452 654,525 "/>
 </g>
</svg>
