<?xml version="1.0" encoding="UTF-8"?>
<!DOCTYPE svg PUBLIC "-//W3C//DTD SVG 1.1//EN" "http://www.w3.org/Graphics/SVG/1.1/DTD/svg11.dtd">
<!-- Creator: CorelDRAW X8 -->
<svg xmlns="http://www.w3.org/2000/svg" xml:space="preserve" width="800px" height="600px" version="1.1" shape-rendering="geometricPrecision" text-rendering="geometricPrecision" image-rendering="optimizeQuality" fill-rule="evenodd" clip-rule="evenodd"
viewBox="0 0 800 600"
 xmlns:xlink="http://www.w3.org/1999/xlink">
 <g id="base">
  <metadata id="CorelCorpID_0Corel-Layer"/>
  <polygon fill="#35AD0E" points="615,239 566,450 202,402 260,157 "/>
  <g id="_2070022531024">
   <polygon fill="#63D13E" points="521,213 612,236 563,445 207,398 200,397 257,152 "/>
   <g>
    <line fill="none" stroke="#96ED79" stroke-width="0.300001" x1="203" y1="383" x2="286" y2= "409" />
    <line fill="none" stroke="#96ED79" stroke-width="0.300001" x1="200" y1="395" x2="215" y2= "399" />
    <line fill="none" stroke="#96ED79" stroke-width="0.300001" x1="206" y1="368" x2="374" y2= "420" />
    <line fill="none" stroke="#96ED79" stroke-width="0.300001" x1="210" y1="351" x2="477" y2= "434" />
    <line fill="none" stroke="#96ED79" stroke-width="0.300001" x1="212" y1="345" x2="510" y2= "438" />
    <line fill="none" stroke="#96ED79" stroke-width="0.300001" x1="218" y1="319" x2="567" y2= "428" />
    <line fill="none" stroke="#96ED79" stroke-width="0.300001" x1="222" y1="302" x2="571" y2= "410" />
    <line fill="none" stroke="#96ED79" stroke-width="0.300001" x1="233" y1="255" x2="582" y2= "363" />
    <line fill="none" stroke="#96ED79" stroke-width="0.300001" x1="239" y1="228" x2="588" y2= "337" />
    <line fill="none" stroke="#96ED79" stroke-width="0.300001" x1="243" y1="211" x2="592" y2= "320" />
    <line fill="none" stroke="#96ED79" stroke-width="0.300001" x1="249" y1="185" x2="598" y2= "294" />
    <line fill="none" stroke="#96ED79" stroke-width="0.300001" x1="256" y1="159" x2="604" y2= "267" />
    <line fill="none" stroke="#96ED79" stroke-width="0.300001" x1="398" y1="185" x2="608" y2= "250" />
    <line fill="none" stroke="#96ED79" stroke-width="0.300001" x1="291" y1="160" x2="216" y2= "400" />
    <line fill="none" stroke="#96ED79" stroke-width="0.300001" x1="326" y1="168" x2="252" y2= "404" />
    <line fill="none" stroke="#96ED79" stroke-width="0.300001" x1="375" y1="179" x2="303" y2= "411" />
    <line fill="none" stroke="#96ED79" stroke-width="0.300001" x1="354" y1="174" x2="282" y2= "408" />
    <line fill="none" stroke="#96ED79" stroke-width="0.300001" x1="415" y1="188" x2="344" y2= "416" />
    <line fill="none" stroke="#96ED79" stroke-width="0.300001" x1="426" y1="191" x2="355" y2= "418" />
    <line fill="none" stroke="#96ED79" stroke-width="0.300001" x1="461" y1="199" x2="392" y2= "423" />
    <line fill="none" stroke="#96ED79" stroke-width="0.300001" x1="485" y1="205" x2="416" y2= "426" />
    <line fill="none" stroke="#96ED79" stroke-width="0.300001" x1="526" y1="214" x2="458" y2= "431" />
    <line fill="none" stroke="#96ED79" stroke-width="0.300001" x1="560" y1="223" x2="494" y2= "436" />
    <line fill="none" stroke="#96ED79" stroke-width="0.300001" x1="610" y1="236" x2="545" y2= "443" />
    <line fill="none" stroke="#96ED79" stroke-width="0.300001" x1="589" y1="230" x2="524" y2= "440" />
   </g>
  </g>
 </g>
 <g id="landmarks-mz4">
  <metadata id="CorelCorpID_1Corel-Layer"/>
  <polygon id="m4lote1" fill="#35AD0E" points="604,239 266,160 211,393 558,438 "/>
 </g>
</svg>
