<?xml version="1.0" encoding="UTF-8"?>
<!DOCTYPE svg PUBLIC "-//W3C//DTD SVG 1.1//EN" "http://www.w3.org/Graphics/SVG/1.1/DTD/svg11.dtd">
<!-- Creator: CorelDRAW X8 -->
<svg xmlns="http://www.w3.org/2000/svg" xml:space="preserve" width="800px" height="600px" version="1.1" shape-rendering="geometricPrecision" text-rendering="geometricPrecision" image-rendering="optimizeQuality" fill-rule="evenodd" clip-rule="evenodd"
viewBox="0 0 800 600"
 xmlns:xlink="http://www.w3.org/1999/xlink">
 <g id="base">
  <metadata id="CorelCorpID_0Corel-Layer"/>
  <polygon fill="#35AD0E" points="250,157 622,245 572,456 200,369 "/>
  <polygon fill="#63D13E" points="243,148 619,237 569,451 192,363 "/>
  <line fill="none" stroke="#96ED79" stroke-width="0.300001" x1="248" y1="149" x2="197" y2= "364" />
  <line fill="none" stroke="#96ED79" stroke-width="0.300001" x1="254" y1="151" x2="203" y2= "366" />
  <line fill="none" stroke="#96ED79" stroke-width="0.300001" x1="257" y1="152" x2="207" y2= "367" />
  <line fill="none" stroke="#96ED79" stroke-width="0.300001" x1="264" y1="153" x2="213" y2= "368" />
  <line fill="none" stroke="#96ED79" stroke-width="0.300001" x1="269" y1="154" x2="219" y2= "370" />
  <line fill="none" stroke="#96ED79" stroke-width="0.300001" x1="273" y1="155" x2="222" y2= "370" />
  <line fill="none" stroke="#96ED79" stroke-width="0.300001" x1="274" y1="156" x2="224" y2= "371" />
  <line fill="none" stroke="#96ED79" stroke-width="0.300001" x1="280" y1="157" x2="229" y2= "372" />
  <line fill="none" stroke="#96ED79" stroke-width="0.300001" x1="284" y1="158" x2="233" y2= "373" />
  <line fill="none" stroke="#96ED79" stroke-width="0.300001" x1="294" y1="160" x2="243" y2= "375" />
  <line fill="none" stroke="#96ED79" stroke-width="0.300001" x1="300" y1="162" x2="249" y2= "377" />
  <line fill="none" stroke="#96ED79" stroke-width="0.300001" x1="304" y1="162" x2="253" y2= "377" />
  <line fill="none" stroke="#96ED79" stroke-width="0.300001" x1="309" y1="164" x2="258" y2= "379" />
  <line fill="none" stroke="#96ED79" stroke-width="0.300001" x1="315" y1="165" x2="264" y2= "380" />
  <line fill="none" stroke="#96ED79" stroke-width="0.300001" x1="319" y1="166" x2="268" y2= "381" />
  <line fill="none" stroke="#96ED79" stroke-width="0.300001" x1="324" y1="167" x2="273" y2= "382" />
  <line fill="none" stroke="#96ED79" stroke-width="0.300001" x1="330" y1="169" x2="279" y2= "384" />
  <line fill="none" stroke="#96ED79" stroke-width="0.300001" x1="333" y1="170" x2="283" y2= "384" />
  <line fill="none" stroke="#96ED79" stroke-width="0.300001" x1="337" y1="171" x2="287" y2= "385" />
  <line fill="none" stroke="#96ED79" stroke-width="0.300001" x1="343" y1="172" x2="292" y2= "387" />
  <line fill="none" stroke="#96ED79" stroke-width="0.300001" x1="347" y1="173" x2="296" y2= "388" />
  <line fill="none" stroke="#96ED79" stroke-width="0.300001" x1="351" y1="174" x2="301" y2= "389" />
  <line fill="none" stroke="#96ED79" stroke-width="0.300001" x1="357" y1="175" x2="306" y2= "390" />
  <line fill="none" stroke="#96ED79" stroke-width="0.300001" x1="361" y1="176" x2="310" y2= "391" />
  <line fill="none" stroke="#96ED79" stroke-width="0.300001" x1="367" y1="177" x2="316" y2= "392" />
  <line fill="none" stroke="#96ED79" stroke-width="0.300001" x1="372" y1="179" x2="322" y2= "394" />
  <line fill="none" stroke="#96ED79" stroke-width="0.300001" x1="376" y1="180" x2="325" y2= "394" />
  <line fill="none" stroke="#96ED79" stroke-width="0.300001" x1="358" y1="175" x2="307" y2= "390" />
  <line fill="none" stroke="#96ED79" stroke-width="0.300001" x1="364" y1="177" x2="313" y2= "391" />
  <line fill="none" stroke="#96ED79" stroke-width="0.300001" x1="367" y1="178" x2="317" y2= "392" />
  <line fill="none" stroke="#96ED79" stroke-width="0.300001" x1="374" y1="179" x2="323" y2= "394" />
  <line fill="none" stroke="#96ED79" stroke-width="0.300001" x1="379" y1="180" x2="329" y2= "395" />
  <line fill="none" stroke="#96ED79" stroke-width="0.300001" x1="383" y1="181" x2="332" y2= "396" />
  <line fill="none" stroke="#96ED79" stroke-width="0.300001" x1="384" y1="182" x2="334" y2= "396" />
  <line fill="none" stroke="#96ED79" stroke-width="0.300001" x1="390" y1="183" x2="339" y2= "398" />
  <line fill="none" stroke="#96ED79" stroke-width="0.300001" x1="394" y1="184" x2="343" y2= "399" />
  <line fill="none" stroke="#96ED79" stroke-width="0.300001" x1="404" y1="186" x2="353" y2= "401" />
  <line fill="none" stroke="#96ED79" stroke-width="0.300001" x1="410" y1="188" x2="359" y2= "402" />
  <line fill="none" stroke="#96ED79" stroke-width="0.300001" x1="413" y1="188" x2="363" y2= "403" />
  <line fill="none" stroke="#96ED79" stroke-width="0.300001" x1="419" y1="190" x2="368" y2= "404" />
  <line fill="none" stroke="#96ED79" stroke-width="0.300001" x1="425" y1="192" x2="374" y2= "406" />
  <line fill="none" stroke="#96ED79" stroke-width="0.300001" x1="428" y1="195" x2="378" y2= "407" />
  <line fill="none" stroke="#96ED79" stroke-width="0.300001" x1="434" y1="193" x2="383" y2= "408" />
  <line fill="none" stroke="#96ED79" stroke-width="0.300001" x1="440" y1="195" x2="389" y2= "409" />
  <line fill="none" stroke="#96ED79" stroke-width="0.300001" x1="443" y1="198" x2="393" y2= "410" />
  <line fill="none" stroke="#96ED79" stroke-width="0.300001" x1="447" y1="196" x2="397" y2= "411" />
  <line fill="none" stroke="#96ED79" stroke-width="0.300001" x1="452" y1="200" x2="402" y2= "412" />
  <line fill="none" stroke="#96ED79" stroke-width="0.300001" x1="456" y1="203" x2="406" y2= "413" />
  <line fill="none" stroke="#96ED79" stroke-width="0.300001" x1="461" y1="200" x2="411" y2= "414" />
  <line fill="none" stroke="#96ED79" stroke-width="0.300001" x1="467" y1="201" x2="416" y2= "416" />
  <line fill="none" stroke="#96ED79" stroke-width="0.300001" x1="471" y1="202" x2="420" y2= "417" />
  <line fill="none" stroke="#96ED79" stroke-width="0.300001" x1="477" y1="203" x2="426" y2= "418" />
  <line fill="none" stroke="#96ED79" stroke-width="0.300001" x1="482" y1="205" x2="432" y2= "419" />
  <line fill="none" stroke="#96ED79" stroke-width="0.300001" x1="486" y1="206" x2="435" y2= "420" />
  <line fill="none" stroke="#96ED79" stroke-width="0.300001" x1="481" y1="204" x2="430" y2= "419" />
  <line fill="none" stroke="#96ED79" stroke-width="0.300001" x1="486" y1="206" x2="436" y2= "420" />
  <line fill="none" stroke="#96ED79" stroke-width="0.300001" x1="490" y1="207" x2="440" y2= "421" />
  <line fill="none" stroke="#96ED79" stroke-width="0.300001" x1="497" y1="208" x2="446" y2= "423" />
  <line fill="none" stroke="#96ED79" stroke-width="0.300001" x1="502" y1="209" x2="452" y2= "424" />
  <line fill="none" stroke="#96ED79" stroke-width="0.300001" x1="506" y1="210" x2="455" y2= "425" />
  <line fill="none" stroke="#96ED79" stroke-width="0.300001" x1="507" y1="211" x2="457" y2= "425" />
  <line fill="none" stroke="#96ED79" stroke-width="0.300001" x1="513" y1="212" x2="462" y2= "426" />
  <line fill="none" stroke="#96ED79" stroke-width="0.300001" x1="517" y1="213" x2="466" y2= "427" />
  <line fill="none" stroke="#96ED79" stroke-width="0.300001" x1="527" y1="215" x2="476" y2= "430" />
  <line fill="none" stroke="#96ED79" stroke-width="0.300001" x1="533" y1="217" x2="482" y2= "431" />
  <line fill="none" stroke="#96ED79" stroke-width="0.300001" x1="536" y1="218" x2="486" y2= "432" />
  <line fill="none" stroke="#96ED79" stroke-width="0.300001" x1="542" y1="219" x2="491" y2= "433" />
  <line fill="none" stroke="#96ED79" stroke-width="0.300001" x1="548" y1="220" x2="497" y2= "434" />
  <line fill="none" stroke="#96ED79" stroke-width="0.300001" x1="551" y1="221" x2="501" y2= "435" />
  <line fill="none" stroke="#96ED79" stroke-width="0.300001" x1="557" y1="222" x2="506" y2= "437" />
  <line fill="none" stroke="#96ED79" stroke-width="0.300001" x1="563" y1="224" x2="512" y2= "438" />
  <line fill="none" stroke="#96ED79" stroke-width="0.300001" x1="566" y1="225" x2="516" y2= "439" />
  <line fill="none" stroke="#96ED79" stroke-width="0.300001" x1="570" y1="226" x2="520" y2= "440" />
  <line fill="none" stroke="#96ED79" stroke-width="0.300001" x1="576" y1="227" x2="525" y2= "441" />
  <line fill="none" stroke="#96ED79" stroke-width="0.300001" x1="580" y1="228" x2="529" y2= "442" />
  <line fill="none" stroke="#96ED79" stroke-width="0.300001" x1="584" y1="229" x2="534" y2= "443" />
  <line fill="none" stroke="#96ED79" stroke-width="0.300001" x1="590" y1="230" x2="539" y2= "444" />
  <line fill="none" stroke="#96ED79" stroke-width="0.300001" x1="594" y1="231" x2="543" y2= "445" />
  <line fill="none" stroke="#96ED79" stroke-width="0.300001" x1="600" y1="232" x2="549" y2= "447" />
  <line fill="none" stroke="#96ED79" stroke-width="0.300001" x1="605" y1="234" x2="555" y2= "448" />
  <line fill="none" stroke="#96ED79" stroke-width="0.300001" x1="609" y1="235" x2="558" y2= "449" />
  <line fill="none" stroke="#96ED79" stroke-width="0.300001" x1="615" y1="236" x2="565" y2= "450" />
  <line fill="none" stroke="#96ED79" stroke-width="0.300001" x1="618" y1="242" x2="242" y2= "153" />
  <line fill="none" stroke="#96ED79" stroke-width="0.300001" x1="616" y1="249" x2="240" y2= "160" />
  <line fill="none" stroke="#96ED79" stroke-width="0.300001" x1="615" y1="254" x2="239" y2= "165" />
  <line fill="none" stroke="#96ED79" stroke-width="0.300001" x1="613" y1="263" x2="237" y2= "174" />
  <line fill="none" stroke="#96ED79" stroke-width="0.300001" x1="611" y1="271" x2="235" y2= "182" />
  <line fill="none" stroke="#96ED79" stroke-width="0.300001" x1="609" y1="281" x2="233" y2= "192" />
  <line fill="none" stroke="#96ED79" stroke-width="0.300001" x1="610" y1="277" x2="234" y2= "188" />
  <line fill="none" stroke="#96ED79" stroke-width="0.300001" x1="607" y1="290" x2="231" y2= "201" />
  <line fill="none" stroke="#96ED79" stroke-width="0.300001" x1="607" y1="290" x2="231" y2= "201" />
  <line fill="none" stroke="#96ED79" stroke-width="0.300001" x1="605" y1="298" x2="229" y2= "209" />
  <line fill="none" stroke="#96ED79" stroke-width="0.300001" x1="604" y1="303" x2="228" y2= "214" />
  <line fill="none" stroke="#96ED79" stroke-width="0.300001" x1="602" y1="311" x2="226" y2= "222" />
  <line fill="none" stroke="#96ED79" stroke-width="0.300001" x1="600" y1="319" x2="224" y2= "230" />
  <line fill="none" stroke="#96ED79" stroke-width="0.300001" x1="598" y1="330" x2="221" y2= "241" />
  <line fill="none" stroke="#96ED79" stroke-width="0.300001" x1="599" y1="325" x2="222" y2= "236" />
  <line fill="none" stroke="#96ED79" stroke-width="0.300001" x1="596" y1="338" x2="219" y2= "249" />
  <line fill="none" stroke="#96ED79" stroke-width="0.300001" x1="595" y1="341" x2="219" y2= "252" />
  <line fill="none" stroke="#96ED79" stroke-width="0.300001" x1="593" y1="348" x2="217" y2= "259" />
  <line fill="none" stroke="#96ED79" stroke-width="0.300001" x1="592" y1="353" x2="216" y2= "264" />
  <line fill="none" stroke="#96ED79" stroke-width="0.300001" x1="590" y1="362" x2="214" y2= "273" />
  <line fill="none" stroke="#96ED79" stroke-width="0.300001" x1="588" y1="370" x2="212" y2= "281" />
  <line fill="none" stroke="#96ED79" stroke-width="0.300001" x1="586" y1="380" x2="209" y2= "292" />
  <line fill="none" stroke="#96ED79" stroke-width="0.300001" x1="587" y1="376" x2="210" y2= "287" />
  <line fill="none" stroke="#96ED79" stroke-width="0.300001" x1="584" y1="389" x2="207" y2= "300" />
  <line fill="none" stroke="#96ED79" stroke-width="0.300001" x1="582" y1="396" x2="206" y2= "307" />
  <line fill="none" stroke="#96ED79" stroke-width="0.300001" x1="580" y1="404" x2="204" y2= "315" />
  <line fill="none" stroke="#96ED79" stroke-width="0.300001" x1="579" y1="409" x2="203" y2= "320" />
  <line fill="none" stroke="#96ED79" stroke-width="0.300001" x1="577" y1="418" x2="201" y2= "329" />
  <line fill="none" stroke="#96ED79" stroke-width="0.300001" x1="575" y1="425" x2="199" y2= "336" />
  <line fill="none" stroke="#96ED79" stroke-width="0.300001" x1="573" y1="436" x2="196" y2= "347" />
  <line fill="none" stroke="#96ED79" stroke-width="0.300001" x1="574" y1="432" x2="197" y2= "343" />
  <line fill="none" stroke="#96ED79" stroke-width="0.300001" x1="571" y1="445" x2="194" y2= "356" />
  <path fill="white" fill-rule="nonzero" d="M248 268c-3,0 -5,-3 -4,-6 0,-3 3,-5 6,-4l316 74c3,1 5,4 4,6 -1,3 -4,5 -7,5l-315 -75z"/>
 </g>
 <g id="landmarks-mz5">
  <metadata id="CorelCorpID_1Corel-Layer"/>
  <polygon id="m5lote2" fill="#35AD0E" points="475,348 510,356 493,428 458,419 "/>
  <polygon id="m5lote2A" fill="#35AD0E" points="438,340 473,348 456,419 421,411 "/>
  <polygon id="m5lote3" fill="#35AD0E" points="436,339 401,331 384,402 419,411 "/>
  <polygon id="m5lote3A" fill="#35AD0E" points="364,323 399,331 382,402 347,394 "/>
  <polygon id="m5lote4" fill="#35AD0E" points="362,322 327,314 310,385 345,393 "/>
  <polygon id="m5lote4A" fill="#35AD0E" points="325,313 290,305 274,377 309,385 "/>
  <polygon id="m5lote5" fill="#35AD0E" points="288,305 253,297 237,368 272,376 "/>
  <polygon id="m5lote5A" fill="#35AD0E" points="252,296 217,288 200,360 235,368 "/>
  <polygon id="m5lote6" fill="#35AD0E" points="282,163 248,155 231,227 266,235 "/>
  <polygon id="m5lote6A" fill="#35AD0E" points="319,172 284,164 268,235 303,243 "/>
  <path id="m5lote7" fill="#35AD0E" d="M356 180l-35 -8 -17 72 35 8c0,0 17,-72 17,-72z"/>
  <polygon id="m5lote7A" fill="#35AD0E" points="393,189 358,181 341,253 376,261 "/>
  <polygon id="m5lote8" fill="#35AD0E" points="430,197 395,189 378,261 413,269 "/>
  <polygon id="m5lote8A" fill="#35AD0E" points="467,206 432,198 415,269 450,278 "/>
  <polygon id="m5lote9" fill="#35AD0E" points="503,215 468,207 452,278 487,287 "/>
  <polygon id="m5lote9A" fill="#35AD0E" points="540,223 505,215 488,287 523,295 "/>
  <polygon id="m5lote10" fill="#35AD0E" points="577,232 542,224 525,296 560,304 "/>
  <polygon id="m5lote10A" fill="#35AD0E" points="579,233 614,240 597,312 562,304 "/>
  <polygon id="m5lote1" fill="#35AD0E" points="548,365 583,374 567,445 532,437 "/>
  <polygon id="m5lote1A" fill="#35AD0E" points="547,365 511,357 495,428 530,436 "/>
 </g>
</svg>
