<?xml version="1.0" encoding="UTF-8"?>
<!DOCTYPE svg PUBLIC "-//W3C//DTD SVG 1.1//EN" "http://www.w3.org/Graphics/SVG/1.1/DTD/svg11.dtd">
<!-- Creator: CorelDRAW X7 -->
<svg xmlns="http://www.w3.org/2000/svg" xml:space="preserve" width="800px" height="600px" version="1.1" shape-rendering="geometricPrecision" text-rendering="geometricPrecision" image-rendering="optimizeQuality" fill-rule="evenodd" clip-rule="evenodd"
viewBox="0 0 800 600"
 xmlns:xlink="http://www.w3.org/1999/xlink">
 <g id="base">
  <metadata id="CorelCorpID_0Corel-Layer"/>
  <polygon fill="#35AD0E" points="151,65 758,208 677,554 69,412 "/>
  <polygon fill="#63D13E" points="139,50 754,196 672,546 56,402 "/>
  <line fill="none" stroke="#96ED79" stroke-width="0.300001" x1="147" y1="52" x2="63" y2= "404" />
  <line fill="none" stroke="#96ED79" stroke-width="0.300001" x1="156" y1="54" x2="73" y2= "406" />
  <line fill="none" stroke="#96ED79" stroke-width="0.300001" x1="162" y1="56" x2="79" y2= "408" />
  <line fill="none" stroke="#96ED79" stroke-width="0.300001" x1="173" y1="58" x2="89" y2= "410" />
  <line fill="none" stroke="#96ED79" stroke-width="0.300001" x1="182" y1="60" x2="99" y2= "412" />
  <line fill="none" stroke="#96ED79" stroke-width="0.300001" x1="188" y1="62" x2="105" y2= "414" />
  <line fill="none" stroke="#96ED79" stroke-width="0.300001" x1="190" y1="62" x2="107" y2= "414" />
  <line fill="none" stroke="#96ED79" stroke-width="0.300001" x1="199" y1="65" x2="116" y2= "416" />
  <line fill="none" stroke="#96ED79" stroke-width="0.300001" x1="206" y1="66" x2="122" y2= "418" />
  <line fill="none" stroke="#96ED79" stroke-width="0.300001" x1="222" y1="70" x2="139" y2= "422" />
  <line fill="none" stroke="#96ED79" stroke-width="0.300001" x1="231" y1="72" x2="148" y2= "424" />
  <line fill="none" stroke="#96ED79" stroke-width="0.300001" x1="238" y1="74" x2="154" y2= "425" />
  <line fill="none" stroke="#96ED79" stroke-width="0.300001" x1="247" y1="76" x2="163" y2= "427" />
  <line fill="none" stroke="#96ED79" stroke-width="0.300001" x1="256" y1="78" x2="173" y2= "430" />
  <line fill="none" stroke="#96ED79" stroke-width="0.300001" x1="262" y1="79" x2="179" y2= "431" />
  <line fill="none" stroke="#96ED79" stroke-width="0.300001" x1="271" y1="82" x2="188" y2= "433" />
  <line fill="none" stroke="#96ED79" stroke-width="0.300001" x1="280" y1="84" x2="197" y2= "435" />
  <line fill="none" stroke="#96ED79" stroke-width="0.300001" x1="287" y1="85" x2="203" y2= "437" />
  <line fill="none" stroke="#96ED79" stroke-width="0.300001" x1="293" y1="87" x2="210" y2= "438" />
  <line fill="none" stroke="#96ED79" stroke-width="0.300001" x1="302" y1="89" x2="219" y2= "441" />
  <line fill="none" stroke="#96ED79" stroke-width="0.300001" x1="309" y1="90" x2="226" y2= "442" />
  <line fill="none" stroke="#96ED79" stroke-width="0.300001" x1="316" y1="92" x2="233" y2= "444" />
  <line fill="none" stroke="#96ED79" stroke-width="0.300001" x1="325" y1="94" x2="242" y2= "446" />
  <line fill="none" stroke="#96ED79" stroke-width="0.300001" x1="331" y1="96" x2="248" y2= "447" />
  <line fill="none" stroke="#96ED79" stroke-width="0.300001" x1="341" y1="98" x2="258" y2= "450" />
  <line fill="none" stroke="#96ED79" stroke-width="0.300001" x1="350" y1="100" x2="267" y2= "452" />
  <line fill="none" stroke="#96ED79" stroke-width="0.300001" x1="357" y1="102" x2="274" y2= "453" />
  <line fill="none" stroke="#96ED79" stroke-width="0.300001" x1="326" y1="95" x2="243" y2= "446" />
  <line fill="none" stroke="#96ED79" stroke-width="0.300001" x1="336" y1="97" x2="253" y2= "448" />
  <line fill="none" stroke="#96ED79" stroke-width="0.300001" x1="342" y1="98" x2="259" y2= "450" />
  <line fill="none" stroke="#96ED79" stroke-width="0.300001" x1="352" y1="101" x2="269" y2= "452" />
  <line fill="none" stroke="#96ED79" stroke-width="0.300001" x1="362" y1="103" x2="279" y2= "454" />
  <line fill="none" stroke="#96ED79" stroke-width="0.300001" x1="368" y1="104" x2="285" y2= "456" />
  <line fill="none" stroke="#96ED79" stroke-width="0.300001" x1="370" y1="105" x2="287" y2= "456" />
  <line fill="none" stroke="#96ED79" stroke-width="0.300001" x1="379" y1="107" x2="296" y2= "458" />
  <line fill="none" stroke="#96ED79" stroke-width="0.300001" x1="385" y1="109" x2="302" y2= "460" />
  <line fill="none" stroke="#96ED79" stroke-width="0.300001" x1="402" y1="112" x2="319" y2= "464" />
  <line fill="none" stroke="#96ED79" stroke-width="0.300001" x1="411" y1="115" x2="328" y2= "466" />
  <line fill="none" stroke="#96ED79" stroke-width="0.300001" x1="417" y1="116" x2="334" y2= "467" />
  <line fill="none" stroke="#96ED79" stroke-width="0.300001" x1="426" y1="118" x2="343" y2= "469" />
  <line fill="none" stroke="#96ED79" stroke-width="0.300001" x1="436" y1="122" x2="353" y2= "472" />
  <line fill="none" stroke="#96ED79" stroke-width="0.300001" x1="441" y1="126" x2="359" y2= "473" />
  <line fill="none" stroke="#96ED79" stroke-width="0.300001" x1="451" y1="124" x2="368" y2= "475" />
  <line fill="none" stroke="#96ED79" stroke-width="0.300001" x1="460" y1="127" x2="377" y2= "477" />
  <line fill="none" stroke="#96ED79" stroke-width="0.300001" x1="466" y1="131" x2="383" y2= "479" />
  <line fill="none" stroke="#96ED79" stroke-width="0.300001" x1="473" y1="129" x2="390" y2= "480" />
  <line fill="none" stroke="#96ED79" stroke-width="0.300001" x1="481" y1="136" x2="399" y2= "483" />
  <line fill="none" stroke="#96ED79" stroke-width="0.300001" x1="487" y1="140" x2="405" y2= "484" />
  <line fill="none" stroke="#96ED79" stroke-width="0.300001" x1="496" y1="135" x2="413" y2= "486" />
  <line fill="none" stroke="#96ED79" stroke-width="0.300001" x1="505" y1="137" x2="422" y2= "488" />
  <line fill="none" stroke="#96ED79" stroke-width="0.300001" x1="511" y1="138" x2="428" y2= "489" />
  <line fill="none" stroke="#96ED79" stroke-width="0.300001" x1="521" y1="141" x2="438" y2= "492" />
  <line fill="none" stroke="#96ED79" stroke-width="0.300001" x1="530" y1="143" x2="447" y2= "494" />
  <line fill="none" stroke="#96ED79" stroke-width="0.300001" x1="536" y1="144" x2="454" y2= "495" />
  <line fill="none" stroke="#96ED79" stroke-width="0.300001" x1="528" y1="142" x2="445" y2= "493" />
  <line fill="none" stroke="#96ED79" stroke-width="0.300001" x1="537" y1="144" x2="454" y2= "495" />
  <line fill="none" stroke="#96ED79" stroke-width="0.300001" x1="543" y1="146" x2="460" y2= "497" />
  <line fill="none" stroke="#96ED79" stroke-width="0.300001" x1="554" y1="148" x2="471" y2= "499" />
  <line fill="none" stroke="#96ED79" stroke-width="0.300001" x1="563" y1="151" x2="480" y2= "501" />
  <line fill="none" stroke="#96ED79" stroke-width="0.300001" x1="569" y1="152" x2="486" y2= "503" />
  <line fill="none" stroke="#96ED79" stroke-width="0.300001" x1="571" y1="152" x2="488" y2= "503" />
  <line fill="none" stroke="#96ED79" stroke-width="0.300001" x1="580" y1="155" x2="497" y2= "505" />
  <line fill="none" stroke="#96ED79" stroke-width="0.300001" x1="586" y1="156" x2="504" y2= "507" />
  <line fill="none" stroke="#96ED79" stroke-width="0.300001" x1="603" y1="160" x2="520" y2= "511" />
  <line fill="none" stroke="#96ED79" stroke-width="0.300001" x1="612" y1="162" x2="530" y2= "513" />
  <line fill="none" stroke="#96ED79" stroke-width="0.300001" x1="619" y1="164" x2="536" y2= "514" />
  <line fill="none" stroke="#96ED79" stroke-width="0.300001" x1="628" y1="166" x2="545" y2= "516" />
  <line fill="none" stroke="#96ED79" stroke-width="0.300001" x1="637" y1="168" x2="554" y2= "519" />
  <line fill="none" stroke="#96ED79" stroke-width="0.300001" x1="643" y1="169" x2="560" y2= "520" />
  <line fill="none" stroke="#96ED79" stroke-width="0.300001" x1="652" y1="172" x2="569" y2= "522" />
  <line fill="none" stroke="#96ED79" stroke-width="0.300001" x1="661" y1="174" x2="579" y2= "524" />
  <line fill="none" stroke="#96ED79" stroke-width="0.300001" x1="668" y1="175" x2="585" y2= "526" />
  <line fill="none" stroke="#96ED79" stroke-width="0.300001" x1="674" y1="177" x2="591" y2= "527" />
  <line fill="none" stroke="#96ED79" stroke-width="0.300001" x1="683" y1="179" x2="601" y2= "529" />
  <line fill="none" stroke="#96ED79" stroke-width="0.300001" x1="690" y1="180" x2="607" y2= "531" />
  <line fill="none" stroke="#96ED79" stroke-width="0.300001" x1="697" y1="182" x2="614" y2= "533" />
  <line fill="none" stroke="#96ED79" stroke-width="0.300001" x1="706" y1="184" x2="623" y2= "535" />
  <line fill="none" stroke="#96ED79" stroke-width="0.300001" x1="712" y1="186" x2="630" y2= "536" />
  <line fill="none" stroke="#96ED79" stroke-width="0.300001" x1="722" y1="188" x2="639" y2= "539" />
  <line fill="none" stroke="#96ED79" stroke-width="0.300001" x1="731" y1="190" x2="649" y2= "541" />
  <line fill="none" stroke="#96ED79" stroke-width="0.300001" x1="738" y1="192" x2="655" y2= "542" />
  <line fill="none" stroke="#96ED79" stroke-width="0.300001" x1="748" y1="194" x2="665" y2= "544" />
  <line fill="none" stroke="#96ED79" stroke-width="0.300001" x1="753" y1="203" x2="137" y2= "57" />
  <line fill="none" stroke="#96ED79" stroke-width="0.300001" x1="750" y1="216" x2="134" y2= "70" />
  <line fill="none" stroke="#96ED79" stroke-width="0.300001" x1="748" y1="224" x2="132" y2= "78" />
  <line fill="none" stroke="#96ED79" stroke-width="0.300001" x1="744" y1="238" x2="129" y2= "93" />
  <line fill="none" stroke="#96ED79" stroke-width="0.300001" x1="742" y1="251" x2="126" y2= "105" />
  <line fill="none" stroke="#96ED79" stroke-width="0.300001" x1="737" y1="268" x2="122" y2= "123" />
  <line fill="none" stroke="#96ED79" stroke-width="0.300001" x1="739" y1="261" x2="123" y2= "115" />
  <line fill="none" stroke="#96ED79" stroke-width="0.300001" x1="734" y1="282" x2="118" y2= "137" />
  <line fill="none" stroke="#96ED79" stroke-width="0.300001" x1="734" y1="282" x2="118" y2= "137" />
  <line fill="none" stroke="#96ED79" stroke-width="0.300001" x1="731" y1="295" x2="115" y2= "149" />
  <line fill="none" stroke="#96ED79" stroke-width="0.300001" x1="729" y1="303" x2="113" y2= "157" />
  <line fill="none" stroke="#96ED79" stroke-width="0.300001" x1="726" y1="317" x2="110" y2= "172" />
  <line fill="none" stroke="#96ED79" stroke-width="0.300001" x1="723" y1="330" x2="107" y2= "184" />
  <line fill="none" stroke="#96ED79" stroke-width="0.300001" x1="719" y1="347" x2="103" y2= "202" />
  <line fill="none" stroke="#96ED79" stroke-width="0.300001" x1="721" y1="340" x2="105" y2= "194" />
  <line fill="none" stroke="#96ED79" stroke-width="0.300001" x1="716" y1="361" x2="100" y2= "216" />
  <line fill="none" stroke="#96ED79" stroke-width="0.300001" x1="715" y1="365" x2="99" y2= "220" />
  <line fill="none" stroke="#96ED79" stroke-width="0.300001" x1="712" y1="378" x2="96" y2= "232" />
  <line fill="none" stroke="#96ED79" stroke-width="0.300001" x1="710" y1="386" x2="94" y2= "240" />
  <line fill="none" stroke="#96ED79" stroke-width="0.300001" x1="706" y1="400" x2="91" y2= "255" />
  <line fill="none" stroke="#96ED79" stroke-width="0.300001" x1="704" y1="413" x2="88" y2= "267" />
  <line fill="none" stroke="#96ED79" stroke-width="0.300001" x1="699" y1="430" x2="84" y2= "285" />
  <line fill="none" stroke="#96ED79" stroke-width="0.300001" x1="701" y1="423" x2="85" y2= "277" />
  <line fill="none" stroke="#96ED79" stroke-width="0.300001" x1="696" y1="444" x2="80" y2= "299" />
  <line fill="none" stroke="#96ED79" stroke-width="0.300001" x1="693" y1="456" x2="77" y2= "311" />
  <line fill="none" stroke="#96ED79" stroke-width="0.300001" x1="691" y1="469" x2="75" y2= "323" />
  <line fill="none" stroke="#96ED79" stroke-width="0.300001" x1="689" y1="477" x2="73" y2= "331" />
  <line fill="none" stroke="#96ED79" stroke-width="0.300001" x1="685" y1="491" x2="69" y2= "346" />
  <line fill="none" stroke="#96ED79" stroke-width="0.300001" x1="682" y1="504" x2="66" y2= "358" />
  <line fill="none" stroke="#96ED79" stroke-width="0.300001" x1="678" y1="521" x2="62" y2= "376" />
  <line fill="none" stroke="#96ED79" stroke-width="0.300001" x1="680" y1="514" x2="64" y2= "368" />
  <line fill="none" stroke="#96ED79" stroke-width="0.300001" x1="675" y1="535" x2="59" y2= "390" />
  <path fill="white" fill-rule="nonzero" d="M146 247c-4,-1 -7,-6 -6,-11 1,-5 6,-8 10,-6l517 121c5,1 8,6 7,11 -2,4 -6,7 -11,6l-517 -121z"/>
 </g>
 <g id="landmarks-mz5">
  <metadata id="CorelCorpID_1Corel-Layer"/>
  <polygon id="m5lote2" fill="#35AD0E" points="518,377 575,390 548,508 490,494 "/>
  <polygon id="m5lote2A" fill="#35AD0E" points="458,363 515,377 487,494 430,481 "/>
  <polygon id="m5lote3" fill="#35AD0E" points="454,363 397,349 369,466 427,480 "/>
  <polygon id="m5lote3A" fill="#35AD0E" points="336,336 394,349 367,465 310,453 "/>
  <polygon id="m5lote4" fill="#35AD0E" points="334,335 276,321 249,438 306,451 "/>
  <polygon id="m5lote4A" fill="#35AD0E" points="273,321 216,307 189,424 246,437 "/>
  <polygon id="m5lote5" fill="#35AD0E" points="213,306 156,293 128,410 186,424 "/>
  <polygon id="m5lote5A" fill="#35AD0E" points="153,293 95,279 68,396 125,410 "/>
  <polygon id="m5lote6" fill="#35AD0E" points="203,75 146,62 119,179 176,192 "/>
  <polygon id="m5lote6A" fill="#35AD0E" points="263,89 206,76 179,193 237,206 "/>
  <path id="m5lote7" fill="#35AD0E" d="M324 103l-58 -13 -27 117 57 13c0,0 27,-117 28,-117z"/>
  <polygon id="m5lote7A" fill="#35AD0E" points="384,118 327,104 299,221 357,235 "/>
  <polygon id="m5lote8" fill="#35AD0E" points="444,131 387,118 360,235 417,249 "/>
  <polygon id="m5lote8A" fill="#35AD0E" points="504,145 447,131 420,249 477,263 "/>
  <polygon id="m5lote9" fill="#35AD0E" points="565,159 507,146 480,263 537,277 "/>
  <polygon id="m5lote9A" fill="#35AD0E" points="625,173 568,160 540,278 597,291 "/>
  <polygon id="m5lote10" fill="#35AD0E" points="685,188 628,174 600,292 657,305 "/>
  <polygon id="m5lote10A" fill="#35AD0E" points="688,188 745,201 718,319 661,306 "/>
  <polygon id="m5lote1" fill="#35AD0E" points="638,405 696,419 668,536 611,522 "/>
  <polygon id="m5lote1A" fill="#35AD0E" points="636,405 577,392 551,508 608,522 "/>
 </g>
</svg>
