<?xml version="1.0" encoding="UTF-8"?>
<!DOCTYPE svg PUBLIC "-//W3C//DTD SVG 1.1//EN" "http://www.w3.org/Graphics/SVG/1.1/DTD/svg11.dtd">
<!-- Creator: CorelDRAW X8 -->
<svg xmlns="http://www.w3.org/2000/svg" xml:space="preserve" width="800px" height="600px" version="1.1" shape-rendering="geometricPrecision" text-rendering="geometricPrecision" image-rendering="optimizeQuality" fill-rule="evenodd" clip-rule="evenodd"
viewBox="0 0 800 600"
 xmlns:xlink="http://www.w3.org/1999/xlink">
 <g id="base">
  <metadata id="CorelCorpID_0Corel-Layer"/>
  <g id="_2070022519760">
   <polygon fill="#35AD0E" points="240,160 613,249 564,461 190,374 "/>
   <g>
    <polygon fill="#63D13E" points="232,152 611,241 561,456 182,368 "/>
    <g>
     <line fill="none" stroke="#96ED79" stroke-width="0.300001" x1="237" y1="153" x2="186" y2= "369" />
     <line fill="none" stroke="#96ED79" stroke-width="0.300001" x1="243" y1="154" x2="192" y2= "370" />
     <line fill="none" stroke="#96ED79" stroke-width="0.300001" x1="247" y1="155" x2="196" y2= "371" />
     <line fill="none" stroke="#96ED79" stroke-width="0.300001" x1="253" y1="156" x2="202" y2= "373" />
     <line fill="none" stroke="#96ED79" stroke-width="0.300001" x1="259" y1="158" x2="208" y2= "374" />
     <line fill="none" stroke="#96ED79" stroke-width="0.300001" x1="263" y1="159" x2="212" y2= "375" />
     <line fill="none" stroke="#96ED79" stroke-width="0.300001" x1="264" y1="159" x2="213" y2= "375" />
     <line fill="none" stroke="#96ED79" stroke-width="0.300001" x1="270" y1="160" x2="219" y2= "377" />
     <line fill="none" stroke="#96ED79" stroke-width="0.300001" x1="274" y1="161" x2="223" y2= "377" />
     <line fill="none" stroke="#96ED79" stroke-width="0.300001" x1="284" y1="164" x2="233" y2= "380" />
     <line fill="none" stroke="#96ED79" stroke-width="0.300001" x1="290" y1="165" x2="238" y2= "381" />
     <line fill="none" stroke="#96ED79" stroke-width="0.300001" x1="293" y1="166" x2="242" y2= "382" />
     <line fill="none" stroke="#96ED79" stroke-width="0.300001" x1="299" y1="167" x2="248" y2= "383" />
     <line fill="none" stroke="#96ED79" stroke-width="0.300001" x1="305" y1="169" x2="254" y2= "385" />
     <line fill="none" stroke="#96ED79" stroke-width="0.300001" x1="308" y1="169" x2="257" y2= "386" />
     <line fill="none" stroke="#96ED79" stroke-width="0.300001" x1="314" y1="171" x2="263" y2= "387" />
     <line fill="none" stroke="#96ED79" stroke-width="0.300001" x1="320" y1="172" x2="269" y2= "388" />
     <line fill="none" stroke="#96ED79" stroke-width="0.300001" x1="323" y1="173" x2="272" y2= "389" />
     <line fill="none" stroke="#96ED79" stroke-width="0.300001" x1="327" y1="174" x2="276" y2= "390" />
     <line fill="none" stroke="#96ED79" stroke-width="0.300001" x1="333" y1="175" x2="282" y2= "391" />
     <line fill="none" stroke="#96ED79" stroke-width="0.300001" x1="337" y1="176" x2="286" y2= "392" />
     <line fill="none" stroke="#96ED79" stroke-width="0.300001" x1="341" y1="177" x2="290" y2= "393" />
     <line fill="none" stroke="#96ED79" stroke-width="0.300001" x1="347" y1="179" x2="296" y2= "395" />
     <line fill="none" stroke="#96ED79" stroke-width="0.300001" x1="351" y1="180" x2="300" y2= "396" />
     <line fill="none" stroke="#96ED79" stroke-width="0.300001" x1="357" y1="181" x2="306" y2= "397" />
     <line fill="none" stroke="#96ED79" stroke-width="0.300001" x1="363" y1="182" x2="312" y2= "398" />
     <line fill="none" stroke="#96ED79" stroke-width="0.300001" x1="366" y1="183" x2="315" y2= "399" />
     <line fill="none" stroke="#96ED79" stroke-width="0.300001" x1="348" y1="179" x2="297" y2= "395" />
     <line fill="none" stroke="#96ED79" stroke-width="0.300001" x1="354" y1="180" x2="303" y2= "396" />
     <line fill="none" stroke="#96ED79" stroke-width="0.300001" x1="358" y1="181" x2="306" y2= "397" />
     <line fill="none" stroke="#96ED79" stroke-width="0.300001" x1="364" y1="183" x2="313" y2= "399" />
     <line fill="none" stroke="#96ED79" stroke-width="0.300001" x1="370" y1="184" x2="319" y2= "400" />
     <line fill="none" stroke="#96ED79" stroke-width="0.300001" x1="373" y1="185" x2="322" y2= "401" />
     <line fill="none" stroke="#96ED79" stroke-width="0.300001" x1="375" y1="185" x2="324" y2= "401" />
     <line fill="none" stroke="#96ED79" stroke-width="0.300001" x1="380" y1="186" x2="329" y2= "402" />
     <line fill="none" stroke="#96ED79" stroke-width="0.300001" x1="384" y1="187" x2="333" y2= "403" />
     <line fill="none" stroke="#96ED79" stroke-width="0.300001" x1="394" y1="190" x2="343" y2= "406" />
     <line fill="none" stroke="#96ED79" stroke-width="0.300001" x1="400" y1="191" x2="349" y2= "407" />
     <line fill="none" stroke="#96ED79" stroke-width="0.300001" x1="404" y1="192" x2="353" y2= "408" />
     <line fill="none" stroke="#96ED79" stroke-width="0.300001" x1="409" y1="193" x2="358" y2= "409" />
     <line fill="none" stroke="#96ED79" stroke-width="0.300001" x1="415" y1="195" x2="364" y2= "411" />
     <line fill="none" stroke="#96ED79" stroke-width="0.300001" x1="418" y1="198" x2="368" y2= "411" />
     <line fill="none" stroke="#96ED79" stroke-width="0.300001" x1="424" y1="197" x2="373" y2= "413" />
     <line fill="none" stroke="#96ED79" stroke-width="0.300001" x1="430" y1="199" x2="379" y2= "414" />
     <line fill="none" stroke="#96ED79" stroke-width="0.300001" x1="433" y1="201" x2="383" y2= "415" />
     <line fill="none" stroke="#96ED79" stroke-width="0.300001" x1="438" y1="200" x2="387" y2= "416" />
     <line fill="none" stroke="#96ED79" stroke-width="0.300001" x1="443" y1="204" x2="393" y2= "417" />
     <line fill="none" stroke="#96ED79" stroke-width="0.300001" x1="446" y1="207" x2="397" y2= "418" />
     <line fill="none" stroke="#96ED79" stroke-width="0.300001" x1="452" y1="203" x2="401" y2= "419" />
     <line fill="none" stroke="#96ED79" stroke-width="0.300001" x1="458" y1="205" x2="407" y2= "420" />
     <line fill="none" stroke="#96ED79" stroke-width="0.300001" x1="462" y1="206" x2="411" y2= "421" />
     <line fill="none" stroke="#96ED79" stroke-width="0.300001" x1="467" y1="207" x2="416" y2= "423" />
     <line fill="none" stroke="#96ED79" stroke-width="0.300001" x1="473" y1="208" x2="422" y2= "424" />
     <line fill="none" stroke="#96ED79" stroke-width="0.300001" x1="477" y1="209" x2="426" y2= "425" />
     <line fill="none" stroke="#96ED79" stroke-width="0.300001" x1="472" y1="208" x2="421" y2= "424" />
     <line fill="none" stroke="#96ED79" stroke-width="0.300001" x1="477" y1="209" x2="426" y2= "425" />
     <line fill="none" stroke="#96ED79" stroke-width="0.300001" x1="481" y1="210" x2="430" y2= "426" />
     <line fill="none" stroke="#96ED79" stroke-width="0.300001" x1="487" y1="212" x2="437" y2= "427" />
     <line fill="none" stroke="#96ED79" stroke-width="0.300001" x1="493" y1="213" x2="442" y2= "429" />
     <line fill="none" stroke="#96ED79" stroke-width="0.300001" x1="497" y1="214" x2="446" y2= "430" />
     <line fill="none" stroke="#96ED79" stroke-width="0.300001" x1="498" y1="214" x2="447" y2= "430" />
     <line fill="none" stroke="#96ED79" stroke-width="0.300001" x1="504" y1="216" x2="453" y2= "431" />
     <line fill="none" stroke="#96ED79" stroke-width="0.300001" x1="508" y1="217" x2="457" y2= "432" />
     <line fill="none" stroke="#96ED79" stroke-width="0.300001" x1="518" y1="219" x2="467" y2= "435" />
     <line fill="none" stroke="#96ED79" stroke-width="0.300001" x1="524" y1="220" x2="473" y2= "436" />
     <line fill="none" stroke="#96ED79" stroke-width="0.300001" x1="527" y1="221" x2="477" y2= "437" />
     <line fill="none" stroke="#96ED79" stroke-width="0.300001" x1="533" y1="223" x2="482" y2= "438" />
     <line fill="none" stroke="#96ED79" stroke-width="0.300001" x1="539" y1="224" x2="488" y2= "439" />
     <line fill="none" stroke="#96ED79" stroke-width="0.300001" x1="543" y1="225" x2="492" y2= "440" />
     <line fill="none" stroke="#96ED79" stroke-width="0.300001" x1="548" y1="226" x2="497" y2= "442" />
     <line fill="none" stroke="#96ED79" stroke-width="0.300001" x1="554" y1="227" x2="503" y2= "443" />
     <line fill="none" stroke="#96ED79" stroke-width="0.300001" x1="558" y1="228" x2="507" y2= "444" />
     <line fill="none" stroke="#96ED79" stroke-width="0.300001" x1="562" y1="229" x2="511" y2= "445" />
     <line fill="none" stroke="#96ED79" stroke-width="0.300001" x1="567" y1="231" x2="516" y2= "446" />
     <line fill="none" stroke="#96ED79" stroke-width="0.300001" x1="571" y1="232" x2="520" y2= "447" />
     <line fill="none" stroke="#96ED79" stroke-width="0.300001" x1="576" y1="233" x2="525" y2= "448" />
     <line fill="none" stroke="#96ED79" stroke-width="0.300001" x1="581" y1="234" x2="530" y2= "449" />
     <line fill="none" stroke="#96ED79" stroke-width="0.300001" x1="585" y1="235" x2="534" y2= "450" />
     <line fill="none" stroke="#96ED79" stroke-width="0.300001" x1="591" y1="236" x2="540" y2= "452" />
     <line fill="none" stroke="#96ED79" stroke-width="0.300001" x1="597" y1="238" x2="546" y2= "453" />
     <line fill="none" stroke="#96ED79" stroke-width="0.300001" x1="601" y1="239" x2="550" y2= "454" />
     <line fill="none" stroke="#96ED79" stroke-width="0.300001" x1="607" y1="240" x2="556" y2= "455" />
     <line fill="none" stroke="#96ED79" stroke-width="0.300001" x1="610" y1="245" x2="231" y2= "156" />
     <line fill="none" stroke="#96ED79" stroke-width="0.300001" x1="608" y1="253" x2="230" y2= "164" />
     <line fill="none" stroke="#96ED79" stroke-width="0.300001" x1="607" y1="258" x2="228" y2= "169" />
     <line fill="none" stroke="#96ED79" stroke-width="0.300001" x1="605" y1="267" x2="226" y2= "178" />
     <line fill="none" stroke="#96ED79" stroke-width="0.300001" x1="603" y1="275" x2="225" y2= "185" />
     <line fill="none" stroke="#96ED79" stroke-width="0.300001" x1="601" y1="285" x2="222" y2= "196" />
     <line fill="none" stroke="#96ED79" stroke-width="0.300001" x1="602" y1="281" x2="223" y2= "191" />
     <line fill="none" stroke="#96ED79" stroke-width="0.300001" x1="599" y1="294" x2="220" y2= "205" />
     <line fill="none" stroke="#96ED79" stroke-width="0.300001" x1="599" y1="294" x2="220" y2= "205" />
     <line fill="none" stroke="#96ED79" stroke-width="0.300001" x1="597" y1="302" x2="218" y2= "212" />
     <line fill="none" stroke="#96ED79" stroke-width="0.300001" x1="596" y1="307" x2="217" y2= "217" />
     <line fill="none" stroke="#96ED79" stroke-width="0.300001" x1="593" y1="316" x2="215" y2= "226" />
     <line fill="none" stroke="#96ED79" stroke-width="0.300001" x1="592" y1="323" x2="213" y2= "234" />
     <line fill="none" stroke="#96ED79" stroke-width="0.300001" x1="589" y1="334" x2="211" y2= "245" />
     <line fill="none" stroke="#96ED79" stroke-width="0.300001" x1="590" y1="330" x2="212" y2= "240" />
     <line fill="none" stroke="#96ED79" stroke-width="0.300001" x1="587" y1="343" x2="209" y2= "253" />
     <line fill="none" stroke="#96ED79" stroke-width="0.300001" x1="587" y1="345" x2="208" y2= "256" />
     <line fill="none" stroke="#96ED79" stroke-width="0.300001" x1="585" y1="353" x2="206" y2= "263" />
     <line fill="none" stroke="#96ED79" stroke-width="0.300001" x1="584" y1="358" x2="205" y2= "268" />
     <line fill="none" stroke="#96ED79" stroke-width="0.300001" x1="581" y1="367" x2="203" y2= "277" />
     <line fill="none" stroke="#96ED79" stroke-width="0.300001" x1="580" y1="374" x2="201" y2= "285" />
     <line fill="none" stroke="#96ED79" stroke-width="0.300001" x1="577" y1="385" x2="199" y2= "296" />
     <line fill="none" stroke="#96ED79" stroke-width="0.300001" x1="578" y1="381" x2="200" y2= "291" />
     <line fill="none" stroke="#96ED79" stroke-width="0.300001" x1="575" y1="394" x2="197" y2= "304" />
     <line fill="none" stroke="#96ED79" stroke-width="0.300001" x1="573" y1="401" x2="195" y2= "312" />
     <line fill="none" stroke="#96ED79" stroke-width="0.300001" x1="572" y1="409" x2="193" y2= "319" />
     <line fill="none" stroke="#96ED79" stroke-width="0.300001" x1="570" y1="414" x2="192" y2= "324" />
     <line fill="none" stroke="#96ED79" stroke-width="0.300001" x1="568" y1="423" x2="190" y2= "333" />
     <line fill="none" stroke="#96ED79" stroke-width="0.300001" x1="567" y1="430" x2="188" y2= "341" />
     <line fill="none" stroke="#96ED79" stroke-width="0.300001" x1="564" y1="441" x2="186" y2= "352" />
     <line fill="none" stroke="#96ED79" stroke-width="0.300001" x1="565" y1="436" x2="187" y2= "347" />
     <line fill="none" stroke="#96ED79" stroke-width="0.300001" x1="562" y1="450" x2="184" y2= "360" />
    </g>
   </g>
   <path fill="white" fill-rule="nonzero" d="M561 334c4,1 6,4 5,7 -1,4 -4,6 -7,5l-315 -72c-3,-1 -5,-4 -5,-7 1,-4 4,-6 8,-5l314 72z"/>
  </g>
 </g>
 <g id="landmarks-mz6">
  <metadata id="CorelCorpID_1Corel-Layer"/>
  <polygon id="m6lote2" fill="#35AD0E" points="465,352 500,360 483,432 448,424 "/>
  <polygon id="m6lote2A" fill="#35AD0E" points="428,344 463,352 446,423 411,415 "/>
  <polygon id="m6lote3" fill="#35AD0E" points="426,343 391,335 374,407 409,415 "/>
  <polygon id="m6lote3A" fill="#35AD0E" points="354,327 389,335 373,406 338,398 "/>
  <polygon id="m6lote4" fill="#35AD0E" points="352,326 317,318 300,390 335,397 "/>
  <polygon id="m6lote4A" fill="#35AD0E" points="315,318 280,310 264,381 299,389 "/>
  <polygon id="m6lote5" fill="#35AD0E" points="278,309 244,301 227,372 262,381 "/>
  <polygon id="m6lote5A" fill="#35AD0E" points="242,300 207,292 190,364 225,372 "/>
  <polygon id="m6lote6" fill="#35AD0E" points="272,167 238,159 221,231 256,239 "/>
  <polygon id="m6lote6A" fill="#35AD0E" points="309,176 275,168 258,239 293,248 "/>
  <path id="m6lote7" fill="#35AD0E" d="M346 184l-35 -8 -16 72 34 8c0,0 17,-72 17,-72z"/>
  <polygon id="m6lote7A" fill="#35AD0E" points="383,193 348,185 331,257 366,265 "/>
  <polygon id="m6lote8" fill="#35AD0E" points="420,202 385,194 368,265 403,274 "/>
  <polygon id="m6lote8A" fill="#35AD0E" points="457,210 422,202 405,274 440,282 "/>
  <polygon id="m6lote9" fill="#35AD0E" points="494,219 458,211 442,283 477,291 "/>
  <polygon id="m6lote9A" fill="#35AD0E" points="530,228 495,219 478,291 513,299 "/>
  <polygon id="m6lote10" fill="#35AD0E" points="567,236 532,228 515,300 550,308 "/>
  <polygon id="m6lote10A" fill="#35AD0E" points="569,237 604,245 587,316 552,308 "/>
  <polygon id="m6lote1" fill="#35AD0E" points="538,369 573,378 557,449 522,441 "/>
  <polygon id="m6lote1A" fill="#35AD0E" points="537,369 501,361 485,432 520,440 "/>
 </g>
</svg>
