<?xml version="1.0" encoding="UTF-8"?>
<!DOCTYPE svg PUBLIC "-//W3C//DTD SVG 1.1//EN" "http://www.w3.org/Graphics/SVG/1.1/DTD/svg11.dtd">
<!-- Creator: CorelDRAW X7 -->
<svg xmlns="http://www.w3.org/2000/svg" xml:space="preserve" width="800px" height="600px" version="1.1" shape-rendering="geometricPrecision" text-rendering="geometricPrecision" image-rendering="optimizeQuality" fill-rule="evenodd" clip-rule="evenodd"
viewBox="0 0 800 600"
 xmlns:xlink="http://www.w3.org/1999/xlink">
 <g id="base">
  <metadata id="CorelCorpID_0Corel-Layer"/>
  <polygon fill="#35AD0E" points="149,73 753,216 672,559 68,418 "/>
  <g id="_231257136">
   <polygon fill="#63D13E" points="137,59 749,204 667,552 55,409 "/>
   <g>
    <line fill="none" stroke="#96ED79" stroke-width="0.300001" x1="145" y1="61" x2="63" y2= "411" />
    <line fill="none" stroke="#96ED79" stroke-width="0.300001" x1="155" y1="63" x2="72" y2= "413" />
    <line fill="none" stroke="#96ED79" stroke-width="0.300001" x1="161" y1="64" x2="78" y2= "414" />
    <line fill="none" stroke="#96ED79" stroke-width="0.300001" x1="171" y1="67" x2="88" y2= "417" />
    <line fill="none" stroke="#96ED79" stroke-width="0.300001" x1="180" y1="69" x2="98" y2= "419" />
    <line fill="none" stroke="#96ED79" stroke-width="0.300001" x1="186" y1="71" x2="104" y2= "420" />
    <line fill="none" stroke="#96ED79" stroke-width="0.300001" x1="188" y1="71" x2="106" y2= "421" />
    <line fill="none" stroke="#96ED79" stroke-width="0.300001" x1="198" y1="73" x2="115" y2= "423" />
    <line fill="none" stroke="#96ED79" stroke-width="0.300001" x1="204" y1="75" x2="121" y2= "424" />
    <line fill="none" stroke="#96ED79" stroke-width="0.300001" x1="220" y1="79" x2="138" y2= "428" />
    <line fill="none" stroke="#96ED79" stroke-width="0.300001" x1="229" y1="81" x2="147" y2= "430" />
    <line fill="none" stroke="#96ED79" stroke-width="0.300001" x1="236" y1="82" x2="153" y2= "432" />
    <line fill="none" stroke="#96ED79" stroke-width="0.300001" x1="245" y1="84" x2="162" y2= "434" />
    <line fill="none" stroke="#96ED79" stroke-width="0.300001" x1="254" y1="86" x2="171" y2= "436" />
    <line fill="none" stroke="#96ED79" stroke-width="0.300001" x1="260" y1="88" x2="177" y2= "437" />
    <line fill="none" stroke="#96ED79" stroke-width="0.300001" x1="269" y1="90" x2="186" y2= "439" />
    <line fill="none" stroke="#96ED79" stroke-width="0.300001" x1="278" y1="92" x2="196" y2= "442" />
    <line fill="none" stroke="#96ED79" stroke-width="0.300001" x1="284" y1="94" x2="202" y2= "443" />
    <line fill="none" stroke="#96ED79" stroke-width="0.300001" x1="291" y1="95" x2="208" y2= "444" />
    <line fill="none" stroke="#96ED79" stroke-width="0.300001" x1="300" y1="97" x2="217" y2= "447" />
    <line fill="none" stroke="#96ED79" stroke-width="0.300001" x1="306" y1="99" x2="224" y2= "448" />
    <line fill="none" stroke="#96ED79" stroke-width="0.300001" x1="313" y1="101" x2="231" y2= "450" />
    <line fill="none" stroke="#96ED79" stroke-width="0.300001" x1="323" y1="103" x2="240" y2= "452" />
    <line fill="none" stroke="#96ED79" stroke-width="0.300001" x1="329" y1="104" x2="246" y2= "453" />
    <line fill="none" stroke="#96ED79" stroke-width="0.300001" x1="338" y1="106" x2="256" y2= "456" />
    <line fill="none" stroke="#96ED79" stroke-width="0.300001" x1="348" y1="109" x2="265" y2= "458" />
    <line fill="none" stroke="#96ED79" stroke-width="0.300001" x1="354" y1="110" x2="271" y2= "459" />
    <line fill="none" stroke="#96ED79" stroke-width="0.300001" x1="324" y1="103" x2="241" y2= "452" />
    <line fill="none" stroke="#96ED79" stroke-width="0.300001" x1="333" y1="105" x2="251" y2= "454" />
    <line fill="none" stroke="#96ED79" stroke-width="0.300001" x1="339" y1="107" x2="257" y2= "456" />
    <line fill="none" stroke="#96ED79" stroke-width="0.300001" x1="350" y1="109" x2="267" y2= "458" />
    <line fill="none" stroke="#96ED79" stroke-width="0.300001" x1="359" y1="111" x2="276" y2= "460" />
    <line fill="none" stroke="#96ED79" stroke-width="0.300001" x1="365" y1="113" x2="283" y2= "462" />
    <line fill="none" stroke="#96ED79" stroke-width="0.300001" x1="367" y1="113" x2="284" y2= "462" />
    <line fill="none" stroke="#96ED79" stroke-width="0.300001" x1="376" y1="115" x2="294" y2= "464" />
    <line fill="none" stroke="#96ED79" stroke-width="0.300001" x1="382" y1="117" x2="300" y2= "466" />
    <line fill="none" stroke="#96ED79" stroke-width="0.300001" x1="399" y1="121" x2="316" y2= "470" />
    <line fill="none" stroke="#96ED79" stroke-width="0.300001" x1="408" y1="123" x2="326" y2= "472" />
    <line fill="none" stroke="#96ED79" stroke-width="0.300001" x1="414" y1="124" x2="332" y2= "473" />
    <line fill="none" stroke="#96ED79" stroke-width="0.300001" x1="423" y1="127" x2="341" y2= "475" />
    <line fill="none" stroke="#96ED79" stroke-width="0.300001" x1="432" y1="130" x2="350" y2= "478" />
    <line fill="none" stroke="#96ED79" stroke-width="0.300001" x1="438" y1="134" x2="356" y2= "479" />
    <line fill="none" stroke="#96ED79" stroke-width="0.300001" x1="448" y1="132" x2="365" y2= "481" />
    <line fill="none" stroke="#96ED79" stroke-width="0.300001" x1="457" y1="135" x2="374" y2= "483" />
    <line fill="none" stroke="#96ED79" stroke-width="0.300001" x1="462" y1="140" x2="380" y2= "485" />
    <line fill="none" stroke="#96ED79" stroke-width="0.300001" x1="469" y1="137" x2="387" y2= "486" />
    <line fill="none" stroke="#96ED79" stroke-width="0.300001" x1="478" y1="144" x2="396" y2= "488" />
    <line fill="none" stroke="#96ED79" stroke-width="0.300001" x1="483" y1="148" x2="402" y2= "490" />
    <line fill="none" stroke="#96ED79" stroke-width="0.300001" x1="492" y1="143" x2="410" y2= "492" />
    <line fill="none" stroke="#96ED79" stroke-width="0.300001" x1="501" y1="145" x2="419" y2= "494" />
    <line fill="none" stroke="#96ED79" stroke-width="0.300001" x1="507" y1="146" x2="425" y2= "495" />
    <line fill="none" stroke="#96ED79" stroke-width="0.300001" x1="517" y1="149" x2="435" y2= "497" />
    <line fill="none" stroke="#96ED79" stroke-width="0.300001" x1="526" y1="151" x2="444" y2= "500" />
    <line fill="none" stroke="#96ED79" stroke-width="0.300001" x1="532" y1="152" x2="450" y2= "501" />
    <line fill="none" stroke="#96ED79" stroke-width="0.300001" x1="524" y1="150" x2="441" y2= "499" />
    <line fill="none" stroke="#96ED79" stroke-width="0.300001" x1="533" y1="152" x2="451" y2= "501" />
    <line fill="none" stroke="#96ED79" stroke-width="0.300001" x1="539" y1="154" x2="457" y2= "503" />
    <line fill="none" stroke="#96ED79" stroke-width="0.300001" x1="549" y1="156" x2="467" y2= "505" />
    <line fill="none" stroke="#96ED79" stroke-width="0.300001" x1="559" y1="159" x2="476" y2= "507" />
    <line fill="none" stroke="#96ED79" stroke-width="0.300001" x1="565" y1="160" x2="482" y2= "509" />
    <line fill="none" stroke="#96ED79" stroke-width="0.300001" x1="567" y1="160" x2="484" y2= "509" />
    <line fill="none" stroke="#96ED79" stroke-width="0.300001" x1="576" y1="163" x2="494" y2= "511" />
    <line fill="none" stroke="#96ED79" stroke-width="0.300001" x1="582" y1="164" x2="500" y2= "513" />
    <line fill="none" stroke="#96ED79" stroke-width="0.300001" x1="599" y1="168" x2="516" y2= "516" />
    <line fill="none" stroke="#96ED79" stroke-width="0.300001" x1="608" y1="170" x2="526" y2= "519" />
    <line fill="none" stroke="#96ED79" stroke-width="0.300001" x1="614" y1="172" x2="532" y2= "520" />
    <line fill="none" stroke="#96ED79" stroke-width="0.300001" x1="623" y1="174" x2="541" y2= "522" />
    <line fill="none" stroke="#96ED79" stroke-width="0.300001" x1="632" y1="176" x2="550" y2= "524" />
    <line fill="none" stroke="#96ED79" stroke-width="0.300001" x1="638" y1="177" x2="556" y2= "526" />
    <line fill="none" stroke="#96ED79" stroke-width="0.300001" x1="647" y1="179" x2="565" y2= "528" />
    <line fill="none" stroke="#96ED79" stroke-width="0.300001" x1="657" y1="182" x2="574" y2= "530" />
    <line fill="none" stroke="#96ED79" stroke-width="0.300001" x1="663" y1="183" x2="580" y2= "531" />
    <line fill="none" stroke="#96ED79" stroke-width="0.300001" x1="669" y1="185" x2="587" y2= "533" />
    <line fill="none" stroke="#96ED79" stroke-width="0.300001" x1="679" y1="187" x2="596" y2= "535" />
    <line fill="none" stroke="#96ED79" stroke-width="0.300001" x1="685" y1="188" x2="602" y2= "536" />
    <line fill="none" stroke="#96ED79" stroke-width="0.300001" x1="692" y1="190" x2="610" y2= "538" />
    <line fill="none" stroke="#96ED79" stroke-width="0.300001" x1="701" y1="192" x2="619" y2= "540" />
    <line fill="none" stroke="#96ED79" stroke-width="0.300001" x1="707" y1="194" x2="625" y2= "542" />
    <line fill="none" stroke="#96ED79" stroke-width="0.300001" x1="717" y1="196" x2="635" y2= "544" />
    <line fill="none" stroke="#96ED79" stroke-width="0.300001" x1="726" y1="198" x2="644" y2= "546" />
    <line fill="none" stroke="#96ED79" stroke-width="0.300001" x1="732" y1="200" x2="650" y2= "548" />
    <line fill="none" stroke="#96ED79" stroke-width="0.300001" x1="742" y1="202" x2="660" y2= "550" />
    <line fill="none" stroke="#96ED79" stroke-width="0.300001" x1="747" y1="211" x2="135" y2= "66" />
    <line fill="none" stroke="#96ED79" stroke-width="0.300001" x1="744" y1="223" x2="133" y2= "79" />
    <line fill="none" stroke="#96ED79" stroke-width="0.300001" x1="742" y1="231" x2="131" y2= "87" />
    <line fill="none" stroke="#96ED79" stroke-width="0.300001" x1="739" y1="246" x2="127" y2= "101" />
    <line fill="none" stroke="#96ED79" stroke-width="0.300001" x1="736" y1="258" x2="124" y2= "113" />
    <line fill="none" stroke="#96ED79" stroke-width="0.300001" x1="732" y1="275" x2="120" y2= "131" />
    <line fill="none" stroke="#96ED79" stroke-width="0.300001" x1="734" y1="268" x2="122" y2= "124" />
    <line fill="none" stroke="#96ED79" stroke-width="0.300001" x1="729" y1="289" x2="117" y2= "145" />
    <line fill="none" stroke="#96ED79" stroke-width="0.300001" x1="729" y1="289" x2="117" y2= "145" />
    <line fill="none" stroke="#96ED79" stroke-width="0.300001" x1="726" y1="302" x2="114" y2= "157" />
    <line fill="none" stroke="#96ED79" stroke-width="0.300001" x1="724" y1="310" x2="112" y2= "165" />
    <line fill="none" stroke="#96ED79" stroke-width="0.300001" x1="721" y1="324" x2="109" y2= "180" />
    <line fill="none" stroke="#96ED79" stroke-width="0.300001" x1="718" y1="337" x2="106" y2= "192" />
    <line fill="none" stroke="#96ED79" stroke-width="0.300001" x1="714" y1="354" x2="102" y2= "209" />
    <line fill="none" stroke="#96ED79" stroke-width="0.300001" x1="715" y1="347" x2="104" y2= "202" />
    <line fill="none" stroke="#96ED79" stroke-width="0.300001" x1="711" y1="368" x2="99" y2= "223" />
    <line fill="none" stroke="#96ED79" stroke-width="0.300001" x1="710" y1="372" x2="98" y2= "227" />
    <line fill="none" stroke="#96ED79" stroke-width="0.300001" x1="707" y1="384" x2="95" y2= "240" />
    <line fill="none" stroke="#96ED79" stroke-width="0.300001" x1="705" y1="393" x2="93" y2= "248" />
    <line fill="none" stroke="#96ED79" stroke-width="0.300001" x1="701" y1="407" x2="89" y2= "262" />
    <line fill="none" stroke="#96ED79" stroke-width="0.300001" x1="699" y1="419" x2="87" y2= "274" />
    <line fill="none" stroke="#96ED79" stroke-width="0.300001" x1="694" y1="437" x2="83" y2= "292" />
    <line fill="none" stroke="#96ED79" stroke-width="0.300001" x1="696" y1="429" x2="84" y2= "285" />
    <line fill="none" stroke="#96ED79" stroke-width="0.300001" x1="691" y1="450" x2="79" y2= "306" />
    <line fill="none" stroke="#96ED79" stroke-width="0.300001" x1="688" y1="462" x2="76" y2= "318" />
    <line fill="none" stroke="#96ED79" stroke-width="0.300001" x1="686" y1="475" x2="74" y2= "330" />
    <line fill="none" stroke="#96ED79" stroke-width="0.300001" x1="684" y1="483" x2="72" y2= "338" />
    <line fill="none" stroke="#96ED79" stroke-width="0.300001" x1="680" y1="497" x2="68" y2= "353" />
    <line fill="none" stroke="#96ED79" stroke-width="0.300001" x1="677" y1="509" x2="65" y2= "365" />
    <line fill="none" stroke="#96ED79" stroke-width="0.300001" x1="673" y1="527" x2="61" y2= "382" />
    <line fill="none" stroke="#96ED79" stroke-width="0.300001" x1="675" y1="520" x2="63" y2= "375" />
    <line fill="none" stroke="#96ED79" stroke-width="0.300001" x1="670" y1="541" x2="58" y2= "396" />
   </g>
  </g>
  <path fill="white" fill-rule="nonzero" d="M669 354c5,1 8,7 7,12 -1,5 -6,9 -12,7l-508 -116c-6,-2 -9,-7 -8,-12 2,-5 7,-9 12,-8l509 117z"/>
 </g>
 <g id="landmarks-mz2">
  <metadata id="CorelCorpID_1Corel-Layer"/>
  <polygon id="m6lote2" fill="#35AD0E" points="512,383 569,397 543,513 485,500 "/>
  <polygon id="m6lote2A" fill="#35AD0E" points="453,370 510,383 482,499 425,486 "/>
  <polygon id="m6lote3" fill="#35AD0E" points="450,369 392,356 365,472 422,485 "/>
  <polygon id="m6lote3A" fill="#35AD0E" points="332,342 389,355 362,471 306,458 "/>
  <polygon id="m6lote4" fill="#35AD0E" points="329,341 272,328 245,444 302,457 "/>
  <polygon id="m6lote4A" fill="#35AD0E" points="269,327 212,314 186,430 242,443 "/>
  <polygon id="m6lote5" fill="#35AD0E" points="209,313 153,300 126,417 183,430 "/>
  <polygon id="m6lote5A" fill="#35AD0E" points="150,299 93,286 66,402 123,416 "/>
  <polygon id="m6lote6" fill="#35AD0E" points="200,83 143,70 116,187 173,200 "/>
  <polygon id="m6lote6A" fill="#35AD0E" points="260,97 203,84 176,200 233,213 "/>
  <path id="m6lote7" fill="#35AD0E" d="M320 111l-57 -13 -27 116 56 13c0,0 27,-116 28,-116z"/>
  <polygon id="m6lote7A" fill="#35AD0E" points="379,126 323,112 295,229 352,242 "/>
  <polygon id="m6lote8" fill="#35AD0E" points="440,139 382,126 355,242 412,256 "/>
  <polygon id="m6lote8A" fill="#35AD0E" points="499,153 442,139 415,256 472,270 "/>
  <polygon id="m6lote9" fill="#35AD0E" points="559,167 502,154 475,270 532,284 "/>
  <polygon id="m6lote9A" fill="#35AD0E" points="619,181 562,167 535,285 591,297 "/>
  <polygon id="m6lote10" fill="#35AD0E" points="678,195 622,182 594,298 651,312 "/>
  <polygon id="m6lote10A" fill="#35AD0E" points="682,196 738,209 711,325 654,312 "/>
  <polygon id="m6lote1" fill="#35AD0E" points="632,412 689,425 662,541 605,527 "/>
  <polygon id="m6lote1A" fill="#35AD0E" points="629,411 571,398 545,514 602,527 "/>
 </g>
</svg>
