<?xml version="1.0" encoding="UTF-8"?>
<!DOCTYPE svg PUBLIC "-//W3C//DTD SVG 1.1//EN" "http://www.w3.org/Graphics/SVG/1.1/DTD/svg11.dtd">
<!-- Creator: CorelDRAW X7 -->
<svg xmlns="http://www.w3.org/2000/svg" xml:space="preserve" width="800px" height="600px" version="1.1" shape-rendering="geometricPrecision" text-rendering="geometricPrecision" image-rendering="optimizeQuality" fill-rule="evenodd" clip-rule="evenodd"
viewBox="0 0 800 600"
 xmlns:xlink="http://www.w3.org/1999/xlink">
 <g id="base">
  <metadata id="CorelCorpID_0Corel-Layer"/>
  <g id="_381601760">
   <polygon fill="#35AD0E" points="141,69 749,212 668,558 59,416 "/>
   <g>
    <polygon fill="#63D13E" points="129,54 745,200 663,550 46,407 "/>
    <g>
     <line fill="none" stroke="#96ED79" stroke-width="0.300001" x1="137" y1="56" x2="54" y2= "408" />
     <line fill="none" stroke="#96ED79" stroke-width="0.300001" x1="146" y1="59" x2="63" y2= "411" />
     <line fill="none" stroke="#96ED79" stroke-width="0.300001" x1="153" y1="60" x2="69" y2= "412" />
     <line fill="none" stroke="#96ED79" stroke-width="0.300001" x1="163" y1="62" x2="80" y2= "414" />
     <line fill="none" stroke="#96ED79" stroke-width="0.300001" x1="172" y1="65" x2="89" y2= "417" />
     <line fill="none" stroke="#96ED79" stroke-width="0.300001" x1="178" y1="66" x2="95" y2= "418" />
     <line fill="none" stroke="#96ED79" stroke-width="0.300001" x1="180" y1="67" x2="97" y2= "418" />
     <line fill="none" stroke="#96ED79" stroke-width="0.300001" x1="190" y1="69" x2="107" y2= "421" />
     <line fill="none" stroke="#96ED79" stroke-width="0.300001" x1="196" y1="70" x2="113" y2= "422" />
     <line fill="none" stroke="#96ED79" stroke-width="0.300001" x1="212" y1="74" x2="129" y2= "426" />
     <line fill="none" stroke="#96ED79" stroke-width="0.300001" x1="222" y1="76" x2="139" y2= "428" />
     <line fill="none" stroke="#96ED79" stroke-width="0.300001" x1="228" y1="78" x2="145" y2= "430" />
     <line fill="none" stroke="#96ED79" stroke-width="0.300001" x1="237" y1="80" x2="154" y2= "432" />
     <line fill="none" stroke="#96ED79" stroke-width="0.300001" x1="246" y1="82" x2="163" y2= "434" />
     <line fill="none" stroke="#96ED79" stroke-width="0.300001" x1="253" y1="84" x2="169" y2= "435" />
     <line fill="none" stroke="#96ED79" stroke-width="0.300001" x1="261" y1="86" x2="178" y2= "437" />
     <line fill="none" stroke="#96ED79" stroke-width="0.300001" x1="271" y1="88" x2="188" y2= "440" />
     <line fill="none" stroke="#96ED79" stroke-width="0.300001" x1="277" y1="89" x2="194" y2= "441" />
     <line fill="none" stroke="#96ED79" stroke-width="0.300001" x1="283" y1="91" x2="200" y2= "443" />
     <line fill="none" stroke="#96ED79" stroke-width="0.300001" x1="293" y1="93" x2="210" y2= "445" />
     <line fill="none" stroke="#96ED79" stroke-width="0.300001" x1="299" y1="95" x2="216" y2= "446" />
     <line fill="none" stroke="#96ED79" stroke-width="0.300001" x1="306" y1="96" x2="223" y2= "448" />
     <line fill="none" stroke="#96ED79" stroke-width="0.300001" x1="316" y1="99" x2="233" y2= "450" />
     <line fill="none" stroke="#96ED79" stroke-width="0.300001" x1="322" y1="100" x2="239" y2= "452" />
     <line fill="none" stroke="#96ED79" stroke-width="0.300001" x1="331" y1="102" x2="248" y2= "454" />
     <line fill="none" stroke="#96ED79" stroke-width="0.300001" x1="341" y1="104" x2="258" y2= "456" />
     <line fill="none" stroke="#96ED79" stroke-width="0.300001" x1="347" y1="106" x2="264" y2= "457" />
     <line fill="none" stroke="#96ED79" stroke-width="0.300001" x1="317" y1="99" x2="234" y2= "450" />
     <line fill="none" stroke="#96ED79" stroke-width="0.300001" x1="326" y1="101" x2="243" y2= "453" />
     <line fill="none" stroke="#96ED79" stroke-width="0.300001" x1="332" y1="102" x2="249" y2= "454" />
     <line fill="none" stroke="#96ED79" stroke-width="0.300001" x1="343" y1="105" x2="260" y2= "456" />
     <line fill="none" stroke="#96ED79" stroke-width="0.300001" x1="352" y1="107" x2="269" y2= "459" />
     <line fill="none" stroke="#96ED79" stroke-width="0.300001" x1="358" y1="109" x2="275" y2= "460" />
     <line fill="none" stroke="#96ED79" stroke-width="0.300001" x1="360" y1="109" x2="277" y2= "461" />
     <line fill="none" stroke="#96ED79" stroke-width="0.300001" x1="370" y1="111" x2="287" y2= "463" />
     <line fill="none" stroke="#96ED79" stroke-width="0.300001" x1="376" y1="113" x2="293" y2= "464" />
     <line fill="none" stroke="#96ED79" stroke-width="0.300001" x1="392" y1="117" x2="309" y2= "468" />
     <line fill="none" stroke="#96ED79" stroke-width="0.300001" x1="402" y1="119" x2="319" y2= "470" />
     <line fill="none" stroke="#96ED79" stroke-width="0.300001" x1="408" y1="120" x2="325" y2= "472" />
     <line fill="none" stroke="#96ED79" stroke-width="0.300001" x1="417" y1="122" x2="334" y2= "474" />
     <line fill="none" stroke="#96ED79" stroke-width="0.300001" x1="426" y1="126" x2="343" y2= "476" />
     <line fill="none" stroke="#96ED79" stroke-width="0.300001" x1="431" y1="130" x2="349" y2= "477" />
     <line fill="none" stroke="#96ED79" stroke-width="0.300001" x1="441" y1="128" x2="358" y2= "479" />
     <line fill="none" stroke="#96ED79" stroke-width="0.300001" x1="451" y1="131" x2="368" y2= "482" />
     <line fill="none" stroke="#96ED79" stroke-width="0.300001" x1="456" y1="136" x2="374" y2= "483" />
     <line fill="none" stroke="#96ED79" stroke-width="0.300001" x1="463" y1="133" x2="380" y2= "485" />
     <line fill="none" stroke="#96ED79" stroke-width="0.300001" x1="472" y1="140" x2="390" y2= "487" />
     <line fill="none" stroke="#96ED79" stroke-width="0.300001" x1="477" y1="144" x2="396" y2= "488" />
     <line fill="none" stroke="#96ED79" stroke-width="0.300001" x1="486" y1="139" x2="403" y2= "490" />
     <line fill="none" stroke="#96ED79" stroke-width="0.300001" x1="496" y1="141" x2="413" y2= "492" />
     <line fill="none" stroke="#96ED79" stroke-width="0.300001" x1="502" y1="142" x2="419" y2= "494" />
     <line fill="none" stroke="#96ED79" stroke-width="0.300001" x1="511" y1="145" x2="428" y2= "496" />
     <line fill="none" stroke="#96ED79" stroke-width="0.300001" x1="521" y1="147" x2="438" y2= "498" />
     <line fill="none" stroke="#96ED79" stroke-width="0.300001" x1="527" y1="148" x2="444" y2= "499" />
     <line fill="none" stroke="#96ED79" stroke-width="0.300001" x1="518" y1="146" x2="435" y2= "497" />
     <line fill="none" stroke="#96ED79" stroke-width="0.300001" x1="527" y1="149" x2="444" y2= "500" />
     <line fill="none" stroke="#96ED79" stroke-width="0.300001" x1="534" y1="150" x2="451" y2= "501" />
     <line fill="none" stroke="#96ED79" stroke-width="0.300001" x1="544" y1="152" x2="461" y2= "503" />
     <line fill="none" stroke="#96ED79" stroke-width="0.300001" x1="553" y1="155" x2="470" y2= "506" />
     <line fill="none" stroke="#96ED79" stroke-width="0.300001" x1="559" y1="156" x2="477" y2= "507" />
     <line fill="none" stroke="#96ED79" stroke-width="0.300001" x1="561" y1="157" x2="478" y2= "507" />
     <line fill="none" stroke="#96ED79" stroke-width="0.300001" x1="571" y1="159" x2="488" y2= "510" />
     <line fill="none" stroke="#96ED79" stroke-width="0.300001" x1="577" y1="160" x2="494" y2= "511" />
     <line fill="none" stroke="#96ED79" stroke-width="0.300001" x1="593" y1="164" x2="511" y2= "515" />
     <line fill="none" stroke="#96ED79" stroke-width="0.300001" x1="603" y1="166" x2="520" y2= "517" />
     <line fill="none" stroke="#96ED79" stroke-width="0.300001" x1="609" y1="168" x2="526" y2= "519" />
     <line fill="none" stroke="#96ED79" stroke-width="0.300001" x1="618" y1="170" x2="535" y2= "521" />
     <line fill="none" stroke="#96ED79" stroke-width="0.300001" x1="627" y1="172" x2="545" y2= "523" />
     <line fill="none" stroke="#96ED79" stroke-width="0.300001" x1="634" y1="174" x2="551" y2= "524" />
     <line fill="none" stroke="#96ED79" stroke-width="0.300001" x1="643" y1="176" x2="560" y2= "526" />
     <line fill="none" stroke="#96ED79" stroke-width="0.300001" x1="652" y1="178" x2="569" y2= "529" />
     <line fill="none" stroke="#96ED79" stroke-width="0.300001" x1="658" y1="179" x2="575" y2= "530" />
     <line fill="none" stroke="#96ED79" stroke-width="0.300001" x1="665" y1="181" x2="582" y2= "532" />
     <line fill="none" stroke="#96ED79" stroke-width="0.300001" x1="674" y1="183" x2="591" y2= "534" />
     <line fill="none" stroke="#96ED79" stroke-width="0.300001" x1="680" y1="185" x2="597" y2= "535" />
     <line fill="none" stroke="#96ED79" stroke-width="0.300001" x1="687" y1="186" x2="604" y2= "537" />
     <line fill="none" stroke="#96ED79" stroke-width="0.300001" x1="697" y1="189" x2="614" y2= "539" />
     <line fill="none" stroke="#96ED79" stroke-width="0.300001" x1="703" y1="190" x2="620" y2= "540" />
     <line fill="none" stroke="#96ED79" stroke-width="0.300001" x1="713" y1="192" x2="630" y2= "543" />
     <line fill="none" stroke="#96ED79" stroke-width="0.300001" x1="722" y1="195" x2="639" y2= "545" />
     <line fill="none" stroke="#96ED79" stroke-width="0.300001" x1="728" y1="196" x2="645" y2= "546" />
     <line fill="none" stroke="#96ED79" stroke-width="0.300001" x1="738" y1="198" x2="655" y2= "549" />
     <line fill="none" stroke="#96ED79" stroke-width="0.300001" x1="743" y1="207" x2="127" y2= "62" />
     <line fill="none" stroke="#96ED79" stroke-width="0.300001" x1="740" y1="220" x2="124" y2= "74" />
     <line fill="none" stroke="#96ED79" stroke-width="0.300001" x1="738" y1="228" x2="122" y2= "82" />
     <line fill="none" stroke="#96ED79" stroke-width="0.300001" x1="735" y1="243" x2="119" y2= "97" />
     <line fill="none" stroke="#96ED79" stroke-width="0.300001" x1="732" y1="255" x2="116" y2= "109" />
     <line fill="none" stroke="#96ED79" stroke-width="0.300001" x1="728" y1="272" x2="112" y2= "127" />
     <line fill="none" stroke="#96ED79" stroke-width="0.300001" x1="730" y1="265" x2="114" y2= "119" />
     <line fill="none" stroke="#96ED79" stroke-width="0.300001" x1="725" y1="286" x2="109" y2= "141" />
     <line fill="none" stroke="#96ED79" stroke-width="0.300001" x1="725" y1="286" x2="109" y2= "141" />
     <line fill="none" stroke="#96ED79" stroke-width="0.300001" x1="722" y1="299" x2="106" y2= "153" />
     <line fill="none" stroke="#96ED79" stroke-width="0.300001" x1="720" y1="307" x2="104" y2= "162" />
     <line fill="none" stroke="#96ED79" stroke-width="0.300001" x1="716" y1="322" x2="100" y2= "176" />
     <line fill="none" stroke="#96ED79" stroke-width="0.300001" x1="714" y1="334" x2="98" y2= "188" />
     <line fill="none" stroke="#96ED79" stroke-width="0.300001" x1="709" y1="351" x2="93" y2= "206" />
     <line fill="none" stroke="#96ED79" stroke-width="0.300001" x1="711" y1="344" x2="95" y2= "198" />
     <line fill="none" stroke="#96ED79" stroke-width="0.300001" x1="706" y1="365" x2="90" y2= "220" />
     <line fill="none" stroke="#96ED79" stroke-width="0.300001" x1="705" y1="369" x2="89" y2= "224" />
     <line fill="none" stroke="#96ED79" stroke-width="0.300001" x1="702" y1="382" x2="86" y2= "236" />
     <line fill="none" stroke="#96ED79" stroke-width="0.300001" x1="700" y1="390" x2="84" y2= "245" />
     <line fill="none" stroke="#96ED79" stroke-width="0.300001" x1="697" y1="405" x2="81" y2= "259" />
     <line fill="none" stroke="#96ED79" stroke-width="0.300001" x1="694" y1="417" x2="78" y2= "271" />
     <line fill="none" stroke="#96ED79" stroke-width="0.300001" x1="690" y1="435" x2="74" y2= "289" />
     <line fill="none" stroke="#96ED79" stroke-width="0.300001" x1="692" y1="427" x2="76" y2= "282" />
     <line fill="none" stroke="#96ED79" stroke-width="0.300001" x1="687" y1="449" x2="71" y2= "303" />
     <line fill="none" stroke="#96ED79" stroke-width="0.300001" x1="684" y1="460" x2="68" y2= "315" />
     <line fill="none" stroke="#96ED79" stroke-width="0.300001" x1="681" y1="473" x2="65" y2= "327" />
     <line fill="none" stroke="#96ED79" stroke-width="0.300001" x1="679" y1="481" x2="63" y2= "336" />
     <line fill="none" stroke="#96ED79" stroke-width="0.300001" x1="676" y1="496" x2="60" y2= "350" />
     <line fill="none" stroke="#96ED79" stroke-width="0.300001" x1="673" y1="508" x2="57" y2= "362" />
     <line fill="none" stroke="#96ED79" stroke-width="0.300001" x1="669" y1="526" x2="53" y2= "380" />
     <line fill="none" stroke="#96ED79" stroke-width="0.300001" x1="670" y1="518" x2="54" y2= "373" />
     <line fill="none" stroke="#96ED79" stroke-width="0.300001" x1="665" y1="540" x2="49" y2= "394" />
    </g>
   </g>
   <path fill="white" fill-rule="nonzero" d="M664 352c5,1 9,6 8,12 -2,5 -7,8 -12,7l-512 -118c-6,-1 -9,-6 -8,-11 1,-6 7,-9 12,-8l512 118z"/>
  </g>
 </g>
 <g id="landmarks-mz7">
  <metadata id="CorelCorpID_1Corel-Layer"/>
  <polygon id="m7lote2" fill="#35AD0E" points="507,381 564,394 537,511 479,497 "/>
  <polygon id="m7lote2A" fill="#35AD0E" points="447,367 504,380 477,497 420,484 "/>
  <polygon id="m7lote3" fill="#35AD0E" points="444,366 387,353 360,469 416,483 "/>
  <polygon id="m7lote3A" fill="#35AD0E" points="327,340 384,352 357,469 300,456 "/>
  <polygon id="m7lote4" fill="#35AD0E" points="324,338 267,325 239,442 296,455 "/>
  <polygon id="m7lote4A" fill="#35AD0E" points="264,325 207,312 180,428 237,441 "/>
  <polygon id="m7lote5" fill="#35AD0E" points="204,310 147,298 120,414 177,427 "/>
  <polygon id="m7lote5A" fill="#35AD0E" points="144,297 87,283 60,400 117,414 "/>
  <polygon id="m7lote6" fill="#35AD0E" points="194,80 137,67 110,184 167,197 "/>
  <polygon id="m7lote6A" fill="#35AD0E" points="254,94 197,81 170,197 228,211 "/>
  <path id="m7lote7" fill="#35AD0E" d="M314 108l-57 -13 -27 116 57 14c0,0 27,-117 27,-117z"/>
  <polygon id="m7lote7A" fill="#35AD0E" points="374,123 317,109 290,226 347,239 "/>
  <polygon id="m7lote8" fill="#35AD0E" points="434,136 377,123 350,239 406,253 "/>
  <polygon id="m7lote8A" fill="#35AD0E" points="494,150 437,136 410,253 466,267 "/>
  <polygon id="m7lote9" fill="#35AD0E" points="554,164 497,151 470,268 526,281 "/>
  <polygon id="m7lote9A" fill="#35AD0E" points="614,178 557,165 529,282 586,295 "/>
  <polygon id="m7lote10" fill="#35AD0E" points="673,193 616,179 589,296 646,309 "/>
  <polygon id="m7lote10A" fill="#35AD0E" points="677,193 733,206 706,323 649,310 "/>
  <polygon id="m7lote1" fill="#35AD0E" points="627,409 684,423 657,538 600,525 "/>
  <polygon id="m7lote1A" fill="#35AD0E" points="624,409 566,395 540,511 597,525 "/>
 </g>
</svg>
