<?xml version="1.0" encoding="UTF-8"?>
<!DOCTYPE svg PUBLIC "-//W3C//DTD SVG 1.1//EN" "http://www.w3.org/Graphics/SVG/1.1/DTD/svg11.dtd">
<!-- Creator: CorelDRAW X7 -->
<svg xmlns="http://www.w3.org/2000/svg" xml:space="preserve" width="800px" height="600px" version="1.1" shape-rendering="geometricPrecision" text-rendering="geometricPrecision" image-rendering="optimizeQuality" fill-rule="evenodd" clip-rule="evenodd"
viewBox="0 0 800 600"
 xmlns:xlink="http://www.w3.org/1999/xlink">
 <g id="base">
  <metadata id="CorelCorpID_0Corel-Layer"/>
  <g id="_381263440">
   <polygon fill="#35AD0E" points="149,73 734,211 656,544 71,408 "/>
   <g>
    <polygon fill="#63D13E" points="138,60 730,200 651,537 59,398 "/>
    <g>
     <line fill="none" stroke="#96ED79" stroke-width="0.300001" x1="146" y1="61" x2="66" y2= "400" />
     <line fill="none" stroke="#96ED79" stroke-width="0.300001" x1="155" y1="64" x2="75" y2= "402" />
     <line fill="none" stroke="#96ED79" stroke-width="0.300001" x1="161" y1="65" x2="81" y2= "403" />
     <line fill="none" stroke="#96ED79" stroke-width="0.300001" x1="171" y1="67" x2="91" y2= "406" />
     <line fill="none" stroke="#96ED79" stroke-width="0.300001" x1="180" y1="69" x2="100" y2= "408" />
     <line fill="none" stroke="#96ED79" stroke-width="0.300001" x1="186" y1="71" x2="106" y2= "409" />
     <line fill="none" stroke="#96ED79" stroke-width="0.300001" x1="187" y1="71" x2="107" y2= "410" />
     <line fill="none" stroke="#96ED79" stroke-width="0.300001" x1="197" y1="73" x2="117" y2= "412" />
     <line fill="none" stroke="#96ED79" stroke-width="0.300001" x1="202" y1="75" x2="122" y2= "413" />
     <line fill="none" stroke="#96ED79" stroke-width="0.300001" x1="218" y1="79" x2="138" y2= "417" />
     <line fill="none" stroke="#96ED79" stroke-width="0.300001" x1="227" y1="81" x2="147" y2= "419" />
     <line fill="none" stroke="#96ED79" stroke-width="0.300001" x1="233" y1="82" x2="153" y2= "420" />
     <line fill="none" stroke="#96ED79" stroke-width="0.300001" x1="242" y1="84" x2="162" y2= "422" />
     <line fill="none" stroke="#96ED79" stroke-width="0.300001" x1="251" y1="86" x2="171" y2= "424" />
     <line fill="none" stroke="#96ED79" stroke-width="0.300001" x1="257" y1="88" x2="177" y2= "426" />
     <line fill="none" stroke="#96ED79" stroke-width="0.300001" x1="265" y1="90" x2="186" y2= "428" />
     <line fill="none" stroke="#96ED79" stroke-width="0.300001" x1="274" y1="92" x2="195" y2= "430" />
     <line fill="none" stroke="#96ED79" stroke-width="0.300001" x1="280" y1="93" x2="200" y2= "431" />
     <line fill="none" stroke="#96ED79" stroke-width="0.300001" x1="287" y1="95" x2="207" y2= "433" />
     <line fill="none" stroke="#96ED79" stroke-width="0.300001" x1="296" y1="97" x2="216" y2= "435" />
     <line fill="none" stroke="#96ED79" stroke-width="0.300001" x1="302" y1="98" x2="222" y2= "436" />
     <line fill="none" stroke="#96ED79" stroke-width="0.300001" x1="309" y1="100" x2="229" y2= "438" />
     <line fill="none" stroke="#96ED79" stroke-width="0.300001" x1="318" y1="102" x2="238" y2= "440" />
     <line fill="none" stroke="#96ED79" stroke-width="0.300001" x1="323" y1="103" x2="244" y2= "441" />
     <line fill="none" stroke="#96ED79" stroke-width="0.300001" x1="333" y1="106" x2="253" y2= "444" />
     <line fill="none" stroke="#96ED79" stroke-width="0.300001" x1="342" y1="108" x2="262" y2= "446" />
     <line fill="none" stroke="#96ED79" stroke-width="0.300001" x1="348" y1="109" x2="268" y2= "447" />
     <line fill="none" stroke="#96ED79" stroke-width="0.300001" x1="319" y1="102" x2="239" y2= "440" />
     <line fill="none" stroke="#96ED79" stroke-width="0.300001" x1="328" y1="104" x2="248" y2= "442" />
     <line fill="none" stroke="#96ED79" stroke-width="0.300001" x1="334" y1="106" x2="254" y2= "444" />
     <line fill="none" stroke="#96ED79" stroke-width="0.300001" x1="344" y1="108" x2="264" y2= "446" />
     <line fill="none" stroke="#96ED79" stroke-width="0.300001" x1="353" y1="110" x2="273" y2= "448" />
     <line fill="none" stroke="#96ED79" stroke-width="0.300001" x1="359" y1="112" x2="279" y2= "450" />
     <line fill="none" stroke="#96ED79" stroke-width="0.300001" x1="360" y1="112" x2="281" y2= "450" />
     <line fill="none" stroke="#96ED79" stroke-width="0.300001" x1="369" y1="114" x2="290" y2= "452" />
     <line fill="none" stroke="#96ED79" stroke-width="0.300001" x1="375" y1="116" x2="296" y2= "454" />
     <line fill="none" stroke="#96ED79" stroke-width="0.300001" x1="391" y1="119" x2="311" y2= "457" />
     <line fill="none" stroke="#96ED79" stroke-width="0.300001" x1="400" y1="122" x2="320" y2= "459" />
     <line fill="none" stroke="#96ED79" stroke-width="0.300001" x1="406" y1="123" x2="326" y2= "461" />
     <line fill="none" stroke="#96ED79" stroke-width="0.300001" x1="415" y1="125" x2="335" y2= "463" />
     <line fill="none" stroke="#96ED79" stroke-width="0.300001" x1="424" y1="128" x2="344" y2= "465" />
     <line fill="none" stroke="#96ED79" stroke-width="0.300001" x1="429" y1="133" x2="350" y2= "466" />
     <line fill="none" stroke="#96ED79" stroke-width="0.300001" x1="438" y1="131" x2="359" y2= "468" />
     <line fill="none" stroke="#96ED79" stroke-width="0.300001" x1="447" y1="133" x2="368" y2= "470" />
     <line fill="none" stroke="#96ED79" stroke-width="0.300001" x1="453" y1="138" x2="374" y2= "472" />
     <line fill="none" stroke="#96ED79" stroke-width="0.300001" x1="460" y1="136" x2="380" y2= "473" />
     <line fill="none" stroke="#96ED79" stroke-width="0.300001" x1="468" y1="142" x2="389" y2= "475" />
     <line fill="none" stroke="#96ED79" stroke-width="0.300001" x1="473" y1="146" x2="395" y2= "477" />
     <line fill="none" stroke="#96ED79" stroke-width="0.300001" x1="482" y1="141" x2="402" y2= "478" />
     <line fill="none" stroke="#96ED79" stroke-width="0.300001" x1="491" y1="143" x2="411" y2= "480" />
     <line fill="none" stroke="#96ED79" stroke-width="0.300001" x1="496" y1="144" x2="417" y2= "482" />
     <line fill="none" stroke="#96ED79" stroke-width="0.300001" x1="506" y1="146" x2="426" y2= "484" />
     <line fill="none" stroke="#96ED79" stroke-width="0.300001" x1="515" y1="149" x2="435" y2= "486" />
     <line fill="none" stroke="#96ED79" stroke-width="0.300001" x1="521" y1="150" x2="441" y2= "487" />
     <line fill="none" stroke="#96ED79" stroke-width="0.300001" x1="512" y1="148" x2="432" y2= "485" />
     <line fill="none" stroke="#96ED79" stroke-width="0.300001" x1="521" y1="150" x2="441" y2= "488" />
     <line fill="none" stroke="#96ED79" stroke-width="0.300001" x1="527" y1="152" x2="447" y2= "489" />
     <line fill="none" stroke="#96ED79" stroke-width="0.300001" x1="537" y1="154" x2="457" y2= "491" />
     <line fill="none" stroke="#96ED79" stroke-width="0.300001" x1="546" y1="156" x2="466" y2= "493" />
     <line fill="none" stroke="#96ED79" stroke-width="0.300001" x1="552" y1="157" x2="472" y2= "495" />
     <line fill="none" stroke="#96ED79" stroke-width="0.300001" x1="554" y1="158" x2="474" y2= "495" />
     <line fill="none" stroke="#96ED79" stroke-width="0.300001" x1="563" y1="160" x2="483" y2= "497" />
     <line fill="none" stroke="#96ED79" stroke-width="0.300001" x1="569" y1="161" x2="489" y2= "499" />
     <line fill="none" stroke="#96ED79" stroke-width="0.300001" x1="585" y1="165" x2="505" y2= "502" />
     <line fill="none" stroke="#96ED79" stroke-width="0.300001" x1="594" y1="167" x2="514" y2= "505" />
     <line fill="none" stroke="#96ED79" stroke-width="0.300001" x1="600" y1="169" x2="520" y2= "506" />
     <line fill="none" stroke="#96ED79" stroke-width="0.300001" x1="608" y1="171" x2="529" y2= "508" />
     <line fill="none" stroke="#96ED79" stroke-width="0.300001" x1="617" y1="173" x2="538" y2= "510" />
     <line fill="none" stroke="#96ED79" stroke-width="0.300001" x1="623" y1="174" x2="544" y2= "511" />
     <line fill="none" stroke="#96ED79" stroke-width="0.300001" x1="632" y1="176" x2="552" y2= "513" />
     <line fill="none" stroke="#96ED79" stroke-width="0.300001" x1="641" y1="178" x2="561" y2= "516" />
     <line fill="none" stroke="#96ED79" stroke-width="0.300001" x1="647" y1="180" x2="567" y2= "517" />
     <line fill="none" stroke="#96ED79" stroke-width="0.300001" x1="653" y1="181" x2="573" y2= "518" />
     <line fill="none" stroke="#96ED79" stroke-width="0.300001" x1="662" y1="183" x2="582" y2= "520" />
     <line fill="none" stroke="#96ED79" stroke-width="0.300001" x1="668" y1="185" x2="588" y2= "522" />
     <line fill="none" stroke="#96ED79" stroke-width="0.300001" x1="675" y1="186" x2="595" y2= "523" />
     <line fill="none" stroke="#96ED79" stroke-width="0.300001" x1="684" y1="189" x2="604" y2= "526" />
     <line fill="none" stroke="#96ED79" stroke-width="0.300001" x1="690" y1="190" x2="610" y2= "527" />
     <line fill="none" stroke="#96ED79" stroke-width="0.300001" x1="699" y1="192" x2="619" y2= "529" />
     <line fill="none" stroke="#96ED79" stroke-width="0.300001" x1="708" y1="194" x2="629" y2= "531" />
     <line fill="none" stroke="#96ED79" stroke-width="0.300001" x1="714" y1="196" x2="634" y2= "533" />
     <line fill="none" stroke="#96ED79" stroke-width="0.300001" x1="724" y1="198" x2="644" y2= "535" />
     <line fill="none" stroke="#96ED79" stroke-width="0.300001" x1="729" y1="207" x2="136" y2= "67" />
     <line fill="none" stroke="#96ED79" stroke-width="0.300001" x1="726" y1="219" x2="134" y2= "79" />
     <line fill="none" stroke="#96ED79" stroke-width="0.300001" x1="724" y1="227" x2="132" y2= "87" />
     <line fill="none" stroke="#96ED79" stroke-width="0.300001" x1="721" y1="240" x2="128" y2= "100" />
     <line fill="none" stroke="#96ED79" stroke-width="0.300001" x1="718" y1="252" x2="126" y2= "112" />
     <line fill="none" stroke="#96ED79" stroke-width="0.300001" x1="714" y1="269" x2="122" y2= "129" />
     <line fill="none" stroke="#96ED79" stroke-width="0.300001" x1="716" y1="262" x2="123" y2= "122" />
     <line fill="none" stroke="#96ED79" stroke-width="0.300001" x1="711" y1="283" x2="119" y2= "143" />
     <line fill="none" stroke="#96ED79" stroke-width="0.300001" x1="711" y1="283" x2="119" y2= "143" />
     <line fill="none" stroke="#96ED79" stroke-width="0.300001" x1="708" y1="295" x2="116" y2= "155" />
     <line fill="none" stroke="#96ED79" stroke-width="0.300001" x1="706" y1="303" x2="114" y2= "163" />
     <line fill="none" stroke="#96ED79" stroke-width="0.300001" x1="703" y1="317" x2="111" y2= "177" />
     <line fill="none" stroke="#96ED79" stroke-width="0.300001" x1="700" y1="328" x2="108" y2= "188" />
     <line fill="none" stroke="#96ED79" stroke-width="0.300001" x1="696" y1="345" x2="104" y2= "205" />
     <line fill="none" stroke="#96ED79" stroke-width="0.300001" x1="698" y1="338" x2="105" y2= "198" />
     <line fill="none" stroke="#96ED79" stroke-width="0.300001" x1="693" y1="359" x2="101" y2= "219" />
     <line fill="none" stroke="#96ED79" stroke-width="0.300001" x1="692" y1="362" x2="100" y2= "222" />
     <line fill="none" stroke="#96ED79" stroke-width="0.300001" x1="689" y1="375" x2="97" y2= "235" />
     <line fill="none" stroke="#96ED79" stroke-width="0.300001" x1="687" y1="382" x2="95" y2= "242" />
     <line fill="none" stroke="#96ED79" stroke-width="0.300001" x1="684" y1="396" x2="92" y2= "256" />
     <line fill="none" stroke="#96ED79" stroke-width="0.300001" x1="681" y1="408" x2="89" y2= "268" />
     <line fill="none" stroke="#96ED79" stroke-width="0.300001" x1="677" y1="425" x2="85" y2= "285" />
     <line fill="none" stroke="#96ED79" stroke-width="0.300001" x1="679" y1="418" x2="87" y2= "278" />
     <line fill="none" stroke="#96ED79" stroke-width="0.300001" x1="674" y1="439" x2="82" y2= "299" />
     <line fill="none" stroke="#96ED79" stroke-width="0.300001" x1="672" y1="450" x2="79" y2= "310" />
     <line fill="none" stroke="#96ED79" stroke-width="0.300001" x1="669" y1="462" x2="76" y2= "322" />
     <line fill="none" stroke="#96ED79" stroke-width="0.300001" x1="667" y1="470" x2="75" y2= "330" />
     <line fill="none" stroke="#96ED79" stroke-width="0.300001" x1="664" y1="484" x2="71" y2= "344" />
     <line fill="none" stroke="#96ED79" stroke-width="0.300001" x1="661" y1="496" x2="69" y2= "356" />
     <line fill="none" stroke="#96ED79" stroke-width="0.300001" x1="657" y1="513" x2="65" y2= "373" />
     <line fill="none" stroke="#96ED79" stroke-width="0.300001" x1="659" y1="505" x2="66" y2= "365" />
     <line fill="none" stroke="#96ED79" stroke-width="0.300001" x1="654" y1="526" x2="61" y2= "386" />
    </g>
   </g>
   <path fill="white" fill-rule="nonzero" d="M653 345c5,2 8,7 7,12 -1,5 -6,8 -12,7l-492 -113c-5,-1 -8,-6 -7,-11 1,-6 6,-9 11,-8l493 113z"/>
  </g>
 </g>
 <g id="landmarks-mz8">
  <metadata id="CorelCorpID_1Corel-Layer"/>
  <polygon id="m8lote2" fill="#35AD0E" points="501,371 555,383 530,494 475,481 "/>
  <polygon id="m8lote2A" fill="#35AD0E" points="445,358 499,370 473,481 418,468 "/>
  <polygon id="m8lote3" fill="#35AD0E" points="442,357 387,344 361,455 415,468 "/>
  <polygon id="m8lote3A" fill="#35AD0E" points="330,332 384,344 359,454 305,442 "/>
  <polygon id="m8lote4" fill="#35AD0E" points="327,331 273,318 247,429 301,441 "/>
  <polygon id="m8lote4A" fill="#35AD0E" points="270,317 216,305 191,415 245,428 "/>
  <polygon id="m8lote5" fill="#35AD0E" points="213,304 159,292 133,402 188,415 "/>
  <polygon id="m8lote5A" fill="#35AD0E" points="157,291 102,278 77,389 131,402 "/>
  <polygon id="m8lote6" fill="#35AD0E" points="204,85 150,73 125,184 179,196 "/>
  <polygon id="m8lote6A" fill="#35AD0E" points="261,98 207,86 181,196 236,209 "/>
  <path id="m8lote7" fill="#35AD0E" d="M318 111l-54 -12 -26 111 54 12c0,0 26,-111 26,-111z"/>
  <polygon id="m8lote7A" fill="#35AD0E" points="375,125 321,112 295,223 349,236 "/>
  <polygon id="m8lote8" fill="#35AD0E" points="432,138 378,126 352,236 406,249 "/>
  <polygon id="m8lote8A" fill="#35AD0E" points="489,152 435,139 409,249 463,263 "/>
  <polygon id="m8lote9" fill="#35AD0E" points="546,165 492,152 466,263 520,276 "/>
  <polygon id="m8lote9A" fill="#35AD0E" points="603,178 549,165 523,277 577,289 "/>
  <polygon id="m8lote10" fill="#35AD0E" points="659,192 605,179 579,290 633,302 "/>
  <polygon id="m8lote10A" fill="#35AD0E" points="663,192 716,204 691,316 636,303 "/>
  <polygon id="m8lote1" fill="#35AD0E" points="615,398 670,410 644,521 589,508 "/>
  <polygon id="m8lote1A" fill="#35AD0E" points="613,397 557,385 533,495 587,507 "/>
 </g>
</svg>
