<?xml version="1.0" encoding="UTF-8"?>
<!DOCTYPE svg PUBLIC "-//W3C//DTD SVG 1.1//EN" "http://www.w3.org/Graphics/SVG/1.1/DTD/svg11.dtd">
<!-- Creator: CorelDRAW X8 -->
<svg xmlns="http://www.w3.org/2000/svg" xml:space="preserve" width="800px" height="600px" version="1.1" shape-rendering="geometricPrecision" text-rendering="geometricPrecision" image-rendering="optimizeQuality" fill-rule="evenodd" clip-rule="evenodd"
viewBox="0 0 800 600"
 xmlns:xlink="http://www.w3.org/1999/xlink">
 <g id="base">
  <metadata id="CorelCorpID_0Corel-Layer"/>
  <g id="_2070012869840">
   <polygon fill="#35AD0E" points="240,164 601,249 553,454 192,370 "/>
   <g>
    <polygon fill="#63D13E" points="233,155 598,242 550,450 184,364 "/>
    <g>
     <line fill="none" stroke="#96ED79" stroke-width="0.300001" x1="238" y1="156" x2="188" y2= "365" />
     <line fill="none" stroke="#96ED79" stroke-width="0.300001" x1="243" y1="158" x2="194" y2= "367" />
     <line fill="none" stroke="#96ED79" stroke-width="0.300001" x1="247" y1="159" x2="198" y2= "367" />
     <line fill="none" stroke="#96ED79" stroke-width="0.300001" x1="253" y1="160" x2="204" y2= "369" />
     <line fill="none" stroke="#96ED79" stroke-width="0.300001" x1="259" y1="161" x2="209" y2= "370" />
     <line fill="none" stroke="#96ED79" stroke-width="0.300001" x1="262" y1="162" x2="213" y2= "371" />
     <line fill="none" stroke="#96ED79" stroke-width="0.300001" x1="263" y1="162" x2="214" y2= "371" />
     <line fill="none" stroke="#96ED79" stroke-width="0.300001" x1="269" y1="164" x2="220" y2= "373" />
     <line fill="none" stroke="#96ED79" stroke-width="0.300001" x1="273" y1="165" x2="223" y2= "373" />
     <line fill="none" stroke="#96ED79" stroke-width="0.300001" x1="282" y1="167" x2="233" y2= "376" />
     <line fill="none" stroke="#96ED79" stroke-width="0.300001" x1="288" y1="168" x2="239" y2= "377" />
     <line fill="none" stroke="#96ED79" stroke-width="0.300001" x1="292" y1="169" x2="242" y2= "378" />
     <line fill="none" stroke="#96ED79" stroke-width="0.300001" x1="297" y1="170" x2="248" y2= "379" />
     <line fill="none" stroke="#96ED79" stroke-width="0.300001" x1="303" y1="172" x2="253" y2= "380" />
     <line fill="none" stroke="#96ED79" stroke-width="0.300001" x1="306" y1="173" x2="257" y2= "381" />
     <line fill="none" stroke="#96ED79" stroke-width="0.300001" x1="312" y1="174" x2="262" y2= "382" />
     <line fill="none" stroke="#96ED79" stroke-width="0.300001" x1="317" y1="175" x2="268" y2= "384" />
     <line fill="none" stroke="#96ED79" stroke-width="0.300001" x1="321" y1="176" x2="271" y2= "385" />
     <line fill="none" stroke="#96ED79" stroke-width="0.300001" x1="325" y1="177" x2="275" y2= "386" />
     <line fill="none" stroke="#96ED79" stroke-width="0.300001" x1="330" y1="178" x2="281" y2= "387" />
     <line fill="none" stroke="#96ED79" stroke-width="0.300001" x1="334" y1="179" x2="284" y2= "388" />
     <line fill="none" stroke="#96ED79" stroke-width="0.300001" x1="338" y1="180" x2="289" y2= "389" />
     <line fill="none" stroke="#96ED79" stroke-width="0.300001" x1="344" y1="181" x2="294" y2= "390" />
     <line fill="none" stroke="#96ED79" stroke-width="0.300001" x1="347" y1="182" x2="298" y2= "391" />
     <line fill="none" stroke="#96ED79" stroke-width="0.300001" x1="353" y1="184" x2="304" y2= "392" />
     <line fill="none" stroke="#96ED79" stroke-width="0.300001" x1="359" y1="185" x2="309" y2= "393" />
     <line fill="none" stroke="#96ED79" stroke-width="0.300001" x1="362" y1="186" x2="313" y2= "394" />
     <line fill="none" stroke="#96ED79" stroke-width="0.300001" x1="344" y1="182" x2="295" y2= "390" />
     <line fill="none" stroke="#96ED79" stroke-width="0.300001" x1="350" y1="183" x2="301" y2= "391" />
     <line fill="none" stroke="#96ED79" stroke-width="0.300001" x1="354" y1="184" x2="304" y2= "392" />
     <line fill="none" stroke="#96ED79" stroke-width="0.300001" x1="360" y1="185" x2="310" y2= "394" />
     <line fill="none" stroke="#96ED79" stroke-width="0.300001" x1="365" y1="187" x2="316" y2= "395" />
     <line fill="none" stroke="#96ED79" stroke-width="0.300001" x1="369" y1="187" x2="320" y2= "396" />
     <line fill="none" stroke="#96ED79" stroke-width="0.300001" x1="370" y1="188" x2="321" y2= "396" />
     <line fill="none" stroke="#96ED79" stroke-width="0.300001" x1="376" y1="189" x2="326" y2= "397" />
     <line fill="none" stroke="#96ED79" stroke-width="0.300001" x1="379" y1="190" x2="330" y2= "398" />
     <line fill="none" stroke="#96ED79" stroke-width="0.300001" x1="389" y1="192" x2="340" y2= "401" />
     <line fill="none" stroke="#96ED79" stroke-width="0.300001" x1="395" y1="193" x2="345" y2= "402" />
     <line fill="none" stroke="#96ED79" stroke-width="0.300001" x1="398" y1="194" x2="349" y2= "403" />
     <line fill="none" stroke="#96ED79" stroke-width="0.300001" x1="404" y1="196" x2="354" y2= "404" />
     <line fill="none" stroke="#96ED79" stroke-width="0.300001" x1="409" y1="198" x2="360" y2= "405" />
     <line fill="none" stroke="#96ED79" stroke-width="0.300001" x1="412" y1="200" x2="364" y2= "406" />
     <line fill="none" stroke="#96ED79" stroke-width="0.300001" x1="418" y1="199" x2="369" y2= "407" />
     <line fill="none" stroke="#96ED79" stroke-width="0.300001" x1="424" y1="201" x2="375" y2= "409" />
     <line fill="none" stroke="#96ED79" stroke-width="0.300001" x1="427" y1="203" x2="378" y2= "410" />
     <line fill="none" stroke="#96ED79" stroke-width="0.300001" x1="431" y1="202" x2="382" y2= "410" />
     <line fill="none" stroke="#96ED79" stroke-width="0.300001" x1="436" y1="206" x2="388" y2= "412" />
     <line fill="none" stroke="#96ED79" stroke-width="0.300001" x1="439" y1="209" x2="391" y2= "413" />
     <line fill="none" stroke="#96ED79" stroke-width="0.300001" x1="445" y1="205" x2="396" y2= "414" />
     <line fill="none" stroke="#96ED79" stroke-width="0.300001" x1="450" y1="207" x2="401" y2= "415" />
     <line fill="none" stroke="#96ED79" stroke-width="0.300001" x1="454" y1="207" x2="405" y2= "416" />
     <line fill="none" stroke="#96ED79" stroke-width="0.300001" x1="460" y1="209" x2="411" y2= "417" />
     <line fill="none" stroke="#96ED79" stroke-width="0.300001" x1="465" y1="210" x2="416" y2= "418" />
     <line fill="none" stroke="#96ED79" stroke-width="0.300001" x1="469" y1="211" x2="420" y2= "419" />
     <line fill="none" stroke="#96ED79" stroke-width="0.300001" x1="464" y1="210" x2="415" y2= "418" />
     <line fill="none" stroke="#96ED79" stroke-width="0.300001" x1="469" y1="211" x2="420" y2= "419" />
     <line fill="none" stroke="#96ED79" stroke-width="0.300001" x1="473" y1="212" x2="424" y2= "420" />
     <line fill="none" stroke="#96ED79" stroke-width="0.300001" x1="479" y1="213" x2="430" y2= "422" />
     <line fill="none" stroke="#96ED79" stroke-width="0.300001" x1="485" y1="215" x2="435" y2= "423" />
     <line fill="none" stroke="#96ED79" stroke-width="0.300001" x1="488" y1="216" x2="439" y2= "424" />
     <line fill="none" stroke="#96ED79" stroke-width="0.300001" x1="489" y1="216" x2="440" y2= "424" />
     <line fill="none" stroke="#96ED79" stroke-width="0.300001" x1="495" y1="217" x2="446" y2= "425" />
     <line fill="none" stroke="#96ED79" stroke-width="0.300001" x1="499" y1="218" x2="449" y2= "426" />
     <line fill="none" stroke="#96ED79" stroke-width="0.300001" x1="508" y1="220" x2="459" y2= "428" />
     <line fill="none" stroke="#96ED79" stroke-width="0.300001" x1="514" y1="222" x2="465" y2= "430" />
     <line fill="none" stroke="#96ED79" stroke-width="0.300001" x1="518" y1="223" x2="469" y2= "431" />
     <line fill="none" stroke="#96ED79" stroke-width="0.300001" x1="523" y1="224" x2="474" y2= "432" />
     <line fill="none" stroke="#96ED79" stroke-width="0.300001" x1="529" y1="225" x2="479" y2= "433" />
     <line fill="none" stroke="#96ED79" stroke-width="0.300001" x1="532" y1="226" x2="483" y2= "434" />
     <line fill="none" stroke="#96ED79" stroke-width="0.300001" x1="538" y1="227" x2="488" y2= "435" />
     <line fill="none" stroke="#96ED79" stroke-width="0.300001" x1="543" y1="229" x2="494" y2= "437" />
     <line fill="none" stroke="#96ED79" stroke-width="0.300001" x1="547" y1="229" x2="498" y2= "437" />
     <line fill="none" stroke="#96ED79" stroke-width="0.300001" x1="551" y1="230" x2="501" y2= "438" />
     <line fill="none" stroke="#96ED79" stroke-width="0.300001" x1="556" y1="232" x2="507" y2= "440" />
     <line fill="none" stroke="#96ED79" stroke-width="0.300001" x1="560" y1="232" x2="511" y2= "440" />
     <line fill="none" stroke="#96ED79" stroke-width="0.300001" x1="564" y1="234" x2="515" y2= "441" />
     <line fill="none" stroke="#96ED79" stroke-width="0.300001" x1="570" y1="235" x2="521" y2= "443" />
     <line fill="none" stroke="#96ED79" stroke-width="0.300001" x1="573" y1="236" x2="524" y2= "444" />
     <line fill="none" stroke="#96ED79" stroke-width="0.300001" x1="579" y1="237" x2="530" y2= "445" />
     <line fill="none" stroke="#96ED79" stroke-width="0.300001" x1="585" y1="238" x2="536" y2= "446" />
     <line fill="none" stroke="#96ED79" stroke-width="0.300001" x1="588" y1="239" x2="539" y2= "447" />
     <line fill="none" stroke="#96ED79" stroke-width="0.300001" x1="594" y1="241" x2="545" y2= "448" />
     <line fill="none" stroke="#96ED79" stroke-width="0.300001" x1="597" y1="246" x2="232" y2= "160" />
     <line fill="none" stroke="#96ED79" stroke-width="0.300001" x1="596" y1="253" x2="230" y2= "167" />
     <line fill="none" stroke="#96ED79" stroke-width="0.300001" x1="594" y1="258" x2="229" y2= "172" />
     <line fill="none" stroke="#96ED79" stroke-width="0.300001" x1="592" y1="267" x2="227" y2= "180" />
     <line fill="none" stroke="#96ED79" stroke-width="0.300001" x1="591" y1="274" x2="225" y2= "188" />
     <line fill="none" stroke="#96ED79" stroke-width="0.300001" x1="588" y1="285" x2="223" y2= "198" />
     <line fill="none" stroke="#96ED79" stroke-width="0.300001" x1="589" y1="280" x2="224" y2= "194" />
     <line fill="none" stroke="#96ED79" stroke-width="0.300001" x1="586" y1="293" x2="221" y2= "206" />
     <line fill="none" stroke="#96ED79" stroke-width="0.300001" x1="586" y1="293" x2="221" y2= "206" />
     <line fill="none" stroke="#96ED79" stroke-width="0.300001" x1="585" y1="300" x2="219" y2= "214" />
     <line fill="none" stroke="#96ED79" stroke-width="0.300001" x1="583" y1="305" x2="218" y2= "219" />
     <line fill="none" stroke="#96ED79" stroke-width="0.300001" x1="581" y1="314" x2="216" y2= "227" />
     <line fill="none" stroke="#96ED79" stroke-width="0.300001" x1="580" y1="321" x2="214" y2= "235" />
     <line fill="none" stroke="#96ED79" stroke-width="0.300001" x1="577" y1="331" x2="212" y2= "245" />
     <line fill="none" stroke="#96ED79" stroke-width="0.300001" x1="578" y1="327" x2="213" y2= "241" />
     <line fill="none" stroke="#96ED79" stroke-width="0.300001" x1="575" y1="340" x2="210" y2= "253" />
     <line fill="none" stroke="#96ED79" stroke-width="0.300001" x1="575" y1="342" x2="209" y2= "256" />
     <line fill="none" stroke="#96ED79" stroke-width="0.300001" x1="573" y1="350" x2="208" y2= "263" />
     <line fill="none" stroke="#96ED79" stroke-width="0.300001" x1="572" y1="354" x2="206" y2= "268" />
     <line fill="none" stroke="#96ED79" stroke-width="0.300001" x1="570" y1="363" x2="204" y2= "277" />
     <line fill="none" stroke="#96ED79" stroke-width="0.300001" x1="568" y1="370" x2="203" y2= "284" />
     <line fill="none" stroke="#96ED79" stroke-width="0.300001" x1="566" y1="381" x2="200" y2= "294" />
     <line fill="none" stroke="#96ED79" stroke-width="0.300001" x1="567" y1="376" x2="201" y2= "290" />
     <line fill="none" stroke="#96ED79" stroke-width="0.300001" x1="564" y1="389" x2="198" y2= "303" />
     <line fill="none" stroke="#96ED79" stroke-width="0.300001" x1="562" y1="396" x2="197" y2= "310" />
     <line fill="none" stroke="#96ED79" stroke-width="0.300001" x1="560" y1="404" x2="195" y2= "317" />
     <line fill="none" stroke="#96ED79" stroke-width="0.300001" x1="559" y1="408" x2="194" y2= "322" />
     <line fill="none" stroke="#96ED79" stroke-width="0.300001" x1="557" y1="417" x2="192" y2= "331" />
     <line fill="none" stroke="#96ED79" stroke-width="0.300001" x1="556" y1="424" x2="190" y2= "338" />
     <line fill="none" stroke="#96ED79" stroke-width="0.300001" x1="553" y1="435" x2="188" y2= "348" />
     <line fill="none" stroke="#96ED79" stroke-width="0.300001" x1="554" y1="430" x2="189" y2= "344" />
     <line fill="none" stroke="#96ED79" stroke-width="0.300001" x1="551" y1="443" x2="186" y2= "357" />
    </g>
   </g>
   <path fill="white" fill-rule="nonzero" d="M550 332c4,0 6,3 5,7 -1,3 -4,5 -7,4l-304 -70c-3,0 -5,-4 -4,-7 0,-3 3,-5 7,-4l303 70z"/>
  </g>
 </g>
 <g id="landmarks-mz8">
  <metadata id="CorelCorpID_1Corel-Layer"/>
  <polygon id="m8lote2" fill="#35AD0E" points="457,347 490,355 475,423 441,415 "/>
  <polygon id="m8lote2A" fill="#35AD0E" points="422,339 455,347 439,415 406,408 "/>
  <polygon id="m8lote3" fill="#35AD0E" points="420,339 387,331 371,399 404,407 "/>
  <polygon id="m8lote3A" fill="#35AD0E" points="351,323 385,331 369,399 336,391 "/>
  <polygon id="m8lote4" fill="#35AD0E" points="350,322 316,315 300,383 334,390 "/>
  <polygon id="m8lote4A" fill="#35AD0E" points="314,314 281,307 265,375 299,382 "/>
  <polygon id="m8lote5" fill="#35AD0E" points="279,306 246,298 230,367 264,374 "/>
  <polygon id="m8lote5A" fill="#35AD0E" points="244,298 211,290 195,358 228,366 "/>
  <polygon id="m8lote6" fill="#35AD0E" points="274,171 240,163 225,232 258,239 "/>
  <polygon id="m8lote6A" fill="#35AD0E" points="309,179 276,172 260,240 293,247 "/>
  <path id="m8lote7" fill="#35AD0E" d="M344 187l-33 -7 -16 68 33 8c0,0 16,-69 16,-69z"/>
  <polygon id="m8lote7A" fill="#35AD0E" points="379,196 346,188 330,256 363,264 "/>
  <polygon id="m8lote8" fill="#35AD0E" points="414,204 381,196 365,264 398,272 "/>
  <polygon id="m8lote8A" fill="#35AD0E" points="449,212 416,204 400,272 433,280 "/>
  <polygon id="m8lote9" fill="#35AD0E" points="485,220 451,212 435,281 469,289 "/>
  <polygon id="m8lote9A" fill="#35AD0E" points="520,228 486,220 470,289 503,297 "/>
  <polygon id="m8lote10" fill="#35AD0E" points="555,237 521,229 505,297 538,305 "/>
  <polygon id="m8lote10A" fill="#35AD0E" points="557,237 590,245 574,313 540,305 "/>
  <polygon id="m8lote1" fill="#35AD0E" points="527,364 561,372 545,440 511,432 "/>
  <polygon id="m8lote1A" fill="#35AD0E" points="526,364 492,356 476,424 510,431 "/>
 </g>
</svg>
