<?xml version="1.0" encoding="UTF-8"?>
<!DOCTYPE svg PUBLIC "-//W3C//DTD SVG 1.1//EN" "http://www.w3.org/Graphics/SVG/1.1/DTD/svg11.dtd">
<!-- Creator: CorelDRAW X7 -->
<svg xmlns="http://www.w3.org/2000/svg" xml:space="preserve" width="800px" height="600px" version="1.1" shape-rendering="geometricPrecision" text-rendering="geometricPrecision" image-rendering="optimizeQuality" fill-rule="evenodd" clip-rule="evenodd"
viewBox="0 0 800 600"
 xmlns:xlink="http://www.w3.org/1999/xlink">
 <g id="base">
  <metadata id="CorelCorpID_0Corel-Layer"/>
  <g id="_478123240">
   <polygon fill="#35AD0E" points="145,63 742,203 662,543 66,404 "/>
   <g>
    <polygon fill="#63D13E" points="134,48 738,191 658,535 53,394 "/>
    <g>
     <line fill="none" stroke="#96ED79" stroke-width="0.300001" x1="142" y1="50" x2="60" y2= "396" />
     <line fill="none" stroke="#96ED79" stroke-width="0.300001" x1="151" y1="53" x2="69" y2= "398" />
     <line fill="none" stroke="#96ED79" stroke-width="0.300001" x1="157" y1="54" x2="75" y2= "399" />
     <line fill="none" stroke="#96ED79" stroke-width="0.300001" x1="167" y1="56" x2="85" y2= "402" />
     <line fill="none" stroke="#96ED79" stroke-width="0.300001" x1="176" y1="59" x2="95" y2= "404" />
     <line fill="none" stroke="#96ED79" stroke-width="0.300001" x1="182" y1="60" x2="101" y2= "405" />
     <line fill="none" stroke="#96ED79" stroke-width="0.300001" x1="184" y1="60" x2="103" y2= "406" />
     <line fill="none" stroke="#96ED79" stroke-width="0.300001" x1="193" y1="63" x2="112" y2= "408" />
     <line fill="none" stroke="#96ED79" stroke-width="0.300001" x1="199" y1="64" x2="118" y2= "409" />
     <line fill="none" stroke="#96ED79" stroke-width="0.300001" x1="216" y1="68" x2="134" y2= "413" />
     <line fill="none" stroke="#96ED79" stroke-width="0.300001" x1="225" y1="70" x2="143" y2= "415" />
     <line fill="none" stroke="#96ED79" stroke-width="0.300001" x1="231" y1="71" x2="149" y2= "417" />
     <line fill="none" stroke="#96ED79" stroke-width="0.300001" x1="240" y1="74" x2="158" y2= "419" />
     <line fill="none" stroke="#96ED79" stroke-width="0.300001" x1="249" y1="76" x2="167" y2= "421" />
     <line fill="none" stroke="#96ED79" stroke-width="0.300001" x1="255" y1="77" x2="173" y2= "422" />
     <line fill="none" stroke="#96ED79" stroke-width="0.300001" x1="264" y1="79" x2="182" y2= "424" />
     <line fill="none" stroke="#96ED79" stroke-width="0.300001" x1="273" y1="81" x2="191" y2= "426" />
     <line fill="none" stroke="#96ED79" stroke-width="0.300001" x1="279" y1="83" x2="197" y2= "428" />
     <line fill="none" stroke="#96ED79" stroke-width="0.300001" x1="285" y1="84" x2="204" y2= "429" />
     <line fill="none" stroke="#96ED79" stroke-width="0.300001" x1="295" y1="86" x2="213" y2= "431" />
     <line fill="none" stroke="#96ED79" stroke-width="0.300001" x1="301" y1="88" x2="219" y2= "433" />
     <line fill="none" stroke="#96ED79" stroke-width="0.300001" x1="308" y1="90" x2="226" y2= "435" />
     <line fill="none" stroke="#96ED79" stroke-width="0.300001" x1="317" y1="92" x2="235" y2= "437" />
     <line fill="none" stroke="#96ED79" stroke-width="0.300001" x1="323" y1="93" x2="241" y2= "438" />
     <line fill="none" stroke="#96ED79" stroke-width="0.300001" x1="332" y1="95" x2="251" y2= "440" />
     <line fill="none" stroke="#96ED79" stroke-width="0.300001" x1="342" y1="98" x2="260" y2= "442" />
     <line fill="none" stroke="#96ED79" stroke-width="0.300001" x1="348" y1="99" x2="266" y2= "444" />
     <line fill="none" stroke="#96ED79" stroke-width="0.300001" x1="318" y1="92" x2="237" y2= "437" />
     <line fill="none" stroke="#96ED79" stroke-width="0.300001" x1="327" y1="94" x2="246" y2= "439" />
     <line fill="none" stroke="#96ED79" stroke-width="0.300001" x1="333" y1="96" x2="252" y2= "441" />
     <line fill="none" stroke="#96ED79" stroke-width="0.300001" x1="344" y1="98" x2="262" y2= "443" />
     <line fill="none" stroke="#96ED79" stroke-width="0.300001" x1="353" y1="100" x2="271" y2= "445" />
     <line fill="none" stroke="#96ED79" stroke-width="0.300001" x1="359" y1="102" x2="277" y2= "446" />
     <line fill="none" stroke="#96ED79" stroke-width="0.300001" x1="361" y1="102" x2="279" y2= "447" />
     <line fill="none" stroke="#96ED79" stroke-width="0.300001" x1="370" y1="104" x2="288" y2= "449" />
     <line fill="none" stroke="#96ED79" stroke-width="0.300001" x1="376" y1="106" x2="294" y2= "450" />
     <line fill="none" stroke="#96ED79" stroke-width="0.300001" x1="392" y1="110" x2="311" y2= "454" />
     <line fill="none" stroke="#96ED79" stroke-width="0.300001" x1="401" y1="112" x2="320" y2= "456" />
     <line fill="none" stroke="#96ED79" stroke-width="0.300001" x1="407" y1="113" x2="326" y2= "458" />
     <line fill="none" stroke="#96ED79" stroke-width="0.300001" x1="416" y1="115" x2="335" y2= "460" />
     <line fill="none" stroke="#96ED79" stroke-width="0.300001" x1="425" y1="118" x2="344" y2= "462" />
     <line fill="none" stroke="#96ED79" stroke-width="0.300001" x1="431" y1="123" x2="350" y2= "463" />
     <line fill="none" stroke="#96ED79" stroke-width="0.300001" x1="440" y1="121" x2="359" y2= "465" />
     <line fill="none" stroke="#96ED79" stroke-width="0.300001" x1="449" y1="124" x2="368" y2= "468" />
     <line fill="none" stroke="#96ED79" stroke-width="0.300001" x1="455" y1="128" x2="374" y2= "469" />
     <line fill="none" stroke="#96ED79" stroke-width="0.300001" x1="462" y1="126" x2="380" y2= "471" />
     <line fill="none" stroke="#96ED79" stroke-width="0.300001" x1="470" y1="132" x2="390" y2= "473" />
     <line fill="none" stroke="#96ED79" stroke-width="0.300001" x1="475" y1="137" x2="396" y2= "474" />
     <line fill="none" stroke="#96ED79" stroke-width="0.300001" x1="484" y1="131" x2="403" y2= "476" />
     <line fill="none" stroke="#96ED79" stroke-width="0.300001" x1="493" y1="133" x2="412" y2= "478" />
     <line fill="none" stroke="#96ED79" stroke-width="0.300001" x1="499" y1="135" x2="418" y2= "479" />
     <line fill="none" stroke="#96ED79" stroke-width="0.300001" x1="509" y1="137" x2="428" y2= "482" />
     <line fill="none" stroke="#96ED79" stroke-width="0.300001" x1="518" y1="139" x2="437" y2= "484" />
     <line fill="none" stroke="#96ED79" stroke-width="0.300001" x1="524" y1="141" x2="443" y2= "485" />
     <line fill="none" stroke="#96ED79" stroke-width="0.300001" x1="516" y1="139" x2="434" y2= "483" />
     <line fill="none" stroke="#96ED79" stroke-width="0.300001" x1="525" y1="141" x2="443" y2= "485" />
     <line fill="none" stroke="#96ED79" stroke-width="0.300001" x1="531" y1="142" x2="449" y2= "487" />
     <line fill="none" stroke="#96ED79" stroke-width="0.300001" x1="541" y1="145" x2="460" y2= "489" />
     <line fill="none" stroke="#96ED79" stroke-width="0.300001" x1="550" y1="147" x2="469" y2= "491" />
     <line fill="none" stroke="#96ED79" stroke-width="0.300001" x1="556" y1="148" x2="475" y2= "493" />
     <line fill="none" stroke="#96ED79" stroke-width="0.300001" x1="558" y1="149" x2="477" y2= "493" />
     <line fill="none" stroke="#96ED79" stroke-width="0.300001" x1="567" y1="151" x2="486" y2= "495" />
     <line fill="none" stroke="#96ED79" stroke-width="0.300001" x1="573" y1="152" x2="492" y2= "497" />
     <line fill="none" stroke="#96ED79" stroke-width="0.300001" x1="590" y1="156" x2="508" y2= "500" />
     <line fill="none" stroke="#96ED79" stroke-width="0.300001" x1="599" y1="158" x2="517" y2= "502" />
     <line fill="none" stroke="#96ED79" stroke-width="0.300001" x1="605" y1="160" x2="523" y2= "504" />
     <line fill="none" stroke="#96ED79" stroke-width="0.300001" x1="614" y1="162" x2="532" y2= "506" />
     <line fill="none" stroke="#96ED79" stroke-width="0.300001" x1="623" y1="164" x2="542" y2= "508" />
     <line fill="none" stroke="#96ED79" stroke-width="0.300001" x1="629" y1="165" x2="548" y2= "510" />
     <line fill="none" stroke="#96ED79" stroke-width="0.300001" x1="638" y1="168" x2="556" y2= "512" />
     <line fill="none" stroke="#96ED79" stroke-width="0.300001" x1="647" y1="170" x2="566" y2= "514" />
     <line fill="none" stroke="#96ED79" stroke-width="0.300001" x1="653" y1="171" x2="572" y2= "515" />
     <line fill="none" stroke="#96ED79" stroke-width="0.300001" x1="659" y1="173" x2="578" y2= "517" />
     <line fill="none" stroke="#96ED79" stroke-width="0.300001" x1="668" y1="175" x2="587" y2= "519" />
     <line fill="none" stroke="#96ED79" stroke-width="0.300001" x1="674" y1="176" x2="593" y2= "520" />
     <line fill="none" stroke="#96ED79" stroke-width="0.300001" x1="682" y1="178" x2="600" y2= "522" />
     <line fill="none" stroke="#96ED79" stroke-width="0.300001" x1="691" y1="180" x2="610" y2= "524" />
     <line fill="none" stroke="#96ED79" stroke-width="0.300001" x1="697" y1="182" x2="616" y2= "525" />
     <line fill="none" stroke="#96ED79" stroke-width="0.300001" x1="706" y1="184" x2="625" y2= "528" />
     <line fill="none" stroke="#96ED79" stroke-width="0.300001" x1="716" y1="186" x2="634" y2= "530" />
     <line fill="none" stroke="#96ED79" stroke-width="0.300001" x1="722" y1="187" x2="640" y2= "531" />
     <line fill="none" stroke="#96ED79" stroke-width="0.300001" x1="731" y1="190" x2="650" y2= "533" />
     <line fill="none" stroke="#96ED79" stroke-width="0.300001" x1="736" y1="198" x2="132" y2= "56" />
     <line fill="none" stroke="#96ED79" stroke-width="0.300001" x1="734" y1="211" x2="129" y2= "68" />
     <line fill="none" stroke="#96ED79" stroke-width="0.300001" x1="732" y1="219" x2="127" y2= "76" />
     <line fill="none" stroke="#96ED79" stroke-width="0.300001" x1="728" y1="233" x2="124" y2= "90" />
     <line fill="none" stroke="#96ED79" stroke-width="0.300001" x1="725" y1="245" x2="121" y2= "102" />
     <line fill="none" stroke="#96ED79" stroke-width="0.300001" x1="721" y1="262" x2="117" y2= "120" />
     <line fill="none" stroke="#96ED79" stroke-width="0.300001" x1="723" y1="255" x2="119" y2= "112" />
     <line fill="none" stroke="#96ED79" stroke-width="0.300001" x1="718" y1="276" x2="114" y2= "133" />
     <line fill="none" stroke="#96ED79" stroke-width="0.300001" x1="718" y1="276" x2="114" y2= "133" />
     <line fill="none" stroke="#96ED79" stroke-width="0.300001" x1="715" y1="288" x2="111" y2= "145" />
     <line fill="none" stroke="#96ED79" stroke-width="0.300001" x1="713" y1="296" x2="109" y2= "154" />
     <line fill="none" stroke="#96ED79" stroke-width="0.300001" x1="710" y1="311" x2="106" y2= "168" />
     <line fill="none" stroke="#96ED79" stroke-width="0.300001" x1="707" y1="323" x2="103" y2= "180" />
     <line fill="none" stroke="#96ED79" stroke-width="0.300001" x1="703" y1="340" x2="99" y2= "197" />
     <line fill="none" stroke="#96ED79" stroke-width="0.300001" x1="705" y1="333" x2="101" y2= "190" />
     <line fill="none" stroke="#96ED79" stroke-width="0.300001" x1="700" y1="354" x2="96" y2= "211" />
     <line fill="none" stroke="#96ED79" stroke-width="0.300001" x1="699" y1="358" x2="95" y2= "215" />
     <line fill="none" stroke="#96ED79" stroke-width="0.300001" x1="696" y1="370" x2="92" y2= "227" />
     <line fill="none" stroke="#96ED79" stroke-width="0.300001" x1="694" y1="378" x2="90" y2= "235" />
     <line fill="none" stroke="#96ED79" stroke-width="0.300001" x1="691" y1="392" x2="87" y2= "249" />
     <line fill="none" stroke="#96ED79" stroke-width="0.300001" x1="688" y1="404" x2="84" y2= "261" />
     <line fill="none" stroke="#96ED79" stroke-width="0.300001" x1="684" y1="421" x2="80" y2= "279" />
     <line fill="none" stroke="#96ED79" stroke-width="0.300001" x1="686" y1="414" x2="81" y2= "271" />
     <line fill="none" stroke="#96ED79" stroke-width="0.300001" x1="681" y1="435" x2="77" y2= "292" />
     <line fill="none" stroke="#96ED79" stroke-width="0.300001" x1="678" y1="447" x2="74" y2= "304" />
     <line fill="none" stroke="#96ED79" stroke-width="0.300001" x1="675" y1="459" x2="71" y2= "316" />
     <line fill="none" stroke="#96ED79" stroke-width="0.300001" x1="673" y1="467" x2="69" y2= "324" />
     <line fill="none" stroke="#96ED79" stroke-width="0.300001" x1="670" y1="481" x2="66" y2= "339" />
     <line fill="none" stroke="#96ED79" stroke-width="0.300001" x1="667" y1="493" x2="63" y2= "351" />
     <line fill="none" stroke="#96ED79" stroke-width="0.300001" x1="663" y1="511" x2="59" y2= "368" />
     <line fill="none" stroke="#96ED79" stroke-width="0.300001" x1="665" y1="503" x2="61" y2= "361" />
     <line fill="none" stroke="#96ED79" stroke-width="0.300001" x1="660" y1="524" x2="56" y2= "382" />
    </g>
   </g>
   <path fill="white" fill-rule="nonzero" d="M659 340c5,1 8,7 7,12 -1,5 -6,8 -11,7l-503 -115c-5,-1 -8,-7 -7,-12 1,-5 6,-8 11,-7l503 115z"/>
  </g>
 </g>
 <g id="landmarks-mz9">
  <metadata id="CorelCorpID_1Corel-Layer"/>
  <polygon id="m9lote2" fill="#35AD0E" points="503,369 558,381 532,495 476,482 "/>
  <polygon id="m9lote2A" fill="#35AD0E" points="445,355 500,368 473,481 418,469 "/>
  <polygon id="m9lote3" fill="#35AD0E" points="442,355 386,342 359,455 415,468 "/>
  <polygon id="m9lote3A" fill="#35AD0E" points="327,328 383,341 357,454 301,442 "/>
  <polygon id="m9lote4" fill="#35AD0E" points="324,327 269,314 242,428 298,440 "/>
  <polygon id="m9lote4A" fill="#35AD0E" points="266,314 210,301 184,414 240,427 "/>
  <polygon id="m9lote5" fill="#35AD0E" points="207,300 152,288 126,401 181,414 "/>
  <polygon id="m9lote5A" fill="#35AD0E" points="150,287 94,274 68,387 123,401 "/>
  <polygon id="m9lote6" fill="#35AD0E" points="198,76 143,63 117,177 172,190 "/>
  <polygon id="m9lote6A" fill="#35AD0E" points="256,89 201,77 175,190 231,203 "/>
  <path id="m9lote7" fill="#35AD0E" d="M315 103l-56 -13 -26 114 55 13c0,0 27,-114 27,-114z"/>
  <polygon id="m9lote7A" fill="#35AD0E" points="373,117 318,104 291,218 347,231 "/>
  <polygon id="m9lote8" fill="#35AD0E" points="432,130 376,117 350,231 405,244 "/>
  <polygon id="m9lote8A" fill="#35AD0E" points="490,144 434,131 408,244 463,258 "/>
  <polygon id="m9lote9" fill="#35AD0E" points="548,158 493,145 466,258 522,271 "/>
  <polygon id="m9lote9A" fill="#35AD0E" points="606,171 551,158 524,272 580,285 "/>
  <polygon id="m9lote10" fill="#35AD0E" points="665,185 609,172 583,286 638,299 "/>
  <polygon id="m9lote10A" fill="#35AD0E" points="668,186 723,198 697,312 641,299 "/>
  <polygon id="m9lote1" fill="#35AD0E" points="620,396 675,409 649,522 593,509 "/>
  <polygon id="m9lote1A" fill="#35AD0E" points="617,396 560,383 535,495 590,508 "/>
 </g>
</svg>
