<?xml version="1.0" encoding="UTF-8"?>
<!DOCTYPE svg PUBLIC "-//W3C//DTD SVG 1.1//EN" "http://www.w3.org/Graphics/SVG/1.1/DTD/svg11.dtd">
<!-- Creator: CorelDRAW X8 -->
<svg xmlns="http://www.w3.org/2000/svg" xml:space="preserve" width="800px" height="600px" version="1.1" shape-rendering="geometricPrecision" text-rendering="geometricPrecision" image-rendering="optimizeQuality" fill-rule="evenodd" clip-rule="evenodd"
viewBox="0 0 800 600"
 xmlns:xlink="http://www.w3.org/1999/xlink">
 <g id="base">
  <metadata id="CorelCorpID_0Corel-Layer"/>
  <g id="_2070014180912">
   <polygon fill="#35AD0E" points="248,157 602,241 555,442 200,360 "/>
   <g>
    <polygon fill="#63D13E" points="241,149 599,234 552,438 193,354 "/>
    <g>
     <line fill="none" stroke="#96ED79" stroke-width="0.300001" x1="246" y1="150" x2="197" y2= "355" />
     <line fill="none" stroke="#96ED79" stroke-width="0.300001" x1="251" y1="151" x2="203" y2= "356" />
     <line fill="none" stroke="#96ED79" stroke-width="0.300001" x1="255" y1="152" x2="206" y2= "357" />
     <line fill="none" stroke="#96ED79" stroke-width="0.300001" x1="261" y1="154" x2="212" y2= "359" />
     <line fill="none" stroke="#96ED79" stroke-width="0.300001" x1="266" y1="155" x2="218" y2= "360" />
     <line fill="none" stroke="#96ED79" stroke-width="0.300001" x1="270" y1="156" x2="221" y2= "361" />
     <line fill="none" stroke="#96ED79" stroke-width="0.300001" x1="271" y1="156" x2="222" y2= "361" />
     <line fill="none" stroke="#96ED79" stroke-width="0.300001" x1="276" y1="157" x2="228" y2= "362" />
     <line fill="none" stroke="#96ED79" stroke-width="0.300001" x1="280" y1="158" x2="231" y2= "363" />
     <line fill="none" stroke="#96ED79" stroke-width="0.300001" x1="290" y1="160" x2="241" y2= "365" />
     <line fill="none" stroke="#96ED79" stroke-width="0.300001" x1="295" y1="162" x2="247" y2= "367" />
     <line fill="none" stroke="#96ED79" stroke-width="0.300001" x1="299" y1="163" x2="250" y2= "367" />
     <line fill="none" stroke="#96ED79" stroke-width="0.300001" x1="304" y1="164" x2="255" y2= "369" />
     <line fill="none" stroke="#96ED79" stroke-width="0.300001" x1="309" y1="165" x2="261" y2= "370" />
     <line fill="none" stroke="#96ED79" stroke-width="0.300001" x1="313" y1="166" x2="264" y2= "371" />
     <line fill="none" stroke="#96ED79" stroke-width="0.300001" x1="318" y1="167" x2="270" y2= "372" />
     <line fill="none" stroke="#96ED79" stroke-width="0.300001" x1="324" y1="169" x2="275" y2= "373" />
     <line fill="none" stroke="#96ED79" stroke-width="0.300001" x1="327" y1="169" x2="279" y2= "374" />
     <line fill="none" stroke="#96ED79" stroke-width="0.300001" x1="331" y1="170" x2="282" y2= "375" />
     <line fill="none" stroke="#96ED79" stroke-width="0.300001" x1="336" y1="172" x2="288" y2= "376" />
     <line fill="none" stroke="#96ED79" stroke-width="0.300001" x1="340" y1="172" x2="292" y2= "377" />
     <line fill="none" stroke="#96ED79" stroke-width="0.300001" x1="344" y1="173" x2="296" y2= "378" />
     <line fill="none" stroke="#96ED79" stroke-width="0.300001" x1="350" y1="175" x2="301" y2= "379" />
     <line fill="none" stroke="#96ED79" stroke-width="0.300001" x1="353" y1="176" x2="305" y2= "380" />
     <line fill="none" stroke="#96ED79" stroke-width="0.300001" x1="359" y1="177" x2="310" y2= "381" />
     <line fill="none" stroke="#96ED79" stroke-width="0.300001" x1="364" y1="178" x2="316" y2= "383" />
     <line fill="none" stroke="#96ED79" stroke-width="0.300001" x1="368" y1="179" x2="319" y2= "384" />
     <line fill="none" stroke="#96ED79" stroke-width="0.300001" x1="350" y1="175" x2="302" y2= "380" />
     <line fill="none" stroke="#96ED79" stroke-width="0.300001" x1="356" y1="176" x2="307" y2= "381" />
     <line fill="none" stroke="#96ED79" stroke-width="0.300001" x1="359" y1="177" x2="311" y2= "382" />
     <line fill="none" stroke="#96ED79" stroke-width="0.300001" x1="365" y1="178" x2="317" y2= "383" />
     <line fill="none" stroke="#96ED79" stroke-width="0.300001" x1="371" y1="180" x2="323" y2= "384" />
     <line fill="none" stroke="#96ED79" stroke-width="0.300001" x1="374" y1="181" x2="326" y2= "385" />
     <line fill="none" stroke="#96ED79" stroke-width="0.300001" x1="376" y1="181" x2="327" y2= "385" />
     <line fill="none" stroke="#96ED79" stroke-width="0.300001" x1="381" y1="182" x2="333" y2= "387" />
     <line fill="none" stroke="#96ED79" stroke-width="0.300001" x1="385" y1="183" x2="336" y2= "388" />
     <line fill="none" stroke="#96ED79" stroke-width="0.300001" x1="394" y1="185" x2="346" y2= "390" />
     <line fill="none" stroke="#96ED79" stroke-width="0.300001" x1="400" y1="187" x2="351" y2= "391" />
     <line fill="none" stroke="#96ED79" stroke-width="0.300001" x1="403" y1="187" x2="355" y2= "392" />
     <line fill="none" stroke="#96ED79" stroke-width="0.300001" x1="409" y1="189" x2="360" y2= "393" />
     <line fill="none" stroke="#96ED79" stroke-width="0.300001" x1="414" y1="191" x2="366" y2= "394" />
     <line fill="none" stroke="#96ED79" stroke-width="0.300001" x1="417" y1="193" x2="369" y2= "395" />
     <line fill="none" stroke="#96ED79" stroke-width="0.300001" x1="423" y1="192" x2="374" y2= "396" />
     <line fill="none" stroke="#96ED79" stroke-width="0.300001" x1="428" y1="194" x2="380" y2= "398" />
     <line fill="none" stroke="#96ED79" stroke-width="0.300001" x1="431" y1="196" x2="384" y2= "399" />
     <line fill="none" stroke="#96ED79" stroke-width="0.300001" x1="436" y1="195" x2="387" y2= "399" />
     <line fill="none" stroke="#96ED79" stroke-width="0.300001" x1="441" y1="199" x2="393" y2= "401" />
     <line fill="none" stroke="#96ED79" stroke-width="0.300001" x1="444" y1="201" x2="396" y2= "402" />
     <line fill="none" stroke="#96ED79" stroke-width="0.300001" x1="449" y1="198" x2="401" y2= "403" />
     <line fill="none" stroke="#96ED79" stroke-width="0.300001" x1="454" y1="199" x2="406" y2= "404" />
     <line fill="none" stroke="#96ED79" stroke-width="0.300001" x1="458" y1="200" x2="410" y2= "405" />
     <line fill="none" stroke="#96ED79" stroke-width="0.300001" x1="464" y1="202" x2="415" y2= "406" />
     <line fill="none" stroke="#96ED79" stroke-width="0.300001" x1="469" y1="203" x2="421" y2= "407" />
     <line fill="none" stroke="#96ED79" stroke-width="0.300001" x1="473" y1="204" x2="424" y2= "408" />
     <line fill="none" stroke="#96ED79" stroke-width="0.300001" x1="467" y1="203" x2="419" y2= "407" />
     <line fill="none" stroke="#96ED79" stroke-width="0.300001" x1="473" y1="204" x2="425" y2= "408" />
     <line fill="none" stroke="#96ED79" stroke-width="0.300001" x1="476" y1="205" x2="428" y2= "409" />
     <line fill="none" stroke="#96ED79" stroke-width="0.300001" x1="483" y1="206" x2="434" y2= "410" />
     <line fill="none" stroke="#96ED79" stroke-width="0.300001" x1="488" y1="207" x2="440" y2= "412" />
     <line fill="none" stroke="#96ED79" stroke-width="0.300001" x1="492" y1="208" x2="443" y2= "412" />
     <line fill="none" stroke="#96ED79" stroke-width="0.300001" x1="493" y1="208" x2="444" y2= "413" />
     <line fill="none" stroke="#96ED79" stroke-width="0.300001" x1="498" y1="210" x2="450" y2= "414" />
     <line fill="none" stroke="#96ED79" stroke-width="0.300001" x1="502" y1="211" x2="453" y2= "415" />
     <line fill="none" stroke="#96ED79" stroke-width="0.300001" x1="511" y1="213" x2="463" y2= "417" />
     <line fill="none" stroke="#96ED79" stroke-width="0.300001" x1="517" y1="214" x2="469" y2= "418" />
     <line fill="none" stroke="#96ED79" stroke-width="0.300001" x1="520" y1="215" x2="472" y2= "419" />
     <line fill="none" stroke="#96ED79" stroke-width="0.300001" x1="526" y1="216" x2="477" y2= "420" />
     <line fill="none" stroke="#96ED79" stroke-width="0.300001" x1="531" y1="218" x2="483" y2= "422" />
     <line fill="none" stroke="#96ED79" stroke-width="0.300001" x1="535" y1="218" x2="486" y2= "423" />
     <line fill="none" stroke="#96ED79" stroke-width="0.300001" x1="540" y1="220" x2="492" y2= "424" />
     <line fill="none" stroke="#96ED79" stroke-width="0.300001" x1="545" y1="221" x2="497" y2= "425" />
     <line fill="none" stroke="#96ED79" stroke-width="0.300001" x1="549" y1="222" x2="501" y2= "426" />
     <line fill="none" stroke="#96ED79" stroke-width="0.300001" x1="553" y1="223" x2="504" y2= "427" />
     <line fill="none" stroke="#96ED79" stroke-width="0.300001" x1="558" y1="224" x2="510" y2= "428" />
     <line fill="none" stroke="#96ED79" stroke-width="0.300001" x1="562" y1="225" x2="513" y2= "429" />
     <line fill="none" stroke="#96ED79" stroke-width="0.300001" x1="566" y1="226" x2="518" y2= "430" />
     <line fill="none" stroke="#96ED79" stroke-width="0.300001" x1="571" y1="227" x2="523" y2= "431" />
     <line fill="none" stroke="#96ED79" stroke-width="0.300001" x1="575" y1="228" x2="527" y2= "432" />
     <line fill="none" stroke="#96ED79" stroke-width="0.300001" x1="581" y1="229" x2="532" y2= "433" />
     <line fill="none" stroke="#96ED79" stroke-width="0.300001" x1="586" y1="231" x2="538" y2= "435" />
     <line fill="none" stroke="#96ED79" stroke-width="0.300001" x1="590" y1="231" x2="541" y2= "435" />
     <line fill="none" stroke="#96ED79" stroke-width="0.300001" x1="595" y1="233" x2="547" y2= "437" />
     <line fill="none" stroke="#96ED79" stroke-width="0.300001" x1="598" y1="238" x2="240" y2= "153" />
     <line fill="none" stroke="#96ED79" stroke-width="0.300001" x1="597" y1="245" x2="238" y2= "160" />
     <line fill="none" stroke="#96ED79" stroke-width="0.300001" x1="596" y1="250" x2="237" y2= "165" />
     <line fill="none" stroke="#96ED79" stroke-width="0.300001" x1="594" y1="259" x2="235" y2= "174" />
     <line fill="none" stroke="#96ED79" stroke-width="0.300001" x1="592" y1="266" x2="233" y2= "181" />
     <line fill="none" stroke="#96ED79" stroke-width="0.300001" x1="590" y1="276" x2="231" y2= "191" />
     <line fill="none" stroke="#96ED79" stroke-width="0.300001" x1="591" y1="272" x2="232" y2= "187" />
     <line fill="none" stroke="#96ED79" stroke-width="0.300001" x1="588" y1="284" x2="229" y2= "199" />
     <line fill="none" stroke="#96ED79" stroke-width="0.300001" x1="588" y1="284" x2="229" y2= "199" />
     <line fill="none" stroke="#96ED79" stroke-width="0.300001" x1="586" y1="291" x2="227" y2= "207" />
     <line fill="none" stroke="#96ED79" stroke-width="0.300001" x1="585" y1="296" x2="226" y2= "211" />
     <line fill="none" stroke="#96ED79" stroke-width="0.300001" x1="583" y1="305" x2="224" y2= "220" />
     <line fill="none" stroke="#96ED79" stroke-width="0.300001" x1="581" y1="312" x2="223" y2= "227" />
     <line fill="none" stroke="#96ED79" stroke-width="0.300001" x1="579" y1="322" x2="220" y2= "237" />
     <line fill="none" stroke="#96ED79" stroke-width="0.300001" x1="580" y1="318" x2="221" y2= "233" />
     <line fill="none" stroke="#96ED79" stroke-width="0.300001" x1="577" y1="330" x2="218" y2= "245" />
     <line fill="none" stroke="#96ED79" stroke-width="0.300001" x1="576" y1="332" x2="218" y2= "248" />
     <line fill="none" stroke="#96ED79" stroke-width="0.300001" x1="575" y1="340" x2="216" y2= "255" />
     <line fill="none" stroke="#96ED79" stroke-width="0.300001" x1="574" y1="344" x2="215" y2= "260" />
     <line fill="none" stroke="#96ED79" stroke-width="0.300001" x1="572" y1="353" x2="213" y2= "268" />
     <line fill="none" stroke="#96ED79" stroke-width="0.300001" x1="570" y1="360" x2="211" y2= "275" />
     <line fill="none" stroke="#96ED79" stroke-width="0.300001" x1="568" y1="370" x2="209" y2= "286" />
     <line fill="none" stroke="#96ED79" stroke-width="0.300001" x1="569" y1="366" x2="210" y2= "281" />
     <line fill="none" stroke="#96ED79" stroke-width="0.300001" x1="566" y1="378" x2="207" y2= "294" />
     <line fill="none" stroke="#96ED79" stroke-width="0.300001" x1="564" y1="385" x2="205" y2= "301" />
     <line fill="none" stroke="#96ED79" stroke-width="0.300001" x1="562" y1="393" x2="204" y2= "308" />
     <line fill="none" stroke="#96ED79" stroke-width="0.300001" x1="561" y1="397" x2="203" y2= "313" />
     <line fill="none" stroke="#96ED79" stroke-width="0.300001" x1="559" y1="406" x2="201" y2= "321" />
     <line fill="none" stroke="#96ED79" stroke-width="0.300001" x1="558" y1="413" x2="199" y2= "328" />
     <line fill="none" stroke="#96ED79" stroke-width="0.300001" x1="555" y1="423" x2="196" y2= "338" />
     <line fill="none" stroke="#96ED79" stroke-width="0.300001" x1="556" y1="419" x2="197" y2= "334" />
     <line fill="none" stroke="#96ED79" stroke-width="0.300001" x1="553" y1="431" x2="195" y2= "347" />
    </g>
   </g>
   <path fill="white" fill-rule="nonzero" d="M552 322c4,1 6,4 5,7 -1,3 -4,5 -7,4l-298 -68c-3,-1 -5,-4 -5,-7 1,-3 4,-5 7,-4l298 68z"/>
  </g>
 </g>
 <g id="landmarks-mz9">
  <metadata id="CorelCorpID_1Corel-Layer"/>
  <polygon id="m9lote2" fill="#35AD0E" points="460,339 493,347 477,414 444,406 "/>
  <polygon id="m9lote2A" fill="#35AD0E" points="425,331 458,339 442,406 409,398 "/>
  <polygon id="m9lote3" fill="#35AD0E" points="424,331 390,323 375,390 408,398 "/>
  <polygon id="m9lote3A" fill="#35AD0E" points="356,315 389,323 373,390 340,382 "/>
  <polygon id="m9lote4" fill="#35AD0E" points="354,314 321,307 305,374 338,382 "/>
  <polygon id="m9lote4A" fill="#35AD0E" points="319,307 286,299 271,366 304,373 "/>
  <polygon id="m9lote5" fill="#35AD0E" points="285,298 252,291 236,358 269,366 "/>
  <polygon id="m9lote5A" fill="#35AD0E" points="250,290 217,283 202,350 234,358 "/>
  <polygon id="m9lote6" fill="#35AD0E" points="279,165 246,158 231,225 264,233 "/>
  <polygon id="m9lote6A" fill="#35AD0E" points="314,173 281,166 265,233 298,241 "/>
  <path id="m9lote7" fill="#35AD0E" d="M348 181l-33 -7 -15 67 33 8c0,0 15,-68 15,-68z"/>
  <polygon id="m9lote7A" fill="#35AD0E" points="383,190 350,182 334,249 367,257 "/>
  <polygon id="m9lote8" fill="#35AD0E" points="418,197 385,190 369,257 402,265 "/>
  <polygon id="m9lote8A" fill="#35AD0E" points="452,206 419,198 404,265 436,273 "/>
  <polygon id="m9lote9" fill="#35AD0E" points="487,214 454,206 438,274 471,281 "/>
  <polygon id="m9lote9A" fill="#35AD0E" points="521,222 489,214 473,282 506,289 "/>
  <polygon id="m9lote10" fill="#35AD0E" points="556,230 523,222 507,290 540,297 "/>
  <polygon id="m9lote10A" fill="#35AD0E" points="558,230 590,238 575,305 542,298 "/>
  <polygon id="m9lote1" fill="#35AD0E" points="529,355 562,363 546,430 513,422 "/>
  <polygon id="m9lote1A" fill="#35AD0E" points="528,355 494,347 479,414 512,422 "/>
 </g>
</svg>
